<svg xmlns="http://www.w3.org/2000/svg" width="125.15" height="35.381" viewBox="0 0 125.15 35.381">
    <g data-name="Grupo 666">
        <path data-name="Rectángulo 346" transform="translate(29.152 .281)" style="fill:#606060" d="M0 0h4.436v15.094H0z"/>
        <path data-name="Trazado 1456" d="M970.83 194.072c-.553 3.156-2.869 5.246-7.012 5.246-4.944 0-7.332-3.337-7.332-7.717 0-4.274 2.36-7.939 7.546-7.939 4.436 0 6.456 2.579 6.753 5.192H966.4a2.293 2.293 0 0 0-2.465-2.084c-2.15 0-2.883 2.041-2.883 4.676 0 2.393.611 4.756 2.932 4.756a2.368 2.368 0 0 0 2.439-2.13z" transform="translate(-920.498 -183.662)" style="fill:#606060"/>
        <path data-name="Trazado 1457" d="M984.035 192.928h-6.876v2.83h7.675l-.493 3.278H972.9v-15.094h11.425v3.278h-7.168v2.43h6.876z" transform="translate(-920.498 -183.662)" style="fill:#606060"/>
        <path data-name="Trazado 1458" d="M986.792 183.942h7.508c3.64 0 5.245 1.8 5.245 3.926a3.355 3.355 0 0 1-2.056 3.258 3.555 3.555 0 0 1 2.472 3.413c0 2.474-1.848 4.5-5.613 4.5h-7.56zm6.762 5.82c1.218 0 1.709-.627 1.709-1.445 0-.936-.68-1.4-1.742-1.4h-2.436v2.84zm-2.469 6.3h2.261c1.455 0 2.073-.632 2.073-1.712 0-.949-.585-1.619-1.991-1.619h-2.343z" transform="translate(-920.498 -183.662)" style="fill:#606060"/>
        <path data-name="Trazado 1459" d="M1013.213 192.928h-6.876v2.83h7.675l-.493 3.278h-11.439v-15.094h11.42v3.278h-7.168v2.43h6.876z" transform="translate(-920.498 -183.662)" style="fill:#606060"/>
        <path data-name="Trazado 1460" d="M1020.264 193.333v5.7h-4.294v-15.1h7.479c3.555 0 5.275 1.9 5.275 4.18a3.654 3.654 0 0 1-2.266 3.581c.952.332 1.968 1.338 1.968 3.9v.628a14.243 14.243 0 0 0 .2 2.811h-4.216a10.374 10.374 0 0 1-.32-3.3v-.39c0-1.3-.311-2.018-2.263-2.018zm0-3.082h2.046c1.473 0 2.01-.613 2.01-1.628s-.637-1.6-1.989-1.6h-2.067z" transform="translate(-920.498 -183.662)" style="fill:#606060"/>
        <path data-name="Trazado 1461" d="M1045.082 199.037h-2.971a11.28 11.28 0 0 1-.279-1.374c-.853 1.124-2.319 1.683-4.416 1.683-4.623 0-6.953-3.494-6.953-7.682 0-4.629 2.7-8 7.728-8 4.56 0 6.653 2.6 6.927 4.923h-4.382a2.338 2.338 0 0 0-2.566-1.808c-2.525 0-3.146 2.32-3.146 4.734 0 2.384.72 4.691 3.159 4.691a2.4 2.4 0 0 0 2.621-2.629v-.1h-2.767v-3.093h7.045z" transform="translate(-920.498 -183.662)" style="fill:#606060"/>
        <path data-name="Trazado 1462" d="M924.8 214.19c.252 1.315 1.173 1.87 2.6 1.87 1.339 0 1.955-.469 1.955-1.345 0-.992-.669-1.369-3.054-1.938-4.453-1.079-5.34-2.7-5.34-4.737 0-2.532 1.861-4.653 6.062-4.653 4.369 0 6.152 2.216 6.364 4.6h-4.273c-.117-.81-.532-1.634-2.1-1.634-1.013 0-1.635.381-1.635 1.2s.553 1.136 2.881 1.707c4.651 1.16 5.575 2.836 5.575 4.983 0 2.835-2.187 4.8-6.618 4.8-4.175 0-6.387-1.949-6.721-4.853z" transform="translate(-920.498 -183.662)" style="fill:#606060"/>
        <path data-name="Trazado 1463" d="M950.154 211.2c0 4.27-2.572 7.841-7.742 7.841-5.077 0-7.531-3.549-7.531-7.821 0-4.343 2.691-7.835 7.758-7.835 4.757 0 7.515 3.3 7.515 7.815m-10.712-.045c0 2.771.921 4.7 3.109 4.7 2.3 0 3.058-2.046 3.058-4.619 0-2.754-.8-4.664-3.116-4.664-2.149 0-3.051 1.774-3.051 4.583" transform="translate(-920.498 -183.662)" style="fill:#606060"/>
        <path data-name="Trazado 1464" d="M952.05 203.667h4.436v11.816h7.114l-.479 3.278H952.05z" transform="translate(-920.498 -183.662)" style="fill:#606060"/>
        <path data-name="Trazado 1465" d="M968.807 203.667v9.28c0 2.162 1.065 2.9 2.406 2.9 1.452 0 2.295-.885 2.295-2.9v-9.28h4.443v8.833c0 5.016-2.967 6.54-6.813 6.54-3.986 0-6.759-1.614-6.759-6.519v-8.856z" transform="translate(-920.498 -183.662)" style="fill:#606060"/>
        <path data-name="Trazado 1466" d="M983.58 206.945h-4.315v-3.278h13.021v3.278h-4.278v11.816h-4.428z" transform="translate(-920.498 -183.662)" style="fill:#606060"/>
        <path data-name="Rectángulo 347" transform="translate(73.078 20.005)" style="fill:#606060" d="M0 0h4.436v15.094H0z"/>
        <path data-name="Trazado 1467" d="M1015.181 211.2c0 4.27-2.572 7.841-7.742 7.841-5.077 0-7.531-3.549-7.531-7.821 0-4.343 2.691-7.835 7.758-7.835 4.757 0 7.515 3.3 7.515 7.815m-10.712-.045c0 2.771.921 4.7 3.109 4.7 2.3 0 3.057-2.046 3.057-4.619 0-2.754-.8-4.664-3.115-4.664-2.149 0-3.051 1.774-3.051 4.583" transform="translate(-920.498 -183.662)" style="fill:#606060"/>
        <path data-name="Trazado 1468" d="M1017.076 218.761v-15.094h5.293c1.588 3.4 3.888 7.992 4.522 9.852h.075c-.168-1.568-.206-4.234-.206-6.642v-3.21h4.031v15.094h-5.043c-1.28-2.733-4.012-8.4-4.721-10.389h-.059c.14 1.42.154 4.342.154 7v3.39z" transform="translate(-920.498 -183.662)" style="fill:#606060"/>
        <path data-name="Trazado 1469" d="M1036.613 214.19c.252 1.315 1.173 1.87 2.6 1.87 1.339 0 1.955-.469 1.955-1.345 0-.992-.669-1.369-3.054-1.938-4.453-1.079-5.34-2.7-5.34-4.737 0-2.532 1.861-4.653 6.063-4.653 4.367 0 6.151 2.216 6.363 4.6h-4.273c-.117-.81-.532-1.634-2.1-1.634-1.013 0-1.635.381-1.635 1.2s.553 1.136 2.88 1.707c4.652 1.16 5.576 2.836 5.576 4.983 0 2.835-2.187 4.8-6.619 4.8-4.174 0-6.386-1.949-6.72-4.853z" transform="translate(-920.498 -183.662)" style="fill:#606060"/>
    </g>
</svg>
