<svg xmlns="http://www.w3.org/2000/svg" width="108.825" height="38.684" viewBox="0 0 108.825 38.684">
  <defs>
    <style>
      .cls-1 {
        fill: #606060;
      }
    </style>
  </defs>
  <g id="Grupo_675" data-name="Grupo 675" transform="translate(-698.603 -3276.255)">
    <path id="Trazado_1504" data-name="Trazado 1504" class="cls-1" d="M442.679,695.673q-3.027,0-6.054,0c-.1,0-.251.053-.3-.051s.094-.177.158-.256c.249-.3.505-.6.758-.9.042-.049.108-.1.073-.171s-.11-.071-.176-.07a2.861,2.861,0,0,1-1.028-.179.941.941,0,0,1-.305-.169.6.6,0,0,1-.226-.6,2.348,2.348,0,0,1,.1-.336c.091-.254.087-.271-.168-.359a17.6,17.6,0,0,1-4.831-2.588,18.662,18.662,0,0,1-1.508-1.274,18,18,0,0,1-4.643-7.057,18.146,18.146,0,0,1-.913-3.786c-.061-.479-.106-.96-.122-1.444-.011-.35-.046-.7-.038-1.049a18.916,18.916,0,0,1,.842-5.29,17.757,17.757,0,0,1,1.009-2.53,18.429,18.429,0,0,1,2.243-3.484,17.065,17.065,0,0,1,1.187-1.318,18.288,18.288,0,0,1,2.389-2.01,16.727,16.727,0,0,1,3.429-1.9,19.594,19.594,0,0,1,4.182-1.171,19.267,19.267,0,0,1,3.89-.182,16.741,16.741,0,0,1,3.742.619,17.9,17.9,0,0,1,3.4,1.323,18.38,18.38,0,0,1,3.407,2.269,18,18,0,0,1,6.348,12.011,11.381,11.381,0,0,1,.07,1.2c0,1.574,0,3.149,0,4.724,0,.05,0,.1,0,.15a.158.158,0,0,1-.171.172c-.067,0-.134,0-.2,0H449.83c-.362,0-.365,0-.365-.361,0-1.359.023-2.719-.006-4.077a7.879,7.879,0,0,0-1.859-5.064,7.9,7.9,0,0,0-11.8-.371,7.813,7.813,0,0,0-2.093,4.318,7.907,7.907,0,0,0,3.9,7.972,7.562,7.562,0,0,0,3.144,1.005,7.809,7.809,0,0,0,4.049-.673,7.559,7.559,0,0,0,1.537-.931.829.829,0,0,1,.553-.18c1.634.005,3.269,0,4.9,0q4.041,0,8.081,0c.268,0,.532.035.8.057a1.046,1.046,0,0,1,.406.12.589.589,0,0,1,.323.711,1.8,1.8,0,0,1-.336.665q-1,1.3-2.006,2.59-2.354,3.033-4.709,6.064-.707.909-1.412,1.817a5.219,5.219,0,0,1-3.046,1.879,6.524,6.524,0,0,1-1.488.159q-2.865,0-5.729,0" transform="translate(346 2619.255)"/>
    <path id="Trazado_1505" data-name="Trazado 1505" class="cls-1" d="M390.48,668.714a1.156,1.156,0,0,0,.224-.314,7.785,7.785,0,0,1,1.661-1.921,5.655,5.655,0,0,1,2.913-1.224,10.367,10.367,0,0,1,2.842.039l.074.011c.333.061.346.075.346.424q0,1.563,0,3.127a.871.871,0,0,0,.016.266c.075.029.1-.027.128-.062a10.776,10.776,0,0,1,5.39-3.371,13.485,13.485,0,0,1,4.629-.482,9.275,9.275,0,0,1,5.14,1.806,8.62,8.62,0,0,1,2.92,4.007,12.145,12.145,0,0,1,.7,3.694c.03.709.018,1.417.028,2.125a2.116,2.116,0,0,1-.007.225.15.15,0,0,1-.161.154c-.092,0-.183,0-.275,0H403.268c-.4,0-.473-.079-.309.416a4.44,4.44,0,0,0,3.716,3.193,5.173,5.173,0,0,0,4.249-1.1,7.028,7.028,0,0,0,.969-.974c.167-.2.175-.2.383-.06q1.984,1.372,3.969,2.747c.29.2.285.2.051.458a11.016,11.016,0,0,1-6.194,3.37,13.459,13.459,0,0,1-7.593-.856,9.969,9.969,0,0,1-4.727-4.086,9.345,9.345,0,0,1-1.212-3.5,11,11,0,0,1-.081-2.221,9.4,9.4,0,0,1,.96-3.652c.149-.3.146-.3-.181-.353a8.7,8.7,0,0,0-3.766.153,3.6,3.6,0,0,0-2.609,2.433,7.624,7.624,0,0,0-.356,1.786c-.083.947-.1,1.9-.094,2.847q0,3.4,0,6.8c0,.386,0,.386-.389.387h-5.578c-.4,0-.4,0-.4-.41V666.07c0-.419,0-.419.414-.419h5.553c.4,0,.4,0,.4.4q0,1.189,0,2.377a.584.584,0,0,0,.035.285m20.206,4.4.225,0a.165.165,0,0,0,.184-.186,2.14,2.14,0,0,0-.031-.423,3.48,3.48,0,0,0-2.3-2.705,4.6,4.6,0,0,0-3.162-.012,3.809,3.809,0,0,0-2.7,2.976c-.073.344-.063.353.289.353h7.5" transform="translate(346 2619.255)"/>
    <path id="Trazado_1506" data-name="Trazado 1506" class="cls-1" d="M368.484,682.774a.287.287,0,0,0-.173.129,6.92,6.92,0,0,1-4.126,2.213,7.287,7.287,0,0,1-1.417.138,11.352,11.352,0,0,1-4.649-.926,9.109,9.109,0,0,1-2.679-1.812,8.967,8.967,0,0,1-1.984-2.919,11.34,11.34,0,0,1-.121-8.3,9.329,9.329,0,0,1,4.678-5.247,8.39,8.39,0,0,1,2.874-.81,10.477,10.477,0,0,1,4.726.565,8.159,8.159,0,0,1,2.65,1.576,7.964,7.964,0,0,1,.692.767c.086-.074.055-.162.055-.237,0-.625,0-1.251,0-1.876,0-.067,0-.133,0-.2a.166.166,0,0,1,.188-.183l.125,0h5.228c.31,0,.323.014.323.326,0,5.963.009,11.925-.008,17.887a12.55,12.55,0,0,1-.947,4.88,8.61,8.61,0,0,1-2,2.938,9.068,9.068,0,0,1-2.78,1.792,13.788,13.788,0,0,1-3.475.906,22.789,22.789,0,0,1-3.994.134,19.9,19.9,0,0,1-4.516-.674,13.163,13.163,0,0,1-4.173-1.944l-.041-.028c-.215-.158-.222-.175-.065-.4q1.293-1.828,2.591-3.652c.207-.293.412-.587.623-.877.149-.2.164-.2.371-.042a12.355,12.355,0,0,0,2.113,1.33,9.8,9.8,0,0,0,6.181.826,5.167,5.167,0,0,0,2.032-.867,4.013,4.013,0,0,0,1.607-2.537,5.065,5.065,0,0,0,.111-1.042c0-.534,0-1.068,0-1.6a.552.552,0,0,0-.027-.236m.529-7.552a3.593,3.593,0,0,0-.093-.919,4.63,4.63,0,0,0-1.6-2.615,5.019,5.019,0,0,0-4.08-1.153,4.9,4.9,0,0,0-3.436,2.108,4.3,4.3,0,0,0-.746,3.393,4.519,4.519,0,0,0,1.351,2.456,5.013,5.013,0,0,0,4.505,1.373,4.859,4.859,0,0,0,3.042-1.772,4.457,4.457,0,0,0,1.057-2.871" transform="translate(346 2619.255)"/>
    <path id="Trazado_1507" data-name="Trazado 1507" class="cls-1" d="M376.607,675.32v-9.254c0-.414,0-.415.411-.415h5.553c.4,0,.4,0,.4.406v18.558c0,.4,0,.4-.406.4h-5.652c-.29-.005-.307-.02-.308-.318V675.32" transform="translate(346 2619.255)"/>
    <path id="Trazado_1508" data-name="Trazado 1508" class="cls-1" d="M379.584,663.952a3.659,3.659,0,0,1-2.9-1.6,3.332,3.332,0,0,1,.075-3.865,3.64,3.64,0,0,1,2.506-1.448,3.681,3.681,0,0,1,2.865.769,3.227,3.227,0,0,1,1.3,2.384,3.325,3.325,0,0,1-1.832,3.293,3.943,3.943,0,0,1-2.019.467" transform="translate(346 2619.255)"/>
    <path id="Trazado_1509" data-name="Trazado 1509" class="cls-1" d="M415.935,665.361a1.908,1.908,0,0,1,1.931-1.912,1.934,1.934,0,1,1-.03,3.868,1.9,1.9,0,0,1-1.9-1.956m3.366.051a1.449,1.449,0,1,0-2.9-.051,1.427,1.427,0,0,0,1.452,1.485,1.409,1.409,0,0,0,1.445-1.434" transform="translate(346 2619.255)"/>
    <path id="Trazado_1510" data-name="Trazado 1510" class="cls-1" d="M417.038,665.366c0-.275,0-.55,0-.825,0-.238.036-.274.264-.31a2.446,2.446,0,0,1,.87.015.642.642,0,0,1,.552.478.7.7,0,0,1-.225.746c-.139.121-.14.124-.048.283s.194.312.281.473.042.215-.123.235a.408.408,0,0,1-.487-.247,3.061,3.061,0,0,0-.2-.345,1.464,1.464,0,0,0-.1-.144.162.162,0,0,0-.181-.051c-.069.02-.08.08-.081.14,0,.133,0,.267-.005.4a.279.279,0,0,1-.432.222c-.087-.051-.084-.138-.085-.22C417.037,665.932,417.038,665.649,417.038,665.366Zm.519-.452c-.005.326.055.375.381.311.024,0,.048-.012.072-.017a.249.249,0,0,0,.214-.242.257.257,0,0,0-.166-.278.856.856,0,0,0-.339-.069c-.1,0-.159.042-.162.146,0,.049,0,.1,0,.149" transform="translate(346 2619.255)"/>
  </g>
</svg>
