<svg data-name="Grupo 420" xmlns="http://www.w3.org/2000/svg" width="1049.24" height="520.335" viewBox="0 0 1049.24 520.335">
    <defs>
        <clipPath id="xkkly2bcda">
            <path data-name="Rectángulo 203" style="fill:none" d="M0 0h1049.24v520.335H0z"/>
        </clipPath>
        <clipPath id="67mg67wcsb">
            <path data-name="Rectángulo 202" style="fill:none" d="M0 0h1049.243v520.335H0z"/>
        </clipPath>
        <clipPath id="eqe3tl5cwc">
            <path data-name="Rectángulo 198" transform="translate(25.385 40.572)" style="fill:none" d="M0 0h1023.855v479.763H0z"/>
        </clipPath>
        <clipPath id="ce0dkh4y0d">
            <path data-name="Rectángulo 200" transform="translate(312.295 482.61)" style="fill:none" d="M0 0h111.536v31.187H0z"/>
        </clipPath>
        <clipPath id="8w08kpg9me">
            <path data-name="Rectángulo 201" transform="translate(149.688 334.638)" style="fill:none" d="M0 0h240.338v105.384H0z"/>
        </clipPath>
    </defs>
    <g data-name="Grupo 419" style="clip-path:url(#xkkly2bcda)">
        <g data-name="Grupo 418">
            <g data-name="Grupo 417" style="clip-path:url(#67mg67wcsb)">
                <g data-name="Grupo 410" style="opacity:.5">
                    <g data-name="Grupo 409">
                        <g data-name="Grupo 408" style="clip-path:url(#eqe3tl5cwc)">
                            <path data-name="Trazado 237" d="M888.292 518.278s112.243 8.8 146.811-56.919c51.4-97.721-48.5-176.489-120.965-162.309-157.91 30.9-119.885-309.982-373.31-240.411-71.259 19.561-263.793-96.646-317.491 89.683-12.768 44.309-58.008 49.189-123.682 77.3-128.529 55.023-69.761 293.581 22.079 294.518s766.558-1.865 766.558-1.865" style="fill:#ebf2f9"/>
                        </g>
                    </g>
                </g>
                <path data-name="Trazado 238" d="m406.338 200.923-12.947-.3c4.16 5.391 5.094 10.358 2.5 14.56-2.589 4.289-8.787 7.812-18.041 10.486a167.059 167.059 0 0 0-38.457-176.68 167.5 167.5 0 0 0-183.347-35.872 188.987 188.987 0 0 0-7.3 3.312l-.022.01c-7.192-2.194-14.2-3.993-20.955-5.362C93.649 4.153 69.437 8.938 59.6 24.551c-9.357 14.849-4.262 37.2 14.31 63.268l-.007.013c-2.5 4.627-4.755 9.382-6.835 14.306a154.862 154.862 0 0 0-4.246 11.165c-34.894 2.08-53.573 8.221-60.365 19.343-7.9 12.948 2.887 30.325 37.4 47.22 4.755 2.335 9.849 4.628 15.2 6.92a163.587 163.587 0 0 0 12.014 45.508 167.265 167.265 0 0 0 307.475 1.57c17.023-3.524 28.23-9.042 32.687-16.343 3.1-5.052 2.717-10.656-.892-16.6M366.392 228.3c-11.334 2.037-25.471 3.226-41.984 3.4-25.625.313-55.053-1.711-86.067-5.8q3.915-8.521 7.663-17.489a236.8 236.8 0 0 0 27.871 7.577 141.153 141.153 0 0 0 27.829 3.094c19.483 0 33.442-5.625 40.336-16.568a28.613 28.613 0 0 0 2.773-5.733h-9.931c-.164.3-.34.6-.523.892C329.238 205.8 317.8 210 301.727 210a132.544 132.544 0 0 1-26.049-2.912 226.924 226.924 0 0 1-26.231-7.1q3.586-8.975 6.961-18.272c6.055-16.693 11.238-33.241 15.43-49.131a421.89 421.89 0 0 0 61.409 4.231q20.35 0 42.166-1.644a158.438 158.438 0 0 1 3.247 32.04 156.522 156.522 0 0 1-12.268 61.088M159.47 311.2c-4.831-1.752-7.282-8.685-8.489-14.193-1.906-8.7-2.251-20.93-1-35.354.635-7.295 1.655-15.052 3.028-23.165a430.069 430.069 0 0 1 58.5 20.241c-4.3 7.416-8.649 14.292-13 20.525-8.284 11.875-16.386 21.037-23.429 26.495-4.456 3.454-10.783 7.2-15.614 5.451m56.413-60.234a439.054 439.054 0 0 0-61.279-21.22q1.1-5.649 2.4-11.488 8.655 1.968 17.547 3.805a893.621 893.621 0 0 0 51.572 8.994q-5.03 10.408-10.243 19.91m-37.501-35.187q-10.049-2.068-19.791-4.315c3.055-12.711 6.807-25.962 11.188-39.465a387.448 387.448 0 0 0 67.862 33.469q-4.127 9.851-8.463 19.169a867.274 867.274 0 0 1-50.8-8.858M122.755 44.2a103.847 103.847 0 0 0 6.156 10.832c11.512 17.793 26.718 30.69 37.447 38.377a183.325 183.325 0 0 0 19.7 12.266c-6.359 13.859-12.417 28.65-17.987 44.008q-1.559 4.294-3.035 8.574C131.768 136.6 103.6 111.751 85.124 87.7l-.007-.01a158.106 158.106 0 0 1 15.87-22.36 157.003 157.003 0 0 1 7.683-8.4c.382-.383.722-.722 1.105-1.1a158.648 158.648 0 0 1 12.98-11.63m142.256-24c4.831 1.752 7.283 8.686 8.49 14.193 1.906 8.7 2.251 20.929 1 35.354a352.725 352.725 0 0 1-9.242 52.819q-8.523-1.466-16.638-3.326a239.329 239.329 0 0 1-50.907-17.55c9.073-18.92 18.666-35.794 28.258-49.543 8.285-11.876 16.386-21.038 23.429-26.5 3.675-2.848 8.62-5.9 12.951-5.9a7.739 7.739 0 0 1 2.662.445m-18.988 107.542q8.3 1.926 17.03 3.438c-4.085 15.366-9.115 31.369-14.975 47.528q-3.388 9.342-7 18.369c-22.015-8.083-45.382-19.644-68.353-33.924q1.779-5.207 3.676-10.443c5.446-15.012 11.355-29.461 17.552-42.993a247.729 247.729 0 0 0 52.074 18.025m86.49-71.91a156.924 156.924 0 0 1 40.834 70.619c-36.307 2.655-69.577 1.821-99.317-2.483a360.335 360.335 0 0 0 9.29-53.445c1.539-17.692 1.351-38.649-5.823-50.443q2.494.958 4.966 2a156.382 156.382 0 0 1 50.05 33.749M221.166 9.679a157.8 157.8 0 0 1 32.134 3.276c-12.373 5.386-25.006 20.378-34.6 34.124-9.815 14.069-19.615 31.288-28.87 50.562a174.839 174.839 0 0 1-17.7-11c-18.407-13.06-29.435-26.734-35.445-35.906a93.113 93.113 0 0 1-6.712-11.995 157.4 157.4 0 0 1 20.358-12.285h.008q4.335-2.188 8.833-4.106c.217-.093.432-.188.65-.28l.151-.064c.638-.27 1.28-.532 1.922-.792.172-.069.347-.137.516-.206a156.468 156.468 0 0 1 58.755-11.328M67.283 29.391c5.117-8.129 16.565-12.324 32.633-12.324a132.458 132.458 0 0 1 26.048 2.912q5.477 1.109 11.172 2.608h.01a164.365 164.365 0 0 0-34.249 26.4 133.286 133.286 0 0 0-6.283 6.622c-2.547 2.8-4.966 5.732-7.3 8.7a168.642 168.642 0 0 0-10.36 14.82l-.008.013C64.748 58.06 60.48 40.184 67.283 29.391m8.7 76.525c1.4-3.226 2.844-6.41 4.415-9.509v-.008c19.456 24.318 48.133 49.179 81.64 70.74-4.751 14.46-8.805 28.671-12.076 42.291A647.908 647.908 0 0 1 83.2 189.715a383.1 383.1 0 0 1-12.055-4.542 251.45 251.45 0 0 1-6.75-2.76c-.34-3.4-.595-6.835-.68-10.273-.042-1.656-.084-3.268-.084-4.924 0-1.91.042-3.863.084-5.774a159.326 159.326 0 0 1 7.217-41.772 127.983 127.983 0 0 1 2.335-6.792c.849-2.335 1.74-4.67 2.717-6.962m-28.4 68.941c-30.1-14.689-43.853-28.867-37.7-38.928 4.967-8.151 23.052-13.669 50.73-15.707a162.587 162.587 0 0 0-6.283 35.319 180.449 180.449 0 0 0-.425 10.741v.934c0 3.608.128 7.217.34 10.782-2.292-1.019-4.5-2.08-6.665-3.141M70.422 192.9a527.597 527.597 0 0 0 12.523 4.542c19.71 6.829 41.8 13.178 65.436 18.809q-1.287 5.743-2.375 11.318-2.9-.7-5.8-1.367c-32.673-7.437-57.191-8.95-68.556-9.207a153.92 153.92 0 0 1-6.2-26.006l4.967 1.911m5.561 35.616q-.533-1.265-1.04-2.535a354.8 354.8 0 0 1 63.3 8.858q3.083.7 6.158 1.458c-1.477 8.617-2.567 16.851-3.24 24.591-1.276 14.663-1.366 31.569 2.724 43.643a158.445 158.445 0 0 1-67.9-76.015m206.483 83.841a158.052 158.052 0 0 1-109.063 5.025c11.653-6.108 23.36-20.134 32.376-33.059 4.651-6.667 9.3-14.044 13.886-22.007a445.215 445.215 0 0 1 75.782 43.842q-6.324 3.38-12.98 6.2m50.05-33.748a156.323 156.323 0 0 1-28.65 22.709 454.547 454.547 0 0 0-79.853-46.756 454.015 454.015 0 0 0 11.322-22.23 680.482 680.482 0 0 0 72.6 5.948c5.858.17 11.546.17 17.065.128a303.765 303.765 0 0 0 37.951-2.548 156.482 156.482 0 0 1-30.437 42.749" style="fill:#adcbf9"/>
                <path data-name="Trazado 239" d="M726.2 180.157s31.492 30.993 32.933 42.679-14.286 29.964-14.286 29.964z" style="fill:#e58638"/>
                <path data-name="Trazado 240" d="M714.832 502.058s-1.022 16.476-4.209 16.712c-.424.032-16.168.032-16.168.032l-20.1-.117s.132-4.842 6.006-5.866 15.708-5.152 19.266-12.916c3.744-8.168 15.2 2.155 15.2 2.155" style="fill:#163560"/>
                <path data-name="Trazado 241" d="M759.595 502.058s-1.022 16.476-4.209 16.712c-.424.032-16.167.032-16.167.032l-20.1-.117s.131-4.842 6.005-5.866 15.708-5.152 19.266-12.916c3.744-8.168 15.2 2.155 15.2 2.155" style="fill:#163560"/>
                <path data-name="Trazado 242" d="M692.575 324.985s5.256 33.617 24.864 93.293 22.28 85.517 22.28 85.517l21.035-.59s.179-65.219-8.857-95.227-1.951-108.185-1.951-108.185z" style="fill:#163560"/>
                <path data-name="Trazado 243" d="M682.338 301.635a815.949 815.949 0 0 0 8.021 112.859c8.765 62.2 5.793 88.6 5.793 88.6l20.994.7s12.545-62.223 8.948-93.356 17.18-106.83 17.18-106.83z" style="fill:#1c468a"/>
                <path data-name="Trazado 244" d="m722.977 183.087-9.9 7.332-14.309-3.012c.2-1.3 1.142-6.713 2-11.612.051-.288.1-.577.153-.86.735-4.168 1.372-7.749 1.372-7.749l13.365-6.661 4.983-2.483c-.014.087-.386 4.625-.438 5.288-.935 11.764 2.772 19.757 2.772 19.757" style="fill:#ffb27d"/>
                <path data-name="Trazado 245" d="M699.768 179.387c.313-.133 19.465-5.784 21.545-5.1s3.312 4.713 3.312 4.713l-31.325 7.084s2.467-5.013 6.469-6.7" style="fill:#e58638"/>
                <path data-name="Trazado 246" d="M751.34 307.888c-3.247 14.809-57.275 16.566-71.2 3.123-1.584-1.532-1.662-8.661-1.065-18.274 1.169-18.779 4.922-47.028 5.068-61.461a114.408 114.408 0 0 1 2.3-20.571 166.98 166.98 0 0 1 6.854-24.623s26.388-8.531 31.325-7.08c23.789 6.989 29.96 114.076 26.715 128.886" style="fill:#ee9849"/>
                <path data-name="Trazado 247" d="M679.074 292.738c1.168-18.779 4.922-47.029 5.068-61.461a114.331 114.331 0 0 1 2.3-20.572l15.875-2.8s15.52 63.393-23.247 84.834" style="fill:#e58638"/>
                <path data-name="Trazado 248" d="M687.671 266.562a3.737 3.737 0 0 1-1.19 4.323c-2.273 1.737-3.747 4.55-3.226 6.606s5.5 5.411 7.233 4.869 5.244-3.249 4.865-4.333 2.366-9.517-1.846-12.764-5.836 1.3-5.836 1.3" style="fill:#ffb27d"/>
                <path data-name="Trazado 249" d="M705.389 182.795s-15.45 2.384-27.786 20.563-20.451 31.695-18.179 38.247 22.986 29.276 26.557 29.276 9.334-2.6 9.658-8.441c0 0-14.584-21.857-11.71-25.13 1.227-1.4 18.933-15.773 21.46-9.28 4.183 10.742 0-45.235 0-45.235" style="fill:#ee9849"/>
                <path data-name="Trazado 250" d="M719.2 163.537c-2.935 5.616-13.872 10.473-18.432 12.258.051-.289.1-.578.153-.861.736-4.168 1.373-7.749 1.373-7.749l13.364-6.661c2.955-.045 4.753.7 3.542 3.013" style="fill:#fca56b"/>
                <path data-name="Trazado 251" d="M695.8 166.4s24.112 7.521 28.565-7.566 10.564-24.278-4.643-29.718-19.911-.57-22.622 4.1-7.457 30.835-1.3 33.18" style="fill:#ffb27d"/>
                <path data-name="Trazado 252" d="M700.882 132.346s1.392 18.112 5.037 17.3 6.951-1.429 6.373 4.039-5.676 11.821 5.531 12.693 27.574-29.059 24.54-34.674c-8.755-16.2-54.165-19.1-41.481.647" style="fill:#163560"/>
                <path data-name="Trazado 253" d="M871.028 297.895s-9.248 2.375-15.127.6-16 1.138-17.627 3.281-1.03 2.995 1.877 3.735 13.209 5.134 19.979 2.591 15.6-2.636 15.6-2.636z" style="fill:#e49963"/>
                <path data-name="Trazado 254" d="M950.956 217.559s-10.389 73.839-27.592 80.452c-8.488 3.263-46 10.661-57.1 11.4 0 0-2.718-2.205-2.056-11.182 0 0 39.3-14.429 44.886-22.276 8.311-11.679-5.158-47.711 5.269-58.68s27.99-15.683 36.592.282" style="fill:#4a75cb"/>
                <path data-name="Trazado 255" d="M949.628 502.2v-16.234h25.346a1.247 1.247 0 0 0 1.243-1.243v-2.579a1.248 1.248 0 0 0-1.243-1.245h-25.346v-91.644a4.689 4.689 0 0 0-4.676-4.675h-5.015a4.688 4.688 0 0 0-4.675 4.675V480.9h-25.347a1.248 1.248 0 0 0-1.243 1.245v2.579a1.247 1.247 0 0 0 1.243 1.243h25.347V502.2c-18.341 1.386-33.032 7.992-37.153 16.522h88.671c-4.121-8.53-18.812-15.136-37.152-16.522" style="fill:#2b478b"/>
                <path data-name="Trazado 256" d="M947.454 373.122a129.5 129.5 0 0 1-10.148 14.52c-11.166 14.1-23.321 25.718-25.439 36.7a49.737 49.737 0 0 1-1.962 7.032c-.884 2.516-1.978 5.162-3.239 7.9-4.738 10.293-11.824 21.825-18.9 32.308-12.23 18.122-23.73 33.244-23.73 33.244l-21.091-.9c.844-2.114 10.043-27.136 22.349-57.715 5-12.414 10.31-25.617 15.437-38.351q1.024-2.552 2.042-5.073c1.568-3.9 3.11-7.732 4.616-11.467 11.554-28.714 20.757-51.578 20.757-51.578s46.18-17.494 50.976-6.158c3.955 9.347.734 18.5-11.669 39.534" style="fill:#163560"/>
                <path data-name="Trazado 257" d="M863.378 500.994s-1.032 17.487-4.4 17.737c-.448.033-38.517 0-38.517 0s.3-5.289 6.509-6.37 16.591-5.443 20.35-13.644c3.954-8.627 16.058 2.277 16.058 2.277" style="fill:#163560"/>
                <path data-name="Trazado 258" d="M912.214 451.276s14.67 9.426 13.246 12.488c-.19.407-8.3 14.927-8.3 14.927l-10.456 18.474s-4.4-2.614-2.318-8.559 3.337-17.14-1.992-24.42c-5.6-7.659 9.816-12.91 9.816-12.91" style="fill:#163560"/>
                <path data-name="Trazado 259" d="M892.732 331.243s-58.332 36.307-64.8 60.572 77.108 76.03 77.108 76.03 9.167-8.088 10.784-14.019c0 0-37.778-45.262-45.973-55.408-5.033-6.232 74.417-21.571 84.123-36.669s6.231-27.8 6.231-27.8z" style="fill:#1c468a"/>
                <path data-name="Trazado 260" d="M1001.761 377.808H883.128a4.327 4.327 0 0 0-4.315 4.314v23.727a4.327 4.327 0 0 0 4.315 4.314h118.633a4.326 4.326 0 0 0 4.315-4.314v-23.727a4.327 4.327 0 0 0-4.315-4.314" style="fill:#ee9849"/>
                <path data-name="Trazado 261" d="M947.246 203.626s-23.019 12.868-36.909 9.277a32.8 32.8 0 0 1 8.833-8c-.3-1.35-.569-2.623-.8-3.807a90.591 90.591 0 0 1-1.568-10.726l10.606-9.5 7.131 1.512c.137.7.287 1.38.457 2.047 3.311 13.2 12.248 19.2 12.248 19.2" style="fill:#e49963"/>
                <path data-name="Trazado 262" d="M961.953 270.467c-1.989 26.755.628 67.44-1.629 74.487-1.949 6.081-24.138 2.466-33 .439-3.278-.753-7.25-1.826-11.348-3.1-11.438-3.543-23.906-8.6-25.243-12.355a3.26 3.26 0 0 1-.12-.432v-.006a2.431 2.431 0 0 1-.052-.282 3.533 3.533 0 0 1 .074-1.285c.445-1.913 2.163-3.985 2.366-8.724.224-5.29.193-11.522.391-18.221.01-.755.021-1.58.1-2.329v-.274c0-.145.007-.285.01-.428.193-7.472.586-15.33 1.037-23.117a639.23 639.23 0 0 1 1-14.384c1-11.985 2.342-22.643 4.122-29.378 2.907-10.985 9.319-18.148 15.158-23.4l4.22-3.621a24.394 24.394 0 0 0 15.318-2.041c5.45-2.588 7.334-4.442 8.282-3.742 12.591 9.714 21.65 39.482 19.3 72.186" style="fill:#739af0"/>
                <path data-name="Trazado 263" d="M915.981 342.3c-11.439-3.544-23.906-8.6-25.244-12.355a3.316 3.316 0 0 1-.12-.433.92.92 0 0 0-.052-.282 3.516 3.516 0 0 1 .075-1.286c.444-1.913 2.162-3.984 2.365-8.723.224-5.29.193-11.522.393-18.221.008-.756.019-1.58.1-2.329v-.275c0-.144.006-.284.009-.428l43.211-19.6s2.489 34.824-20.741 63.934" style="fill:#4a75cb"/>
                <path data-name="Trazado 264" d="M935 184.424c-1.57 3.968-6.27 13.323-16.627 16.67a90.686 90.686 0 0 1-1.567-10.727l10.6-9.5c2.934.621 5.676 1.2 7.131 1.511.138.7.288 1.38.458 2.048" style="fill:#d68d5d"/>
                <path data-name="Trazado 265" d="M912.61 190.264s22.757 2.567 24.137-11.629 5.247-23.425-9.224-25.665-17.824 2.9-19.439 7.53-1.358 28.732 4.526 29.764" style="fill:#e49963"/>
                <path data-name="Trazado 266" d="M936.649 179.615s-1.443-18.844-22.158-20.8c-14.188-1.337-6.278-13.548-4.765-15.5 0 0 10.87 1.49 22.013 3.332 23.387 3.863 7.208 30.026 4.91 32.96" style="fill:#2b478b"/>
                <path data-name="Trazado 267" d="m881.969 312.375-56.389 1.205-16.033-49.341-1.991.647 16.948 52.16 57.539-1.229z" style="fill:#4a75cb"/>
                <path data-name="Trazado 268" d="M875.788 309.247s-8.93 3.38-14.969 2.268-15.773 2.895-17.156 5.2-.7 3.091 2.276 3.506 13.694 3.646 20.143.373 15.214-4.34 15.214-4.34z" style="fill:#e49963"/>
                <path data-name="Trazado 269" d="M946.371 220.588s-2.185 74.534-18.555 83c-8.077 4.179-44.546 15.667-55.493 17.629 0 0-2.945-1.892-3.277-10.887 0 0 37.474-18.674 42.157-27.089 6.973-12.524-10.387-46.852-1.231-58.9s26.089-18.673 36.4-3.754" style="fill:#739af0"/>
                <path data-name="Trazado 270" d="m328.943 227.018-23.124 274.955s-2.423 16.668 9.974 16.7c20.384.049 101.459 0 101.459 0s-15.342-3.473-15.152-11.28c.219-9.2 27.028-282.977 27.028-282.977z" style="fill:#d86713"/>
                <path data-name="Trazado 271" d="M423.831 513.681c-4.009.012-81.447.255-101.3 0-8.651-.108-10.168-7.692-10.24-12.6a24.6 24.6 0 0 1 .262-4.092l.6-7.147 1.531-18.214 1.354-16.093 1.74-20.679 1.465-17.454 16.437-195.375 100.181-2.6S424.57 334 416.585 417.4c-.892 9.292-1.741 18.2-2.525 26.52q-.383 3.984-.737 7.779c-.74 7.891-1.417 15.137-2.005 21.535-.311 3.372-.6 6.505-.857 9.375-1.018 11.248-1.617 18.43-1.625 19.8a11.577 11.577 0 0 0 .2 2.225c1.645 8.763 13.295 9.05 14.8 9.05" style="fill:#ee9849"/>
                <path data-name="Trazado 272" d="m85.649 77.4 56.327 226.253 7.712 30.987 26.234 105.383h487.393L566.619 77.4z" style="fill:#f1a34f"/>
                <path data-name="Trazado 273" d="M85.648 77.4 77.842 80l87.7 367.892 10.379-7.87z" style="fill:#ee9849"/>
                <path data-name="Trazado 274" d="M165.544 447.892h484.393l13.376-7.87H175.922z" style="fill:#d86713"/>
                <path data-name="Rectángulo 199" transform="translate(335.648 513.791)" style="fill:#f1a34f" d="M0 0h104.878v4.983H0z"/>
                <path data-name="Trazado 275" d="M639.7 373.2 560.617 82.192H84.868V77.4h481.75l78.821 295.157z" style="fill:#f1a34f"/>
                <path data-name="Trazado 276" d="m413.865 447.89-.541 3.811-98.633 19.926 1.353-16.092.646-7.645z" style="fill:#d86713"/>
                <g data-name="Grupo 413" style="opacity:.4">
                    <g data-name="Grupo 412">
                        <g data-name="Grupo 411" style="clip-path:url(#ce0dkh4y0d)">
                            <path data-name="Trazado 277" d="M423.831 513.681c-4.009.012-81.447.255-101.3 0-8.651-.108-10.168-7.692-10.24-12.6l98.167-18.47c-1.018 11.248-1.617 18.43-1.625 19.8a11.577 11.577 0 0 0 .2 2.225c1.645 8.763 13.295 9.05 14.8 9.05" style="fill:#d86713"/>
                        </g>
                    </g>
                </g>
                <g data-name="Grupo 416" style="opacity:.4">
                    <g data-name="Grupo 415">
                        <g data-name="Grupo 414" style="clip-path:url(#8w08kpg9me)">
                            <path data-name="Trazado 278" d="m390.026 366.613-214.1 73.409-26.238-105.383z" style="fill:#d86713"/>
                        </g>
                    </g>
                </g>
                <path data-name="Trazado 279" d="M85.648 77.4h480.97l78.039 291.435H155.723z" style="fill:#699dee"/>
                <path data-name="Trazado 280" d="M432.539 405.674c-1.389-7.147-8.309-12.941-15.457-12.941s-11.814 5.794-10.426 12.941 8.31 12.941 15.457 12.941 11.816-5.794 10.426-12.941" style="fill:#d86713"/>
                <path data-name="Trazado 281" d="M621.972 356.2H171.638l-51-203.165-3.909-15.58-3.337-13.289-7.821-31.16h443.843l8.59 31.16 3.664 13.289 4.294 15.58z" style="fill:#e9f3fe"/>
                <path data-name="Trazado 282" d="M558 124.169H113.393l-7.822-31.16h443.844z" style="fill:#afcdfb"/>
                <path data-name="Trazado 283" d="M126.857 103.195a2.943 2.943 0 0 0-2.924 3.9 5.319 5.319 0 0 0 4.866 3.895 2.944 2.944 0 0 0 2.925-3.895 5.324 5.324 0 0 0-4.867-3.9" style="fill:#e9f3fe"/>
                <path data-name="Trazado 284" d="M139.8 103.195a2.943 2.943 0 0 0-2.924 3.9 5.32 5.32 0 0 0 4.866 3.895 2.943 2.943 0 0 0 2.924-3.895 5.321 5.321 0 0 0-4.866-3.9" style="fill:#e9f3fe"/>
                <path data-name="Trazado 285" d="M158.6 107.091a5.323 5.323 0 0 0-4.867-3.9 2.944 2.944 0 0 0-2.924 3.9 5.323 5.323 0 0 0 4.867 3.9 2.944 2.944 0 0 0 2.924-3.9" style="fill:#e9f3fe"/>
                <path data-name="Trazado 286" d="M480.867 215.189c-3.252-13.039-16.515-23.648-29.567-23.648-6.295 0-11.658 2.427-15.1 6.838-3.589 4.593-4.667 10.727-3.034 17.273 3.251 13.039 16.515 23.649 29.567 23.649 6.294 0 11.657-2.429 15.1-6.838 3.589-4.594 4.666-10.728 3.034-17.274m-4.54 16.1c-3.074 3.937-7.9 6.1-13.6 6.1-12.229 0-24.662-9.959-27.714-22.2-1.486-5.962-.532-11.515 2.686-15.635 3.075-3.935 7.9-6.1 13.6-6.1 12.229 0 24.661 9.959 27.713 22.2 1.487 5.963.533 11.515-2.686 15.634" style="fill:#f1a34f"/>
                <path data-name="Trazado 287" d="m460.016 220.761-2.377-16.623-.188-.753h-6.693l.187.753 5.912 16.623z" style="fill:#f1a34f"/>
                <path data-name="Trazado 288" d="m456.121 223.693 1.5 6.017h6.092l-1.5-6.017z" style="fill:#f1a34f"/>
                <path data-name="Trazado 289" d="M495.4 271.663c-3.252-13.04-16.516-23.649-29.567-23.649-6.3 0-11.658 2.428-15.1 6.837-3.588 4.594-4.665 10.728-3.033 17.274 3.251 13.04 16.514 23.649 29.566 23.649 6.294 0 11.658-2.428 15.1-6.838 3.588-4.593 4.666-10.727 3.034-17.273m-4.54 16.1c-3.074 3.935-7.9 6.1-13.6 6.1-12.228 0-24.661-9.96-27.713-22.2-1.486-5.963-.532-11.516 2.685-15.635 3.076-3.936 7.9-6.1 13.6-6.1 12.228 0 24.661 9.959 27.713 22.2 1.487 5.963.533 11.516-2.686 15.635" style="fill:#f1a34f"/>
                <path data-name="Trazado 290" d="m474.553 277.234-2.377-16.623-.187-.752h-6.694l.188.752 5.911 16.623z" style="fill:#f1a34f"/>
                <path data-name="Trazado 291" d="m470.659 280.166 1.5 6.018h6.092l-1.5-6.018z" style="fill:#f1a34f"/>
                <path data-name="Trazado 292" d="M545.24 207.929a2.037 2.037 0 0 0 2.019-2.691 3.686 3.686 0 0 0-3.361-2.691h-47.926a2.038 2.038 0 0 0-2.02 2.691 3.689 3.689 0 0 0 3.362 2.691z" style="fill:#afcdfb"/>
                <path data-name="Trazado 293" d="M539.308 169.7a3.688 3.688 0 0 0-3.363-2.692H488.02A2.038 2.038 0 0 0 486 169.7a3.687 3.687 0 0 0 3.362 2.69h47.925a2.038 2.038 0 0 0 2.021-2.69" style="fill:#afcdfb"/>
                <path data-name="Trazado 294" d="M547.8 218.18a2.037 2.037 0 0 0 2.02-2.69 3.688 3.688 0 0 0-3.361-2.692h-47.931a2.038 2.038 0 0 0-2.019 2.692 3.688 3.688 0 0 0 3.361 2.69z" style="fill:#afcdfb"/>
                <path data-name="Trazado 295" d="M552.371 225.74a3.686 3.686 0 0 0-3.361-2.691h-47.925a2.037 2.037 0 0 0-2.02 2.691 3.687 3.687 0 0 0 3.362 2.691h47.925a2.037 2.037 0 0 0 2.019-2.691" style="fill:#afcdfb"/>
                <path data-name="Trazado 296" d="M559.777 264.4a2.039 2.039 0 0 0 2.021-2.691 3.689 3.689 0 0 0-3.362-2.691H510.51a2.038 2.038 0 0 0-2.02 2.691 3.688 3.688 0 0 0 3.362 2.691z" style="fill:#afcdfb"/>
                <path data-name="Trazado 297" d="M562.333 274.654a2.037 2.037 0 0 0 2.019-2.691 3.687 3.687 0 0 0-3.361-2.691h-47.925a2.039 2.039 0 0 0-2.021 2.691 3.692 3.692 0 0 0 3.362 2.691z" style="fill:#afcdfb"/>
                <path data-name="Trazado 298" d="M566.909 282.214a3.687 3.687 0 0 0-3.362-2.691h-47.926a2.037 2.037 0 0 0-2.019 2.691 3.689 3.689 0 0 0 3.361 2.69h47.925a2.038 2.038 0 0 0 2.021-2.69" style="fill:#afcdfb"/>
                <path data-name="Trazado 299" d="m537.29 158.387-3.346-13.416a6.128 6.128 0 0 0-5.588-4.473H144.228a3.387 3.387 0 0 0-3.358 4.473l3.345 13.416a6.132 6.132 0 0 0 5.589 4.473h384.127a3.387 3.387 0 0 0 3.359-4.473" style="fill:#afcdfb"/>
                <path data-name="Trazado 300" d="m416.529 140.5 5.576 22.362H149.8a6.133 6.133 0 0 1-5.589-4.473l-3.345-13.416a3.387 3.387 0 0 1 3.358-4.473z" style="fill:#f1a34f"/>
                <path data-name="Trazado 301" d="m465.446 147.567.429 1.718h4.25l-2.218 7.324h2.247l2.176-7.544-.374-1.5z" style="fill:#699dee"/>
                <path data-name="Trazado 302" d="M477.044 147.411c-2.4 0-3.518 2.054-2.864 4.676.661 2.648 2.755 4.677 5.17 4.677s3.519-2.055 2.865-4.677c-.661-2.648-2.781-4.676-5.171-4.676m1.885 7.557c-1.2 0-2.3-1.227-2.708-2.881-.419-1.679.057-2.88 1.245-2.88s2.3 1.24 2.708 2.88c.415 1.667-.045 2.881-1.245 2.881" style="fill:#699dee"/>
                <path data-name="Trazado 303" d="M494.066 154.4a2.968 2.968 0 0 0-2.759-2.312 1.676 1.676 0 0 0-1.633 2.312 2.969 2.969 0 0 0 2.76 2.313 1.68 1.68 0 0 0 1.632-2.313m-1.9 1.137c-.516 0-.984-.529-1.135-1.137s0-1.137.543-1.137c.516 0 .985.53 1.136 1.137s0 1.137-.544 1.137" style="fill:#699dee"/>
                <path data-name="Trazado 304" d="m489.921 147.567-4.346 9.042h1.537l4.347-9.042z" style="fill:#699dee"/>
                <path data-name="Trazado 305" d="M487.359 149.775a2.967 2.967 0 0 0-2.76-2.312 1.675 1.675 0 0 0-1.631 2.312 2.967 2.967 0 0 0 2.759 2.312 1.68 1.68 0 0 0 1.632-2.312m-3.036 0c-.154-.621 0-1.137.544-1.137.517 0 .985.53 1.136 1.137s0 1.137-.543 1.137c-.517 0-.985-.53-1.137-1.137" style="fill:#699dee"/>
                <path data-name="Trazado 306" d="M398.534 259.786a3.817 3.817 0 0 0 3.793-5.053 6.9 6.9 0 0 0-6.313-5.053H172.029a3.817 3.817 0 0 0-3.792 5.053 6.9 6.9 0 0 0 6.312 5.053z" style="fill:#afcdfb"/>
                <path data-name="Trazado 307" d="M402.717 276.56a3.818 3.818 0 0 0 3.793-5.053 6.9 6.9 0 0 0-6.313-5.053H176.213a3.818 3.818 0 0 0-3.794 5.053 6.9 6.9 0 0 0 6.313 5.053z" style="fill:#afcdfb"/>
                <path data-name="Trazado 308" d="M410.878 289.029a6.9 6.9 0 0 0-6.313-5.053H180.58a3.818 3.818 0 0 0-3.793 5.053 6.9 6.9 0 0 0 6.313 5.053h223.985a3.818 3.818 0 0 0 3.793-5.053" style="fill:#afcdfb"/>
                <path data-name="Trazado 309" d="M275.964 232.519a8.676 8.676 0 0 0 7.935 6.351h24.982c3.507 0 5.641-2.844 4.767-6.351l-12.076-48.434a8.674 8.674 0 0 0-7.934-6.35h-24.983c-3.507 0-5.642 2.842-4.767 6.35z" style="fill:#afcdfb"/>
                <path data-name="Trazado 310" d="M319.2 232.519a8.676 8.676 0 0 0 7.934 6.351h24.983c3.507 0 5.641-2.844 4.767-6.351l-12.076-48.434a8.673 8.673 0 0 0-7.934-6.35h-24.979c-3.507 0-5.642 2.842-4.767 6.35z" style="fill:#afcdfb"/>
                <path data-name="Trazado 311" d="M361.636 232.519a8.677 8.677 0 0 0 7.935 6.351h24.982c3.507 0 5.641-2.844 4.767-6.351l-12.076-48.434a8.673 8.673 0 0 0-7.934-6.35h-24.982c-3.508 0-5.643 2.842-4.767 6.35z" style="fill:#afcdfb"/>
                <path data-name="Trazado 312" d="m267.5 228.225-9.935-39.846c-1.465-5.879-7.419-10.645-13.3-10.645h-84.582c-5.878 0-9.456 4.766-7.99 10.645l9.934 39.846c1.466 5.879 7.42 10.645 13.3 10.645h84.579c5.879 0 9.456-4.766 7.991-10.645" style="fill:#afcdfb"/>
                <path data-name="Trazado 313" d="M243.2 193.018a1.835 1.835 0 0 0 1.819-2.423 3.324 3.324 0 0 0-3.027-2.424h-79.034a1.836 1.836 0 0 0-1.819 2.424 3.321 3.321 0 0 0 3.027 2.423z" style="fill:#699dee"/>
                <path data-name="Trazado 314" d="M245.519 202.337a1.836 1.836 0 0 0 1.82-2.423 3.323 3.323 0 0 0-3.028-2.423h-79.029a1.835 1.835 0 0 0-1.819 2.423 3.32 3.32 0 0 0 3.027 2.423z" style="fill:#699dee"/>
                <path data-name="Trazado 315" d="M249.661 209.234a3.32 3.32 0 0 0-3.027-2.423h-79.028a1.836 1.836 0 0 0-1.82 2.423 3.322 3.322 0 0 0 3.027 2.423h79.03a1.835 1.835 0 0 0 1.818-2.423" style="fill:#699dee"/>
                <path data-name="Trazado 316" d="M188.853 217.248h-18.645a1.835 1.835 0 0 0-1.819 2.423 3.322 3.322 0 0 0 3.027 2.423h18.644a1.835 1.835 0 0 0 1.819-2.423 3.319 3.319 0 0 0-3.026-2.423" style="fill:#699dee"/>
                <path data-name="Trazado 317" d="m597.025 334.612-5.211-20.9a7.629 7.629 0 0 0-6.976-5.583h-44.364c-3.084 0-4.96 2.5-4.192 5.583l5.211 20.9a7.63 7.63 0 0 0 6.976 5.584h44.364c3.085 0 4.96-2.5 4.192-5.584" style="fill:#afcdfb"/>
                <path data-name="Trazado 318" d="M584.278 316.145a.963.963 0 0 0 .954-1.271 1.743 1.743 0 0 0-1.588-1.271h-41.453a.963.963 0 0 0-.954 1.271 1.743 1.743 0 0 0 1.588 1.271z" style="fill:#699dee"/>
                <path data-name="Trazado 319" d="M585.5 321.033a.962.962 0 0 0 .954-1.271 1.742 1.742 0 0 0-1.588-1.271H543.41a.963.963 0 0 0-.954 1.271 1.743 1.743 0 0 0 1.588 1.271z" style="fill:#699dee"/>
                <path data-name="Trazado 320" d="M587.67 324.65a1.744 1.744 0 0 0-1.589-1.271h-41.452a.963.963 0 0 0-.954 1.271 1.741 1.741 0 0 0 1.587 1.271h41.454a.963.963 0 0 0 .954-1.271" style="fill:#699dee"/>
                <path data-name="Trazado 321" d="M555.773 328.854h-9.779a.962.962 0 0 0-.954 1.271 1.74 1.74 0 0 0 1.588 1.271h9.778a.963.963 0 0 0 .956-1.271 1.744 1.744 0 0 0-1.589-1.271" style="fill:#699dee"/>
                <path data-name="Trazado 322" d="M289.391 319.318a1.44 1.44 0 0 0 1.431-1.906 2.6 2.6 0 0 0-2.381-1.906h-84.485a1.44 1.44 0 0 0-1.431 1.906 2.6 2.6 0 0 0 2.381 1.906z" style="fill:#f1a34f"/>
                <path data-name="Trazado 323" d="M290.969 325.645a1.44 1.44 0 0 0 1.431-1.906 2.6 2.6 0 0 0-2.381-1.9h-84.486a1.44 1.44 0 0 0-1.431 1.9 2.6 2.6 0 0 0 2.381 1.906z" style="fill:#f1a34f"/>
                <path data-name="Trazado 324" d="M291.666 328.442h-84.485a1.441 1.441 0 0 0-1.431 1.907 2.6 2.6 0 0 0 2.381 1.9h84.485a1.439 1.439 0 0 0 1.431-1.9 2.6 2.6 0 0 0-2.381-1.907" style="fill:#f1a34f"/>
                <path data-name="Trazado 325" d="M398.423 319.318a1.44 1.44 0 0 0 1.431-1.906 2.6 2.6 0 0 0-2.381-1.906h-84.487a1.44 1.44 0 0 0-1.43 1.906 2.6 2.6 0 0 0 2.381 1.906z" style="fill:#f1a34f"/>
                <path data-name="Trazado 326" d="M400 325.645a1.44 1.44 0 0 0 1.431-1.906 2.6 2.6 0 0 0-2.381-1.9h-84.485a1.44 1.44 0 0 0-1.431 1.9 2.6 2.6 0 0 0 2.381 1.906z" style="fill:#f1a34f"/>
                <path data-name="Trazado 327" d="M400.7 328.442h-84.488a1.441 1.441 0 0 0-1.43 1.907 2.6 2.6 0 0 0 2.381 1.9h84.485a1.44 1.44 0 0 0 1.432-1.9 2.605 2.605 0 0 0-2.382-1.907" style="fill:#f1a34f"/>
                <path data-name="Trazado 328" d="M504.1 319.318a1.44 1.44 0 0 0 1.431-1.906 2.6 2.6 0 0 0-2.381-1.906h-84.487a1.44 1.44 0 0 0-1.43 1.906 2.6 2.6 0 0 0 2.381 1.906z" style="fill:#f1a34f"/>
                <path data-name="Trazado 329" d="M505.677 325.645a1.44 1.44 0 0 0 1.431-1.906 2.6 2.6 0 0 0-2.381-1.9H420.24a1.439 1.439 0 0 0-1.43 1.9 2.6 2.6 0 0 0 2.381 1.906z" style="fill:#f1a34f"/>
                <path data-name="Trazado 330" d="M508.756 330.349a2.605 2.605 0 0 0-2.382-1.907h-84.485a1.441 1.441 0 0 0-1.431 1.907 2.6 2.6 0 0 0 2.382 1.9h84.485a1.439 1.439 0 0 0 1.431-1.9" style="fill:#f1a34f"/>
                <path data-name="Trazado 331" d="M525.1 343.084H199.294a7.123 7.123 0 0 1-6.516-5.2l-6.506-26.1a4.653 4.653 0 0 1 .737-4.026 4.377 4.377 0 0 1 3.548-1.633h325.808a7.125 7.125 0 0 1 6.515 5.2l6.505 26.1a4.653 4.653 0 0 1-.737 4.026 4.375 4.375 0 0 1-3.548 1.633m-334.543-35.041a2.511 2.511 0 0 0-2.043.9 2.736 2.736 0 0 0-.388 2.389l6.506 26.1a5.186 5.186 0 0 0 4.662 3.749H525.1a2.506 2.506 0 0 0 2.042-.9 2.724 2.724 0 0 0 .39-2.387l-6.507-26.1a5.184 5.184 0 0 0-4.66-3.748z" style="fill:#f1a34f"/>
                <path data-name="Trazado 332" d="M201.838 38.4a.672.672 0 0 0-.757-.571l-7.3 1.022a7.616 7.616 0 0 0-3.734-5.753l-.442-.258a7.625 7.625 0 0 0-7.133-.26l-2.887-7.24a.67.67 0 1 0-1.245.5l2.966 7.439a7.5 7.5 0 0 0-1.292 1.174 7.361 7.361 0 0 0-.824 1.154l-.8 1.382-6.715-3.9a.67.67 0 1 0-.674 1.159l6.715 3.9-.455.785a7.562 7.562 0 0 0-.884 2.356l-9.181 1.284a.67.67 0 0 0 .092 1.334.726.726 0 0 0 .093-.006l8.858-1.239a7.637 7.637 0 0 0 3.783 6.686l.442.256a7.631 7.631 0 0 0 7.406.13l3.149 7.9a.67.67 0 0 0 .623.423.659.659 0 0 0 .248-.048.67.67 0 0 0 .374-.871l-3.248-8.147a7.525 7.525 0 0 0 1.864-2.144l.455-.784c3.858 2.239 6.716 3.9 6.716 3.9a.67.67 0 1 0 .673-1.159L192 44.892l.8-1.382a7.656 7.656 0 0 0 .6-1.287 7.564 7.564 0 0 0 .411-2.026l7.457-1.043a.669.669 0 0 0 .571-.757" style="fill:#afcdfb"/>
                <path data-name="Trazado 333" d="m192.8 43.51-1.932 3.326a7.641 7.641 0 0 1-10.412 2.764l-.442-.256a7.642 7.642 0 0 1-2.761-10.415l1.932-3.326a7.361 7.361 0 0 1 .824-1.154l13.39 7.777a7.5 7.5 0 0 1-.6 1.287" style="fill:#e57970"/>
                <path data-name="Trazado 334" d="m48.686 125.923-8.437-2.393a7.568 7.568 0 0 0-.564-2.785l-.343-.839 7.187-2.945a.67.67 0 1 0-.508-1.24l-7.188 2.943-.606-1.478a7.469 7.469 0 0 0-2.011-2.818l3.721-6.546a.671.671 0 1 0-1.166-.663l-3.646 6.413a7.616 7.616 0 0 0-6.836-.549l-.473.195a7.62 7.62 0 0 0-4.557 5.493l-7.5-2.127a.67.67 0 1 0-.366 1.29l7.7 2.185a7.521 7.521 0 0 0 .143 1.739 7.342 7.342 0 0 0 .412 1.357l.606 1.48-7.187 2.943a.67.67 0 1 0 .508 1.241l7.187-2.944.343.84a7.564 7.564 0 0 0 1.329 2.136l-4.581 8.06a.671.671 0 0 0 .251.915.672.672 0 0 0 .914-.251l4.42-7.775a7.635 7.635 0 0 0 7.606 1.077l.474-.194a7.628 7.628 0 0 0 4.617-5.79l8.179 2.32a.687.687 0 0 0 .184.026.671.671 0 0 0 .182-1.316" style="fill:#afcdfb"/>
                <path data-name="Trazado 335" d="m38.228 117.186 1.457 3.559a7.64 7.64 0 0 1-4.162 9.939l-.474.194a7.642 7.642 0 0 1-9.938-4.162l-1.458-3.56a7.439 7.439 0 0 1-.411-1.357l14.328-5.869a7.482 7.482 0 0 1 .658 1.256" style="fill:#e57970"/>
                <path data-name="Trazado 336" d="M133.325 366.755c-.054.038-.113.086-.188.142-2.811 2.151-21.915 15.183-64.836 9.412a273.878 273.878 0 0 0-.822 4.9 270.167 270.167 0 0 0-.723 4.768l-.007.042c-.112.786-.222 1.564-.324 2.343s-.207 1.554-.3 2.33-.189 1.527-.28 2.287l-.007.038c-.085.756-.173 1.508-.253 2.258s-.16 1.5-.235 2.252-.149 1.488-.214 2.227-.132 1.47-.191 2.2a179.569 179.569 0 0 0-.224 2.903c-.028.37-.052.742-.076 1.112q-.022.291-.037.583a197.78 197.78 0 0 0-.212 3.826c0 .127-.011.25-.017.377-.02.491-.044.978-.062 1.46-.014.386-.031.767-.041 1.15a207.22 207.22 0 0 0-.092 3.643 207.209 207.209 0 0 0-.034 3.569v.149c0 .624 0 1.242.01 1.858q0 .769.019 1.527c0 .436.015.868.027 1.3 0 .15.005.3.009.454.013.45.025.9.039 1.343.016.48.033.953.051 1.425l.071 1.524c.025.592.056 1.178.091 1.765 0 .051.006.107.01.159a179.713 179.713 0 0 0 .239 3.503c.048.585.1 1.182.149 1.763s.1 1.166.159 1.74c.055.552.11 1.095.17 1.639.006.065.015.131.021.2a140.233 140.233 0 0 0 .386 3.231v.044c.073.542.142 1.084.22 1.623s.151 1.076.234 1.612a.428.428 0 0 1 0 .043l.244 1.558a.091.091 0 0 1 0 .027c.083.527.173 1.047.263 1.566s.184 1.044.278 1.561c.116.635.234 1.261.356 1.886.079.389.154.778.234 1.164.1.487.2.965.3 1.441l.044.187c.093.448.2.9.3 1.337.108.489.222.97.34 1.453a117.495 117.495 0 0 0 1.083 4.221c.123.453.248.9.377 1.343.09.328.185.652.28.976s.188.64.288.961c.074.252.153.5.231.754l.4 1.3q.421 1.29.855 2.548c.143.417.29.832.438 1.242s.3.822.445 1.224q.617 1.66 1.262 3.248c.127.317.258.631.39.945.187.452.375.9.568 1.343.15.347.3.7.457 1.038q1.244 2.8 2.559 5.359a94.926 94.926 0 0 0 1.774 3.3c.144.265.3.528.446.789.139.243.28.486.42.724.163.281.326.558.486.83a94.56 94.56 0 0 0 1.137 1.843c.127.211.26.418.391.621q.618.969 1.246 1.893c.147.222.3.441.444.656q1.472 2.139 2.94 4.031l.544.7q1.419 1.791 2.806 3.372c.294.334.589.665.88.986a1 1 0 0 1 .075.082c.175.19.349.382.525.568a74.51 74.51 0 0 0 3.552 3.588q.486.465.965.894.458.416.892.8c.015.011.03.026.045.038.292.253.575.5.853.738.481.407.949.794 1.4 1.156.128.1.25.2.378.3a57.082 57.082 0 0 0 2.292 1.727c.211.148.419.3.616.435.589.405 1.122.756 1.59 1.05.141.094.276.178.406.256.288.176.542.332.766.463.05.03.1.057.147.081s.1.061.143.086c.518.3.8.434.8.434q4.112-1.338 7.967-2.954a103.794 103.794 0 0 0 39.234-29.066c.027-.034.053-.063.076-.1 21.87-25.78 31.275-59.143 35.291-81.231.441-2.446.822-4.754 1.144-6.9-43.143-9.817-56.053-29.357-57.4-31.593" style="fill:#588fe0"/>
                <path data-name="Trazado 337" d="M183.4 408.542c-3.66 20.138-12.235 50.553-32.173 74.056-.021.031-.045.058-.07.089a94.615 94.615 0 0 1-35.767 26.5q-3.516 1.473-7.265 2.694s-.257-.124-.729-.395c-.043-.024-.085-.051-.13-.079s-.09-.047-.135-.074c-.2-.119-.435-.262-.7-.422a7.614 7.614 0 0 1-.371-.234 43.123 43.123 0 0 1-1.45-.956c-.18-.126-.369-.262-.562-.4a52.397 52.397 0 0 1-2.089-1.574c-.116-.091-.227-.181-.344-.272q-.617-.5-1.277-1.054c-.252-.217-.511-.443-.776-.673-.014-.01-.027-.024-.041-.035q-.4-.351-.814-.73a45.483 45.483 0 0 1-.88-.815 68.047 68.047 0 0 1-3.238-3.271c-.16-.169-.319-.346-.478-.518a.828.828 0 0 0-.069-.074c-.266-.293-.534-.6-.8-.9q-1.263-1.44-2.558-3.074l-.5-.634q-1.339-1.729-2.679-3.676c-.136-.2-.27-.395-.4-.6q-.572-.843-1.137-1.725c-.117-.185-.239-.374-.357-.566a81.24 81.24 0 0 1-1.035-1.681c-.146-.247-.3-.5-.443-.756a38 38 0 0 1-.382-.66c-.137-.238-.277-.477-.409-.719q-.578-1.032-1.142-2.1c-.16-.3-.316-.6-.475-.911q-1.194-2.332-2.332-4.885c-.142-.313-.279-.63-.417-.946q-.262-.609-.518-1.225c-.119-.287-.239-.572-.355-.862q-.591-1.447-1.15-2.96c-.137-.368-.271-.742-.406-1.116s-.269-.752-.4-1.133a140.28 140.28 0 0 1-.78-2.323q-.185-.588-.37-1.186c-.071-.231-.143-.458-.21-.688-.092-.293-.179-.581-.262-.876s-.174-.592-.256-.89a70.374 70.374 0 0 1-.343-1.225c-.108-.393-.217-.785-.32-1.186q-.347-1.309-.668-2.664a58.135 58.135 0 0 1-.309-1.323c-.092-.4-.185-.811-.27-1.219-.015-.058-.027-.114-.041-.171-.093-.433-.185-.869-.276-1.314-.073-.352-.141-.705-.213-1.061a128.503 128.503 0 0 1-.578-3.142c-.081-.478-.164-.947-.242-1.428a.041.041 0 0 0 0-.024l-.223-1.421v-.039c-.076-.488-.148-.979-.214-1.47l-.2-1.479v-.04a129.268 129.268 0 0 1-.353-2.945c-.006-.06-.014-.119-.018-.179a119.783 119.783 0 0 1-.302-3.079c-.046-.532-.091-1.067-.135-1.608s-.081-1.081-.118-1.628c-.036-.52-.07-1.039-.1-1.566 0-.047-.006-.1-.01-.145a104.4 104.4 0 0 1-.083-1.61l-.065-1.389a243.428 243.428 0 0 1-.083-2.524c0-.137 0-.277-.007-.414-.01-.39-.021-.785-.024-1.182q-.015-.691-.017-1.392c-.008-.562-.007-1.126-.01-1.694v-.135c0-.581 0-1.163.008-1.753 0-.5.013-1 .022-1.5.018-1.1.046-2.2.085-3.322.008-.348.023-.7.036-1.048.017-.44.039-.882.058-1.331 0-.115.009-.227.015-.343q.043-.9.094-1.8c.031-.562.067-1.123.1-1.688.009-.177.021-.354.033-.532.022-.338.044-.676.071-1.014.024-.4.053-.795.086-1.194.036-.483.077-.965.118-1.453.054-.667.112-1.337.174-2.006s.128-1.35.195-2.031.137-1.367.214-2.053l.231-2.059.006-.033c.082-.694.165-1.387.255-2.086s.181-1.415.278-2.124.193-1.42.295-2.137l.007-.038q.15-1.07.317-2.148c.107-.728.223-1.461.341-2.2q.35-2.206.75-4.466c39.129 5.261 56.546-6.62 59.109-8.581.067-.05.122-.1.17-.128 1.232 2.038 13 19.851 52.334 28.8a216.33 216.33 0 0 1-1.043 6.288" style="fill:#afcdfb"/>
                <path data-name="Trazado 338" d="M132.284 373.312 107.4 511.484a32.436 32.436 0 0 1-1.332-.809 41.176 41.176 0 0 1-1.45-.956c-.18-.126-.369-.262-.563-.4-.64-.457-1.34-.98-2.089-1.573-.115-.092-.227-.182-.343-.273a66.21 66.21 0 0 1-1.277-1.054l-.777-.673c-.014-.01-.027-.024-.041-.035q-.4-.351-.813-.73-.436-.393-.88-.815c-.15-.14-.3-.284-.449-.427a67.429 67.429 0 0 1-2.789-2.844c-.161-.169-.319-.346-.479-.518-.022-.027-.046-.051-.068-.074-.266-.293-.535-.6-.8-.9q-1.262-1.44-2.557-3.074l-.5-.633q-1.341-1.731-2.679-3.676l-.406-.6q-.572-.843-1.136-1.725c-.118-.185-.24-.374-.357-.566a77.134 77.134 0 0 1-1.035-1.681c-.146-.247-.295-.5-.443-.756a45.784 45.784 0 0 1-.383-.66c-.137-.238-.276-.477-.408-.719q-.579-1.032-1.142-2.1c-.16-.3-.316-.6-.475-.911q-1.194-2.332-2.333-4.885-.212-.469-.416-.946c-.176-.4-.347-.814-.518-1.225-.12-.287-.24-.572-.355-.862q-.591-1.447-1.151-2.96c-.136-.367-.271-.742-.4-1.116s-.27-.752-.4-1.133c-.262-.763-.524-1.538-.779-2.323q-.186-.588-.37-1.186c-.071-.231-.143-.458-.211-.688-.091-.293-.179-.581-.262-.876s-.173-.592-.256-.89a80.485 80.485 0 0 1-.343-1.225c-.108-.393-.216-.785-.319-1.185q-.348-1.311-.668-2.665a64.019 64.019 0 0 1-.31-1.323c-.091-.4-.185-.811-.27-1.219l-.04-.171c-.093-.433-.185-.869-.277-1.314-.073-.352-.141-.705-.213-1.061q-.167-.852-.324-1.719c-.087-.47-.173-.945-.253-1.423s-.165-.947-.242-1.428a.053.053 0 0 0 0-.024c-.074-.472-.149-.944-.222-1.421l-.013-.034c-.075-.488-.147-.979-.214-1.47l-.2-1.479a.385.385 0 0 0 0-.04 129.35 129.35 0 0 1-.352-2.945c-.006-.06-.015-.119-.019-.179a124.107 124.107 0 0 1-.302-3.079 183.341 183.341 0 0 1-.253-3.236c-.035-.52-.069-1.039-.1-1.566 0-.047-.006-.1-.009-.145-.032-.535-.06-1.069-.084-1.61-.021-.459-.044-.922-.064-1.388a173.78 173.78 0 0 1-.046-1.3 446.13 446.13 0 0 1-.037-1.224c0-.136 0-.277-.007-.414-.011-.39-.022-.785-.024-1.182q-.015-.691-.017-1.392c-.009-.562-.007-1.126-.01-1.694v-.135c0-.581 0-1.163.009-1.753 0-.5.012-1 .021-1.5.019-1.1.046-2.2.085-3.322.008-.348.024-.7.036-1.047.017-.441.039-.883.058-1.332l.015-.343q.043-.9.1-1.8c.031-.561.066-1.123.1-1.688.008-.177.021-.354.033-.532.022-.338.044-.675.07-1.013.024-.4.054-.8.087-1.194.036-.484.076-.966.117-1.454.054-.666.112-1.337.174-2.006s.128-1.35.195-2.03.138-1.368.214-2.054l.231-2.059.007-.033c.082-.694.164-1.387.255-2.086s.18-1.415.277-2.124.193-1.42.295-2.137l.007-.038q.151-1.07.317-2.148c.108-.728.224-1.461.342-2.2q.35-2.206.75-4.466c42.58 5.727 59.449-8.85 59.449-8.85" style="fill:#699dee"/>
            </g>
        </g>
    </g>
</svg>
