<svg data-name="Grupo 537" xmlns="http://www.w3.org/2000/svg" xmlns:xlink="http://www.w3.org/1999/xlink" width="553.208" height="510.113" viewBox="0 0 553.208 510.113">
    <defs>
        <clipPath id="ctqvl00c6e">
            <path data-name="Rectángulo 254" style="fill:none" d="M0 0h553.208v510.113H0z"/>
        </clipPath>
        <clipPath id="9ociscimqf">
            <path data-name="Trazado 340" d="M487.471 435.53a.492.492 0 0 1 0-.851l18.429-10.644a8.044 8.044 0 0 1 8.014 0l18.435 10.644a.492.492 0 0 1 0 .851l-18.429 10.642a8.034 8.034 0 0 1-8.013 0zm16.973-14.03-18.433 10.644a3.412 3.412 0 0 0 0 5.912l18.433 10.644a10.956 10.956 0 0 0 10.936 0l18.432-10.643a3.41 3.41 0 0 0 0-5.912L515.379 421.5a10.968 10.968 0 0 0-10.935 0" style="fill:none"/>
        </clipPath>
        <clipPath id="l85hafxvng">
            <path data-name="Trazado 341" d="M82.471 483.53a.493.493 0 0 1 0-.852l18.429-10.643a8.051 8.051 0 0 1 8.014 0l18.435 10.643a.493.493 0 0 1 0 .852l-18.429 10.642a8.034 8.034 0 0 1-8.013 0zm16.973-14.025-18.433 10.643a3.412 3.412 0 0 0 0 5.912l18.433 10.64a10.95 10.95 0 0 0 10.936 0l18.432-10.643a3.41 3.41 0 0 0 0-5.912l-18.433-10.643a10.961 10.961 0 0 0-10.935 0" style="fill:none"/>
        </clipPath>
        <clipPath id="2cj8yh7m2i">
            <path data-name="Trazado 342" d="m502.769 372.837-31.723-18.316a1.9 1.9 0 0 1 0-3.289l31.721-18.315a14.9 14.9 0 0 1 14.845 0l31.725 18.315a1.9 1.9 0 0 1 0 3.29l-31.724 18.315a14.894 14.894 0 0 1-14.844 0m-1.462-42.45L469.586 348.7a4.818 4.818 0 0 0 0 8.35l31.723 18.316a17.809 17.809 0 0 0 17.764 0l31.727-18.313a4.822 4.822 0 0 0 0-8.351l-31.725-18.315a17.8 17.8 0 0 0-17.764 0" style="fill:none"/>
        </clipPath>
        <clipPath id="d8gbo7d12k">
            <path data-name="Rectángulo 215" transform="translate(35.039 262.173)" style="fill:none" d="M0 0h390.722v225.584H0z"/>
        </clipPath>
        <clipPath id="a9ukps0spl">
            <path data-name="Trazado 344" d="M4.739 356.436a3.092 3.092 0 0 1-1.816-2.426c0-1.178 1.074-2.5 2.882-3.548l176.478-103.4a15.756 15.756 0 0 1 7.619-1.879 11.582 11.582 0 0 1 5.644 1.269L454.439 395.93a3.092 3.092 0 0 1 1.816 2.425c0 1.179-1.074 2.5-2.882 3.547L276.894 505.3c-3.879 2.242-9.953 2.521-13.259.61zm176.075-111.9-176.48 103.4C1.579 349.527 0 351.742 0 354.012a5.783 5.783 0 0 0 3.28 4.955L262.174 508.44a14.491 14.491 0 0 0 7.138 1.673 18.516 18.516 0 0 0 9.054-2.289l176.478-103.4c2.756-1.591 4.335-3.8 4.335-6.074a5.786 5.786 0 0 0-3.279-4.95L197.006 243.925a14.492 14.492 0 0 0-7.139-1.673 18.516 18.516 0 0 0-9.053 2.288" style="fill:none"/>
        </clipPath>
        <clipPath id="318w2l03sn">
            <path data-name="Trazado 345" d="m253.231 43.747-.02.008-4.184 1.458 1.473.347a7.294 7.294 0 0 0-1.38 2.585l-51.1 165.9c-1.267 4.114.588 9.113 4.141 11.164l225.95 130.452a6.6 6.6 0 0 0 1.662.678l-.559 1.22 4-1.4h-.009a6.387 6.387 0 0 0 3.635-4.226l51.1-165.9c1.265-4.114-.589-9.112-4.142-11.164L257.843 44.409a6.206 6.206 0 0 0-3.1-.876 5.386 5.386 0 0 0-1.507.214" style="fill:none"/>
        </clipPath>
        <clipPath id="s9zu3ezcyp">
            <path data-name="Trazado 346" d="M184.116 233.633 39.92 316.885l-4.808-1.836 1.351 6.745h.006a4.039 4.039 0 0 0 2.164 2.7l225.243 130.041c3.284 1.9 9.017 1.658 12.808-.531l144.563-83.463a5.775 5.775 0 0 0 3.063-3.57l.009.01 1.379-6.566-5.674 1.445.08.1-223.18-128.86a11.337 11.337 0 0 0-5.563-1.28 14.885 14.885 0 0 0-7.245 1.811" style="fill:none"/>
        </clipPath>
        <clipPath id="rhnnngjjcr">
            <path data-name="Trazado 347" d="M183.787 226.13 38.2 310.185c-3.818 2.205-4.232 5.539-.926 7.449L264.114 448.6c3.307 1.909 9.082 1.669 12.9-.535L422.6 364.01c3.818-2.2 4.233-5.539.926-7.448L196.687 225.6a11.418 11.418 0 0 0-5.6-1.289 14.992 14.992 0 0 0-7.3 1.824" style="fill:none"/>
        </clipPath>
        <clipPath id="jiwsk2lj2s">
            <path data-name="Rectángulo 221" transform="translate(137.398 254.803)" style="fill:none" d="M0 0h226.582v135.153H0z"/>
        </clipPath>
        <clipPath id="idaplge1ot">
            <path data-name="Trazado 497" d="m245.268 49.492-51.1 165.9c-1.266 4.115.588 9.113 4.141 11.165l225.95 130.451c3.553 2.052 7.459.38 8.724-3.735l51.1-165.9c1.265-4.115-.589-9.112-4.142-11.164L253.993 45.757a6.2 6.2 0 0 0-3.107-.877c-2.489 0-4.72 1.691-5.618 4.612" style="fill:none"/>
        </clipPath>
        <clipPath id="pmuz9jp65v">
            <path data-name="Trazado 498" d="m247.86 55.279-48.851 158.6a9.575 9.575 0 0 0 3.964 10.683L422.132 351.2c3.4 1.963 7.137.362 8.349-3.575l48.851-158.6a9.575 9.575 0 0 0-3.964-10.682L256.21 51.7a5.937 5.937 0 0 0-2.973-.838 5.727 5.727 0 0 0-5.377 4.413" style="fill:none"/>
        </clipPath>
        <clipPath id="d0dusmc6ux">
            <path data-name="Rectángulo 226" transform="translate(198.628 50.866)" style="fill:none" d="M0 0h281.085v301.175H0z"/>
        </clipPath>
        <clipPath id="my6ml0quvy">
            <path data-name="Rectángulo 228" transform="translate(259.017 97.787)" style="fill:none" d="M0 0h190.881v205.522H0z"/>
        </clipPath>
        <clipPath id="2te7snjihz">
            <path data-name="Trazado 502" d="m272.784 103.444-33.55 108.934a6.569 6.569 0 0 0 2.718 7.33l148.36 85.655c2.333 1.347 4.9.248 5.728-2.452l33.552-108.934a6.572 6.572 0 0 0-2.72-7.33l-148.36-85.655a4.067 4.067 0 0 0-2.039-.576 3.929 3.929 0 0 0-3.689 3.028" style="fill:none"/>
        </clipPath>
        <clipPath id="r0aql2n0gB">
            <path data-name="Rectángulo 231" transform="translate(238.972 100.416)" style="fill:none" d="M0 0h190.88v205.522H0z"/>
        </clipPath>
        <clipPath id="avts4hx0cC">
            <path data-name="Rectángulo 232" transform="translate(135.817 331.074)" style="fill:none" d="M0 0h108.254v63.244H0z"/>
        </clipPath>
        <clipPath id="3nat1hg64D">
            <path data-name="Trazado 531" d="m56.471 268.688-44.91-25.93a3.3 3.3 0 0 1 0-5.709L56.47 211.12a21.683 21.683 0 0 1 21.621 0L123 237.05a3.3 3.3 0 0 1 0 5.71l-44.907 25.928a21.692 21.692 0 0 1-21.622 0m-1.461-60.1L10.1 234.519a6.216 6.216 0 0 0 0 10.77l44.911 25.93a24.607 24.607 0 0 0 24.542 0l44.91-25.929a6.217 6.217 0 0 0 0-10.77l-44.911-25.93a24.607 24.607 0 0 0-24.542 0" style="fill:none"/>
        </clipPath>
        <clipPath id="kp6czdg93F">
            <path data-name="Rectángulo 235" transform="translate(36.207 222.705)" style="fill:none" d="M0 0h61.695v35.62H0z"/>
        </clipPath>
        <clipPath id="96sqq9vcoG">
            <path data-name="Trazado 533" d="m24.918 113.58 8.172 95.13c0 5.284 3.491 10.568 10.474 14.6 13.966 8.063 36.607 8.063 50.571 0 6.984-4.031 10.475-9.315 10.474-14.6l8.172-95.13z" style="fill:none"/>
        </clipPath>
        <clipPath id="d3yfmiuuwI">
            <path data-name="Rectángulo 238" transform="translate(24.918 113.58)" style="fill:none" d="M0 0h87.863v115.632H0z"/>
        </clipPath>
        <clipPath id="amzszu4t5J">
            <path data-name="Rectángulo 239" transform="translate(24.918 88.217)" style="fill:none" d="M0 0h87.863v50.727H0z"/>
        </clipPath>
        <clipPath id="7qyx7d85fK">
            <path data-name="Rectángulo 240" transform="translate(31.011 82.794)" style="fill:none" d="M0 0h75.678v43.692H0z"/>
        </clipPath>
        <clipPath id="8qn56a43hL">
            <path data-name="Trazado 537" d="M36.553 86.011c-8.739 5.046-13.185 11.627-13.36 18.239l-.011-.023-.8 7.585c-.022.2-.047.4-.062.592l-.013.124h.008c-.482 7.226 4.046 14.542 13.6 20.058 18.192 10.5 47.685 10.5 65.877 0 9.615-5.551 14.144-12.926 13.594-20.2v.006l-.007-.076c0-.044-.009-.087-.013-.131l-.844-8.517-.036.1c-.377-6.447-4.817-12.829-13.341-17.751-8.918-5.148-20.607-7.723-32.3-7.723s-23.378 2.575-32.3 7.723" style="fill:none"/>
        </clipPath>
        <clipPath id="r9jxkadqzN">
            <path data-name="Trazado 538" d="M42.093 89.192c-14.777 8.531-14.776 22.364 0 30.895s38.736 8.532 53.512 0 14.777-22.364 0-30.895c-7.39-4.267-17.072-6.4-26.758-6.4s-19.367 2.133-26.755 6.4" style="fill:none"/>
        </clipPath>
        <clipPath id="dqhrs40kiO">
            <path data-name="Trazado 539" d="M40.3 89.192c-14.778 8.531-14.777 22.364 0 30.895s38.736 8.532 53.513 0 14.777-22.364 0-30.895c-7.39-4.267-17.073-6.4-26.758-6.4s-19.368 2.133-26.755 6.4" style="fill:none"/>
        </clipPath>
        <clipPath id="uweoejdr1Q">
            <path data-name="Rectángulo 245" transform="translate(31.025 82.794)" style="fill:none" d="M0 0h69.599v36.955H0z"/>
        </clipPath>
        <clipPath id="vqr5nufu9R">
            <path data-name="Trazado 541" d="M42.093 89.192c-8.224 4.748-11.865 11.138-10.934 17.343.741-4.943 4.382-9.769 10.934-13.551 14.777-8.531 38.735-8.531 53.513 0 6.552 3.783 10.193 8.609 10.934 13.553.931-6.206-2.71-12.6-10.934-17.344-7.389-4.266-17.074-6.4-26.758-6.4s-19.366 2.132-26.755 6.4" style="fill:none"/>
        </clipPath>
        <clipPath id="cuqmobx6iS">
            <path data-name="Trazado 542" d="M42.094 120.087c-14.777-8.531-14.778-22.364 0-30.895s38.735-8.531 53.513 0 14.777 22.363 0 30.895a49.324 49.324 0 0 1-17.207 5.672l-.688-2.257a2.163 2.163 0 0 0-2.07-1.534H62.056a2.165 2.165 0 0 0-2.071 1.534l-.687 2.257a49.312 49.312 0 0 1-17.2-5.672M36.6 85.64c-17.993 10.178-18.14 26.936-.328 37.429s46.836 10.75 64.829.571 18.14-26.936.328-37.43c-9.083-5.351-21.085-8.039-33.05-8.04-11.5 0-22.961 2.482-31.779 7.47" style="fill:none"/>
        </clipPath>
        <clipPath id="izzhinhtcU">
            <path data-name="Trazado 546" d="M64.788 124.738a1.027 1.027 0 0 0-1.026 1.027v.143a1 1 0 0 0 .056.274 1.012 1.012 0 0 1 .97-.753h8.122a1.012 1.012 0 0 1 .971.753 1 1 0 0 0 .056-.274v-.143a1.027 1.027 0 0 0-1.027-1.027z" style="fill:none"/>
        </clipPath>
        <clipPath id="jha6tsenoW">
            <path data-name="Rectángulo 251" transform="translate(59.157 29.973)" style="fill:none" d="M0 0h29.56v95.864H0z"/>
        </clipPath>
        <clipPath id="8i4o38fq9X">
            <path data-name="Rectángulo 252" transform="translate(73.784)" style="fill:none" d="M0 0h13.432v46.726H0z"/>
        </clipPath>
        <linearGradient id="jxd459eaka" x1="-9.456" y1="2.99" x2="-9.436" y2="2.99" gradientUnits="objectBoundingBox">
            <stop offset="0" stop-color="#e39a65"/>
            <stop offset="1" stop-color="#e95f8d"/>
        </linearGradient>
        <linearGradient id="g25imlzqah" x1="-1.548" y1="1.397" x2="-1.529" y2="1.397" xlink:href="#jxd459eaka"/>
        <linearGradient id="fbsks82t7j" x1="-5.43" y1="3.662" x2="-5.418" y2="3.662" xlink:href="#jxd459eaka"/>
        <linearGradient id="pl7noub6qm" x1="0" y1="1" x2=".002" y2="1" xlink:href="#jxd459eaka"/>
        <linearGradient id="d53eo0sj7w" x1="-.7" y1="1.519" x2="-.696" y2="1.519" gradientUnits="objectBoundingBox">
            <stop offset="0" stop-color="#3919bb"/>
            <stop offset="1" stop-color="#6507fa"/>
        </linearGradient>
        <linearGradient id="532ranzokE" x1="-.058" y1="4.406" x2="-.05" y2="4.406" xlink:href="#jxd459eaka"/>
        <linearGradient id="g8ul7c9pfM" x1="-.232" y1="6.664" x2="-.221" y2="6.664" gradientUnits="objectBoundingBox">
            <stop offset="0" stop-color="#e39a65"/>
            <stop offset=".252" stop-color="#a92ffb"/>
            <stop offset=".556" stop-color="#3919bb"/>
            <stop offset="1" stop-color="#3919bb"/>
        </linearGradient>
        <linearGradient id="kyc53cvvlc" x1="-.329" y1="9.325" x2="-.317" y2="9.325" gradientUnits="objectBoundingBox">
            <stop offset="0" stop-color="#4f1fec"/>
            <stop offset="1" stop-color="#a92ffb"/>
        </linearGradient>
        <linearGradient id="fic2w93p2P" x1="-.307" y1="9.325" x2="-.295" y2="9.325" xlink:href="#kyc53cvvlc"/>
        <linearGradient id="vy46dz3f9d" x1="-.391" y1="17.998" x2="-.378" y2="17.998" gradientUnits="objectBoundingBox">
            <stop offset="0" stop-color="#131060"/>
            <stop offset=".185" stop-color="#140f62"/>
            <stop offset=".282" stop-color="#190f6a"/>
            <stop offset=".358" stop-color="#220f77"/>
            <stop offset=".424" stop-color="#2e0f8a"/>
            <stop offset=".482" stop-color="#3e0ea3"/>
            <stop offset=".536" stop-color="#510ec1"/>
            <stop offset=".585" stop-color="#680de5"/>
            <stop offset=".607" stop-color="#740df8"/>
            <stop offset=".618" stop-color="#7a14ef"/>
            <stop offset=".683" stop-color="#9b3cc2"/>
            <stop offset=".748" stop-color="#b75c9d"/>
            <stop offset=".812" stop-color="#cc7680"/>
            <stop offset=".876" stop-color="#db886b"/>
            <stop offset=".939" stop-color="#e4935f"/>
            <stop offset="1" stop-color="#e8975b"/>
        </linearGradient>
        <linearGradient id="pxs88bq8lV" x1="-6.267" y1="266.886" x2="-6.168" y2="266.886" xlink:href="#vy46dz3f9d"/>
        <radialGradient id="kstd7ebw7o" cx=".194" cy="-.023" r="1.117" gradientTransform="matrix(1.074 0 0 -1 .05 2.972)" gradientUnits="objectBoundingBox">
            <stop offset="0" stop-color="#e39a65"/>
            <stop offset=".474" stop-color="#a92ffb"/>
            <stop offset=".592" stop-color="#891cfa"/>
            <stop offset=".742" stop-color="#6507fa"/>
            <stop offset=".802" stop-color="#0d0c6f"/>
            <stop offset="1" stop-color="#0d0c6f"/>
        </radialGradient>
        <radialGradient id="8v74uzhf4q" cx=".01" cy=".383" r="1.707" gradientTransform="matrix(.575 0 0 -1 -.038 2.478)" gradientUnits="objectBoundingBox">
            <stop offset="0" stop-color="#e39a65"/>
            <stop offset=".474" stop-color="#a92ffb"/>
            <stop offset=".566" stop-color="#891cfa"/>
            <stop offset=".683" stop-color="#6507fa"/>
            <stop offset=".738" stop-color="#0d0c6f"/>
            <stop offset="1" stop-color="#0d0c6f"/>
        </radialGradient>
        <radialGradient id="bhsy4rc46b" cx=".103" cy=".073" r="1.52" gradientTransform="matrix(.576 0 0 -1 -.037 2.527)" gradientUnits="objectBoundingBox">
            <stop offset="0" stop-color="#e39a65"/>
            <stop offset=".474" stop-color="#a92ffb"/>
            <stop offset=".585" stop-color="#891cfa"/>
            <stop offset=".726" stop-color="#6507fa"/>
            <stop offset="1" stop-color="#3919bb"/>
        </radialGradient>
        <radialGradient id="9fn7izakhu" cx="-.112" cy=".205" r="1.116" gradientTransform="matrix(1.074 0 0 -1 .049 2.962)" xlink:href="#bhsy4rc46b"/>
        <radialGradient id="f2dj6eyrkA" cx="-1.075" cy="-.32" r="2.648" gradientTransform="matrix(1.074 0 0 -1 .092 3.972)" xlink:href="#bhsy4rc46b"/>
        <radialGradient id="udovac0ogH" cx="-.082" cy=".237" r="2.205" gradientTransform="matrix(1.341 0 0 -1 .097 6.733)" gradientUnits="objectBoundingBox">
            <stop offset="0" stop-color="#e39a65"/>
            <stop offset=".153" stop-color="#a92ffb"/>
            <stop offset=".409" stop-color="#3919bb"/>
            <stop offset=".931" stop-color="#3919bb"/>
            <stop offset="1" stop-color="#3919bb"/>
        </radialGradient>
        <radialGradient id="a9tpz3oadT" cx="-.077" cy=".087" r="3.053" gradientTransform="matrix(.552 0 0 -1 -.082 15.524)" gradientUnits="objectBoundingBox">
            <stop offset="0" stop-color="#e39a65"/>
            <stop offset=".252" stop-color="#a92ffb"/>
            <stop offset=".736" stop-color="#3919bb"/>
            <stop offset="1" stop-color="#3919bb"/>
        </radialGradient>
    </defs>
    <g data-name="Grupo 536" style="clip-path:url(#ctqvl00c6e)">
        <g data-name="Grupo 438">
            <g data-name="Grupo 437" style="clip-path:url(#9ociscimqf)">
                <path data-name="Rectángulo 212" transform="translate(484.303 420.044)" style="fill:url(#jxd459eaka)" d="M0 0h51.219v30.121H0z"/>
            </g>
        </g>
        <g data-name="Grupo 440">
            <g data-name="Grupo 439" style="clip-path:url(#l85hafxvng)">
                <path data-name="Rectángulo 213" transform="translate(79.303 468.044)" style="fill:url(#g25imlzqah)" d="M0 0h51.219v30.122H0z"/>
            </g>
        </g>
        <g data-name="Grupo 442">
            <g data-name="Grupo 441" style="clip-path:url(#2cj8yh7m2i)">
                <path data-name="Rectángulo 214" transform="translate(467.173 328.013)" style="fill:url(#fbsks82t7j)" d="M0 0h86.034v49.728H0z"/>
            </g>
        </g>
        <g data-name="Grupo 447">
            <g data-name="Grupo 446" style="clip-path:url(#ctqvl00c6e)">
                <g data-name="Grupo 445" style="opacity:.5">
                    <g data-name="Grupo 444">
                        <g data-name="Grupo 443" style="clip-path:url(#d8gbo7d12k)">
                            <path data-name="Trazado 343" d="M264.114 486.468 37.271 355.5c-3.306-1.909-2.891-5.243.926-7.447L183.787 264c3.818-2.205 9.593-2.444 12.9-.535l226.842 130.964c3.307 1.91 2.892 5.244-.926 7.448l-145.589 84.056c-3.818 2.2-9.594 2.444-12.9.535" style="fill:#020230"/>
                        </g>
                    </g>
                </g>
            </g>
        </g>
        <g data-name="Grupo 449">
            <g data-name="Grupo 448" style="clip-path:url(#a9ukps0spl)">
                <path data-name="Rectángulo 217" transform="translate(0 242.252)" style="fill:url(#pl7noub6qm)" d="M0 0h459.178v267.861H0z"/>
            </g>
        </g>
        <g data-name="Grupo 451">
            <g data-name="Grupo 450" style="clip-path:url(#318w2l03sn)">
                <path data-name="Rectángulo 218" transform="translate(196.754 43.533)" style="fill:url(#kstd7ebw7o)" d="M0 0h292.445v314.03H0z"/>
            </g>
        </g>
        <g data-name="Grupo 453">
            <g data-name="Grupo 452" style="clip-path:url(#s9zu3ezcyp)">
                <path data-name="Rectángulo 219" transform="translate(35.112 231.822)" style="fill:url(#8v74uzhf4q)" d="M0 0h390.586v224.609H0z"/>
            </g>
        </g>
        <g data-name="Grupo 455">
            <g data-name="Grupo 454" style="clip-path:url(#rhnnngjjcr)">
                <path data-name="Rectángulo 220" transform="translate(33.965 224.306)" style="fill:url(#bhsy4rc46b)" d="M0 0h392.871v226.204H0z"/>
            </g>
        </g>
        <g data-name="Grupo 463">
            <g data-name="Grupo 462" style="clip-path:url(#ctqvl00c6e)">
                <path data-name="Trazado 348" d="M422.6 362.243 277.014 446.3c-3.818 2.2-9.594 2.444-12.9.536L37.271 315.867a4.235 4.235 0 0 1-2.062-2.352c-.438 1.52.2 3.045 2.062 4.118L264.114 448.6c3.306 1.908 9.082 1.67 12.9-.535L422.6 364.011c2.517-1.454 3.521-3.393 2.989-5.1a6 6 0 0 1-2.989 3.328" style="fill:#fff"/>
                <g data-name="Grupo 458" style="opacity:.4">
                    <g data-name="Grupo 457">
                        <g data-name="Grupo 456" style="clip-path:url(#jiwsk2lj2s)">
                            <path data-name="Trazado 349" d="m145.472 296.379-7.659-4.422c-.614-.355-.537-.975.173-1.385l9.039-5.219a2.666 2.666 0 0 1 2.4-.1l7.659 4.421c.615.355.538.976-.172 1.385l-9.04 5.219a2.663 2.663 0 0 1-2.4.1" style="fill:#06033e"/>
                            <path data-name="Trazado 350" d="m157.3 303.208-7.658-4.422c-.615-.355-.538-.975.172-1.385l9.039-5.219a2.666 2.666 0 0 1 2.4-.1l7.659 4.421c.615.355.538.976-.172 1.385l-9.04 5.219a2.663 2.663 0 0 1-2.4.1" style="fill:#06033e"/>
                            <path data-name="Trazado 351" d="m169.126 310.036-7.659-4.422c-.614-.355-.537-.975.173-1.385l9.039-5.219a2.666 2.666 0 0 1 2.4-.1l7.659 4.421c.615.355.538.976-.172 1.385l-9.04 5.219a2.663 2.663 0 0 1-2.4.1" style="fill:#06033e"/>
                            <path data-name="Trazado 352" d="m185.484 304.4-7.659-4.422c-.614-.355-.537-.975.173-1.385l7.588-4.381a2.666 2.666 0 0 1 2.4-.1l7.659 4.421c.614.355.537.976-.173 1.386l-7.588 4.381a2.666 2.666 0 0 1-2.4.1" style="fill:#06033e"/>
                            <path data-name="Trazado 353" d="m197.311 311.225-7.658-4.422c-.615-.355-.538-.975.172-1.385l7.588-4.381a2.666 2.666 0 0 1 2.4-.1l7.659 4.421c.614.355.537.976-.173 1.386l-7.588 4.381a2.666 2.666 0 0 1-2.4.1" style="fill:#06033e"/>
                            <path data-name="Trazado 354" d="m209.138 318.054-7.659-4.422c-.614-.355-.537-.975.173-1.385l7.588-4.381a2.666 2.666 0 0 1 2.4-.1l7.659 4.421c.614.355.537.975-.173 1.385l-7.588 4.381a2.666 2.666 0 0 1-2.4.1" style="fill:#06033e"/>
                            <path data-name="Trazado 355" d="m220.965 324.882-7.659-4.422c-.614-.355-.537-.975.173-1.385l7.588-4.381a2.666 2.666 0 0 1 2.4-.1l7.659 4.421c.614.355.537.975-.173 1.385l-7.588 4.381a2.666 2.666 0 0 1-2.4.1" style="fill:#06033e"/>
                            <path data-name="Trazado 356" d="m232.792 331.71-7.658-4.422c-.615-.355-.538-.975.172-1.385l7.588-4.381a2.666 2.666 0 0 1 2.4-.1l7.659 4.421c.614.355.537.975-.173 1.385l-7.588 4.381a2.663 2.663 0 0 1-2.4.1" style="fill:#06033e"/>
                            <path data-name="Trazado 357" d="m244.619 338.539-7.659-4.422c-.614-.355-.537-.975.173-1.385l7.588-4.381a2.666 2.666 0 0 1 2.4-.1l7.659 4.421c.614.355.537.975-.173 1.385l-7.588 4.381a2.663 2.663 0 0 1-2.4.1" style="fill:#06033e"/>
                            <path data-name="Trazado 358" d="m256.446 345.367-7.659-4.422c-.614-.355-.537-.975.173-1.385l7.588-4.381a2.666 2.666 0 0 1 2.4-.1l7.659 4.421c.615.355.537.975-.173 1.385l-7.588 4.381a2.663 2.663 0 0 1-2.4.1" style="fill:#06033e"/>
                            <path data-name="Trazado 359" d="m268.273 352.2-7.658-4.422c-.615-.355-.538-.975.172-1.385l7.588-4.381a2.666 2.666 0 0 1 2.4-.1l7.659 4.421c.614.355.537.975-.173 1.385l-7.588 4.382a2.666 2.666 0 0 1-2.4.1" style="fill:#06033e"/>
                            <path data-name="Trazado 360" d="m280.1 359.024-7.659-4.422c-.614-.355-.537-.975.173-1.385l7.588-4.381a2.666 2.666 0 0 1 2.4-.1l7.659 4.421c.615.355.537.975-.173 1.385l-7.588 4.382a2.666 2.666 0 0 1-2.4.1" style="fill:#06033e"/>
                            <path data-name="Trazado 361" d="m291.927 365.852-7.659-4.422c-.614-.355-.537-.975.173-1.385l7.588-4.381a2.666 2.666 0 0 1 2.4-.1l7.659 4.421c.615.355.537.975-.173 1.385l-7.588 4.382a2.666 2.666 0 0 1-2.4.1" style="fill:#06033e"/>
                            <path data-name="Trazado 362" d="m202.91 301.164-7.658-4.422c-.615-.355-.538-.975.172-1.385l7.588-4.381a2.666 2.666 0 0 1 2.4-.1l7.659 4.421c.614.355.537.976-.173 1.386l-7.588 4.381a2.666 2.666 0 0 1-2.4.1" style="fill:#06033e"/>
                            <path data-name="Trazado 363" d="m190.906 294.234-7.659-4.422c-.614-.355-.537-.975.173-1.385l7.588-4.381a2.666 2.666 0 0 1 2.4-.1l7.659 4.421c.614.355.537.976-.173 1.386l-7.588 4.381a2.666 2.666 0 0 1-2.4.1" style="fill:#06033e"/>
                            <path data-name="Trazado 364" d="m178.883 287.292-16.494-9.523c-.615-.355-.538-.975.172-1.385l7.588-4.384a2.666 2.666 0 0 1 2.4-.1l16.495 9.523c.614.355.537.976-.173 1.386l-7.588 4.381a2.666 2.666 0 0 1-2.4.1" style="fill:#06033e"/>
                            <path data-name="Trazado 365" d="m187.287 278.85-13.387-7.728c-.615-.355-.538-.975.173-1.385l7.588-4.381a2.666 2.666 0 0 1 2.4-.1l13.386 7.728c.614.355.537.976-.173 1.386l-7.588 4.381a2.666 2.666 0 0 1-2.4.1" style="fill:#06033e"/>
                            <path data-name="Trazado 366" d="m214.737 307.992-7.659-4.422c-.614-.355-.537-.975.173-1.385l7.588-4.381a2.666 2.666 0 0 1 2.4-.1l7.659 4.421c.614.355.537.976-.173 1.386l-7.588 4.381a2.666 2.666 0 0 1-2.4.1" style="fill:#06033e"/>
                            <path data-name="Trazado 367" d="M226.564 314.821 218.9 310.4c-.614-.355-.537-.975.173-1.385l7.588-4.381a2.666 2.666 0 0 1 2.4-.1l7.659 4.421c.614.355.537.976-.173 1.386l-7.588 4.381a2.666 2.666 0 0 1-2.4.1" style="fill:#06033e"/>
                            <path data-name="Trazado 368" d="m238.391 321.649-7.658-4.422c-.615-.355-.538-.975.172-1.385l7.588-4.381a2.666 2.666 0 0 1 2.4-.1l7.659 4.421c.614.355.537.976-.173 1.386l-7.588 4.381a2.666 2.666 0 0 1-2.4.1" style="fill:#06033e"/>
                            <path data-name="Trazado 369" d="m250.218 328.478-7.659-4.422c-.614-.355-.537-.975.173-1.385l7.588-4.381a2.666 2.666 0 0 1 2.4-.1l7.659 4.421c.614.355.537.976-.173 1.386l-7.588 4.381a2.666 2.666 0 0 1-2.4.1" style="fill:#06033e"/>
                            <path data-name="Trazado 370" d="m262.045 335.306-7.659-4.422c-.614-.355-.537-.975.173-1.385l7.588-4.381a2.666 2.666 0 0 1 2.4-.1l7.659 4.421c.614.355.537.976-.173 1.386l-7.588 4.381a2.666 2.666 0 0 1-2.4.1" style="fill:#06033e"/>
                            <path data-name="Trazado 371" d="m273.872 342.134-7.658-4.422c-.615-.355-.538-.975.172-1.385l7.588-4.381a2.666 2.666 0 0 1 2.4-.1l7.659 4.421c.615.355.538.976-.173 1.386l-7.588 4.381a2.666 2.666 0 0 1-2.4.1" style="fill:#06033e"/>
                            <path data-name="Trazado 372" d="m285.7 348.963-7.659-4.422c-.614-.355-.537-.975.173-1.385l7.588-4.381a2.666 2.666 0 0 1 2.4-.1l7.659 4.421c.614.355.537.976-.173 1.386l-7.588 4.381a2.666 2.666 0 0 1-2.4.1" style="fill:#06033e"/>
                            <path data-name="Trazado 373" d="m297.526 355.791-7.659-4.422c-.614-.355-.537-.975.173-1.385l7.588-4.381a2.666 2.666 0 0 1 2.4-.1l7.659 4.421c.614.355.537.975-.173 1.385l-7.588 4.381a2.666 2.666 0 0 1-2.4.1" style="fill:#06033e"/>
                            <path data-name="Trazado 374" d="M309.354 362.619 301.7 358.2c-.614-.355-.537-.975.173-1.385l7.588-4.381a2.666 2.666 0 0 1 2.4-.1l7.659 4.421c.614.355.537.975-.173 1.385l-7.588 4.381a2.666 2.666 0 0 1-2.4.1" style="fill:#06033e"/>
                            <path data-name="Trazado 375" d="m330.379 374.758-16.71-9.647c-.615-.355-.538-.975.172-1.385l7.588-4.381a2.666 2.666 0 0 1 2.4-.1l16.711 9.647c.614.355.537.975-.173 1.386l-7.588 4.381a2.663 2.663 0 0 1-2.4.1" style="fill:#06033e"/>
                            <path data-name="Trazado 376" d="m353.4 361.465-14.1-8.143c-.615-.355-.538-.975.172-1.385l7.588-4.381a2.669 2.669 0 0 1 2.4-.1l14.1 8.143c.614.355.537.975-.173 1.385l-7.588 4.382a2.666 2.666 0 0 1-2.4.1" style="fill:#06033e"/>
                            <path data-name="Trazado 377" d="m235.449 306.657-7.658-4.422c-.615-.355-.538-.975.172-1.385l7.588-4.381a2.666 2.666 0 0 1 2.4-.1l7.659 4.421c.614.355.537.975-.173 1.385l-7.588 4.382a2.666 2.666 0 0 1-2.4.1" style="fill:#06033e"/>
                            <path data-name="Trazado 378" d="m223.327 299.658-7.658-4.422c-.615-.355-.538-.975.172-1.385l7.588-4.381a2.666 2.666 0 0 1 2.4-.1l7.659 4.421c.615.355.537.976-.173 1.386l-7.588 4.381a2.666 2.666 0 0 1-2.4.1" style="fill:#06033e"/>
                            <path data-name="Trazado 379" d="m211.206 292.66-7.658-4.422c-.615-.355-.538-.975.172-1.385l7.588-4.381a2.666 2.666 0 0 1 2.4-.1l7.659 4.421c.615.355.538.975-.173 1.385l-7.588 4.382a2.666 2.666 0 0 1-2.4.1" style="fill:#06033e"/>
                            <path data-name="Trazado 380" d="m199.085 285.662-7.659-4.422c-.614-.355-.537-.975.173-1.385l7.588-4.381a2.666 2.666 0 0 1 2.4-.1l7.659 4.421c.614.355.537.975-.173 1.386l-7.588 4.381a2.666 2.666 0 0 1-2.4.1" style="fill:#06033e"/>
                            <path data-name="Trazado 381" d="m247.276 313.485-7.659-4.422c-.614-.355-.537-.975.173-1.385l7.588-4.381a2.666 2.666 0 0 1 2.4-.1l7.659 4.421c.614.355.537.975-.173 1.385l-7.588 4.382a2.666 2.666 0 0 1-2.4.1" style="fill:#06033e"/>
                            <path data-name="Trazado 382" d="m259.1 320.313-7.659-4.422c-.614-.355-.537-.975.173-1.385l7.588-4.381a2.666 2.666 0 0 1 2.4-.1l7.659 4.421c.615.355.537.975-.173 1.385l-7.588 4.382a2.666 2.666 0 0 1-2.4.1" style="fill:#06033e"/>
                            <path data-name="Trazado 383" d="m270.93 327.142-7.658-4.422c-.615-.355-.538-.975.172-1.385l7.588-4.381a2.666 2.666 0 0 1 2.4-.1l7.659 4.421c.614.355.537.975-.173 1.385l-7.588 4.382a2.666 2.666 0 0 1-2.4.1" style="fill:#06033e"/>
                            <path data-name="Trazado 384" d="m282.757 333.97-7.659-4.422c-.614-.355-.537-.975.173-1.385l7.588-4.381a2.666 2.666 0 0 1 2.4-.1l7.659 4.421c.614.355.537.975-.173 1.385l-7.588 4.382a2.666 2.666 0 0 1-2.4.1" style="fill:#06033e"/>
                            <path data-name="Trazado 385" d="m294.584 340.8-7.659-4.422c-.614-.355-.537-.975.173-1.385l7.588-4.381a2.666 2.666 0 0 1 2.4-.1l7.659 4.421c.615.355.537.975-.173 1.385l-7.588 4.382a2.666 2.666 0 0 1-2.4.1" style="fill:#06033e"/>
                            <path data-name="Trazado 386" d="m306.411 347.627-7.658-4.422c-.615-.355-.538-.975.172-1.385l7.588-4.381a2.666 2.666 0 0 1 2.4-.1l7.659 4.421c.614.355.537.975-.173 1.385l-7.588 4.382a2.666 2.666 0 0 1-2.4.1" style="fill:#06033e"/>
                            <path data-name="Trazado 387" d="m318.238 354.455-7.659-4.422c-.614-.355-.537-.975.173-1.385l7.588-4.381a2.666 2.666 0 0 1 2.4-.1l7.659 4.421c.615.355.537.975-.173 1.385l-7.588 4.382a2.666 2.666 0 0 1-2.4.1" style="fill:#06033e"/>
                            <path data-name="Trazado 388" d="m330.065 361.283-7.659-4.422c-.614-.355-.537-.975.173-1.385l7.588-4.381a2.666 2.666 0 0 1 2.4-.1l7.659 4.421c.614.355.537.975-.173 1.385l-7.588 4.382a2.666 2.666 0 0 1-2.4.1" style="fill:#06033e"/>
                            <path data-name="Trazado 389" d="m341.892 368.112-7.658-4.422c-.615-.355-.538-.975.172-1.385l7.588-4.381a2.666 2.666 0 0 1 2.4-.1l7.659 4.421c.615.355.538.975-.173 1.385l-7.588 4.382a2.666 2.666 0 0 1-2.4.1" style="fill:#06033e"/>
                            <path data-name="Trazado 390" d="m229.221 289.767-7.659-4.422c-.614-.355-.537-.975.173-1.385l7.588-4.381a2.666 2.666 0 0 1 2.4-.1l7.659 4.421c.614.355.537.975-.173 1.385l-7.588 4.381a2.666 2.666 0 0 1-2.4.1" style="fill:#06033e"/>
                            <path data-name="Trazado 391" d="m217.453 282.973-7.659-4.422c-.614-.355-.537-.975.173-1.385l7.588-4.381a2.666 2.666 0 0 1 2.4-.1l7.659 4.421c.614.355.537.975-.173 1.385l-7.588 4.382a2.666 2.666 0 0 1-2.4.1" style="fill:#06033e"/>
                            <path data-name="Trazado 392" d="m205.685 276.178-7.659-4.422c-.614-.355-.537-.975.173-1.385l7.588-4.381a2.666 2.666 0 0 1 2.4-.1l7.659 4.421c.614.355.537.975-.173 1.385l-7.588 4.382a2.666 2.666 0 0 1-2.4.1" style="fill:#06033e"/>
                            <path data-name="Trazado 393" d="m193.917 269.384-7.66-4.422c-.614-.355-.537-.975.173-1.385l7.588-4.381a2.666 2.666 0 0 1 2.4-.1l7.659 4.421c.614.355.537.976-.172 1.386l-7.589 4.381a2.664 2.664 0 0 1-2.4.1" style="fill:#06033e"/>
                            <path data-name="Trazado 394" d="m206.018 262.4-7.658-4.422c-.615-.355-.538-.975.172-1.385l2.508-1.448a2.669 2.669 0 0 1 2.4-.1l7.659 4.422c.615.355.538.975-.172 1.385l-2.509 1.449a2.666 2.666 0 0 1-2.4.1" style="fill:#06033e"/>
                            <path data-name="Trazado 395" d="m221.375 271.264-7.658-4.422c-.615-.355-.538-.975.172-1.385l2.508-1.448a2.666 2.666 0 0 1 2.4-.1l7.659 4.421c.615.355.538.975-.172 1.385l-2.509 1.449a2.666 2.666 0 0 1-2.4.1" style="fill:#06033e"/>
                            <path data-name="Trazado 396" d="m233.094 278.03-7.658-4.422c-.615-.355-.538-.975.172-1.385l2.508-1.448a2.67 2.67 0 0 1 2.4-.1l7.659 4.422c.615.355.538.975-.172 1.385l-2.509 1.449a2.666 2.666 0 0 1-2.4.1" style="fill:#06033e"/>
                            <path data-name="Trazado 397" d="m244.814 284.8-7.659-4.422c-.614-.355-.537-.975.173-1.385l2.508-1.448a2.67 2.67 0 0 1 2.4-.1l7.659 4.422c.615.355.538.975-.172 1.385l-2.509 1.449a2.666 2.666 0 0 1-2.4.1" style="fill:#06033e"/>
                            <path data-name="Trazado 398" d="m256.533 291.562-7.659-4.422c-.614-.355-.537-.975.173-1.385l2.508-1.448a2.663 2.663 0 0 1 2.4-.1l7.659 4.421c.615.355.538.975-.172 1.385l-2.509 1.449a2.666 2.666 0 0 1-2.4.1" style="fill:#06033e"/>
                            <path data-name="Trazado 399" d="m321.959 329.336-7.659-4.422c-.614-.355-.537-.975.173-1.385l2.508-1.448a2.67 2.67 0 0 1 2.4-.1l7.659 4.422c.615.355.538.975-.172 1.385l-2.509 1.449a2.666 2.666 0 0 1-2.4.1" style="fill:#06033e"/>
                            <path data-name="Trazado 400" d="m333.678 336.1-7.658-4.422c-.615-.355-.538-.975.172-1.385l2.508-1.448a2.67 2.67 0 0 1 2.4-.1l7.659 4.422c.615.355.538.975-.172 1.385l-2.51 1.448a2.666 2.666 0 0 1-2.4.1" style="fill:#06033e"/>
                            <path data-name="Trazado 401" d="m345.4 342.868-7.658-4.422c-.615-.355-.538-.975.172-1.385l2.508-1.448a2.666 2.666 0 0 1 2.4-.1l7.659 4.421c.615.355.538.975-.172 1.385l-2.509 1.449a2.666 2.666 0 0 1-2.4.1" style="fill:#06033e"/>
                            <path data-name="Trazado 402" d="m357.117 349.634-7.658-4.422c-.615-.355-.538-.975.172-1.385l2.508-1.448a2.669 2.669 0 0 1 2.4-.1l7.661 4.421c.615.355.538.975-.172 1.385l-2.509 1.449a2.666 2.666 0 0 1-2.4.1" style="fill:#06033e"/>
                            <path data-name="Trazado 403" d="m241.048 296.6-7.658-4.422c-.615-.355-.538-.975.172-1.385l7.588-4.381a2.666 2.666 0 0 1 2.4-.1l7.659 4.421c.614.355.537.975-.173 1.385l-7.588 4.381a2.663 2.663 0 0 1-2.4.1" style="fill:#06033e"/>
                            <path data-name="Trazado 404" d="M252.875 303.424 245.216 299c-.614-.355-.537-.975.173-1.385l7.588-4.381a2.666 2.666 0 0 1 2.4-.1l7.659 4.421c.614.355.537.975-.173 1.385l-7.588 4.381a2.663 2.663 0 0 1-2.4.1" style="fill:#06033e"/>
                            <path data-name="Trazado 405" d="m264.7 310.252-7.659-4.422c-.614-.355-.537-.975.173-1.385l7.588-4.381a2.666 2.666 0 0 1 2.4-.1l7.659 4.421c.614.355.537.975-.173 1.385l-7.588 4.382a2.666 2.666 0 0 1-2.4.1" style="fill:#06033e"/>
                            <path data-name="Trazado 406" d="m276.529 317.08-7.658-4.422c-.615-.355-.538-.975.172-1.385l7.588-4.381a2.666 2.666 0 0 1 2.4-.1l7.659 4.421c.615.355.538.975-.173 1.385l-7.588 4.382a2.666 2.666 0 0 1-2.4.1" style="fill:#06033e"/>
                            <path data-name="Trazado 407" d="m288.356 323.909-7.659-4.422c-.614-.355-.537-.975.173-1.385l7.588-4.381a2.666 2.666 0 0 1 2.4-.1l7.659 4.421c.614.355.537.975-.173 1.385l-7.588 4.382a2.666 2.666 0 0 1-2.4.1" style="fill:#06033e"/>
                            <path data-name="Trazado 408" d="m300.184 330.737-7.66-4.422c-.614-.355-.537-.975.173-1.385l7.588-4.381a2.666 2.666 0 0 1 2.4-.1l7.659 4.421c.614.355.537.975-.172 1.385l-7.589 4.382a2.664 2.664 0 0 1-2.4.1" style="fill:#06033e"/>
                            <path data-name="Trazado 409" d="m312.01 337.565-7.658-4.422c-.615-.355-.538-.975.172-1.385l7.588-4.381a2.666 2.666 0 0 1 2.4-.1l7.659 4.421c.615.355.538.975-.173 1.385l-7.588 4.382a2.666 2.666 0 0 1-2.4.1" style="fill:#06033e"/>
                            <path data-name="Trazado 410" d="m323.837 344.394-7.658-4.422c-.615-.355-.538-.975.172-1.385l7.588-4.381a2.666 2.666 0 0 1 2.4-.1l7.661 4.422c.614.355.537.975-.173 1.385l-7.588 4.382a2.666 2.666 0 0 1-2.4.1" style="fill:#06033e"/>
                            <path data-name="Trazado 411" d="m335.665 351.222-7.659-4.422c-.614-.355-.537-.975.173-1.385l7.588-4.381a2.666 2.666 0 0 1 2.4-.1l7.659 4.421c.615.355.537.975-.173 1.385l-7.588 4.382a2.666 2.666 0 0 1-2.4.1" style="fill:#06033e"/>
                            <path data-name="Trazado 412" d="m173.431 297.438-22.555-13.022c-.615-.355-.538-.975.172-1.385l7.588-4.381a2.668 2.668 0 0 1 2.4-.1l22.555 13.022c.615.355.537.976-.173 1.386l-7.588 4.381a2.666 2.666 0 0 1-2.4.1" style="fill:#06033e"/>
                            <path data-name="Trazado 413" d="M318.729 381.326 296.174 368.3c-.615-.355-.538-.975.172-1.385l7.589-4.381a2.664 2.664 0 0 1 2.4-.1l22.556 13.022c.614.355.537.975-.173 1.385l-7.588 4.382a2.666 2.666 0 0 1-2.4.1" style="fill:#06033e"/>
                            <path data-name="Trazado 414" d="m271.431 369.1-7.658-4.422c-.615-.355-.538-.975.172-1.385l9.039-5.219a2.668 2.668 0 0 1 2.4-.1l7.658 4.421c.615.355.538.976-.172 1.385l-9.04 5.22a2.666 2.666 0 0 1-2.4.1" style="fill:#06033e"/>
                            <path data-name="Trazado 415" d="m185.543 319.514-12.248-7.071c-.615-.355-.538-.976.172-1.386l9.04-5.219a2.669 2.669 0 0 1 2.4-.1l12.248 7.071c.615.355.538.976-.172 1.385l-9.04 5.22a2.666 2.666 0 0 1-2.4.1" style="fill:#06033e"/>
                            <path data-name="Trazado 416" d="m260.036 362.523-12.248-7.071c-.615-.355-.538-.975.172-1.386l9.04-5.219a2.669 2.669 0 0 1 2.4-.1l12.248 7.071c.615.355.538.976-.172 1.385l-9.04 5.22a2.666 2.666 0 0 1-2.4.1" style="fill:#06033e"/>
                            <path data-name="Trazado 417" d="m202.607 329.366-12.248-7.066c-.615-.356-.538-.976.172-1.386l9.04-5.219a2.666 2.666 0 0 1 2.4-.1l12.248 7.071c.615.355.538.976-.172 1.385l-9.04 5.219a2.666 2.666 0 0 1-2.4.1" style="fill:#06033e"/>
                            <path data-name="Trazado 418" d="m202.053 315.639 53.247 30.745a.729.729 0 0 1 0 1.381l-9.218 5.322a2.642 2.642 0 0 1-2.393 0l-53.251-30.744z" style="fill:#06033e"/>
                            <path data-name="Trazado 419" d="m304.486 381.482 8.531 4.925c.5.291.441.8-.141 1.135l-3.7 2.136a2.187 2.187 0 0 1-1.967.081l-8.53-4.925c-.5-.291-.441-.8.141-1.136l3.7-2.134a2.182 2.182 0 0 1 1.966-.082" style="fill:#06033e"/>
                            <path data-name="Trazado 420" d="m292.561 374.6 8.531 4.925c.5.291.441.8-.141 1.136l-3.7 2.135a2.19 2.19 0 0 1-1.967.081l-8.53-4.925c-.5-.291-.441-.8.141-1.136l3.7-2.134a2.185 2.185 0 0 1 1.966-.082" style="fill:#06033e"/>
                            <path data-name="Trazado 421" d="m280.734 367.769 8.531 4.925c.5.291.441.8-.141 1.136l-3.7 2.135a2.187 2.187 0 0 1-1.967.081l-8.53-4.925c-.5-.291-.441-.8.141-1.136l3.7-2.134a2.185 2.185 0 0 1 1.966-.082" style="fill:#06033e"/>
                            <path data-name="Trazado 422" d="m299.092 370.827 8.531 4.925c.5.291.441.8-.141 1.135l-3.7 2.136a2.187 2.187 0 0 1-1.967.081l-8.53-4.925c-.5-.291-.441-.8.141-1.136l3.7-2.134a2.182 2.182 0 0 1 1.966-.082" style="fill:#06033e"/>
                        </g>
                    </g>
                </g>
                <g data-name="Grupo 461" style="opacity:.4">
                    <g data-name="Grupo 460">
                        <g data-name="Grupo 459" style="clip-path:url(#jiwsk2lj2s)">
                            <path data-name="Trazado 423" d="m145.472 296.379-7.659-4.422c-.614-.355-.537-.975.173-1.385l9.039-5.219a2.666 2.666 0 0 1 2.4-.1l7.659 4.421c.615.355.538.976-.172 1.385l-9.04 5.219a2.663 2.663 0 0 1-2.4.1" style="fill:#06033e"/>
                            <path data-name="Trazado 424" d="m157.3 303.208-7.658-4.422c-.615-.355-.538-.975.172-1.385l9.039-5.219a2.666 2.666 0 0 1 2.4-.1l7.659 4.421c.615.355.538.976-.172 1.385l-9.04 5.219a2.663 2.663 0 0 1-2.4.1" style="fill:#06033e"/>
                            <path data-name="Trazado 425" d="m169.126 310.036-7.659-4.422c-.614-.355-.537-.975.173-1.385l9.039-5.219a2.666 2.666 0 0 1 2.4-.1l7.659 4.421c.615.355.538.976-.172 1.385l-9.04 5.219a2.663 2.663 0 0 1-2.4.1" style="fill:#06033e"/>
                            <path data-name="Trazado 426" d="m185.484 304.4-7.659-4.422c-.614-.355-.537-.975.173-1.385l7.588-4.381a2.666 2.666 0 0 1 2.4-.1l7.659 4.421c.614.355.537.976-.173 1.386l-7.588 4.381a2.666 2.666 0 0 1-2.4.1" style="fill:#06033e"/>
                            <path data-name="Trazado 427" d="m197.311 311.225-7.658-4.422c-.615-.355-.538-.975.172-1.385l7.588-4.381a2.666 2.666 0 0 1 2.4-.1l7.659 4.421c.614.355.537.976-.173 1.386l-7.588 4.381a2.666 2.666 0 0 1-2.4.1" style="fill:#06033e"/>
                            <path data-name="Trazado 428" d="m209.138 318.054-7.659-4.422c-.614-.355-.537-.975.173-1.385l7.588-4.381a2.666 2.666 0 0 1 2.4-.1l7.659 4.421c.614.355.537.975-.173 1.385l-7.588 4.381a2.666 2.666 0 0 1-2.4.1" style="fill:#06033e"/>
                            <path data-name="Trazado 429" d="m220.965 324.882-7.659-4.422c-.614-.355-.537-.975.173-1.385l7.588-4.381a2.666 2.666 0 0 1 2.4-.1l7.659 4.421c.614.355.537.975-.173 1.385l-7.588 4.381a2.666 2.666 0 0 1-2.4.1" style="fill:#06033e"/>
                            <path data-name="Trazado 430" d="m232.792 331.71-7.658-4.422c-.615-.355-.538-.975.172-1.385l7.588-4.381a2.666 2.666 0 0 1 2.4-.1l7.659 4.421c.614.355.537.975-.173 1.385l-7.588 4.381a2.663 2.663 0 0 1-2.4.1" style="fill:#06033e"/>
                            <path data-name="Trazado 431" d="m244.619 338.539-7.659-4.422c-.614-.355-.537-.975.173-1.385l7.588-4.381a2.666 2.666 0 0 1 2.4-.1l7.659 4.421c.614.355.537.975-.173 1.385l-7.588 4.381a2.663 2.663 0 0 1-2.4.1" style="fill:#06033e"/>
                            <path data-name="Trazado 432" d="m256.446 345.367-7.659-4.422c-.614-.355-.537-.975.173-1.385l7.588-4.381a2.666 2.666 0 0 1 2.4-.1l7.659 4.421c.615.355.537.975-.173 1.385l-7.588 4.381a2.663 2.663 0 0 1-2.4.1" style="fill:#06033e"/>
                            <path data-name="Trazado 433" d="m268.273 352.2-7.658-4.422c-.615-.355-.538-.975.172-1.385l7.588-4.381a2.666 2.666 0 0 1 2.4-.1l7.659 4.421c.614.355.537.975-.173 1.385l-7.588 4.382a2.666 2.666 0 0 1-2.4.1" style="fill:#06033e"/>
                            <path data-name="Trazado 434" d="m280.1 359.024-7.659-4.422c-.614-.355-.537-.975.173-1.385l7.588-4.381a2.666 2.666 0 0 1 2.4-.1l7.659 4.421c.615.355.537.975-.173 1.385l-7.588 4.382a2.666 2.666 0 0 1-2.4.1" style="fill:#06033e"/>
                            <path data-name="Trazado 435" d="m291.927 365.852-7.659-4.422c-.614-.355-.537-.975.173-1.385l7.588-4.381a2.666 2.666 0 0 1 2.4-.1l7.659 4.421c.615.355.537.975-.173 1.385l-7.588 4.382a2.666 2.666 0 0 1-2.4.1" style="fill:#06033e"/>
                            <path data-name="Trazado 436" d="m202.91 301.164-7.658-4.422c-.615-.355-.538-.975.172-1.385l7.588-4.381a2.666 2.666 0 0 1 2.4-.1l7.659 4.421c.614.355.537.976-.173 1.386l-7.588 4.381a2.666 2.666 0 0 1-2.4.1" style="fill:#06033e"/>
                            <path data-name="Trazado 437" d="m190.906 294.234-7.659-4.422c-.614-.355-.537-.975.173-1.385l7.588-4.381a2.666 2.666 0 0 1 2.4-.1l7.659 4.421c.614.355.537.976-.173 1.386l-7.588 4.381a2.666 2.666 0 0 1-2.4.1" style="fill:#06033e"/>
                            <path data-name="Trazado 438" d="m178.883 287.292-16.494-9.523c-.615-.355-.538-.975.172-1.385l7.588-4.384a2.666 2.666 0 0 1 2.4-.1l16.495 9.523c.614.355.537.976-.173 1.386l-7.588 4.381a2.666 2.666 0 0 1-2.4.1" style="fill:#06033e"/>
                            <path data-name="Trazado 439" d="m187.287 278.85-13.387-7.728c-.615-.355-.538-.975.173-1.385l7.588-4.381a2.666 2.666 0 0 1 2.4-.1l13.386 7.728c.614.355.537.976-.173 1.386l-7.588 4.381a2.666 2.666 0 0 1-2.4.1" style="fill:#06033e"/>
                            <path data-name="Trazado 440" d="m214.737 307.992-7.659-4.422c-.614-.355-.537-.975.173-1.385l7.588-4.381a2.666 2.666 0 0 1 2.4-.1l7.659 4.421c.614.355.537.976-.173 1.386l-7.588 4.381a2.666 2.666 0 0 1-2.4.1" style="fill:#06033e"/>
                            <path data-name="Trazado 441" d="M226.564 314.821 218.9 310.4c-.614-.355-.537-.975.173-1.385l7.588-4.381a2.666 2.666 0 0 1 2.4-.1l7.659 4.421c.614.355.537.976-.173 1.386l-7.588 4.381a2.666 2.666 0 0 1-2.4.1" style="fill:#06033e"/>
                            <path data-name="Trazado 442" d="m238.391 321.649-7.658-4.422c-.615-.355-.538-.975.172-1.385l7.588-4.381a2.666 2.666 0 0 1 2.4-.1l7.659 4.421c.614.355.537.976-.173 1.386l-7.588 4.381a2.666 2.666 0 0 1-2.4.1" style="fill:#06033e"/>
                            <path data-name="Trazado 443" d="m250.218 328.478-7.659-4.422c-.614-.355-.537-.975.173-1.385l7.588-4.381a2.666 2.666 0 0 1 2.4-.1l7.659 4.421c.614.355.537.976-.173 1.386l-7.588 4.381a2.666 2.666 0 0 1-2.4.1" style="fill:#06033e"/>
                            <path data-name="Trazado 444" d="m262.045 335.306-7.659-4.422c-.614-.355-.537-.975.173-1.385l7.588-4.381a2.666 2.666 0 0 1 2.4-.1l7.659 4.421c.614.355.537.976-.173 1.386l-7.588 4.381a2.666 2.666 0 0 1-2.4.1" style="fill:#06033e"/>
                            <path data-name="Trazado 445" d="m273.872 342.134-7.658-4.422c-.615-.355-.538-.975.172-1.385l7.588-4.381a2.666 2.666 0 0 1 2.4-.1l7.659 4.421c.615.355.538.976-.173 1.386l-7.588 4.381a2.666 2.666 0 0 1-2.4.1" style="fill:#06033e"/>
                            <path data-name="Trazado 446" d="m285.7 348.963-7.659-4.422c-.614-.355-.537-.975.173-1.385l7.588-4.381a2.666 2.666 0 0 1 2.4-.1l7.659 4.421c.614.355.537.976-.173 1.386l-7.588 4.381a2.666 2.666 0 0 1-2.4.1" style="fill:#06033e"/>
                            <path data-name="Trazado 447" d="m297.526 355.791-7.659-4.422c-.614-.355-.537-.975.173-1.385l7.588-4.381a2.666 2.666 0 0 1 2.4-.1l7.659 4.421c.614.355.537.975-.173 1.385l-7.588 4.381a2.666 2.666 0 0 1-2.4.1" style="fill:#06033e"/>
                            <path data-name="Trazado 448" d="M309.354 362.619 301.7 358.2c-.614-.355-.537-.975.173-1.385l7.588-4.381a2.666 2.666 0 0 1 2.4-.1l7.659 4.421c.614.355.537.975-.173 1.385l-7.588 4.381a2.666 2.666 0 0 1-2.4.1" style="fill:#06033e"/>
                            <path data-name="Trazado 449" d="m330.379 374.758-16.71-9.647c-.615-.355-.538-.975.172-1.385l7.588-4.381a2.666 2.666 0 0 1 2.4-.1l16.711 9.647c.614.355.537.975-.173 1.386l-7.588 4.381a2.663 2.663 0 0 1-2.4.1" style="fill:#06033e"/>
                            <path data-name="Trazado 450" d="m353.4 361.465-14.1-8.143c-.615-.355-.538-.975.172-1.385l7.588-4.381a2.669 2.669 0 0 1 2.4-.1l14.1 8.143c.614.355.537.975-.173 1.385l-7.588 4.382a2.666 2.666 0 0 1-2.4.1" style="fill:#06033e"/>
                            <path data-name="Trazado 451" d="m235.449 306.657-7.658-4.422c-.615-.355-.538-.975.172-1.385l7.588-4.381a2.666 2.666 0 0 1 2.4-.1l7.659 4.421c.614.355.537.975-.173 1.385l-7.588 4.382a2.666 2.666 0 0 1-2.4.1" style="fill:#06033e"/>
                            <path data-name="Trazado 452" d="m223.327 299.658-7.658-4.422c-.615-.355-.538-.975.172-1.385l7.588-4.381a2.666 2.666 0 0 1 2.4-.1l7.659 4.421c.615.355.537.976-.173 1.386l-7.588 4.381a2.666 2.666 0 0 1-2.4.1" style="fill:#06033e"/>
                            <path data-name="Trazado 453" d="m211.206 292.66-7.658-4.422c-.615-.355-.538-.975.172-1.385l7.588-4.381a2.666 2.666 0 0 1 2.4-.1l7.659 4.421c.615.355.538.975-.173 1.385l-7.588 4.382a2.666 2.666 0 0 1-2.4.1" style="fill:#06033e"/>
                            <path data-name="Trazado 454" d="m199.085 285.662-7.659-4.422c-.614-.355-.537-.975.173-1.385l7.588-4.381a2.666 2.666 0 0 1 2.4-.1l7.659 4.421c.614.355.537.975-.173 1.386l-7.588 4.381a2.666 2.666 0 0 1-2.4.1" style="fill:#06033e"/>
                            <path data-name="Trazado 455" d="m247.276 313.485-7.659-4.422c-.614-.355-.537-.975.173-1.385l7.588-4.381a2.666 2.666 0 0 1 2.4-.1l7.659 4.421c.614.355.537.975-.173 1.385l-7.588 4.382a2.666 2.666 0 0 1-2.4.1" style="fill:#06033e"/>
                            <path data-name="Trazado 456" d="m259.1 320.313-7.659-4.422c-.614-.355-.537-.975.173-1.385l7.588-4.381a2.666 2.666 0 0 1 2.4-.1l7.659 4.421c.615.355.537.975-.173 1.385l-7.588 4.382a2.666 2.666 0 0 1-2.4.1" style="fill:#06033e"/>
                            <path data-name="Trazado 457" d="m270.93 327.142-7.658-4.422c-.615-.355-.538-.975.172-1.385l7.588-4.381a2.666 2.666 0 0 1 2.4-.1l7.659 4.421c.614.355.537.975-.173 1.385l-7.588 4.382a2.666 2.666 0 0 1-2.4.1" style="fill:#06033e"/>
                            <path data-name="Trazado 458" d="m282.757 333.97-7.659-4.422c-.614-.355-.537-.975.173-1.385l7.588-4.381a2.666 2.666 0 0 1 2.4-.1l7.659 4.421c.614.355.537.975-.173 1.385l-7.588 4.382a2.666 2.666 0 0 1-2.4.1" style="fill:#06033e"/>
                            <path data-name="Trazado 459" d="m294.584 340.8-7.659-4.422c-.614-.355-.537-.975.173-1.385l7.588-4.381a2.666 2.666 0 0 1 2.4-.1l7.659 4.421c.615.355.537.975-.173 1.385l-7.588 4.382a2.666 2.666 0 0 1-2.4.1" style="fill:#06033e"/>
                            <path data-name="Trazado 460" d="m306.411 347.627-7.658-4.422c-.615-.355-.538-.975.172-1.385l7.588-4.381a2.666 2.666 0 0 1 2.4-.1l7.659 4.421c.614.355.537.975-.173 1.385l-7.588 4.382a2.666 2.666 0 0 1-2.4.1" style="fill:#06033e"/>
                            <path data-name="Trazado 461" d="m318.238 354.455-7.659-4.422c-.614-.355-.537-.975.173-1.385l7.588-4.381a2.666 2.666 0 0 1 2.4-.1l7.659 4.421c.615.355.537.975-.173 1.385l-7.588 4.382a2.666 2.666 0 0 1-2.4.1" style="fill:#06033e"/>
                            <path data-name="Trazado 462" d="m330.065 361.283-7.659-4.422c-.614-.355-.537-.975.173-1.385l7.588-4.381a2.666 2.666 0 0 1 2.4-.1l7.659 4.421c.614.355.537.975-.173 1.385l-7.588 4.382a2.666 2.666 0 0 1-2.4.1" style="fill:#06033e"/>
                            <path data-name="Trazado 463" d="m341.892 368.112-7.658-4.422c-.615-.355-.538-.975.172-1.385l7.588-4.381a2.666 2.666 0 0 1 2.4-.1l7.659 4.421c.615.355.538.975-.173 1.385l-7.588 4.382a2.666 2.666 0 0 1-2.4.1" style="fill:#06033e"/>
                            <path data-name="Trazado 464" d="m229.221 289.767-7.659-4.422c-.614-.355-.537-.975.173-1.385l7.588-4.381a2.666 2.666 0 0 1 2.4-.1l7.659 4.421c.614.355.537.975-.173 1.385l-7.588 4.381a2.666 2.666 0 0 1-2.4.1" style="fill:#06033e"/>
                            <path data-name="Trazado 465" d="m217.453 282.973-7.659-4.422c-.614-.355-.537-.975.173-1.385l7.588-4.381a2.666 2.666 0 0 1 2.4-.1l7.659 4.421c.614.355.537.975-.173 1.385l-7.588 4.382a2.666 2.666 0 0 1-2.4.1" style="fill:#06033e"/>
                            <path data-name="Trazado 466" d="m205.685 276.178-7.659-4.422c-.614-.355-.537-.975.173-1.385l7.588-4.381a2.666 2.666 0 0 1 2.4-.1l7.659 4.421c.614.355.537.975-.173 1.385l-7.588 4.382a2.666 2.666 0 0 1-2.4.1" style="fill:#06033e"/>
                            <path data-name="Trazado 467" d="m193.917 269.384-7.66-4.422c-.614-.355-.537-.975.173-1.385l7.588-4.381a2.666 2.666 0 0 1 2.4-.1l7.659 4.421c.614.355.537.976-.172 1.386l-7.589 4.381a2.664 2.664 0 0 1-2.4.1" style="fill:#06033e"/>
                            <path data-name="Trazado 468" d="m206.018 262.4-7.658-4.422c-.615-.355-.538-.975.172-1.385l2.508-1.448a2.669 2.669 0 0 1 2.4-.1l7.659 4.422c.615.355.538.975-.172 1.385l-2.509 1.449a2.666 2.666 0 0 1-2.4.1" style="fill:#06033e"/>
                            <path data-name="Trazado 469" d="m221.375 271.264-7.658-4.422c-.615-.355-.538-.975.172-1.385l2.508-1.448a2.666 2.666 0 0 1 2.4-.1l7.659 4.421c.615.355.538.975-.172 1.385l-2.509 1.449a2.666 2.666 0 0 1-2.4.1" style="fill:#06033e"/>
                            <path data-name="Trazado 470" d="m233.094 278.03-7.658-4.422c-.615-.355-.538-.975.172-1.385l2.508-1.448a2.67 2.67 0 0 1 2.4-.1l7.659 4.422c.615.355.538.975-.172 1.385l-2.509 1.449a2.666 2.666 0 0 1-2.4.1" style="fill:#06033e"/>
                            <path data-name="Trazado 471" d="m244.814 284.8-7.659-4.422c-.614-.355-.537-.975.173-1.385l2.508-1.448a2.67 2.67 0 0 1 2.4-.1l7.659 4.422c.615.355.538.975-.172 1.385l-2.509 1.449a2.666 2.666 0 0 1-2.4.1" style="fill:#06033e"/>
                            <path data-name="Trazado 472" d="m256.533 291.562-7.659-4.422c-.614-.355-.537-.975.173-1.385l2.508-1.448a2.663 2.663 0 0 1 2.4-.1l7.659 4.421c.615.355.538.975-.172 1.385l-2.509 1.449a2.666 2.666 0 0 1-2.4.1" style="fill:#06033e"/>
                            <path data-name="Trazado 473" d="m321.959 329.336-7.659-4.422c-.614-.355-.537-.975.173-1.385l2.508-1.448a2.67 2.67 0 0 1 2.4-.1l7.659 4.422c.615.355.538.975-.172 1.385l-2.509 1.449a2.666 2.666 0 0 1-2.4.1" style="fill:#06033e"/>
                            <path data-name="Trazado 474" d="m333.678 336.1-7.658-4.422c-.615-.355-.538-.975.172-1.385l2.508-1.448a2.67 2.67 0 0 1 2.4-.1l7.659 4.422c.615.355.538.975-.172 1.385l-2.51 1.448a2.666 2.666 0 0 1-2.4.1" style="fill:#06033e"/>
                            <path data-name="Trazado 475" d="m345.4 342.868-7.658-4.422c-.615-.355-.538-.975.172-1.385l2.508-1.448a2.666 2.666 0 0 1 2.4-.1l7.659 4.421c.615.355.538.975-.172 1.385l-2.509 1.449a2.666 2.666 0 0 1-2.4.1" style="fill:#06033e"/>
                            <path data-name="Trazado 476" d="m357.117 349.634-7.658-4.422c-.615-.355-.538-.975.172-1.385l2.508-1.448a2.669 2.669 0 0 1 2.4-.1l7.661 4.421c.615.355.538.975-.172 1.385l-2.509 1.449a2.666 2.666 0 0 1-2.4.1" style="fill:#06033e"/>
                            <path data-name="Trazado 477" d="m241.048 296.6-7.658-4.422c-.615-.355-.538-.975.172-1.385l7.588-4.381a2.666 2.666 0 0 1 2.4-.1l7.659 4.421c.614.355.537.975-.173 1.385l-7.588 4.381a2.663 2.663 0 0 1-2.4.1" style="fill:#06033e"/>
                            <path data-name="Trazado 478" d="M252.875 303.424 245.216 299c-.614-.355-.537-.975.173-1.385l7.588-4.381a2.666 2.666 0 0 1 2.4-.1l7.659 4.421c.614.355.537.975-.173 1.385l-7.588 4.381a2.663 2.663 0 0 1-2.4.1" style="fill:#06033e"/>
                            <path data-name="Trazado 479" d="m264.7 310.252-7.659-4.422c-.614-.355-.537-.975.173-1.385l7.588-4.381a2.666 2.666 0 0 1 2.4-.1l7.659 4.421c.614.355.537.975-.173 1.385l-7.588 4.382a2.666 2.666 0 0 1-2.4.1" style="fill:#06033e"/>
                            <path data-name="Trazado 480" d="m276.529 317.08-7.658-4.422c-.615-.355-.538-.975.172-1.385l7.588-4.381a2.666 2.666 0 0 1 2.4-.1l7.659 4.421c.615.355.538.975-.173 1.385l-7.588 4.382a2.666 2.666 0 0 1-2.4.1" style="fill:#06033e"/>
                            <path data-name="Trazado 481" d="m288.356 323.909-7.659-4.422c-.614-.355-.537-.975.173-1.385l7.588-4.381a2.666 2.666 0 0 1 2.4-.1l7.659 4.421c.614.355.537.975-.173 1.385l-7.588 4.382a2.666 2.666 0 0 1-2.4.1" style="fill:#06033e"/>
                            <path data-name="Trazado 482" d="m300.184 330.737-7.66-4.422c-.614-.355-.537-.975.173-1.385l7.588-4.381a2.666 2.666 0 0 1 2.4-.1l7.659 4.421c.614.355.537.975-.172 1.385l-7.589 4.382a2.664 2.664 0 0 1-2.4.1" style="fill:#06033e"/>
                            <path data-name="Trazado 483" d="m312.01 337.565-7.658-4.422c-.615-.355-.538-.975.172-1.385l7.588-4.381a2.666 2.666 0 0 1 2.4-.1l7.659 4.421c.615.355.538.975-.173 1.385l-7.588 4.382a2.666 2.666 0 0 1-2.4.1" style="fill:#06033e"/>
                            <path data-name="Trazado 484" d="m323.837 344.394-7.658-4.422c-.615-.355-.538-.975.172-1.385l7.588-4.381a2.666 2.666 0 0 1 2.4-.1l7.661 4.422c.614.355.537.975-.173 1.385l-7.588 4.382a2.666 2.666 0 0 1-2.4.1" style="fill:#06033e"/>
                            <path data-name="Trazado 485" d="m335.665 351.222-7.659-4.422c-.614-.355-.537-.975.173-1.385l7.588-4.381a2.666 2.666 0 0 1 2.4-.1l7.659 4.421c.615.355.537.975-.173 1.385l-7.588 4.382a2.666 2.666 0 0 1-2.4.1" style="fill:#06033e"/>
                            <path data-name="Trazado 486" d="m173.431 297.438-22.555-13.022c-.615-.355-.538-.975.172-1.385l7.588-4.381a2.668 2.668 0 0 1 2.4-.1l22.555 13.022c.615.355.537.976-.173 1.386l-7.588 4.381a2.666 2.666 0 0 1-2.4.1" style="fill:#06033e"/>
                            <path data-name="Trazado 487" d="M318.729 381.326 296.174 368.3c-.615-.355-.538-.975.172-1.385l7.589-4.381a2.664 2.664 0 0 1 2.4-.1l22.556 13.022c.614.355.537.975-.173 1.385l-7.588 4.382a2.666 2.666 0 0 1-2.4.1" style="fill:#06033e"/>
                            <path data-name="Trazado 488" d="m271.431 369.1-7.658-4.422c-.615-.355-.538-.975.172-1.385l9.039-5.219a2.668 2.668 0 0 1 2.4-.1l7.658 4.421c.615.355.538.976-.172 1.385l-9.04 5.22a2.666 2.666 0 0 1-2.4.1" style="fill:#06033e"/>
                            <path data-name="Trazado 489" d="m185.543 319.514-12.248-7.071c-.615-.355-.538-.976.172-1.386l9.04-5.219a2.669 2.669 0 0 1 2.4-.1l12.248 7.071c.615.355.538.976-.172 1.385l-9.04 5.22a2.666 2.666 0 0 1-2.4.1" style="fill:#06033e"/>
                            <path data-name="Trazado 490" d="m260.036 362.523-12.248-7.071c-.615-.355-.538-.975.172-1.386l9.04-5.219a2.669 2.669 0 0 1 2.4-.1l12.248 7.071c.615.355.538.976-.172 1.385l-9.04 5.22a2.666 2.666 0 0 1-2.4.1" style="fill:#06033e"/>
                            <path data-name="Trazado 491" d="m202.607 329.366-12.248-7.066c-.615-.356-.538-.976.172-1.386l9.04-5.219a2.666 2.666 0 0 1 2.4-.1l12.248 7.071c.615.355.538.976-.172 1.385l-9.04 5.219a2.666 2.666 0 0 1-2.4.1" style="fill:#06033e"/>
                            <path data-name="Trazado 492" d="m202.053 315.639 53.247 30.745a.729.729 0 0 1 0 1.381l-9.218 5.322a2.642 2.642 0 0 1-2.393 0l-53.251-30.744z" style="fill:#06033e"/>
                            <path data-name="Trazado 493" d="m304.486 381.482 8.531 4.925c.5.291.441.8-.141 1.135l-3.7 2.136a2.187 2.187 0 0 1-1.967.081l-8.53-4.925c-.5-.291-.441-.8.141-1.136l3.7-2.134a2.182 2.182 0 0 1 1.966-.082" style="fill:#06033e"/>
                            <path data-name="Trazado 494" d="m292.561 374.6 8.531 4.925c.5.291.441.8-.141 1.136l-3.7 2.135a2.19 2.19 0 0 1-1.967.081l-8.53-4.925c-.5-.291-.441-.8.141-1.136l3.7-2.134a2.185 2.185 0 0 1 1.966-.082" style="fill:#06033e"/>
                            <path data-name="Trazado 495" d="m280.734 367.769 8.531 4.925c.5.291.441.8-.141 1.136l-3.7 2.135a2.187 2.187 0 0 1-1.967.081l-8.53-4.925c-.5-.291-.441-.8.141-1.136l3.7-2.134a2.185 2.185 0 0 1 1.966-.082" style="fill:#06033e"/>
                            <path data-name="Trazado 496" d="m299.092 370.827 8.531 4.925c.5.291.441.8-.141 1.135l-3.7 2.136a2.187 2.187 0 0 1-1.967.081l-8.53-4.925c-.5-.291-.441-.8.141-1.136l3.7-2.134a2.182 2.182 0 0 1 1.966-.082" style="fill:#06033e"/>
                        </g>
                    </g>
                </g>
            </g>
        </g>
        <g data-name="Grupo 465">
            <g data-name="Grupo 464" style="clip-path:url(#idaplge1ot)">
                <path data-name="Rectángulo 224" transform="translate(192.905 44.88)" style="fill:url(#9fn7izakhu)" d="M0 0h292.444v314.184H0z"/>
            </g>
        </g>
        <g data-name="Grupo 467">
            <g data-name="Grupo 466" style="clip-path:url(#pmuz9jp65v)">
                <path data-name="Rectángulo 225" transform="translate(197.798 50.866)" style="fill:url(#d53eo0sj7w)" d="M0 0h282.745v302.3H0z"/>
            </g>
        </g>
        <g data-name="Grupo 478">
            <g data-name="Grupo 477" style="clip-path:url(#ctqvl00c6e)">
                <g data-name="Grupo 470" style="opacity:.4">
                    <g data-name="Grupo 469">
                        <g data-name="Grupo 468" style="clip-path:url(#d0dusmc6ux)">
                            <path data-name="Trazado 499" d="M422.131 351.2 202.972 224.566a9.576 9.576 0 0 1-3.963-10.683l48.851-158.6c1.211-3.937 4.95-5.537 8.35-3.574l219.159 126.632a9.578 9.578 0 0 1 3.963 10.684l-48.851 158.6c-1.212 3.938-4.95 5.538-8.35 3.575" style="fill:#06033e"/>
                        </g>
                    </g>
                </g>
                <g data-name="Grupo 473" style="opacity:.4">
                    <g data-name="Grupo 472">
                        <g data-name="Grupo 471" style="clip-path:url(#d0dusmc6ux)">
                            <path data-name="Trazado 500" d="M422.131 351.2 202.972 224.566a9.576 9.576 0 0 1-3.963-10.683l48.851-158.6c1.211-3.937 4.95-5.537 8.35-3.574l219.159 126.632a9.578 9.578 0 0 1 3.963 10.684l-48.851 158.6c-1.212 3.938-4.95 5.538-8.35 3.575" style="fill:#06033e"/>
                        </g>
                    </g>
                </g>
                <g data-name="Grupo 476" style="opacity:.5">
                    <g data-name="Grupo 475">
                        <g data-name="Grupo 474" style="clip-path:url(#my6ml0quvy)">
                            <path data-name="Trazado 501" d="M410.357 302.734 262 217.079a6.571 6.571 0 0 1-2.72-7.33l33.551-108.934c.831-2.7 3.4-3.8 5.729-2.452l148.359 85.655a6.571 6.571 0 0 1 2.72 7.33l-33.553 108.933c-.831 2.7-3.4 3.8-5.729 2.453" style="fill:#06033e"/>
                        </g>
                    </g>
                </g>
            </g>
        </g>
        <g data-name="Grupo 480">
            <g data-name="Grupo 479" style="clip-path:url(#2te7snjihz)">
                <path data-name="Rectángulo 230" transform="translate(238.402 100.416)" style="fill:url(#f2dj6eyrkA)" d="M0 0h192.02v206.294H0z"/>
            </g>
        </g>
        <g data-name="Grupo 488">
            <g data-name="Grupo 487" style="clip-path:url(#ctqvl00c6e)">
                <g data-name="Grupo 483" style="opacity:.5">
                    <g data-name="Grupo 482">
                        <g data-name="Grupo 481" style="clip-path:url(#r0aql2n0gB)">
                            <path data-name="Trazado 503" d="m390.312 305.363-148.359-85.655a6.571 6.571 0 0 1-2.72-7.33l33.551-108.934c.831-2.7 3.4-3.8 5.729-2.452l148.359 85.655a6.57 6.57 0 0 1 2.719 7.33l-33.55 108.934c-.831 2.7-3.4 3.8-5.729 2.452" style="fill:#06033e"/>
                        </g>
                    </g>
                </g>
                <path data-name="Trazado 504" d="m426.872 186.647-148.359-85.655a3.7 3.7 0 0 0-4.175.142 3.991 3.991 0 0 1 2.143.549l148.359 85.655a6.572 6.572 0 0 1 2.719 7.33L394.009 303.6a4.481 4.481 0 0 1-1.555 2.311 3.926 3.926 0 0 0 3.587-3l33.55-108.933a6.569 6.569 0 0 0-2.719-7.33" style="fill:#fff"/>
                <g data-name="Grupo 486" style="opacity:.4">
                    <g data-name="Grupo 485">
                        <g data-name="Grupo 484" style="clip-path:url(#avts4hx0cC)">
                            <path data-name="Trazado 505" d="M203.2 394.318a11.162 11.162 0 0 1-5.5-1.288l-59.441-34.317a4.294 4.294 0 0 1-2.442-3.663c0-1.684 1.195-3.34 3.278-4.543l30.6-17.666c3.739-2.156 9.226-2.368 12.5-.482l59.439 34.318a4.3 4.3 0 0 1 2.444 3.662c0 1.684-1.195 3.341-3.278 4.543l-30.6 17.668a14.332 14.332 0 0 1-7 1.768m-26.481-61.508a12.746 12.746 0 0 0-6.169 1.52l-30.6 17.665c-1.538.888-2.422 2-2.422 3.056a2.712 2.712 0 0 0 1.586 2.175l59.441 34.319c2.7 1.554 7.63 1.336 10.778-.483l30.6-17.665c1.539-.888 2.42-2 2.42-3.057a2.714 2.714 0 0 0-1.585-2.175l-59.438-34.317a9.439 9.439 0 0 0-4.611-1.038" style="fill:#06033e"/>
                        </g>
                    </g>
                </g>
                <path data-name="Trazado 506" d="m314.648 158.142-9.172-5.295a2.393 2.393 0 0 1-1.019-2.638 1.357 1.357 0 0 1 2.062-.858l9.172 5.295a2.393 2.393 0 0 1 1.019 2.638 1.358 1.358 0 0 1-2.062.858" style="fill:#fff"/>
                <path data-name="Trazado 507" d="m336.5 170.756-13.525-7.808a2.393 2.393 0 0 1-1.019-2.638 1.358 1.358 0 0 1 2.062-.858l13.525 7.808a2.393 2.393 0 0 1 1.019 2.638 1.358 1.358 0 0 1-2.062.858" style="fill:#fff"/>
                <path data-name="Trazado 508" d="m296.151 198.977-9.172-5.3a2.391 2.391 0 0 1-1.019-2.637 1.357 1.357 0 0 1 2.062-.858l9.172 5.295a2.393 2.393 0 0 1 1.019 2.638 1.358 1.358 0 0 1-2.062.858" style="fill:#fff"/>
                <path data-name="Trazado 509" d="m315.627 210.221-13.527-7.808a2.393 2.393 0 0 1-1.02-2.638 1.358 1.358 0 0 1 2.062-.858l13.525 7.808a2.393 2.393 0 0 1 1.019 2.638 1.358 1.358 0 0 1-2.062.858" style="fill:#fff"/>
                <path data-name="Trazado 510" d="m287.173 150.865-5.73-3.308a2.392 2.392 0 0 1-1.019-2.638 1.358 1.358 0 0 1 2.062-.858l5.73 3.308a2.393 2.393 0 0 1 1.019 2.638 1.358 1.358 0 0 1-2.062.858" style="fill:#fff"/>
                <path data-name="Trazado 511" d="m304.414 169.4-17.507-10.1a2.4 2.4 0 0 1-1.019-2.638 1.358 1.358 0 0 1 2.062-.858l17.507 10.107a2.393 2.393 0 0 1 1.019 2.638 1.358 1.358 0 0 1-2.062.858" style="fill:#fff"/>
                <path data-name="Trazado 512" d="m288.267 177.254-5.73-3.308a2.392 2.392 0 0 1-1.019-2.638 1.358 1.358 0 0 1 2.062-.858l5.73 3.308a2.393 2.393 0 0 1 1.019 2.638 1.358 1.358 0 0 1-2.062.858" style="fill:#fff"/>
                <path data-name="Trazado 513" d="m317.738 228.612-15.3-8.836a2.391 2.391 0 0 1-1.019-2.637 1.357 1.357 0 0 1 2.062-.858l15.3 8.835a2.393 2.393 0 0 1 1.019 2.638 1.358 1.358 0 0 1-2.062.858" style="fill:#fff"/>
                <path data-name="Trazado 514" d="m281.845 190.718-3.678-2.123a2.393 2.393 0 0 1-1.019-2.638 1.358 1.358 0 0 1 2.062-.858l3.678 2.123a2.393 2.393 0 0 1 1.019 2.638 1.358 1.358 0 0 1-2.062.858" style="fill:#fff"/>
                <path data-name="Trazado 515" d="m278.365 205.88-4.567-2.637a2.392 2.392 0 0 1-1.02-2.637 1.358 1.358 0 0 1 2.062-.858l4.568 2.637a2.393 2.393 0 0 1 1.019 2.638 1.358 1.358 0 0 1-2.062.858" style="fill:#fff"/>
                <path data-name="Trazado 516" d="m296.133 216.139-12.042-6.952a2.393 2.393 0 0 1-1.019-2.638 1.358 1.358 0 0 1 2.062-.858l12.042 6.952a2.393 2.393 0 0 1 1.019 2.638 1.358 1.358 0 0 1-2.062.858" style="fill:#fff"/>
                <path data-name="Trazado 517" d="m280.27 215.566-8.658-5a2.391 2.391 0 0 1-1.019-2.637 1.357 1.357 0 0 1 2.062-.858l8.658 5a2.393 2.393 0 0 1 1.019 2.638 1.358 1.358 0 0 1-2.062.858" style="fill:#fff"/>
                <path data-name="Trazado 518" d="m330.867 236.229-5.56-3.21a2.393 2.393 0 0 1-1.02-2.638 1.358 1.358 0 0 1 2.062-.858l5.561 3.21a2.393 2.393 0 0 1 1.019 2.638 1.358 1.358 0 0 1-2.062.858" style="fill:#fff"/>
                <path data-name="Trazado 519" d="m309.581 189.559-15.3-8.836a2.391 2.391 0 0 1-1.019-2.637 1.357 1.357 0 0 1 2.062-.858l15.3 8.835a2.393 2.393 0 0 1 1.019 2.638 1.358 1.358 0 0 1-2.062.858" style="fill:#fff"/>
                <path data-name="Trazado 520" d="m311.395 182.021-26.672-15.4a2.394 2.394 0 0 1-1.02-2.638 1.358 1.358 0 0 1 2.062-.858l26.673 15.4a2.393 2.393 0 0 1 1.019 2.638 1.358 1.358 0 0 1-2.062.858" style="fill:#e8975b"/>
                <path data-name="Trazado 521" d="m295.656 190.106-15.3-8.836a2.391 2.391 0 0 1-1.019-2.637 1.357 1.357 0 0 1 2.062-.858l15.3 8.835a2.393 2.393 0 0 1 1.019 2.638 1.358 1.358 0 0 1-2.062.858" style="fill:#e8975b"/>
                <path data-name="Trazado 522" d="m321.188 196.261-5.56-3.21a2.393 2.393 0 0 1-1.02-2.638 1.358 1.358 0 0 1 2.062-.858l5.561 3.21a2.393 2.393 0 0 1 1.019 2.638 1.358 1.358 0 0 1-2.062.858" style="fill:#e8975b"/>
                <path data-name="Trazado 523" d="m377.747 194.572-32.927-19.011a2.392 2.392 0 0 1-1.02-2.637 1.358 1.358 0 0 1 2.063-.858l32.927 19.01a2.393 2.393 0 0 1 1.019 2.638 1.358 1.358 0 0 1-2.062.858" style="fill:#e8975b"/>
                <path data-name="Trazado 524" d="m294.379 206.54-18.4-10.621a2.393 2.393 0 0 1-1.02-2.637 1.359 1.359 0 0 1 2.063-.859l18.4 10.621a2.394 2.394 0 0 1 1.018 2.638 1.357 1.357 0 0 1-2.061.858" style="fill:#f8359e"/>
                <path data-name="Trazado 525" d="m297.152 148.041-13.524-7.808a2.393 2.393 0 0 1-1.02-2.638 1.358 1.358 0 0 1 2.062-.858l13.525 7.808a2.393 2.393 0 0 1 1.019 2.638 1.358 1.358 0 0 1-2.062.858" style="fill:#f8359e"/>
                <path data-name="Trazado 526" d="m277.442 222.519-15.664-9.044a2.391 2.391 0 0 1-1.019-2.637 1.358 1.358 0 0 1 2.062-.858l15.664 9.043a2.393 2.393 0 0 1 1.019 2.638 1.358 1.358 0 0 1-2.062.858" style="fill:#e8975b"/>
                <path data-name="Trazado 527" d="m381.443 177.638-6.7-3.871a1.747 1.747 0 0 1-.745-1.927.992.992 0 0 1 1.507-.628l6.7 3.871a1.748 1.748 0 0 1 .745 1.928.992.992 0 0 1-1.507.627" style="fill:#fff"/>
                <path data-name="Trazado 528" d="m394.231 185.021-6.7-3.871a1.747 1.747 0 0 1-.745-1.927.992.992 0 0 1 1.507-.628l6.7 3.871a1.748 1.748 0 0 1 .745 1.928.992.992 0 0 1-1.507.627" style="fill:#fff"/>
                <path data-name="Trazado 529" d="m407.019 192.4-6.7-3.871a1.747 1.747 0 0 1-.745-1.927.992.992 0 0 1 1.507-.628l6.7 3.871a1.748 1.748 0 0 1 .745 1.928.992.992 0 0 1-1.507.627" style="fill:#fff"/>
                <path data-name="Trazado 530" d="m413.3 196.038-.2-.121a1.749 1.749 0 0 1-.745-1.928.993.993 0 0 1 1.508-.627l.2.121a1.748 1.748 0 0 1 .745 1.928.992.992 0 0 1-1.507.627" style="fill:#f8359e"/>
            </g>
        </g>
        <g data-name="Grupo 490">
            <g data-name="Grupo 489" style="clip-path:url(#3nat1hg64D)">
                <path data-name="Rectángulo 234" transform="translate(6.989 205.312)" style="fill:url(#532ranzokE)" d="M0 0h120.584v69.185H0z"/>
            </g>
        </g>
        <g data-name="Grupo 495">
            <g data-name="Grupo 494" style="clip-path:url(#ctqvl00c6e)">
                <g data-name="Grupo 493" style="opacity:.45">
                    <g data-name="Grupo 492">
                        <g data-name="Grupo 491" style="clip-path:url(#kp6czdg93F)">
                            <path data-name="Trazado 532" d="M88.867 253.108c-12.046 6.955-31.578 6.955-43.625 0s-12.047-18.232 0-25.187 31.579-6.955 43.625 0 12.048 18.232 0 25.187" style="fill:#020230"/>
                        </g>
                    </g>
                </g>
            </g>
        </g>
        <g data-name="Grupo 497">
            <g data-name="Grupo 496" style="clip-path:url(#96sqq9vcoG)">
                <path data-name="Rectángulo 237" transform="translate(24.918 113.58)" style="fill:url(#udovac0ogH)" d="M0 0h87.863v117.791H0z"/>
            </g>
        </g>
        <g data-name="Grupo 508">
            <g data-name="Grupo 507" style="clip-path:url(#ctqvl00c6e)">
                <g data-name="Grupo 500" style="opacity:.4">
                    <g data-name="Grupo 499">
                        <g data-name="Grupo 498" style="clip-path:url(#d3yfmiuuwI)">
                            <path data-name="Trazado 534" d="M112.781 113.58H24.918l1.345 15.65a34.164 34.164 0 0 0 8.143 7.326c16.789 11.138 44.492 13.284 63.4 5.263L94.878 211.4a13.668 13.668 0 0 1-3.14 8.3c-2.846 3.35-8.329 7.291-18.87 9.519 7.77-.505 15.31-2.463 21.268-5.9 6.983-4.032 10.473-9.315 10.473-14.6l6.554-76.291z" style="fill:#06033e"/>
                        </g>
                    </g>
                </g>
                <g data-name="Grupo 503" style="opacity:.4">
                    <g data-name="Grupo 502">
                        <g data-name="Grupo 501" style="clip-path:url(#amzszu4t5J)">
                            <path data-name="Trazado 535" d="M99.914 131.516c-17.156 9.9-44.972 9.9-62.128 0s-17.157-25.964 0-35.869 44.971-9.905 62.128 0 17.157 25.965 0 35.87" style="fill:#06033e"/>
                        </g>
                    </g>
                </g>
                <g data-name="Grupo 506" style="opacity:.4">
                    <g data-name="Grupo 505">
                        <g data-name="Grupo 504" style="clip-path:url(#7qyx7d85fK)">
                            <path data-name="Trazado 536" d="M95.606 120.088c-14.777 8.532-38.735 8.531-53.513 0s-14.777-22.365 0-30.9 38.735-8.531 53.512 0 14.778 22.364 0 30.895" style="fill:#06033e"/>
                        </g>
                    </g>
                </g>
            </g>
        </g>
        <g data-name="Grupo 510">
            <g data-name="Grupo 509" style="clip-path:url(#8qn56a43hL)">
                <path data-name="Rectángulo 242" transform="translate(21.829 78.288)" style="fill:url(#g8ul7c9pfM)" d="M0 0h94.104v64.796H0z"/>
            </g>
        </g>
        <g data-name="Grupo 512">
            <g data-name="Grupo 511" style="clip-path:url(#r9jxkadqzN)">
                <path data-name="Rectángulo 243" transform="translate(27.316 82.793)" style="fill:url(#kyc53cvvlc)" d="M0 0h83.067v45.826H0z"/>
            </g>
        </g>
        <g data-name="Grupo 514">
            <g data-name="Grupo 513" style="clip-path:url(#dqhrs40kiO)">
                <path data-name="Rectángulo 244" transform="translate(25.52 82.793)" style="fill:url(#fic2w93p2P)" d="M0 0h83.068v45.826H0z"/>
            </g>
        </g>
        <g data-name="Grupo 519">
            <g data-name="Grupo 518" style="clip-path:url(#ctqvl00c6e)">
                <g data-name="Grupo 517" style="opacity:.4">
                    <g data-name="Grupo 516">
                        <g data-name="Grupo 515" style="clip-path:url(#uweoejdr1Q)">
                            <path data-name="Trazado 540" d="M46.582 92.446c14.777-8.532 38.735-8.531 53.512 0 .189.109.346.228.53.338a30.243 30.243 0 0 0-5.018-3.592c-14.777-8.531-38.736-8.532-53.513 0-14.588 8.422-14.746 22-.528 30.557-9.494-8.464-7.831-19.886 5.017-27.3" style="fill:#06033e"/>
                        </g>
                    </g>
                </g>
            </g>
        </g>
        <g data-name="Grupo 521">
            <g data-name="Grupo 520" style="clip-path:url(#vqr5nufu9R)">
                <path data-name="Rectángulo 247" transform="translate(30.228 82.794)" style="fill:url(#vy46dz3f9d)" d="M0 0h77.243v23.743H0z"/>
            </g>
        </g>
        <g data-name="Grupo 523">
            <g data-name="Grupo 522" style="clip-path:url(#cuqmobx6iS)">
                <path data-name="Rectángulo 248" transform="translate(18.459 78.17)" style="fill:url(#a9tpz3oadT)" d="M0 0h100.781v55.649H0z"/>
            </g>
        </g>
        <g data-name="Grupo 525">
            <g data-name="Grupo 524" style="clip-path:url(#ctqvl00c6e)">
                <path data-name="Trazado 543" d="M95.606 87.575c-14.777-8.532-38.736-8.532-53.513 0-7.744 4.471-11.422 10.4-11.049 16.255.339-5.318 4.017-10.578 11.049-14.638 14.777-8.531 38.736-8.531 53.513 0 7.032 4.06 10.71 9.32 11.05 14.639.373-5.858-3.305-11.785-11.05-16.257" style="fill:#fff"/>
                <path data-name="Trazado 544" d="M101.1 122.022c-17.993 10.179-47.018 9.923-64.829-.57C27.8 116.458 23.4 110.046 23.04 103.6c-.351 6.982 4.046 14.059 13.231 19.471 17.811 10.493 46.836 10.749 64.829.571 9.43-5.335 13.949-12.477 13.559-19.577-.33 6.557-4.845 13.03-13.559 17.958" style="fill:#fff"/>
                <path data-name="Trazado 545" d="M73.283 126.935h-8.867a.653.653 0 0 1-.653-.653v-.89a.653.653 0 0 1 .653-.653h8.867a.653.653 0 0 1 .653.653v.89a.653.653 0 0 1-.653.653" style="fill:#0c0a78"/>
            </g>
        </g>
        <g data-name="Grupo 527">
            <g data-name="Grupo 526" style="clip-path:url(#izzhinhtcU)">
                <path data-name="Rectángulo 250" transform="translate(63.762 124.738)" style="fill:url(#pxs88bq8lV)" d="M0 0h10.175v1.444H0z"/>
            </g>
        </g>
        <g data-name="Grupo 535">
            <g data-name="Grupo 534" style="clip-path:url(#ctqvl00c6e)">
                <path data-name="Trazado 547" d="M70.094 198.938a7.019 7.019 0 0 1-13.567-3.607c1-3.747 4.53-4.808 8.276-3.812s6.287 3.672 5.291 7.419" style="fill:#e8975b"/>
                <path data-name="Trazado 548" d="M75.62 191.544a3.108 3.108 0 1 1-4.345-4.445c1.413-1.381 4.1-2.062 5.3-.834s.458 3.9-.955 5.279" style="fill:#e8975b"/>
                <path data-name="Trazado 549" d="M68.279 185.671a3.108 3.108 0 1 1-6.12-1.089c.347-1.945 2.136-4.061 3.825-3.761s2.64 2.9 2.295 4.85" style="fill:#e8975b"/>
                <path data-name="Trazado 550" d="M59.23 184.772a3.108 3.108 0 1 1-5.748 2.365c-.752-1.827-.377-4.573 1.21-5.226s3.786 1.034 4.538 2.861" style="fill:#e8975b"/>
                <g data-name="Grupo 530" style="opacity:.5">
                    <g data-name="Grupo 529">
                        <g data-name="Grupo 528" style="clip-path:url(#jha6tsenoW)">
                            <path data-name="Trazado 551" d="M71.727 125.837s24.564-8.232 14.618-36.457-29.311-36.827-21.51-59.407c0 0-12.225 18.279-.8 43.009s13.93 21.89 13.8 33.718a21.339 21.339 0 0 1-11.511 19.137z" style="fill:#fff"/>
                        </g>
                    </g>
                </g>
                <g data-name="Grupo 533" style="opacity:.5">
                    <g data-name="Grupo 532">
                        <g data-name="Grupo 531" style="clip-path:url(#8i4o38fq9X)">
                            <path data-name="Trazado 552" d="M73.936 33.9S71.379 17.015 87.216 0c0 0-14.005 31.281-9.424 46.725 0 0-3.705-9.816-3.856-12.826" style="fill:#fff"/>
                        </g>
                    </g>
                </g>
            </g>
        </g>
    </g>
</svg>
