<?xml version="1.0" encoding="utf-8"?>
<!-- Generator: Adobe Illustrator 26.1.0, SVG Export Plug-In . SVG Version: 6.00 Build 0)  -->
<svg version="1.1" id="Capa_1" xmlns="http://www.w3.org/2000/svg" xmlns:xlink="http://www.w3.org/1999/xlink" x="0px" y="0px"
	 viewBox="0 0 16 16" style="enable-background:new 0 0 16 16;" xml:space="preserve">
<style type="text/css">
	.st0{fill:#020202;}
	.st1{fill:#FFFFFF;}
	.st2{fill:#F99604;}
</style>
<g>
	<circle class="st0" cx="8" cy="8" r="8"/>
	<g>
		<path class="st1" d="M8.38,8.53c0.2,0.25,0.3,0.54,0.3,0.87c0,0.47-0.16,0.84-0.49,1.12c-0.33,0.28-0.79,0.41-1.38,0.41H4.19V5.3
			h2.54c0.57,0,1.02,0.13,1.34,0.39c0.32,0.26,0.49,0.62,0.49,1.07c0,0.33-0.09,0.61-0.26,0.83C8.12,7.8,7.89,7.96,7.6,8.04
			C7.92,8.11,8.19,8.27,8.38,8.53z M5.56,7.58h0.9c0.22,0,0.4-0.05,0.52-0.15c0.12-0.1,0.18-0.24,0.18-0.44
			c0-0.19-0.06-0.34-0.18-0.44C6.86,6.45,6.68,6.4,6.46,6.4h-0.9V7.58z M7.1,9.67c0.13-0.1,0.19-0.26,0.19-0.45S7.23,8.86,7.1,8.75
			C6.97,8.63,6.79,8.58,6.56,8.58H5.56v1.24h1.01C6.8,9.82,6.98,9.77,7.1,9.67z"/>
		<path class="st2" d="M10.23,10.77c-0.17-0.15-0.25-0.34-0.25-0.58s0.08-0.43,0.25-0.58c0.17-0.15,0.39-0.23,0.67-0.23
			c0.27,0,0.49,0.08,0.66,0.23s0.25,0.35,0.25,0.58c0,0.23-0.08,0.42-0.25,0.58s-0.39,0.23-0.66,0.23
			C10.62,10.99,10.4,10.92,10.23,10.77z M11.75,5.01l-0.18,3.81h-1.33l-0.18-3.81H11.75z"/>
	</g>
</g>
</svg>
