<?xml version="1.0" encoding="utf-8"?>
<!-- Generator: Adobe Illustrator 26.1.0, SVG Export Plug-In . SVG Version: 6.00 Build 0)  -->
<svg version="1.1" id="svg" xmlns="http://www.w3.org/2000/svg" xmlns:xlink="http://www.w3.org/1999/xlink" x="0px" y="0px"
	 viewBox="0 0 400 90.6" style="enable-background:new 0 0 400 90.6;" xml:space="preserve">
<g>
	<path d="M41.1,51.2c3.1-2.8,6.1-5.4,9.1-8.1c0.8-0.7,1.3-0.6,1.8,0.3c2.2,3.8,4.3,7.7,6.5,11.5c2.1,3.7,4.2,7.4,6.3,11.1
		c1.4-2.1,2.5-4.2,3.2-6.5c0.3-0.9,0.7-1.1,1.6-1.1c3.6,0,7.2,0,10.8,0c1.2,0,1.4,0.2,1.1,1.4c-0.6,2.2-1.2,4.4-2.1,6.5
		c-1.4,3.8-3.6,7.2-6.1,10.4c-1.2,1.4-2.5,2.7-3.8,4c-0.6,0.6-1.2,0.4-1.6-0.4c-1.2-2.1-2.3-4.2-3.5-6.2c-0.1-0.2-0.2-0.3-0.3-0.5
		c-1.2,0.9-2.3,1.9-3.4,2.8C59.9,77,59,77.6,58,78.2c-1,0.6-1.4,0.5-1.9-0.5c-2.7-5-5.5-10.1-8.2-15.2c-2,1.5-3.9,3-5.9,4.5
		c-0.7,0.5-1.2,0.6-1.9-0.1c-2.5-2.2-5.1-4.3-7.8-6.5c-0.6,1.6-1.2,3.1-1.7,4.7c-1.4,4.1-2.9,8.1-4.3,12.2c-0.4,1.2-1,1.5-2.1,0.7
		c-2.2-1.6-4.4-3.4-6.7-5.1c-0.2,0.4-0.4,0.9-0.6,1.5c-0.8,1.9-1.5,3.8-2.3,5.7c-0.4,0.9-1,1.1-1.7,0.5C7.7,75.7,4,69.9,1.8,63
		c-0.9-2.9-1.5-6-1.7-9.1C0.1,52.5,0,51,0,49.6c0.2-6,1.5-11.6,4.1-17c2.2-4.5,5.1-8.4,8.7-11.8c5.5-5.2,11.9-8.6,19.3-10.3
		c4.1-0.9,8.3-1.1,12.5-0.9c8,0.6,15.3,3.3,21.8,8.2c4.4,3.3,7.9,7.3,10.7,12c2,3.4,3.4,7,4.4,10.8c0.3,1.2,0,1.5-1.2,1.5
		c-3.6,0-7.3,0-10.9,0c-0.7,0-1-0.2-1.3-0.9c-1.5-4.3-3.9-8-7.2-11.2c-4.3-4-9.4-6.6-15.2-7.5c-8.5-1.3-16,1-22.6,6.4
		c-4.5,3.7-7.4,8.5-9.1,14c-0.9,3.2-1.3,6.5-1,9.7c0.4,3.9,1.4,7.6,3.4,11c0,0,0.1,0.1,0.2,0.1c0.9-2.2,1.8-4.3,2.7-6.5
		c2-4.9,4-9.8,6-14.7c0.6-1.6,1.3-3.2,1.9-4.7c0.4-1.1,1-1.3,1.8-0.4c2.8,3.2,5.6,6.3,8.5,9.5C38.6,48.4,39.9,49.8,41.1,51.2z
		 M76.1,38.1c-3.4-10.3-14.3-22.9-32.2-24.3C29.7,12.6,13.9,20.3,7,36.5c-5.9,13.8-2.2,28.4,5.5,37.3c0.6-1.4,1.2-2.8,1.7-4.2
		c0.1-0.4,0.1-1-0.1-1.3C11.3,64,9.5,59.3,9,54.1c-0.5-5.4,0-10.6,2-15.7c1.8-4.4,4.3-8.2,7.7-11.4c5.5-5.2,12.1-8.2,19.6-8.8
		c4.6-0.4,9.2,0,13.6,1.6c5.7,2,10.5,5.3,14.3,9.9c2,2.4,3.6,4.9,4.8,7.8c0.1,0.2,0.4,0.6,0.6,0.6C73.2,38.1,74.6,38.1,76.1,38.1z
		 M41.1,62.3c2.4-1.8,4.7-3.6,7.1-5.4c0.7-0.6,1.2-0.5,1.6,0.3c1.6,2.9,3.2,5.9,4.8,8.8c1.2,2.2,2.5,4.5,3.8,6.9
		c1.3-1.1,2.4-2.2,3.7-3.3c-3.9-7-7.8-13.9-11.8-20.9c-0.1,0.1-0.3,0.2-0.3,0.2c-2.7,2.4-5.4,4.8-8.1,7.3C41,57,40.6,57,39.9,56.2
		c-0.8-0.9-1.6-1.8-2.4-2.7c-1.9-2.2-3.9-4.4-5.8-6.5c-0.8-0.9-1.7-1.8-2.6-2.8c-0.3,0.6-0.5,1.1-0.7,1.6c-1.7,4.2-3.4,8.4-5.1,12.5
		c-1.3,3.2-2.6,6.4-3.9,9.5c-0.1,0.2-0.1,0.5,0.1,0.7c1.2,1.3,2.5,2.6,3.9,4.1c0.7-2.1,1.3-3.8,2-5.6c1.4-4,2.9-7.9,4.3-11.9
		c0.4-1.2,0.9-1.4,1.9-0.6C34.8,57,38,59.6,41.1,62.3z M69.6,74.5c3.2-3.7,5.4-7.8,6.9-12.4c-1.4,0-2.7,0.1-3.9,0
		c-0.7,0-1.1,0.2-1.4,0.9c-0.9,2.5-2.3,4.7-3.9,6.8c-0.1,0.2-0.2,0.5-0.1,0.7C68.1,71.8,68.8,73.1,69.6,74.5z"/>
	<path d="M242.2,47.2c0,8.1,0,16.1,0,24.3c-2.4,0-4.7,0-7.1,0c0-10.6,0-21.2,0-31.9c0.3,0,0.6-0.1,0.8-0.1c3,0,6,0,9.1,0
		c0.6,0,0.9,0.2,1.1,0.8c2.3,6.6,4.7,13.3,7,19.9c0,0.1,0.1,0.1,0.2,0.3c0.1-0.2,0.2-0.4,0.3-0.6c2.3-6.5,4.7-13.1,7.1-19.6
		c0.1-0.3,0.5-0.7,0.7-0.7c3.4,0,6.7,0,10.2,0c0,10.7,0,21.3,0,32c-2.3,0-4.6,0-7,0c0-8.1,0-16.2,0-24.3c-0.1,0-0.1,0-0.2-0.1
		c-0.1,0.2-0.2,0.5-0.3,0.7c-2.6,7.6-5.3,15.3-7.9,22.9c-0.2,0.6-0.5,0.8-1.1,0.8c-1.3-0.1-2.5-0.1-3.8,0c-0.6,0-0.9-0.2-1.1-0.8
		c-2.5-7.6-5-15.2-7.6-22.8c-0.1-0.3-0.2-0.6-0.3-0.8C242.3,47.2,242.2,47.2,242.2,47.2z"/>
	<path d="M324.2,48.9c0,7.5,0,15,0,22.6c-2.4,0-4.7,0-7.1,0c0-10.6,0-21.3,0-31.9c0.2,0,0.4-0.1,0.6-0.1c2.8,0,5.6,0,8.3,0
		c0.6,0,0.9,0.2,1.2,0.7c3.9,6.3,7.8,12.6,11.6,18.8c0.6,0.9,1.1,1.8,1.8,2.6c0-7.3,0-14.7,0-22.1c2.4,0,4.7,0,7.1,0
		c0,10.6,0,21.2,0,31.9c-0.2,0-0.5,0.1-0.8,0.1c-2.6,0-5.2,0-7.8,0c-0.6,0-0.9-0.2-1.2-0.7c-4.5-7.2-8.9-14.4-13.4-21.7
		c-0.1-0.1-0.2-0.3-0.3-0.4C324.4,48.9,324.3,48.9,324.2,48.9z"/>
	<path d="M294.4,72.4c-4.3,0-8.3-1.1-11.7-3.9c-3.5-2.8-5.3-6.6-5.7-11c-0.3-3.4,0.1-6.7,1.6-9.8c2.5-5.1,6.8-7.8,12.3-8.7
		c4.4-0.7,8.7-0.2,12.7,2c4.6,2.5,7.1,6.4,7.9,11.5c0.6,3.9,0.2,7.7-1.6,11.2c-2.6,4.9-6.8,7.5-12.1,8.4
		C296.8,72.3,295.6,72.3,294.4,72.4z M294.4,65.8c6,0,10.1-4.1,10.1-10.2c0-6.1-4.1-10.4-10-10.4c-6.1,0-10.3,4.2-10.3,10.3
		C284.3,61.6,288.4,65.8,294.4,65.8z"/>
	<path d="M148,72.4c-3.9,0-7.6-0.9-10.8-3.2c-4.1-2.8-6.2-6.9-6.6-11.8c-0.4-4.9,0.6-9.5,4.1-13.3c2.5-2.8,5.8-4.4,9.4-5
		c4.6-0.8,9.2-0.4,13.3,2c4.7,2.6,7.2,6.7,7.9,12c0.5,4.1-0.1,7.9-2.2,11.5c-2.6,4.4-6.7,6.7-11.6,7.5
		C150.4,72.3,149.2,72.3,148,72.4z M137.9,55.6c0,7,5.6,11.6,12.8,9.9c5.8-1.3,8.2-7,7.1-12.4c-1.3-6.3-7-8.9-12.6-7.5
		C140.7,46.7,137.9,50.5,137.9,55.6z"/>
	<path d="M170.8,71.6c0-10.7,0-21.3,0-32c0.2,0,0.5-0.1,0.7-0.1c3.5,0,7.1,0,10.6,0c4.1,0.1,8,0.7,11.6,2.8
		c4.1,2.4,6.2,6.1,6.8,10.7c0.3,2.6,0.2,5.1-0.6,7.6c-1.7,5.2-5.5,8.4-10.6,10c-1.7,0.5-3.6,0.9-5.4,1
		C179.6,71.6,175.2,71.6,170.8,71.6z M177.8,55.5c0,2.9,0,5.8,0,8.8c0,0.7,0.2,0.9,0.8,0.8c1.5-0.1,3.1,0,4.6-0.1
		c2.1-0.1,4.1-0.5,5.9-1.6c3.4-2.1,4.4-5.3,4.1-9.1c-0.3-3.9-2.5-6.3-6.1-7.6c-2.9-1-5.8-0.7-8.8-0.8c-0.7,0-0.5,0.5-0.5,0.8
		C177.8,49.7,177.8,52.6,177.8,55.5z"/>
	<path d="M369.7,54.4c5.2,5.7,10.3,11.3,15.6,17.1c-0.3,0-0.5,0.1-0.7,0.1c-2.8,0-5.7,0-8.5,0c-0.4,0-0.9-0.3-1.1-0.6
		c-4.1-4.7-8.1-9.3-12.2-14c-0.1-0.2-0.2-0.3-0.4-0.5c-0.1,0-0.1,0.1-0.2,0.1c0,5,0,9.9,0,15c-2.4,0-4.7,0-7.1,0c0-10.7,0-21.3,0-32
		c2.3,0,4.6,0,7.1,0c0,4.4,0,8.7,0,13.3c1.5-1.6,2.8-2.9,4.1-4.3c2.7-2.8,5.3-5.7,8-8.5c0.3-0.3,0.9-0.6,1.3-0.6
		c2.8-0.1,5.5,0,8.5,0C379.2,44.6,374.5,49.5,369.7,54.4z"/>
	<path d="M206.2,39.5c7.3,0,14.6,0,22,0c0,2.1,0,4.2,0,6.4c-4.9,0-9.8,0-14.8,0c0,2,0,4,0,6c4.6,0,9.3,0,14,0c0,2.2,0,4.3,0,6.5
		c-4.6,0-9.3,0-14,0c0,2.2,0,4.3,0,6.6c5.2,0,10.4,0,15.7,0c0,2.2,0,4.3,0,6.4c-7.6,0-15.2,0-22.8,0
		C206.2,60.9,206.2,50.3,206.2,39.5z"/>
	<path d="M127.4,43.5c-1.8,1.5-3.6,2.9-5.4,4.4c-1.2-1.2-2.6-2.1-4.2-2.4c-5.1-0.9-9.5,1.8-10.9,6.8c-1.1,4.2-0.5,8,2.7,11.2
		c3.3,3.3,9.5,3.4,12.5-0.6c0.1-0.1,0.2-0.2,0.3-0.3c2,1.4,3.9,2.9,5.9,4.3c-3.3,4.8-10,6.8-17.3,4.8c-7.2-1.9-11.7-7.7-12-15.3
		c-0.3-7.7,3.8-14,10.5-16.4C116.3,37.5,124,39,127.4,43.5z"/>
	<path d="M400,39.4c0.2,3.1-2.8,6.1-6.1,6c-3.4-0.1-6-2.7-6-6.1c0-3.3,2.7-5.9,6.1-6C397.4,33.2,400.2,36.3,400,39.4z M389.6,39.3
		c0,2.4,1.9,4.4,4.4,4.5c2.4,0,4.5-2.1,4.5-4.5c0-2.4-2-4.4-4.5-4.4C391.5,34.9,389.6,36.8,389.6,39.3z"/>
	<path d="M395.3,40.2c0.4,0.6,0.8,1.1,1.2,1.7c-0.8,0.3-1.4,0.2-1.8-0.6c-0.3-0.6-0.7-1.1-1.6-0.8c0,0.4,0,0.8-0.1,1.4
		c-0.3,0-0.6,0-1,0.1c0-1.8,0-3.6,0-5.4c0.9,0,1.8-0.1,2.7,0c1.3,0.2,1.9,1.7,1.2,2.9C395.8,39.8,395.6,40,395.3,40.2z M393.1,37.5
		c0,0.8,0,1.3,0,2c0.7-0.2,1.3-0.3,1.8-0.6c0.1-0.1,0.1-0.8,0-0.9C394.4,37.8,393.8,37.7,393.1,37.5z"/>
</g>
</svg>
