<svg xmlns="http://www.w3.org/2000/svg" width="130.591" height="21.833" viewBox="0 0 130.591 21.833">
    <g data-name="Grupo 654">
        <path data-name="Trazado 845" d="m35.245 365.228-1.067 6.016h-3.319l2.406-13.624h3.319l-1.048 5.98 5.609-5.978h3.881l-6.462 6.678 4.25 6.948h-4.056z" transform="translate(0 -353.675)" style="fill:#606060"/>
        <path data-name="Trazado 846" d="M50.674 371.38a5.445 5.445 0 0 1-5.784-5.725c0-4.832 3.339-8.228 8.054-8.228 3.552 0 5.822 2.29 5.822 5.666 0 4.833-3.318 8.287-8.092 8.287m.505-3.066c2.639 0 4.288-2.271 4.288-4.852a2.724 2.724 0 0 0-2.95-2.988c-2.659 0-4.308 2.231-4.308 4.832a2.736 2.736 0 0 0 2.97 3.008" transform="translate(0 -353.675)" style="fill:#606060"/>
        <path data-name="Trazado 847" d="m64.977 357.621-1.96 11.1h4.347l-.446 2.523h-7.666l2.406-13.624z" transform="translate(0 -353.675)" style="fill:#606060"/>
        <path data-name="Trazado 848" d="M78.6 360.241h-5.025l-.486 2.833h4.445l-.447 2.5h-4.444l-.543 3.047h5.026l-.466 2.62h-8.345l2.407-13.624h8.345z" transform="translate(0 -353.675)" style="fill:#606060"/>
        <path data-name="Trazado 849" d="m83.006 365.228-1.067 6.016H78.62l2.406-13.624h3.319L83.3 363.6l5.609-5.978h3.881l-6.465 6.678 4.25 6.948h-4.056z" transform="translate(0 -353.675)" style="fill:#606060"/>
        <path data-name="Trazado 850" d="M93.622 357.621h10.538l-.446 2.62h-3.63l-1.94 11h-3.319l1.941-11h-3.61z" transform="translate(0 -353.675)" style="fill:#606060"/>
        <path data-name="Trazado 851" d="M109.709 371.38a5.445 5.445 0 0 1-5.783-5.725c0-4.832 3.338-8.228 8.054-8.228 3.552 0 5.822 2.29 5.822 5.666 0 4.833-3.318 8.287-8.093 8.287m.5-3.066c2.639 0 4.289-2.271 4.289-4.852a2.724 2.724 0 0 0-2.95-2.988c-2.659 0-4.308 2.231-4.308 4.832a2.735 2.735 0 0 0 2.969 3.008" transform="translate(0 -353.675)" style="fill:#606060"/>
        <path data-name="Trazado 852" d="M126.264 357.621c3.338 0 4.677 1.921 4.25 4.289a4.955 4.955 0 0 1-3.726 3.94l2.193 5.395h-3.745l-1.922-5.143h-.8l-.912 5.143h-3.319l2.406-13.624zm-.679 2.717h-2.057l-.6 3.416h2.057a1.952 1.952 0 0 0 2.135-1.708c.194-1.029-.291-1.708-1.533-1.708" transform="translate(0 -353.675)" style="fill:#606060"/>
        <path data-name="Trazado 853" d="M10.917 353.675a10.917 10.917 0 1 0 10.916 10.916 10.917 10.917 0 0 0-10.916-10.916m.194 3.056a7.832 7.832 0 0 1 5.293 2.05l-4.177-.06-4.076 3.1v-1.165c.1-.776.485-.679.873-.582.68.291 1.183-.7-.97-.97a17.945 17.945 0 0 0-2.454-.114 7.833 7.833 0 0 1 5.512-2.259m4.65 14.2L13 366.483H8.054l3.418 5.959c-.12.005-.24.009-.361.009a7.83 7.83 0 0 1-5.478-2.226c.213-2.961 3.489-8.245 6.594-10.437l3.784.1a38.715 38.715 0 0 0-3.881 4.561c.3-.378 3.716-3.339 5.218-4.636a7.856 7.856 0 0 1-1.587 11.117" transform="translate(0 -353.675)" style="fill:#606060"/>
    </g>
</svg>
