<svg xmlns="http://www.w3.org/2000/svg" xmlns:xlink="http://www.w3.org/1999/xlink" width="81" height="30" viewBox="0 0 81 30"><defs><path id="ofx-a" d="M0 .798h80.814V30H0z"></path><path id="ofx-a" d="M0 .798h80.814V30H0z"></path></defs> <g fill="none" fill-rule="evenodd"><mask id="ofx-b" fill="#FFFFFF"><use xlink:href="#ofx-a" fill="#FFFFFF"></use></mask> <path fill="#F79D37" d="M55.746 6.781l-.551.55v5.405l.47.452c.259.26.649.519.892.583.615.146 1.2-.048 1.734-.583.422-.404.47-.565.47-1.504 0-.76.081-1.149.293-1.391.275-.34.356-.34 4.475-.308l4.215.049 1.51 2.103c1.637 2.298 1.96 3.026 1.67 3.883-.099.292-1.055 1.797-2.11 3.334-1.75 2.508-1.945 2.864-1.945 3.479 0 .55.098.825.47 1.23.422.469.568.533 1.298.533 1.021 0 1.216-.193 3.177-2.992.78-1.117 1.508-2.088 1.654-2.153.552-.323.973.065 2.53 2.314.876 1.246 1.783 2.394 2.01 2.556.26.146.746.275 1.151.275.6 0 .78-.08 1.184-.533.373-.421.47-.68.47-1.263 0-.679-.145-.938-1.847-3.349-2.206-3.156-2.206-3.14-2.206-4.062 0-.776 0-.776 3.226-5.42.697-1.035.828-1.311.828-1.942-.016-1.1-.714-1.796-1.8-1.796-.86 0-1.297.437-3.08 2.978-1.606 2.313-1.995 2.637-2.563 2.12-.178-.146-1.022-1.263-1.88-2.493-.876-1.262-1.736-2.314-1.962-2.427-.276-.13-2.368-.178-6.81-.178h-6.422l-.55.55zm-9.34 3.657c1.136.486 2.498 1.958 2.886 3.107.454 1.294.39 2.896-.13 4.045-.566 1.213-1.589 2.282-2.707 2.832-.779.388-1.103.453-2.286.453-1.152 0-1.524-.065-2.32-.437-1.247-.583-2.431-1.813-2.869-2.994-.47-1.261-.405-3.333.146-4.4.697-1.36 2.221-2.574 3.664-2.946.875-.226 2.692-.065 3.616.34zm-4.621-3.884c-4.329 1.133-7.037 4.855-6.81 9.385.324 6.715 7.248 10.68 13.378 7.67 2.107-1.035 3.745-2.944 4.588-5.404.47-1.376.502-3.835.08-5.259-1.427-4.822-6.404-7.653-11.236-6.392zm-29.948.421c.389.194.795.663 1.508 1.845 1.93 3.14 4.102 4.368 7.637 4.368 1.719 0 2.416.243 2.983 1.02.47.647.454 1.812-.016 2.475-.584.81-1.248 1.036-3.081 1.036-3.42 0-5.708 1.311-7.523 4.321-.438.728-.989 1.473-1.216 1.651-.925.728-2.124.566-2.984-.405-.745-.858-.681-1.715.227-3.285.924-1.602 1.249-2.573 1.346-4.062.13-1.682-.162-2.831-1.184-4.789-.957-1.812-1.054-2.395-.583-3.285.55-1.019 1.783-1.407 2.886-.89zm.891-6.067c-5.285.695-9.89 4.287-11.82 9.206C.146 12.073 0 12.995 0 15.535c.016 2.152.065 2.59.454 3.884 1.524 5.048 5.124 8.592 10.313 10.145 1.556.47 4.88.583 6.664.227 5.87-1.198 10.393-5.696 11.577-11.57.34-1.65.26-4.902-.146-6.392-.68-2.476-2.108-4.967-3.81-6.698C21.97 2.008 17.09.341 12.727.908z" mask="url(#ofx-b)"></path> <path fill="#F79D37" d="M62.63 14.145c-4.242.704-7.614 4.517-7.63 8.634 0 1.17.21 1.617.968 2.002 1.339.689 2.742-.32 2.742-1.987 0-1.153.596-2.403 1.678-3.476 1.08-1.072 1.903-1.441 3.564-1.617.806-.08 1.065-.193 1.5-.624.92-.914.645-2.388-.548-2.884-.597-.24-1.016-.256-2.275-.048"></path></g></svg>