<?xml version="1.0" encoding="utf-8"?>
<!-- Generator: Adobe Illustrator 26.1.0, SVG Export Plug-In . SVG Version: 6.00 Build 0)  -->
<svg version="1.1" id="Capa_1" xmlns="http://www.w3.org/2000/svg" xmlns:xlink="http://www.w3.org/1999/xlink" x="0px" y="0px"
	 viewBox="0 0 81 30" style="enable-background:new 0 0 81 30;" xml:space="preserve">
<style type="text/css">
	.st0{filter:url(#Adobe_OpacityMaskFilter);}
	.st1{fill-rule:evenodd;clip-rule:evenodd;fill:#FFFFFF;}
	.st2{mask:url(#ofx-b_00000032647388750658902090000011414669209626966927_);fill-rule:evenodd;clip-rule:evenodd;fill:#606060;}
	.st3{fill-rule:evenodd;clip-rule:evenodd;fill:#606060;}
</style>
<g>
	<defs>
		<filter id="Adobe_OpacityMaskFilter" filterUnits="userSpaceOnUse" x="0.1" y="0.4" width="80.8" height="29.2">
			<feColorMatrix  type="matrix" values="1 0 0 0 0  0 1 0 0 0  0 0 1 0 0  0 0 0 1 0"/>
		</filter>
	</defs>
	
		<mask maskUnits="userSpaceOnUse" x="0.1" y="0.4" width="80.8" height="29.2" id="ofx-b_00000032647388750658902090000011414669209626966927_">
		<g class="st0">
			<path id="ofx-a_00000039110861396732536850000001142577767825320886_" class="st1" d="M0.1,0.4h80.8v29.2H0.1V0.4z"/>
		</g>
	</mask>
	<path class="st2" d="M55.8,6.4l-0.6,0.6v5.4l0.5,0.5c0.3,0.3,0.6,0.5,0.9,0.6c0.6,0.1,1.2,0,1.7-0.6c0.4-0.4,0.5-0.6,0.5-1.5
		c0-0.8,0.1-1.1,0.3-1.4c0.3-0.3,0.4-0.3,4.5-0.3l4.2,0l1.5,2.1c1.6,2.3,2,3,1.7,3.9c-0.1,0.3-1.1,1.8-2.1,3.3
		c-1.8,2.5-1.9,2.9-1.9,3.5c0,0.5,0.1,0.8,0.5,1.2c0.4,0.5,0.6,0.5,1.3,0.5c1,0,1.2-0.2,3.2-3c0.8-1.1,1.5-2.1,1.7-2.2
		c0.6-0.3,1,0.1,2.5,2.3c0.9,1.2,1.8,2.4,2,2.6c0.3,0.1,0.7,0.3,1.2,0.3c0.6,0,0.8-0.1,1.2-0.5c0.4-0.4,0.5-0.7,0.5-1.3
		c0-0.7-0.1-0.9-1.8-3.3c-2.2-3.2-2.2-3.1-2.2-4.1c0-0.8,0-0.8,3.2-5.4c0.7-1,0.8-1.3,0.8-1.9c0-1.1-0.7-1.8-1.8-1.8
		c-0.9,0-1.3,0.4-3.1,3c-1.6,2.3-2,2.6-2.6,2.1c-0.2-0.1-1-1.3-1.9-2.5c-0.9-1.3-1.7-2.3-2-2.4c-0.3-0.1-2.4-0.2-6.8-0.2h-6.4
		L55.8,6.4L55.8,6.4z M46.5,10c1.1,0.5,2.5,2,2.9,3.1c0.5,1.3,0.4,2.9-0.1,4c-0.6,1.2-1.6,2.3-2.7,2.8c-0.8,0.4-1.1,0.5-2.3,0.5
		c-1.2,0-1.5-0.1-2.3-0.4c-1.2-0.6-2.4-1.8-2.9-3c-0.5-1.3-0.4-3.3,0.1-4.4c0.7-1.4,2.2-2.6,3.7-2.9C43.8,9.5,45.6,9.6,46.5,10z
		 M41.9,6.2c-4.3,1.1-7,4.9-6.8,9.4c0.3,6.7,7.2,10.7,13.4,7.7c2.1-1,3.7-2.9,4.6-5.4c0.5-1.4,0.5-3.8,0.1-5.3
		C51.7,7.7,46.7,4.9,41.9,6.2z M11.9,6.6c0.4,0.2,0.8,0.7,1.5,1.8c1.9,3.1,4.1,4.4,7.6,4.4c1.7,0,2.4,0.2,3,1c0.5,0.6,0.5,1.8,0,2.5
		c-0.6,0.8-1.2,1-3.1,1c-3.4,0-5.7,1.3-7.5,4.3c-0.4,0.7-1,1.5-1.2,1.7c-0.9,0.7-2.1,0.6-3-0.4c-0.7-0.9-0.7-1.7,0.2-3.3
		c0.9-1.6,1.2-2.6,1.3-4.1c0.1-1.7-0.2-2.8-1.2-4.8C8.7,8.9,8.6,8.4,9,7.5C9.6,6.4,10.8,6.1,11.9,6.6z M12.8,0.5
		C7.5,1.2,2.9,4.8,1,9.7c-0.8,2-0.9,2.9-0.9,5.4c0,2.2,0.1,2.6,0.5,3.9c1.5,5,5.1,8.6,10.3,10.1c1.6,0.5,4.9,0.6,6.7,0.2
		c5.9-1.2,10.4-5.7,11.6-11.6c0.3-1.6,0.3-4.9-0.1-6.4c-0.7-2.5-2.1-5-3.8-6.7C22.1,1.6,17.2-0.1,12.8,0.5L12.8,0.5z"/>
	<path class="st3" d="M62.7,13.7c-4.2,0.7-7.6,4.5-7.6,8.6c0,1.2,0.2,1.6,1,2c1.3,0.7,2.7-0.3,2.7-2c0-1.2,0.6-2.4,1.7-3.5
		c1.1-1.1,1.9-1.4,3.6-1.6c0.8-0.1,1.1-0.2,1.5-0.6c0.9-0.9,0.6-2.4-0.5-2.9C64.4,13.6,64,13.5,62.7,13.7"/>
</g>
</svg>
