<svg xmlns:xlink="http://www.w3.org/1999/xlink" width="102" height="23" viewBox="0 0 102 23" fill="none" xmlns="http://www.w3.org/2000/svg"><path d="M0 22.8986H88.298V20.5986H0V22.8986Z" fill="#159E49"></path> <path d="M94.418 22.8986H102V20.5986H94.418V22.8986Z" fill="#159E49"></path> <path d="M17.2039 17.1147H20.3659V5.27647H17.2039V17.1147ZM16.8979 1.86029C16.8979 1.31912 17.0679 0.879412 17.4419 0.507353C17.7819 0.169118 18.2579 0 18.8019 0C19.3799 0 19.8219 0.169118 20.1619 0.507353C20.5019 0.845588 20.7059 1.28529 20.7059 1.86029C20.7059 2.40147 20.5359 2.84118 20.1619 3.21324C19.8219 3.55147 19.3459 3.72059 18.8019 3.72059C18.2579 3.72059 17.8159 3.55147 17.4419 3.21324C17.0679 2.875 16.8979 2.40147 16.8979 1.86029Z" fill="#333433"></path> <path d="M27.6419 5.24259H30.8719V7.61024H27.6419V13.2926C27.6419 13.7999 27.7779 14.2058 28.0839 14.5102C28.3899 14.8147 28.7639 14.9838 29.2739 14.9838C29.7159 14.9838 30.2259 14.9161 30.7699 14.7808L31.1779 17.1147C30.2599 17.3514 29.3759 17.4867 28.5259 17.4867C27.9479 17.4867 27.4039 17.3852 26.9279 17.2161C26.4519 17.047 26.0439 16.7764 25.6699 16.4382C25.3299 16.1 25.0579 15.6941 24.8539 15.2205C24.6499 14.747 24.5819 14.2397 24.5819 13.6647V7.67789H22.4059V5.31025H24.5819V1.82642H27.6079V5.24259H27.6419Z" fill="#333433"></path> <path d="M32.7421 8.52342C32.7421 8.01607 32.8441 7.50871 33.0821 7.069C33.3201 6.62929 33.6261 6.25724 34.0001 5.919C34.4081 5.61459 34.8841 5.344 35.4281 5.17488C35.9721 5.00576 36.6181 4.9043 37.2641 4.9043C37.9441 4.9043 38.6581 4.97195 39.3721 5.10724C40.0861 5.24253 40.8341 5.44547 41.5821 5.71606L40.9021 7.94841C40.3241 7.71165 39.7461 7.54253 39.1681 7.40724C38.5901 7.27194 38.0461 7.20429 37.5361 7.20429C36.9921 7.20429 36.5501 7.30576 36.2101 7.54253C35.8701 7.77929 35.7341 8.08371 35.7341 8.48959C35.7341 8.86165 35.9041 9.13224 36.2101 9.30136C36.5161 9.47047 36.8901 9.63959 37.3661 9.77488C37.8421 9.91018 38.3181 10.0455 38.8621 10.1469C39.4061 10.2822 39.9161 10.4852 40.3581 10.7558C40.8341 11.0264 41.2081 11.3984 41.5141 11.8381C41.8201 12.3117 41.9901 12.9205 41.9901 13.6646C41.9901 14.2058 41.8881 14.6793 41.6501 15.1528C41.4121 15.5925 41.1061 15.9984 40.6981 16.3366C40.2901 16.6749 39.8141 16.9117 39.2021 17.1146C38.6241 17.2837 37.9781 17.3852 37.2981 17.3852C35.8361 17.3852 34.2721 17.0808 32.6401 16.4381L33.2861 14.2396C34.6801 14.8146 35.9381 15.0852 37.0601 15.0852C37.6381 15.0852 38.1141 14.9499 38.4541 14.7131C38.7941 14.4764 38.9641 14.1381 38.9641 13.6984C38.9641 13.3264 38.7941 13.0558 38.4881 12.8528C38.1821 12.6499 37.8081 12.4808 37.3321 12.3455C36.8561 12.2102 36.3801 12.0749 35.8361 11.9396C35.2921 11.8043 34.8161 11.6014 34.3401 11.3308C33.8641 11.0602 33.4901 10.7219 33.1841 10.2822C32.8781 9.87635 32.7421 9.26754 32.7421 8.52342Z" fill="#333433"></path> <path d="M48.3481 5.24259H51.5781V7.61024H48.3481V13.2926C48.3481 13.7999 48.4841 14.2058 48.7901 14.5102C49.0961 14.8147 49.4701 14.9838 49.9801 14.9838C50.4221 14.9838 50.9321 14.9161 51.4761 14.7808L51.8841 17.1147C50.9661 17.3514 50.0821 17.4867 49.2321 17.4867C48.6541 17.4867 48.1101 17.3852 47.6341 17.2161C47.1581 17.047 46.7501 16.7764 46.3761 16.4382C46.0021 16.1 45.7641 15.6941 45.5601 15.2205C45.3561 14.747 45.2881 14.2397 45.2881 13.6647V7.67789H43.1121V5.31025H45.2881V1.82642H48.3141V5.24259H48.3481Z" fill="#333433"></path> <path d="M56.5759 13.4957C56.5759 13.9692 56.7799 14.3751 57.1539 14.7133C57.5619 15.0516 58.0379 15.2207 58.6159 15.2207C59.4319 15.2207 60.0779 14.9501 60.5879 14.4428C61.0979 13.9354 61.3359 13.2589 61.3359 12.4472V11.7369C60.7579 11.5678 60.1119 11.5001 59.3979 11.5001C58.5139 11.5001 57.8339 11.6692 57.3239 12.0413C56.8479 12.3795 56.5759 12.8869 56.5759 13.4957ZM53.6179 13.6648C53.6179 12.4133 54.0939 11.4325 55.0459 10.756C55.9979 10.0795 57.3239 9.74128 59.0579 9.74128C59.4319 9.74128 59.8059 9.77511 60.1799 9.80893C60.5539 9.84275 60.9619 9.9104 61.3359 9.97805V9.3354C61.3359 8.72658 61.1319 8.21923 60.6899 7.84717C60.2479 7.47511 59.6699 7.27216 58.9219 7.27216C57.7319 7.27216 56.4399 7.54275 55.0459 8.11775L54.2639 5.95305C55.9639 5.27658 57.6299 4.97217 59.2619 4.97217C60.0099 4.97217 60.6559 5.07364 61.2679 5.3104C61.8799 5.51334 62.3899 5.81775 62.8319 6.22363C63.2739 6.59569 63.6139 7.06922 63.8519 7.6104C64.0899 8.15158 64.2259 8.7604 64.2259 9.40304V14.2398C64.2259 14.5104 64.2939 14.7133 64.4299 14.8486C64.5659 15.0178 64.7699 15.0854 65.0419 15.0854C65.1779 15.0854 65.2799 15.0854 65.4159 15.0516C65.5179 15.0516 65.6199 15.0178 65.6539 15.0178L65.8579 17.2839C65.5859 17.3178 65.3479 17.3854 65.0759 17.4192C64.8039 17.453 64.5319 17.453 64.2259 17.453C63.6139 17.453 63.1039 17.3177 62.6619 17.0133C62.2199 16.7427 61.9139 16.3369 61.7099 15.8295C61.1999 16.3369 60.5879 16.7427 59.9419 17.0133C59.2619 17.2839 58.5819 17.4192 57.8339 17.4192C57.2219 17.4192 56.6439 17.3178 56.1339 17.1486C55.6239 16.9795 55.1819 16.7089 54.8079 16.3707C54.4339 16.0325 54.1619 15.6604 53.9579 15.1869C53.7199 14.7133 53.6179 14.206 53.6179 13.6648Z" fill="#333433"></path> <path d="M67.6261 5.20871H70.074L70.448 6.83224C70.924 6.22342 71.468 5.74989 72.148 5.41165C72.828 5.07341 73.542 4.9043 74.324 4.9043C75.208 4.9043 75.956 5.10724 76.636 5.4793C77.282 5.85136 77.792 6.39253 78.132 7.069C78.676 6.35871 79.322 5.81753 80.036 5.44548C80.75 5.07342 81.532 4.9043 82.416 4.9043C83.062 4.9043 83.64 5.00577 84.184 5.20871C84.728 5.41165 85.204 5.71606 85.578 6.12195C85.986 6.494 86.292 6.96754 86.496 7.50871C86.7 8.04989 86.836 8.62488 86.836 9.26753V17.1146H83.742V9.77488C83.742 9.09841 83.538 8.55724 83.096 8.11753C82.654 7.71165 82.11 7.47489 81.43 7.47489C80.648 7.47489 80.002 7.74547 79.492 8.28665C78.982 8.82783 78.744 9.5043 78.744 10.3837V17.1146H75.65V9.77488C75.65 9.09841 75.446 8.55724 75.038 8.11753C74.63 7.71165 74.0861 7.47489 73.4061 7.47489C72.5901 7.47489 71.944 7.74547 71.434 8.28665C70.924 8.82783 70.6861 9.5043 70.6861 10.3837V17.1146H67.592V5.20871H67.6261Z" fill="#333433"></path> <path d="M98.5999 11.1278C98.5999 10.5866 98.5319 10.0793 98.3619 9.60577C98.2259 9.13224 97.9879 8.72635 97.7159 8.42194C97.4439 8.08371 97.1379 7.84695 96.7639 7.644C96.3899 7.44106 95.9819 7.37341 95.5399 7.37341C94.7239 7.37341 94.0779 7.644 93.5339 8.219C93.0239 8.76017 92.7519 9.47048 92.7519 10.3499V11.9396C92.7519 12.3793 92.82 12.7852 92.956 13.1234C93.092 13.4955 93.2959 13.7999 93.5339 14.0705C93.7719 14.3411 94.078 14.544 94.418 14.6793C94.758 14.8146 95.1319 14.8822 95.5399 14.8822C95.9819 14.8822 96.3899 14.7808 96.7639 14.6117C97.1379 14.4425 97.4439 14.1719 97.7159 13.8337C97.9879 13.4955 98.1919 13.0896 98.3619 12.6499C98.5319 12.2102 98.5999 11.669 98.5999 11.1278ZM89.7599 5.20871H92.208L92.5819 6.73077C93.0239 6.15577 93.5339 5.71606 94.1799 5.37782C94.8259 5.07341 95.5399 4.9043 96.3219 4.9043C97.1039 4.9043 97.818 5.07341 98.498 5.37782C99.144 5.68224 99.722 6.12195 100.198 6.66312C100.674 7.2043 101.048 7.84694 101.32 8.62489C101.592 9.369 101.728 10.2146 101.728 11.1278C101.728 12.0411 101.592 12.8866 101.32 13.6308C101.048 14.3749 100.674 15.0514 100.198 15.5925C99.722 16.1337 99.144 16.5734 98.498 16.8778C97.852 17.1822 97.1039 17.3514 96.3219 17.3514C95.6079 17.3514 94.9279 17.2161 94.3499 16.9455C93.7379 16.6749 93.2279 16.269 92.8199 15.7278V22.9322H89.7599V5.20871Z" fill="#333433"></path> <path d="M10.404 14.0706C9.92799 14.5441 9.28201 14.747 8.46601 14.747H4.658V9.84263H8.46601C9.24801 9.84263 9.89399 10.0794 10.404 10.5191C10.88 10.9588 11.118 11.5676 11.118 12.2779C11.152 13.022 10.914 13.6309 10.404 14.0706ZM4.658 3.21322H8.16C8.874 3.21322 9.452 3.41616 9.928 3.85586C10.404 4.26174 10.608 4.83674 10.608 5.51321C10.608 6.18968 10.37 6.73087 9.928 7.13675C9.452 7.54263 8.874 7.74557 8.16 7.74557H4.658V3.21322ZM13.532 10.147C13.022 9.43675 12.342 8.92939 11.492 8.62498C12.172 8.32057 12.682 7.88086 13.09 7.27204C13.498 6.66322 13.702 5.95293 13.702 5.14116C13.702 4.49851 13.566 3.92351 13.328 3.41616C13.09 2.87498 12.716 2.43528 12.274 2.06322C11.832 1.69116 11.288 1.38675 10.676 1.1838C10.064 0.980863 9.38401 0.879395 8.63601 0.879395H0V3.0441C1.326 3.0441 2.38 4.12645 2.38 5.44557C2.38 6.76469 1.326 7.84704 0 7.84704V9.8088C1.326 9.8088 2.38 10.8912 2.38 12.2103V12.5823C2.38 13.9015 1.326 14.9838 0 14.9838V17.1485H9.01C9.792 17.1485 10.472 17.047 11.118 16.8103C11.764 16.6073 12.308 16.3029 12.784 15.897C13.26 15.4912 13.634 15.0176 13.872 14.4764C14.144 13.9353 14.28 13.3265 14.28 12.65C14.28 11.6691 14.042 10.8573 13.532 10.147Z" fill="#333433"></path></svg>