<?xml version="1.0" encoding="utf-8"?>
<!-- Generator: Adobe Illustrator 26.1.0, SVG Export Plug-In . SVG Version: 6.00 Build 0)  -->
<svg version="1.1" id="Capa_1" xmlns="http://www.w3.org/2000/svg" xmlns:xlink="http://www.w3.org/1999/xlink" x="0px" y="0px"
	 viewBox="0 0 102 23" style="enable-background:new 0 0 102 23;" xml:space="preserve">
<style type="text/css">
	.st0{fill:#606060;}
</style>
<path class="st0" d="M0,22.9h88.3v-2.3H0V22.9z"/>
<path class="st0" d="M94.4,22.9h7.6v-2.3h-7.6V22.9z"/>
<path class="st0" d="M17.2,17.1h3.2V5.3h-3.2V17.1z M16.9,1.9c0-0.5,0.2-1,0.5-1.4C17.8,0.2,18.3,0,18.8,0c0.6,0,1,0.2,1.4,0.5
	s0.5,0.8,0.5,1.4c0,0.5-0.2,1-0.5,1.4c-0.3,0.3-0.8,0.5-1.4,0.5c-0.5,0-1-0.2-1.4-0.5C17.1,2.9,16.9,2.4,16.9,1.9z"/>
<path class="st0" d="M27.6,5.2h3.2v2.4h-3.2v5.7c0,0.5,0.1,0.9,0.4,1.2c0.3,0.3,0.7,0.5,1.2,0.5c0.4,0,1-0.1,1.5-0.2l0.4,2.3
	c-0.9,0.2-1.8,0.4-2.7,0.4c-0.6,0-1.1-0.1-1.6-0.3s-0.9-0.4-1.3-0.8c-0.3-0.3-0.6-0.7-0.8-1.2c-0.2-0.5-0.3-1-0.3-1.6v-6h-2.2V5.3
	h2.2V1.8h3L27.6,5.2L27.6,5.2z"/>
<path class="st0" d="M32.7,8.5c0-0.5,0.1-1,0.3-1.5c0.2-0.4,0.5-0.8,0.9-1.1c0.4-0.3,0.9-0.6,1.4-0.7s1.2-0.3,1.8-0.3
	c0.7,0,1.4,0.1,2.1,0.2c0.7,0.1,1.5,0.3,2.2,0.6l-0.7,2.2c-0.6-0.2-1.2-0.4-1.7-0.5c-0.6-0.1-1.1-0.2-1.6-0.2c-0.5,0-1,0.1-1.3,0.3
	c-0.3,0.2-0.5,0.5-0.5,0.9c0,0.4,0.2,0.6,0.5,0.8c0.3,0.2,0.7,0.3,1.2,0.5c0.5,0.1,1,0.3,1.5,0.4c0.5,0.1,1.1,0.3,1.5,0.6
	c0.5,0.3,0.8,0.6,1.2,1.1c0.3,0.5,0.5,1.1,0.5,1.8c0,0.5-0.1,1-0.3,1.5c-0.2,0.4-0.5,0.8-1,1.2c-0.4,0.3-0.9,0.6-1.5,0.8
	c-0.6,0.2-1.2,0.3-1.9,0.3c-1.5,0-3-0.3-4.7-0.9l0.6-2.2c1.4,0.6,2.7,0.8,3.8,0.8c0.6,0,1.1-0.1,1.4-0.4c0.3-0.2,0.5-0.6,0.5-1
	c0-0.4-0.2-0.6-0.5-0.8c-0.3-0.2-0.7-0.4-1.2-0.5s-1-0.3-1.5-0.4c-0.5-0.1-1-0.3-1.5-0.6c-0.5-0.3-0.8-0.6-1.2-1
	C32.9,9.9,32.7,9.3,32.7,8.5z"/>
<path class="st0" d="M48.3,5.2h3.2v2.4h-3.2v5.7c0,0.5,0.1,0.9,0.4,1.2c0.3,0.3,0.7,0.5,1.2,0.5c0.4,0,1-0.1,1.5-0.2l0.4,2.3
	c-0.9,0.2-1.8,0.4-2.7,0.4c-0.6,0-1.1-0.1-1.6-0.3c-0.5-0.2-0.9-0.4-1.3-0.8c-0.4-0.3-0.6-0.7-0.8-1.2c-0.2-0.5-0.3-1-0.3-1.6v-6
	h-2.2V5.3h2.2V1.8h3L48.3,5.2L48.3,5.2z"/>
<path class="st0" d="M56.6,13.5c0,0.5,0.2,0.9,0.6,1.2c0.4,0.3,0.9,0.5,1.5,0.5c0.8,0,1.5-0.3,2-0.8c0.5-0.5,0.7-1.2,0.7-2v-0.7
	c-0.6-0.2-1.2-0.2-1.9-0.2c-0.9,0-1.6,0.2-2.1,0.5C56.8,12.4,56.6,12.9,56.6,13.5z M53.6,13.7c0-1.3,0.5-2.2,1.4-2.9
	c1-0.7,2.3-1,4-1c0.4,0,0.7,0,1.1,0.1c0.4,0,0.8,0.1,1.2,0.2V9.3c0-0.6-0.2-1.1-0.6-1.5s-1-0.6-1.8-0.6c-1.2,0-2.5,0.3-3.9,0.8
	L54.3,6c1.7-0.7,3.4-1,5-1c0.7,0,1.4,0.1,2,0.3c0.6,0.2,1.1,0.5,1.6,0.9c0.4,0.4,0.8,0.8,1,1.4s0.4,1.1,0.4,1.8v4.8
	c0,0.3,0.1,0.5,0.2,0.6c0.1,0.2,0.3,0.2,0.6,0.2c0.1,0,0.2,0,0.4,0c0.1,0,0.2,0,0.2,0l0.2,2.3c-0.3,0-0.5,0.1-0.8,0.1
	c-0.3,0-0.5,0-0.8,0c-0.6,0-1.1-0.1-1.6-0.4c-0.4-0.3-0.7-0.7-1-1.2c-0.5,0.5-1.1,0.9-1.8,1.2c-0.7,0.3-1.4,0.4-2.1,0.4
	c-0.6,0-1.2-0.1-1.7-0.3c-0.5-0.2-1-0.4-1.3-0.8c-0.4-0.3-0.6-0.7-0.8-1.2C53.7,14.7,53.6,14.2,53.6,13.7z"/>
<path class="st0" d="M67.6,5.2h2.4l0.4,1.6c0.5-0.6,1-1.1,1.7-1.4c0.7-0.3,1.4-0.5,2.2-0.5c0.9,0,1.6,0.2,2.3,0.6
	c0.6,0.4,1.2,0.9,1.5,1.6c0.5-0.7,1.2-1.3,1.9-1.6c0.7-0.4,1.5-0.5,2.4-0.5c0.6,0,1.2,0.1,1.8,0.3s1,0.5,1.4,0.9
	C86,6.5,86.3,7,86.5,7.5c0.2,0.5,0.3,1.1,0.3,1.8v7.8h-3.1V9.8c0-0.7-0.2-1.2-0.6-1.7c-0.4-0.4-1-0.6-1.7-0.6
	c-0.8,0-1.4,0.3-1.9,0.8c-0.5,0.5-0.7,1.2-0.7,2.1v6.7h-3.1V9.8c0-0.7-0.2-1.2-0.6-1.7c-0.4-0.4-1-0.6-1.6-0.6c-0.8,0-1.5,0.3-2,0.8
	c-0.5,0.5-0.7,1.2-0.7,2.1v6.7h-3.1L67.6,5.2L67.6,5.2z"/>
<path class="st0" d="M98.6,11.1c0-0.5-0.1-1-0.2-1.5c-0.1-0.5-0.4-0.9-0.6-1.2c-0.3-0.3-0.6-0.6-1-0.8c-0.4-0.2-0.8-0.3-1.2-0.3
	c-0.8,0-1.5,0.3-2,0.8c-0.5,0.5-0.8,1.3-0.8,2.1v1.6c0,0.4,0.1,0.8,0.2,1.2c0.1,0.4,0.3,0.7,0.6,0.9c0.2,0.3,0.5,0.5,0.9,0.6
	c0.3,0.1,0.7,0.2,1.1,0.2c0.4,0,0.8-0.1,1.2-0.3c0.4-0.2,0.7-0.4,1-0.8c0.3-0.3,0.5-0.7,0.6-1.2C98.5,12.2,98.6,11.7,98.6,11.1z
	 M89.8,5.2h2.4l0.4,1.5c0.4-0.6,1-1,1.6-1.4c0.6-0.3,1.4-0.5,2.1-0.5s1.5,0.2,2.2,0.5c0.6,0.3,1.2,0.7,1.7,1.3
	c0.5,0.5,0.8,1.2,1.1,2c0.3,0.7,0.4,1.6,0.4,2.5c0,0.9-0.1,1.8-0.4,2.5c-0.3,0.7-0.6,1.4-1.1,2c-0.5,0.5-1.1,1-1.7,1.3
	c-0.6,0.3-1.4,0.5-2.2,0.5c-0.7,0-1.4-0.1-2-0.4c-0.6-0.3-1.1-0.7-1.5-1.2v7.2h-3.1V5.2z"/>
<path class="st0" d="M10.4,14.1c-0.5,0.5-1.1,0.7-1.9,0.7H4.7V9.8h3.8c0.8,0,1.4,0.2,1.9,0.7c0.5,0.4,0.7,1,0.7,1.8
	C11.2,13,10.9,13.6,10.4,14.1z M4.7,3.2h3.5c0.7,0,1.3,0.2,1.8,0.6c0.5,0.4,0.7,1,0.7,1.7s-0.2,1.2-0.7,1.6C9.5,7.5,8.9,7.7,8.2,7.7
	H4.7V3.2z M13.5,10.1c-0.5-0.7-1.2-1.2-2-1.5c0.7-0.3,1.2-0.7,1.6-1.4s0.6-1.3,0.6-2.1c0-0.6-0.1-1.2-0.4-1.7
	c-0.2-0.5-0.6-1-1.1-1.4c-0.4-0.4-1-0.7-1.6-0.9c-0.6-0.2-1.3-0.3-2-0.3H0V3c1.3,0,2.4,1.1,2.4,2.4S1.3,7.8,0,7.8v2
	c1.3,0,2.4,1.1,2.4,2.4v0.4C2.4,13.9,1.3,15,0,15v2.2h9c0.8,0,1.5-0.1,2.1-0.3c0.6-0.2,1.2-0.5,1.7-0.9c0.5-0.4,0.8-0.9,1.1-1.4
	c0.3-0.5,0.4-1.1,0.4-1.8C14.3,11.7,14,10.9,13.5,10.1z"/>
</svg>
