<svg xmlns:xlink="http://www.w3.org/1999/xlink" width="83" height="23" viewBox="0 0 83 23" fill="none" xmlns="http://www.w3.org/2000/svg"><path d="M13.4018 16.7133C13.4018 16.4067 13.1734 16.2533 12.945 16.2533C12.4881 16.2533 11.8789 16.33 11.422 16.33C8.83303 16.33 6.70092 14.1833 6.70092 11.5767V1.07333V0.153333C6.70092 0.0766667 6.62477 0 6.54862 0H0.0761468L0 0.0766667V11.5C0 17.8633 5.10183 23 11.422 23C12.0312 23 12.6404 22.9233 13.2495 22.8467C13.3257 22.8467 13.4018 22.77 13.4018 22.6933V16.7133Z" fill="#252C36"></path> <path d="M11.4221 0C10.8129 0 10.1276 0.0766667 9.51838 0.153333C9.44224 0.153333 9.36609 0.23 9.36609 0.306667V6.28667C9.36609 6.59333 9.59453 6.82333 9.82297 6.74667C10.0514 6.74667 11.3459 6.67 11.3459 6.67C13.9349 6.67 16.067 8.81667 16.067 11.4233V21.7733C16.067 21.85 16.1432 21.85 16.1432 21.85C20.1028 20.0867 22.8441 16.1 22.8441 11.5C22.8441 5.13667 17.7422 0 11.4221 0Z" fill="#252C36"></path> <path d="M48.1248 4.75343V1.68677L44.4698 1.99343V4.8301H48.1248V4.75343ZM54.8257 3.75677L51.323 4.06343V15.7934C51.323 18.0934 52.389 19.4734 55.0542 19.4734C56.1964 19.4734 57.034 19.2434 57.8716 18.9368V16.1001C57.1101 16.4068 56.501 16.4834 55.8156 16.4834C55.2065 16.4834 54.9019 16.1768 54.9019 15.5634V9.73677H57.8716V6.82343H54.8257V3.75677ZM44.4698 19.2434H48.1248V6.82343H44.4698V19.2434ZM37.5404 16.5601C37.0835 16.7134 36.2459 16.7134 35.5606 16.7134C34.4184 16.7134 33.4285 16.7134 32.8193 16.6368V13.0334H35.4844C37.3881 13.0334 38.2257 13.5701 38.2257 14.8734C38.1496 15.5634 37.9211 16.1001 37.5404 16.5601ZM32.7432 6.74677C33.3523 6.74677 34.1138 6.6701 34.9514 6.6701C36.9312 6.6701 37.7688 7.28343 37.7688 8.5101C37.7688 9.2001 37.4643 9.73677 36.8551 10.1968C36.3221 10.2734 35.7129 10.3501 35.0276 10.3501C34.1899 10.3501 33.3523 10.3501 32.7432 10.2734V6.74677ZM39.4441 11.2701C40.5863 10.5801 41.5762 9.50677 41.5762 7.89677C41.5762 5.21343 39.5202 3.75677 35.1799 3.75677H29.012V19.2434H36.1698C39.9771 19.2434 41.9569 17.7868 41.9569 14.8734C41.9569 12.9568 40.8909 11.8834 39.4441 11.2701ZM65.4863 11.8834C63.6588 11.5768 63.2019 11.3468 63.2019 10.8101C63.2019 10.5034 63.278 10.2734 63.4303 10.1201C63.8872 9.96677 64.6487 9.8901 65.334 9.8901C66.7808 9.8901 68.0753 10.1201 69.1413 10.4268V7.43677C68.3037 6.97677 66.9331 6.59343 65.0294 6.59343C61.8312 6.59343 59.7753 8.12677 59.7753 10.7334C59.7753 13.2634 61.2221 14.0301 63.9633 14.4901C65.9432 14.8734 66.4 15.1034 66.4 15.7168C66.4 16.0234 66.3239 16.1768 66.2477 16.3301C65.7909 16.4834 65.0294 16.6368 64.0395 16.6368C62.6688 16.6368 61.0698 16.3301 60.156 16.0234V18.8601C61.1459 19.2434 62.745 19.4734 64.1918 19.4734C67.6184 19.4734 69.8266 18.4001 69.8266 15.6401C69.8266 13.2634 68.3799 12.4201 65.4863 11.8834ZM78.6597 16.2534C78.2028 16.5601 77.6698 16.7134 76.9844 16.7134C75.5377 16.7134 74.7 15.4868 74.7 13.3401C74.7 12.1134 74.9285 11.0401 75.3854 10.5034C75.8422 10.1201 76.3753 9.96677 77.0606 9.96677C78.5835 9.96677 79.2688 11.1934 79.2688 13.0334C79.345 14.3368 79.1166 15.4868 78.6597 16.2534ZM77.289 6.59343C73.101 6.59343 71.1973 9.4301 71.1973 13.3401C71.1973 17.1734 73.4055 19.4734 76.9083 19.4734C81.0964 19.4734 82.9239 16.6368 82.9239 12.8034C82.9239 8.9701 80.7918 6.59343 77.289 6.59343Z" fill="#252C36"></path></svg>