<?xml version="1.0" encoding="utf-8"?>
<!-- Generator: Adobe Illustrator 26.1.0, SVG Export Plug-In . SVG Version: 6.00 Build 0)  -->
<svg version="1.1" id="Capa_1" xmlns="http://www.w3.org/2000/svg" xmlns:xlink="http://www.w3.org/1999/xlink" x="0px" y="0px"
	 viewBox="0 0 83 23" style="enable-background:new 0 0 83 23;" xml:space="preserve">
<style type="text/css">
	.st0{fill:#606060;}
</style>
<path class="st0" d="M13.4,16.7c0-0.3-0.2-0.5-0.5-0.5c-0.5,0-1.1,0.1-1.5,0.1c-2.6,0-4.7-2.1-4.7-4.8V1.1V0.2C6.7,0.1,6.6,0,6.5,0
	H0.1L0,0.1v11.4C0,17.9,5.1,23,11.4,23c0.6,0,1.2-0.1,1.8-0.2c0.1,0,0.2-0.1,0.2-0.2V16.7z"/>
<path class="st0" d="M11.4,0c-0.6,0-1.3,0.1-1.9,0.2c-0.1,0-0.2,0.1-0.2,0.2v6c0,0.3,0.2,0.5,0.5,0.5c0.2,0,1.5-0.1,1.5-0.1
	c2.6,0,4.7,2.1,4.7,4.8v10.4c0,0.1,0.1,0.1,0.1,0.1c4-1.8,6.7-5.8,6.7-10.4C22.8,5.1,17.7,0,11.4,0z"/>
<path class="st0" d="M48.1,4.8V1.7L44.5,2v2.8L48.1,4.8L48.1,4.8z M54.8,3.8l-3.5,0.3v11.7c0,2.3,1.1,3.7,3.7,3.7
	c1.1,0,2-0.2,2.8-0.5v-2.8c-0.8,0.3-1.4,0.4-2.1,0.4c-0.6,0-0.9-0.3-0.9-0.9V9.7h3V6.8h-3V3.8z M44.5,19.2h3.7V6.8h-3.7V19.2z
	 M37.5,16.6c-0.5,0.2-1.3,0.2-2,0.2c-1.1,0-2.1,0-2.7-0.1V13h2.7c1.9,0,2.7,0.5,2.7,1.8C38.1,15.6,37.9,16.1,37.5,16.6z M32.7,6.7
	c0.6,0,1.4-0.1,2.2-0.1c2,0,2.8,0.6,2.8,1.8c0,0.7-0.3,1.2-0.9,1.7c-0.5,0.1-1.1,0.2-1.8,0.2c-0.8,0-1.7,0-2.3-0.1V6.7z M39.4,11.3
	c1.1-0.7,2.1-1.8,2.1-3.4c0-2.7-2.1-4.1-6.4-4.1H29v15.5h7.2c3.8,0,5.8-1.5,5.8-4.4C42,13,40.9,11.9,39.4,11.3z M65.5,11.9
	c-1.8-0.3-2.3-0.5-2.3-1.1c0-0.3,0.1-0.5,0.2-0.7c0.5-0.2,1.2-0.2,1.9-0.2c1.4,0,2.7,0.2,3.8,0.5v-3C68.3,7,66.9,6.6,65,6.6
	c-3.2,0-5.3,1.5-5.3,4.1c0,2.5,1.4,3.3,4.2,3.8c2,0.4,2.4,0.6,2.4,1.2c0,0.3-0.1,0.5-0.2,0.6c-0.5,0.2-1.2,0.3-2.2,0.3
	c-1.4,0-3-0.3-3.9-0.6v2.8c1,0.4,2.6,0.6,4,0.6c3.4,0,5.6-1.1,5.6-3.8C69.8,13.3,68.4,12.4,65.5,11.9z M78.7,16.3
	c-0.5,0.3-1,0.5-1.7,0.5c-1.4,0-2.3-1.2-2.3-3.4c0-1.2,0.2-2.3,0.7-2.8c0.5-0.4,1-0.5,1.7-0.5c1.5,0,2.2,1.2,2.2,3.1
	C79.3,14.3,79.1,15.5,78.7,16.3z M77.3,6.6c-4.2,0-6.1,2.8-6.1,6.7c0,3.8,2.2,6.1,5.7,6.1c4.2,0,6-2.8,6-6.7
	C82.9,9,80.8,6.6,77.3,6.6z"/>
</svg>
