<?xml version="1.0" encoding="utf-8"?>
<!-- Generator: Adobe Illustrator 26.1.0, SVG Export Plug-In . SVG Version: 6.00 Build 0)  -->
<svg version="1.1" id="Capa_1" xmlns="http://www.w3.org/2000/svg" xmlns:xlink="http://www.w3.org/1999/xlink" x="0px" y="0px"
	 viewBox="0 0 128.1 80.9" style="enable-background:new 0 0 128.1 80.9;" xml:space="preserve">
<style type="text/css">
	.st0{fill:#606060;}
</style>
<g transform="translate(-155.509 -482.835)">
	<path class="st0" d="M180.4,523.4H173l-5.6,26.2h-10l5.6-26.2h-7.5l0.8-3.7h24.9L180.4,523.4z"/>
	<path class="st0" d="M196.4,549.7h-18.7c-1.2,0.1-2.4-0.4-3.1-1.3c-0.7-1-0.9-2.2-0.5-3.4l1.9-8.9c0.2-1.1,0.8-2,1.6-2.7
		c0.8-0.7,1.8-1.1,2.9-1h10.5l0.7-3.3H182l0.7-3.3h15.1c0.9-0.1,1.9,0.3,2.5,1c0.6,0.8,0.7,1.8,0.5,2.7L196.4,549.7z M185.2,535.7
		l-2.3,10.7h5l2.3-10.7H185.2z"/>
	<path class="st0" d="M235.5,529.4c0.2-1.1,0.8-2,1.6-2.7c0.8-0.7,1.9-1.1,2.9-1h16c0.9-0.1,1.9,0.3,2.5,1c0.6,0.8,0.7,1.8,0.5,2.7
		l-2.9,13.6h-14.2l-0.7,3.3h14.2l-0.7,3.3h-18.8c-1.2,0.1-2.4-0.4-3.1-1.3c-0.7-1-0.9-2.2-0.5-3.4L235.5,529.4z M244.9,529
		l-2.3,10.7h5l2.3-10.7H244.9z"/>
	<path class="st0" d="M282.9,529h-9l-4.4,20.7h-9.2l4.3-20.2c0.2-1.1,0.8-2,1.6-2.7c0.8-0.7,1.9-1.1,2.9-1h14.5L282.9,529z"/>
	<g transform="translate(156.025 555.112)">
		<path class="st0" d="M7.2,1.1H5.1L3.4,8.7H0.6l1.6-7.6H0L0.2,0h7.2L7.2,1.1z"/>
		<path class="st0" d="M9.7,8.7c-0.3,0-0.7-0.1-0.9-0.4C8.6,8,8.6,7.6,8.7,7.3l1.3-6c0.1-0.4,0.3-0.7,0.6-1C10.8,0.1,11.2,0,11.6,0
			h4.8l-0.2,1.1h-3.3l-0.6,2.7h2.5l-0.2,1.1h-2.5l-0.6,2.7h3.3l-0.2,1.1L9.7,8.7z"/>
		<path class="st0" d="M18.7,8.7c-0.3,0-0.7-0.1-0.9-0.4c-0.2-0.3-0.3-0.7-0.2-1l1.3-6c0.1-0.4,0.3-0.7,0.6-1
			C19.7,0.1,20.1,0,20.5,0h4.8l-0.2,1.1h-3.3l-1.5,6.5h3.3l-0.2,1.1L18.7,8.7z"/>
		<path class="st0" d="M33.8,8.7h-2.9L31.5,6h-1.8l-0.6,2.7h-2.9L28.1,0H31l-1,4.9h1.8l1-4.9h2.9L33.8,8.7z"/>
		<path class="st0" d="M44.6,8.7h-2.9l-0.8-5.4l-1.2,5.4h-2.9L38.6,0h2.9l0.8,5.5L43.5,0h2.9L44.6,8.7z"/>
		<path class="st0" d="M55.4,7.3c-0.1,0.4-0.3,0.7-0.6,1c-0.3,0.2-0.7,0.4-1.1,0.4h-4.9c-0.3,0-0.7-0.1-0.9-0.4
			c-0.2-0.3-0.3-0.7-0.2-1l1.3-6c0.1-0.4,0.3-0.7,0.6-1C49.9,0.1,50.3,0,50.7,0h4.9c0.3,0,0.7,0.1,0.9,0.4c0.2,0.3,0.3,0.7,0.2,1
			L55.4,7.3z M52,1.1l-1.4,6.5h1.8l1.4-6.5H52z"/>
		<path class="st0" d="M64.2,8.7h-6.1L59.9,0h2.9l-1.6,7.6h3.3L64.2,8.7z"/>
		<path class="st0" d="M74.9,7.3c-0.1,0.4-0.3,0.7-0.6,1c-0.3,0.2-0.7,0.4-1.1,0.4h-4.9c-0.3,0-0.7-0.1-0.9-0.4
			c-0.2-0.3-0.3-0.7-0.2-1l1.3-6c0.1-0.4,0.3-0.7,0.6-1C69.4,0.1,69.8,0,70.2,0h4.9c0.3,0,0.7,0.1,0.9,0.4c0.2,0.3,0.3,0.7,0.2,1
			L74.9,7.3z M71.5,1.1l-1.4,6.5h1.8l1.4-6.5H71.5z"/>
		<path class="st0" d="M78.9,8.7c-0.3,0-0.7-0.1-0.9-0.4c-0.2-0.3-0.3-0.7-0.2-1l1.3-6c0.1-0.4,0.3-0.7,0.6-1C80,0.1,80.4,0,80.8,0
			h4.9c0.5-0.1,1.1,0.3,1.1,0.9c0,0.2,0,0.3-0.1,0.5l-0.2,1.2h-2.9l0.3-1.4h-1.8l-1.4,6.5h1.8l0.4-1.8h-1.1L82,4.7h4l-0.6,2.6
			c-0.1,0.4-0.3,0.7-0.6,1c-0.3,0.2-0.7,0.4-1.1,0.4L78.9,8.7z"/>
		<path class="st0" d="M91,8.7h-2.9L89.9,0h2.9L91,8.7z"/>
		<path class="st0" d="M95.3,8.7c-0.3,0-0.7-0.1-0.9-0.4c-0.2-0.3-0.3-0.7-0.2-1l1.3-6c0.1-0.4,0.3-0.7,0.6-1
			C96.4,0.1,96.8,0,97.2,0h4.8l-0.2,1.1h-3.3l-0.6,2.7h2.5l-0.2,1.1h-2.5l-0.6,2.7h3.3l-0.2,1.1L95.3,8.7z"/>
		<path class="st0" d="M110.1,3.8c0.3,0,0.7,0.1,0.9,0.4c0.2,0.3,0.3,0.7,0.2,1l-0.5,2.2c-0.1,0.4-0.3,0.7-0.6,1
			c-0.3,0.2-0.7,0.4-1.1,0.4h-4.9c-0.3,0-0.7-0.1-0.9-0.4c-0.2-0.3-0.3-0.6-0.2-1l0.2-1.2h2.9L106,7.6h1.8l0.6-2.7H105
			c-0.3,0-0.7-0.1-0.9-0.4c-0.2-0.3-0.3-0.7-0.2-1l0.5-2.2c0.1-0.4,0.3-0.7,0.6-1c0.3-0.2,0.7-0.4,1.1-0.4h4.9
			c0.5-0.1,1.1,0.3,1.1,0.9c0,0.2,0,0.3-0.1,0.5l-0.2,1.2h-2.9l0.3-1.4h-1.8l-0.6,2.7L110.1,3.8z"/>
	</g>
	<path class="st0" d="M222,493.2l-0.6-0.1l-5.9-1.2l-0.6-0.1L202,549.8h9.2L222,493.2z"/>
	<path class="st0" d="M240.6,484.3l-6.8-1.4l-0.4-0.1c-3.3,11.3-5.9,21.5-8.7,32.3c-2.9,11.8-5.1,21.5-7.3,32.3
		c-0.2,0.8-0.3,1.5-0.5,2.3h8.6c0.4-2.3,0.8-4.5,1.3-6.8c2.1-10.8,4.5-21.5,7.2-32.1c2.3-8.9,4.5-17.6,7-26.5L240.6,484.3z"/>
</g>
</svg>
