<svg id="svg" version="1.1" xmlns="http://www.w3.org/2000/svg" xmlns:xlink="http://www.w3.org/1999/xlink" width="400" height="220.33333333333334" viewBox="0, 0, 400,220.33333333333334"><g id="svgg"><path id="path0" d="M171.460 15.739 L 171.460 31.479 189.099 31.552 C 201.814 31.605,206.782 31.694,206.895 31.872 C 206.982 32.008,207.399 32.174,207.824 32.241 C 209.913 32.572,211.723 33.089,213.477 33.856 C 213.859 34.023,214.330 34.160,214.524 34.160 C 214.717 34.160,214.876 34.251,214.876 34.363 C 214.876 34.474,215.174 34.631,215.537 34.711 C 215.901 34.791,216.198 34.939,216.198 35.041 C 216.198 35.143,216.496 35.292,216.860 35.372 C 217.223 35.452,217.521 35.586,217.521 35.669 C 217.521 35.753,217.967 36.066,218.512 36.364 C 219.058 36.662,219.504 36.982,219.504 37.075 C 219.504 37.169,219.632 37.245,219.787 37.245 C 220.225 37.245,221.357 38.230,224.125 41.019 C 226.905 43.821,226.884 43.796,227.657 45.069 C 227.952 45.554,228.321 46.081,228.477 46.242 C 228.633 46.402,228.760 46.666,228.760 46.829 C 228.760 46.992,228.836 47.159,228.928 47.199 C 229.148 47.296,230.744 50.512,230.744 50.860 C 230.744 51.008,230.843 51.129,230.964 51.129 C 231.085 51.129,231.185 51.338,231.185 51.592 C 231.185 51.846,231.323 52.367,231.493 52.749 C 233.155 56.493,233.647 67.171,232.274 69.694 C 232.160 69.904,232.068 70.202,232.069 70.355 C 232.073 70.701,231.129 73.678,230.968 73.829 C 230.903 73.890,230.613 74.534,230.323 75.262 C 230.034 75.989,229.663 76.741,229.499 76.932 C 229.335 77.123,229.201 77.396,229.201 77.538 C 229.201 77.680,229.102 77.796,228.981 77.796 C 228.860 77.796,228.760 77.927,228.760 78.088 C 228.760 78.248,228.415 78.868,227.993 79.465 C 227.571 80.062,227.100 80.734,226.946 80.957 C 225.897 82.479,221.594 86.832,221.139 86.832 C 220.967 86.832,220.826 86.923,220.826 87.034 C 220.826 87.146,220.455 87.464,220.000 87.741 C 219.545 88.019,219.140 88.324,219.100 88.420 C 219.060 88.516,218.901 88.595,218.748 88.595 C 218.595 88.595,218.241 88.793,217.961 89.036 C 217.682 89.278,217.320 89.477,217.156 89.477 C 216.993 89.477,216.860 89.568,216.860 89.679 C 216.860 89.791,216.562 89.948,216.198 90.028 C 215.835 90.107,215.537 90.256,215.537 90.358 C 215.537 90.460,215.233 90.610,214.861 90.692 C 214.489 90.774,213.919 90.979,213.594 91.149 C 213.269 91.319,212.829 91.458,212.617 91.459 C 212.405 91.459,212.231 91.540,212.231 91.637 C 212.231 91.832,210.698 92.232,208.485 92.614 C 207.697 92.750,206.982 92.968,206.895 93.097 C 206.786 93.261,201.313 93.356,189.098 93.408 L 171.457 93.484 171.514 109.607 L 171.570 125.730 188.383 125.729 C 200.331 125.729,205.242 125.658,205.353 125.487 C 205.439 125.354,206.495 125.177,207.700 125.095 C 208.904 125.012,209.995 124.859,210.124 124.755 C 210.253 124.652,210.978 124.497,211.736 124.411 C 212.494 124.325,213.162 124.176,213.221 124.081 C 213.279 123.986,213.874 123.840,214.543 123.756 C 215.211 123.673,215.758 123.513,215.758 123.400 C 215.758 123.288,216.055 123.196,216.419 123.196 C 216.782 123.196,217.080 123.108,217.080 123.000 C 217.080 122.893,217.526 122.738,218.072 122.656 C 218.617 122.574,219.063 122.414,219.063 122.301 C 219.063 122.187,219.287 122.093,219.559 122.092 C 219.832 122.092,220.339 121.943,220.686 121.762 C 221.034 121.581,221.430 121.429,221.568 121.425 C 221.706 121.421,222.215 121.226,222.700 120.992 C 223.185 120.758,223.705 120.563,223.857 120.558 C 224.008 120.554,224.132 120.460,224.132 120.348 C 224.132 120.237,224.439 120.078,224.813 119.996 C 225.188 119.913,226.205 119.459,227.072 118.986 C 227.940 118.513,228.824 118.065,229.036 117.991 C 229.248 117.916,229.421 117.775,229.421 117.678 C 229.421 117.580,229.719 117.435,230.083 117.355 C 230.446 117.276,230.744 117.126,230.744 117.022 C 230.744 116.919,230.962 116.765,231.229 116.680 C 231.496 116.595,231.840 116.415,231.993 116.279 C 232.674 115.677,232.901 115.527,233.350 115.384 C 233.614 115.300,233.829 115.140,233.829 115.026 C 233.829 114.913,233.963 114.821,234.126 114.821 C 234.289 114.821,234.602 114.623,234.821 114.380 C 235.040 114.138,235.345 113.939,235.498 113.939 C 235.651 113.939,235.809 113.859,235.849 113.761 C 235.890 113.662,236.582 113.080,237.387 112.467 C 239.289 111.017,239.965 110.400,243.170 107.183 C 246.739 103.601,247.108 103.184,249.087 100.496 C 250.025 99.223,250.880 98.075,250.989 97.945 C 251.097 97.814,251.254 97.492,251.338 97.228 C 251.421 96.965,251.582 96.749,251.695 96.749 C 251.808 96.749,251.901 96.597,251.901 96.412 C 251.901 96.226,252.044 96.020,252.218 95.953 C 252.392 95.886,252.599 95.542,252.676 95.188 C 252.754 94.835,252.907 94.545,253.016 94.545 C 253.125 94.545,253.277 94.298,253.353 93.994 C 253.429 93.691,253.572 93.444,253.670 93.444 C 253.769 93.444,253.915 93.146,253.994 92.782 C 254.074 92.419,254.223 92.121,254.325 92.121 C 254.427 92.121,254.576 91.824,254.656 91.460 C 254.736 91.096,254.884 90.799,254.986 90.799 C 255.088 90.799,255.237 90.501,255.317 90.138 C 255.397 89.774,255.545 89.477,255.647 89.477 C 255.749 89.477,255.898 89.179,255.978 88.815 C 256.058 88.452,256.214 88.154,256.326 88.154 C 256.438 88.154,256.530 87.981,256.530 87.769 C 256.531 87.556,256.670 87.117,256.840 86.792 C 257.010 86.467,257.215 85.896,257.297 85.524 C 257.379 85.153,257.526 84.848,257.623 84.848 C 257.721 84.848,257.868 84.402,257.950 83.857 C 258.032 83.311,258.180 82.865,258.280 82.865 C 258.381 82.865,258.529 82.419,258.611 81.873 C 258.693 81.328,258.841 80.882,258.941 80.882 C 259.041 80.882,259.191 80.336,259.274 79.669 C 259.358 79.003,259.518 78.457,259.630 78.457 C 259.743 78.457,259.835 78.130,259.835 77.730 C 259.835 77.330,259.925 76.909,260.034 76.793 C 260.270 76.546,260.659 74.149,260.962 71.074 C 261.082 69.862,261.274 68.566,261.389 68.194 C 261.673 67.272,261.663 57.587,261.377 57.410 C 261.256 57.336,261.149 56.660,261.138 55.910 C 261.128 55.159,261.033 54.000,260.926 53.333 C 260.820 52.667,260.621 51.377,260.484 50.468 C 260.346 49.559,260.144 48.721,260.034 48.606 C 259.925 48.491,259.835 48.125,259.835 47.793 C 259.835 47.460,259.745 47.133,259.635 47.065 C 259.525 46.997,259.367 46.446,259.284 45.840 C 259.200 45.234,259.054 44.690,258.958 44.631 C 258.862 44.572,258.717 44.076,258.635 43.529 C 258.552 42.982,258.404 42.534,258.304 42.534 C 258.204 42.534,258.055 42.088,257.973 41.543 C 257.891 40.997,257.732 40.551,257.620 40.551 C 257.508 40.551,257.352 40.154,257.275 39.669 C 257.197 39.185,257.052 38.788,256.952 38.788 C 256.851 38.788,256.704 38.441,256.625 38.017 C 256.545 37.592,256.400 37.245,256.302 37.245 C 256.203 37.245,256.058 36.948,255.978 36.584 C 255.898 36.220,255.749 35.923,255.647 35.923 C 255.545 35.923,255.397 35.625,255.317 35.262 C 255.237 34.898,255.088 34.601,254.986 34.601 C 254.884 34.601,254.736 34.303,254.656 33.939 C 254.576 33.576,254.427 33.278,254.325 33.278 C 254.223 33.278,254.074 32.981,253.994 32.617 C 253.915 32.253,253.760 31.956,253.651 31.956 C 253.541 31.956,253.390 31.708,253.314 31.405 C 253.238 31.102,253.087 30.854,252.979 30.854 C 252.871 30.854,252.782 30.728,252.782 30.573 C 252.782 30.419,252.435 29.766,252.011 29.122 C 251.587 28.478,251.240 27.868,251.240 27.768 C 251.240 27.667,251.165 27.552,251.074 27.511 C 250.983 27.471,250.521 26.868,250.046 26.171 C 249.571 25.474,249.100 24.904,248.999 24.904 C 248.898 24.904,248.815 24.780,248.814 24.628 C 248.814 24.477,248.516 24.036,248.153 23.648 C 247.790 23.261,247.493 22.895,247.493 22.835 C 247.493 22.440,238.963 13.884,238.569 13.884 C 238.489 13.884,238.126 13.587,237.762 13.223 C 237.399 12.860,237.005 12.562,236.887 12.562 C 236.769 12.562,236.443 12.314,236.163 12.011 C 235.882 11.708,235.585 11.460,235.503 11.460 C 235.346 11.460,234.019 10.566,233.829 10.333 C 233.769 10.258,233.496 10.128,233.223 10.042 C 232.950 9.957,232.727 9.795,232.727 9.682 C 232.727 9.569,232.575 9.477,232.390 9.477 C 232.204 9.477,231.998 9.334,231.931 9.159 C 231.864 8.985,231.520 8.779,231.166 8.701 C 230.813 8.624,230.523 8.471,230.523 8.361 C 230.523 8.252,230.275 8.100,229.972 8.024 C 229.669 7.948,229.421 7.806,229.421 7.707 C 229.421 7.609,229.124 7.463,228.760 7.383 C 228.397 7.303,228.099 7.154,228.099 7.052 C 228.099 6.950,227.802 6.802,227.438 6.722 C 227.074 6.642,226.777 6.485,226.777 6.374 C 226.777 6.262,226.628 6.171,226.446 6.171 C 226.264 6.171,226.116 6.080,226.116 5.968 C 226.116 5.856,225.818 5.700,225.455 5.620 C 225.091 5.540,224.793 5.383,224.793 5.272 C 224.793 5.160,224.669 5.066,224.518 5.061 C 224.366 5.057,223.846 4.862,223.361 4.628 C 222.876 4.394,222.367 4.199,222.229 4.195 C 222.091 4.191,221.695 4.039,221.348 3.858 C 221.000 3.677,220.549 3.528,220.344 3.528 C 220.139 3.527,219.915 3.436,219.847 3.325 C 219.778 3.214,219.327 3.057,218.843 2.975 C 218.359 2.894,217.911 2.742,217.847 2.638 C 217.783 2.535,217.287 2.383,216.744 2.302 C 216.202 2.220,215.758 2.077,215.758 1.984 C 215.758 1.890,215.187 1.743,214.490 1.656 C 213.793 1.569,213.171 1.414,213.107 1.311 C 213.043 1.208,212.299 1.055,211.454 0.970 C 210.609 0.885,209.868 0.744,209.807 0.657 C 209.486 0.192,203.025 0.000,187.764 0.000 L 171.460 0.000 171.460 15.739 M171.901 62.700 L 171.901 80.220 189.421 80.220 L 206.942 80.220 206.942 62.700 L 206.942 45.179 189.421 45.179 L 171.901 45.179 171.901 62.700 M201.212 62.700 L 201.212 74.490 189.311 74.490 L 177.410 74.490 177.410 62.700 L 177.410 50.909 189.311 50.909 L 201.212 50.909 201.212 62.700 M78.021 162.794 C 77.478 162.850,76.932 162.977,76.809 163.076 C 76.685 163.175,75.964 163.327,75.207 163.413 C 74.449 163.499,73.829 163.653,73.829 163.755 C 73.829 163.857,73.383 164.007,72.837 164.089 C 72.292 164.170,71.846 164.325,71.846 164.433 C 71.846 164.540,71.672 164.631,71.460 164.636 C 71.248 164.640,70.678 164.835,70.193 165.069 C 69.708 165.303,69.187 165.498,69.036 165.502 C 68.884 165.506,68.760 165.587,68.760 165.682 C 68.760 165.776,68.488 165.979,68.154 166.131 C 67.037 166.643,66.556 166.935,66.556 167.105 C 66.556 167.197,66.407 167.273,66.224 167.273 C 66.041 167.273,65.721 167.471,65.514 167.713 C 65.306 167.956,65.046 168.154,64.936 168.154 C 64.825 168.154,63.682 169.236,62.395 170.557 C 59.852 173.169,59.778 173.253,59.161 174.221 C 58.931 174.581,58.691 174.926,58.628 174.986 C 58.413 175.192,57.714 176.417,57.592 176.804 C 57.524 177.017,57.382 177.190,57.275 177.190 C 57.167 177.190,57.077 177.314,57.072 177.466 C 57.068 177.617,56.873 178.138,56.639 178.623 C 56.405 179.107,56.210 179.678,56.206 179.890 C 56.202 180.102,56.105 180.275,55.991 180.275 C 55.878 180.275,55.718 180.722,55.636 181.267 C 55.554 181.813,55.411 182.259,55.317 182.259 C 55.224 182.259,55.076 182.829,54.989 183.526 C 54.902 184.223,54.717 184.864,54.578 184.951 C 54.219 185.174,54.219 198.517,54.578 198.741 C 54.717 198.827,54.902 199.468,54.989 200.165 C 55.076 200.862,55.222 201.433,55.314 201.433 C 55.406 201.433,55.545 201.834,55.623 202.324 C 55.702 202.814,55.860 203.384,55.974 203.591 C 56.356 204.278,57.080 206.033,57.080 206.269 C 57.080 206.397,57.179 206.501,57.300 206.501 C 57.421 206.501,57.521 206.632,57.521 206.791 C 57.521 207.048,59.087 209.533,59.789 210.392 C 62.589 213.813,68.171 218.182,69.743 218.182 C 69.930 218.182,70.083 218.272,70.083 218.383 C 70.083 218.493,70.479 218.651,70.964 218.733 C 71.449 218.815,71.846 218.963,71.846 219.062 C 71.846 219.161,72.366 219.313,73.003 219.400 C 73.639 219.487,74.209 219.634,74.270 219.728 C 74.810 220.565,90.692 220.573,91.238 219.737 C 91.299 219.643,91.821 219.496,92.397 219.411 C 92.972 219.326,93.444 219.164,93.444 219.050 C 93.444 218.936,93.667 218.840,93.939 218.835 C 94.212 218.831,94.832 218.636,95.317 218.402 C 95.802 218.168,96.314 217.973,96.455 217.969 C 96.597 217.965,96.746 217.887,96.786 217.796 C 96.826 217.705,97.355 217.383,97.961 217.080 C 98.567 216.777,99.143 216.405,99.240 216.253 C 99.337 216.102,99.516 215.978,99.638 215.978 C 100.243 215.978,105.424 211.039,105.686 210.213 C 105.757 209.990,105.907 209.807,106.020 209.807 C 106.133 209.807,106.226 209.655,106.226 209.470 C 106.226 209.284,106.366 209.079,106.537 209.013 C 106.707 208.947,106.908 208.653,106.982 208.359 C 107.055 208.064,107.205 207.824,107.315 207.824 C 107.424 207.824,107.579 207.526,107.658 207.163 C 107.738 206.799,107.895 206.501,108.006 206.501 C 108.118 206.501,108.213 206.377,108.217 206.226 C 108.221 206.074,108.416 205.554,108.650 205.069 C 108.884 204.584,109.079 204.014,109.083 203.802 C 109.088 203.590,109.184 203.416,109.298 203.416 C 109.412 203.416,109.572 202.968,109.654 202.422 C 109.736 201.875,109.884 201.377,109.982 201.316 C 110.081 201.255,110.232 200.636,110.317 199.941 C 110.403 199.246,110.583 198.607,110.719 198.520 C 111.071 198.295,111.062 185.532,110.710 185.103 C 110.570 184.933,110.385 184.223,110.299 183.526 C 110.213 182.829,110.066 182.259,109.972 182.259 C 109.879 182.259,109.735 181.813,109.653 181.267 C 109.572 180.722,109.424 180.275,109.326 180.275 C 109.228 180.275,109.084 179.879,109.006 179.394 C 108.929 178.909,108.767 178.512,108.648 178.512 C 108.528 178.512,108.430 178.358,108.430 178.170 C 108.430 177.838,107.574 176.090,107.302 175.868 C 107.228 175.807,107.092 175.517,107.000 175.224 C 106.908 174.930,106.744 174.583,106.636 174.452 C 106.059 173.760,105.641 173.212,105.344 172.764 C 104.855 172.024,101.019 168.154,100.775 168.154 C 100.659 168.154,100.385 167.956,100.165 167.713 C 99.946 167.471,99.633 167.273,99.470 167.273 C 99.307 167.273,99.174 167.180,99.174 167.067 C 99.174 166.954,98.950 166.792,98.678 166.707 C 98.405 166.622,98.132 166.491,98.071 166.417 C 97.849 166.145,96.102 165.289,95.769 165.289 C 95.581 165.289,95.427 165.195,95.427 165.079 C 95.427 164.963,95.080 164.803,94.656 164.724 C 94.231 164.644,93.884 164.497,93.884 164.397 C 93.884 164.296,93.438 164.147,92.893 164.066 C 92.347 163.984,91.901 163.839,91.901 163.743 C 91.901 163.648,91.281 163.499,90.523 163.413 C 89.766 163.327,89.019 163.154,88.863 163.028 C 88.571 162.791,79.873 162.603,78.021 162.794 M311.129 162.793 C 310.433 162.845,309.862 162.967,309.862 163.065 C 309.862 163.163,309.253 163.307,308.507 163.385 C 307.762 163.462,307.038 163.621,306.899 163.737 C 306.759 163.853,306.228 164.014,305.719 164.096 C 305.210 164.177,304.793 164.326,304.793 164.426 C 304.793 164.526,304.446 164.673,304.022 164.753 C 303.598 164.832,303.251 164.978,303.251 165.076 C 303.251 165.174,302.953 165.320,302.590 165.399 C 302.226 165.479,301.928 165.628,301.928 165.730 C 301.928 165.832,301.631 165.981,301.267 166.061 C 300.904 166.140,300.606 166.290,300.606 166.394 C 300.606 166.497,300.391 166.650,300.127 166.734 C 299.864 166.817,299.541 166.975,299.411 167.083 C 298.722 167.657,298.171 168.078,297.724 168.375 C 296.309 169.313,292.231 173.731,292.231 174.327 C 292.231 174.447,292.134 174.545,292.015 174.545 C 291.896 174.545,291.737 174.793,291.661 175.096 C 291.585 175.399,291.456 175.647,291.374 175.647 C 291.293 175.647,291.109 175.920,290.965 176.253 C 290.822 176.587,290.610 177.008,290.495 177.190 C 290.169 177.702,289.587 179.102,289.587 179.372 C 289.587 179.505,289.496 179.614,289.386 179.614 C 289.275 179.614,289.118 180.010,289.036 180.495 C 288.954 180.979,288.800 181.429,288.692 181.496 C 288.585 181.562,288.432 182.108,288.353 182.709 C 288.273 183.310,288.128 183.802,288.031 183.802 C 287.934 183.802,287.785 184.597,287.700 185.570 C 287.615 186.542,287.459 187.391,287.354 187.456 C 287.106 187.609,287.103 196.143,287.351 196.143 C 287.455 196.143,287.608 196.958,287.691 197.954 C 287.774 198.950,287.923 199.818,288.023 199.882 C 288.122 199.947,288.272 200.469,288.357 201.042 C 288.441 201.615,288.593 202.134,288.693 202.196 C 288.793 202.258,288.940 202.653,289.019 203.074 C 289.098 203.494,289.307 204.115,289.483 204.454 C 289.660 204.792,289.805 205.193,289.806 205.344 C 289.807 205.496,289.898 205.620,290.010 205.620 C 290.122 205.620,290.278 205.917,290.358 206.281 C 290.438 206.645,290.584 206.942,290.682 206.942 C 290.781 206.942,290.926 207.199,291.004 207.512 C 291.083 207.825,291.244 208.197,291.363 208.338 C 292.233 209.374,292.452 209.678,292.452 209.851 C 292.452 209.960,292.700 210.278,293.003 210.559 C 293.306 210.840,293.554 211.147,293.554 211.241 C 293.554 211.398,296.123 213.952,297.331 214.995 C 298.062 215.627,300.046 216.860,300.332 216.860 C 300.462 216.860,300.602 216.934,300.643 217.025 C 300.736 217.235,302.665 218.182,302.999 218.182 C 303.138 218.182,303.251 218.276,303.251 218.392 C 303.251 218.508,303.599 218.668,304.024 218.748 C 304.450 218.828,304.849 218.975,304.911 219.076 C 304.973 219.176,305.493 219.327,306.066 219.412 C 306.639 219.496,307.157 219.640,307.218 219.732 C 307.778 220.580,323.222 220.576,324.298 219.728 C 324.419 219.632,324.939 219.484,325.455 219.399 C 325.970 219.315,326.391 219.166,326.391 219.069 C 326.391 218.972,326.837 218.826,327.383 218.744 C 327.928 218.663,328.375 218.502,328.375 218.389 C 328.375 218.275,328.528 218.182,328.715 218.182 C 329.130 218.182,331.982 216.669,332.084 216.395 C 332.125 216.287,332.259 216.198,332.383 216.198 C 332.597 216.198,333.808 215.320,334.957 214.333 C 336.473 213.030,338.733 210.507,338.733 210.117 C 338.733 209.973,338.882 209.797,339.063 209.727 C 339.245 209.658,339.394 209.494,339.394 209.364 C 339.394 209.234,339.596 208.911,339.843 208.645 C 340.090 208.380,340.349 207.938,340.418 207.663 C 340.487 207.388,340.624 207.163,340.723 207.163 C 340.821 207.163,340.967 206.865,341.047 206.501 C 341.127 206.138,341.283 205.840,341.395 205.840 C 341.507 205.840,341.601 205.716,341.605 205.565 C 341.609 205.413,341.804 204.893,342.039 204.408 C 342.273 203.923,342.468 203.303,342.472 203.030 C 342.476 202.758,342.567 202.534,342.675 202.534 C 342.782 202.534,342.940 202.063,343.026 201.488 C 343.112 200.912,343.267 200.337,343.371 200.211 C 343.475 200.084,343.629 199.291,343.713 198.448 C 343.798 197.605,343.958 196.855,344.069 196.783 C 344.335 196.608,344.332 187.155,344.066 186.817 C 343.953 186.674,343.793 185.867,343.710 185.023 C 343.627 184.180,343.478 183.387,343.378 183.260 C 343.278 183.134,343.128 182.559,343.045 181.983 C 342.961 181.408,342.813 180.937,342.714 180.937 C 342.616 180.937,342.472 180.540,342.395 180.055 C 342.317 179.570,342.167 179.174,342.060 179.174 C 341.954 179.174,341.802 178.826,341.723 178.402 C 341.643 177.978,341.508 177.630,341.423 177.629 C 341.337 177.627,341.025 177.082,340.729 176.416 C 340.433 175.751,340.111 175.207,340.013 175.207 C 339.915 175.207,339.835 175.066,339.835 174.894 C 339.835 174.723,339.760 174.549,339.669 174.509 C 339.478 174.424,338.512 173.080,338.512 172.899 C 338.512 172.832,338.176 172.406,337.764 171.953 C 337.352 171.500,336.647 170.708,336.196 170.193 C 335.745 169.678,335.263 169.252,335.126 169.247 C 334.988 169.242,334.633 168.944,334.335 168.586 C 334.038 168.227,333.674 167.934,333.527 167.934 C 333.380 167.934,333.227 167.860,333.186 167.769 C 333.075 167.518,331.730 166.612,331.469 166.612 C 331.343 166.612,331.240 166.514,331.240 166.395 C 331.240 166.276,330.992 166.117,330.689 166.041 C 330.386 165.965,330.138 165.814,330.138 165.706 C 330.138 165.598,330.014 165.506,329.862 165.502 C 329.711 165.498,329.190 165.303,328.705 165.069 C 328.220 164.835,327.650 164.640,327.438 164.636 C 327.226 164.631,327.052 164.535,327.052 164.421 C 327.052 164.307,326.605 164.147,326.058 164.065 C 325.511 163.983,325.014 163.835,324.952 163.737 C 324.891 163.638,324.273 163.488,323.578 163.404 C 322.883 163.320,322.187 163.150,322.033 163.026 C 321.743 162.794,313.483 162.617,311.129 162.793 M-0.000 191.532 L -0.000 219.537 13.300 219.466 C 22.639 219.415,26.691 219.321,26.908 219.148 C 27.079 219.013,27.806 218.837,28.525 218.756 C 29.245 218.675,29.944 218.517,30.079 218.405 C 30.214 218.293,30.741 218.135,31.251 218.053 C 31.760 217.972,32.176 217.819,32.176 217.713 C 32.176 217.607,32.350 217.521,32.562 217.521 C 33.063 217.521,37.466 215.319,37.466 215.068 C 37.466 214.962,37.607 214.876,37.780 214.876 C 37.953 214.876,38.290 214.628,38.528 214.325 C 38.766 214.022,39.063 213.774,39.187 213.774 C 39.521 213.774,43.416 209.821,43.416 209.482 C 43.416 209.323,43.565 209.136,43.747 209.066 C 43.928 208.997,44.077 208.788,44.077 208.602 C 44.077 208.416,44.170 208.264,44.283 208.264 C 44.396 208.264,44.558 208.041,44.643 207.769 C 44.728 207.496,44.872 207.223,44.963 207.163 C 45.238 206.979,46.501 204.531,46.501 204.182 C 46.501 204.003,46.596 203.857,46.712 203.857 C 46.827 203.857,46.987 203.509,47.067 203.083 C 47.147 202.657,47.292 202.260,47.389 202.200 C 47.486 202.140,47.634 201.670,47.719 201.156 C 47.804 200.641,47.958 200.115,48.062 199.985 C 48.166 199.856,48.317 199.162,48.398 198.443 C 48.479 197.723,48.621 197.036,48.714 196.915 C 49.450 195.954,48.856 184.103,48.029 183.262 C 47.916 183.147,47.823 182.799,47.822 182.490 C 47.822 182.181,47.673 181.644,47.492 181.297 C 47.311 180.950,47.163 180.579,47.163 180.472 C 47.163 180.135,46.404 178.512,46.247 178.512 C 46.164 178.512,46.030 178.215,45.950 177.851 C 45.871 177.488,45.722 177.190,45.620 177.190 C 45.518 177.190,45.369 176.893,45.289 176.529 C 45.209 176.165,45.053 175.868,44.941 175.868 C 44.830 175.868,44.738 175.716,44.738 175.530 C 44.738 175.345,44.590 175.136,44.408 175.066 C 44.226 174.996,44.077 174.816,44.077 174.666 C 44.077 174.515,43.904 174.188,43.691 173.939 C 43.479 173.689,43.157 173.265,42.975 172.998 C 42.475 172.261,39.444 169.256,39.200 169.256 C 39.083 169.256,38.768 169.033,38.500 168.760 C 37.924 168.174,37.358 167.793,36.529 167.437 C 36.196 167.293,35.923 167.107,35.923 167.022 C 35.923 166.937,35.625 166.802,35.262 166.722 C 34.898 166.642,34.601 166.490,34.601 166.384 C 34.601 166.278,34.253 166.126,33.829 166.046 C 33.405 165.966,33.058 165.822,33.058 165.725 C 33.058 165.628,32.662 165.481,32.177 165.400 C 31.693 165.318,31.243 165.163,31.177 165.056 C 31.110 164.949,30.564 164.796,29.963 164.716 C 29.362 164.637,28.871 164.492,28.871 164.396 C 28.871 164.299,27.976 164.150,26.882 164.065 C 25.789 163.979,24.841 163.823,24.776 163.718 C 24.710 163.612,19.109 163.526,12.329 163.526 L 0.000 163.526 -0.000 191.532 M119.449 191.515 L 119.449 219.504 124.298 219.504 L 129.146 219.504 129.146 199.008 C 129.146 187.736,129.225 178.512,129.322 178.512 C 129.419 178.512,129.741 178.906,130.038 179.388 C 130.335 179.870,130.653 180.266,130.744 180.270 C 130.835 180.273,130.909 180.402,130.909 180.557 C 130.909 180.712,131.107 181.009,131.350 181.216 C 131.592 181.424,131.791 181.733,131.791 181.903 C 131.791 182.073,131.939 182.269,132.121 182.339 C 132.303 182.408,132.452 182.617,132.452 182.803 C 132.452 182.989,132.531 183.140,132.628 183.140 C 132.725 183.140,133.047 183.535,133.344 184.016 C 133.641 184.498,133.959 184.894,134.050 184.898 C 134.140 184.901,134.215 185.055,134.215 185.241 C 134.215 185.427,134.364 185.636,134.545 185.705 C 134.727 185.775,134.876 185.971,134.876 186.141 C 134.876 186.311,135.074 186.620,135.317 186.828 C 135.559 187.036,135.758 187.287,135.758 187.386 C 135.758 187.485,135.858 187.687,135.980 187.833 C 136.102 187.979,136.696 188.793,137.299 189.642 C 139.069 192.133,139.155 192.249,139.559 192.663 C 139.771 192.880,139.945 193.142,139.945 193.245 C 139.945 193.347,140.118 193.640,140.331 193.895 C 141.211 194.954,141.488 195.365,141.488 195.614 C 141.488 195.758,141.636 195.933,141.818 196.003 C 142.000 196.072,142.149 196.245,142.149 196.387 C 142.149 196.528,142.385 196.863,142.674 197.130 C 142.963 197.398,143.267 197.831,143.350 198.092 C 143.433 198.354,143.593 198.567,143.706 198.567 C 143.819 198.567,143.912 198.694,143.912 198.849 C 143.912 199.004,144.110 199.301,144.353 199.508 C 144.595 199.716,144.793 200.025,144.793 200.195 C 144.793 200.365,144.942 200.561,145.124 200.631 C 145.306 200.700,145.455 200.867,145.455 201.001 C 145.455 201.134,145.579 201.382,145.730 201.551 C 146.292 202.177,146.472 202.434,146.616 202.810 C 146.807 203.311,149.862 203.395,149.862 202.899 C 149.862 202.736,150.061 202.423,150.303 202.204 C 150.545 201.984,150.744 201.672,150.744 201.509 C 150.744 201.346,150.836 201.212,150.949 201.212 C 151.062 201.212,151.223 200.998,151.306 200.737 C 151.389 200.476,151.675 200.054,151.943 199.800 C 152.211 199.546,152.493 199.165,152.571 198.953 C 152.650 198.741,152.816 198.567,152.941 198.567 C 153.066 198.567,153.168 198.427,153.168 198.255 C 153.168 198.084,153.249 197.910,153.349 197.870 C 153.504 197.807,155.031 195.706,155.702 194.632 C 155.824 194.439,156.032 194.179,156.165 194.055 C 156.298 193.931,156.744 193.336,157.157 192.732 C 158.024 191.464,158.097 191.364,158.682 190.655 C 158.922 190.364,159.118 189.992,159.118 189.829 C 159.118 189.665,159.210 189.532,159.321 189.532 C 159.432 189.532,159.750 189.160,160.028 188.705 C 160.305 188.251,160.611 187.846,160.707 187.805 C 160.803 187.765,160.882 187.588,160.882 187.413 C 160.882 187.237,161.027 187.038,161.204 186.970 C 161.381 186.902,161.586 186.659,161.658 186.429 C 161.783 186.035,162.268 185.384,163.140 184.440 C 163.353 184.210,163.526 183.938,163.526 183.835 C 163.526 183.733,163.700 183.440,163.912 183.185 C 164.707 182.228,165.069 181.724,165.069 181.572 C 165.069 181.419,165.664 180.659,166.446 179.812 C 166.658 179.582,166.836 179.320,166.840 179.229 C 166.844 179.138,167.092 178.766,167.390 178.402 L 167.932 177.741 167.933 198.623 L 167.934 219.504 172.562 219.504 L 177.190 219.504 177.190 191.515 L 177.190 163.526 171.736 163.527 L 166.281 163.528 165.510 164.738 C 165.085 165.404,164.664 165.949,164.573 165.949 C 164.482 165.950,164.408 166.054,164.408 166.180 C 164.408 166.470,163.505 167.766,163.140 168.000 C 162.989 168.097,162.865 168.320,162.865 168.496 C 162.865 168.672,162.768 168.815,162.649 168.815 C 162.530 168.815,162.370 169.063,162.294 169.366 C 162.218 169.669,162.084 169.917,161.996 169.917 C 161.908 169.917,161.448 170.488,160.973 171.185 C 160.499 171.882,160.036 172.485,159.945 172.525 C 159.854 172.566,159.780 172.724,159.780 172.877 C 159.780 173.030,159.581 173.334,159.339 173.554 C 159.096 173.773,158.898 174.086,158.898 174.249 C 158.898 174.412,158.801 174.545,158.682 174.545 C 158.563 174.545,158.405 174.786,158.331 175.080 C 158.258 175.375,158.057 175.669,157.886 175.735 C 157.716 175.800,157.576 176.006,157.576 176.191 C 157.576 176.377,157.497 176.529,157.400 176.529 C 157.303 176.529,156.981 176.923,156.683 177.405 C 156.386 177.886,156.069 178.283,155.978 178.286 C 155.887 178.289,155.813 178.444,155.813 178.630 C 155.813 178.815,155.664 179.024,155.482 179.094 C 155.300 179.164,155.152 179.360,155.152 179.530 C 155.152 179.700,154.953 180.009,154.711 180.216 C 154.468 180.424,154.270 180.721,154.270 180.875 C 154.270 181.030,154.177 181.157,154.064 181.157 C 153.951 181.157,153.789 181.380,153.704 181.653 C 153.619 181.926,153.474 182.198,153.381 182.259 C 153.080 182.456,151.185 185.119,151.185 185.345 C 151.185 185.466,151.082 185.565,150.957 185.565 C 150.832 185.565,150.658 185.738,150.571 185.950 C 150.302 186.607,149.153 188.209,148.951 188.209 C 148.846 188.209,148.760 188.358,148.760 188.540 C 148.760 189.226,148.143 188.827,147.309 187.603 C 146.835 186.906,146.372 186.303,146.281 186.263 C 146.190 186.222,146.116 186.064,146.116 185.911 C 146.116 185.758,145.917 185.454,145.675 185.234 C 145.433 185.015,145.234 184.710,145.234 184.557 C 145.234 184.404,145.160 184.246,145.069 184.206 C 144.978 184.165,144.515 183.562,144.041 182.865 C 143.566 182.168,143.105 181.598,143.018 181.598 C 142.930 181.598,142.795 181.350,142.719 181.047 C 142.643 180.744,142.484 180.496,142.365 180.496 C 142.246 180.496,142.149 180.352,142.149 180.176 C 142.149 180.000,142.025 179.777,141.873 179.680 C 141.722 179.583,141.255 179.008,140.835 178.402 C 140.416 177.796,139.994 177.267,139.899 177.227 C 139.803 177.186,139.725 177.035,139.725 176.890 C 139.725 176.745,139.526 176.457,139.284 176.249 C 139.041 176.042,138.843 175.733,138.843 175.563 C 138.843 175.393,138.694 175.197,138.512 175.127 C 138.331 175.057,138.182 174.856,138.182 174.681 C 138.182 174.505,138.103 174.329,138.007 174.288 C 137.911 174.248,137.605 173.843,137.328 173.388 C 137.051 172.934,136.732 172.562,136.621 172.562 C 136.510 172.562,136.419 172.428,136.419 172.265 C 136.419 172.102,136.245 171.759,136.033 171.504 C 135.153 170.446,134.876 170.034,134.876 169.786 C 134.876 169.642,134.727 169.467,134.545 169.397 C 134.364 169.327,134.215 169.118,134.215 168.933 C 134.215 168.747,134.140 168.592,134.050 168.589 C 133.959 168.586,133.641 168.189,133.344 167.708 C 133.047 167.226,132.725 166.832,132.628 166.832 C 132.531 166.832,132.452 166.680,132.452 166.494 C 132.452 166.309,132.303 166.100,132.121 166.030 C 131.939 165.960,131.791 165.780,131.791 165.630 C 131.791 165.480,131.617 165.152,131.405 164.903 C 131.193 164.653,130.873 164.241,130.695 163.987 C 130.381 163.540,130.202 163.526,124.910 163.526 L 119.449 163.526 119.449 191.515 M188.871 191.515 L 188.871 219.504 193.499 219.504 L 198.127 219.504 198.127 191.515 L 198.127 163.526 193.499 163.526 L 188.871 163.526 188.871 191.515 M209.909 163.802 C 209.851 163.953,209.829 176.523,209.861 191.736 L 209.917 219.394 214.711 219.453 L 219.504 219.513 219.511 200.280 C 219.517 183.274,219.556 181.098,219.843 181.488 C 220.682 182.625,221.213 183.270,221.873 183.955 C 222.267 184.364,222.590 184.786,222.590 184.894 C 222.590 185.002,222.887 185.388,223.251 185.751 C 223.614 186.115,223.912 186.499,223.912 186.605 C 223.912 186.711,224.205 187.041,224.564 187.338 C 224.922 187.636,225.220 187.999,225.225 188.147 C 225.230 188.294,225.521 188.708,225.871 189.066 C 226.222 189.425,226.544 189.811,226.588 189.925 C 226.688 190.185,227.801 191.571,228.595 192.423 C 228.928 192.780,229.203 193.144,229.206 193.231 C 229.209 193.317,229.555 193.785,229.976 194.270 C 231.394 195.905,233.461 198.399,234.270 199.449 C 234.573 199.842,235.019 200.391,235.262 200.669 C 235.504 200.946,235.851 201.395,236.033 201.666 C 236.215 201.937,236.636 202.445,236.970 202.795 C 237.303 203.145,237.576 203.513,237.576 203.613 C 237.576 203.778,237.908 204.177,239.665 206.125 C 239.971 206.463,240.220 206.821,240.220 206.920 C 240.220 207.084,240.553 207.484,242.310 209.430 C 242.615 209.769,242.867 210.116,242.870 210.202 C 242.873 210.288,243.219 210.755,243.640 211.240 C 244.934 212.732,246.459 214.573,247.110 215.427 C 247.202 215.548,247.572 215.994,247.933 216.419 C 248.293 216.843,248.590 217.257,248.592 217.338 C 248.593 217.420,248.874 217.767,249.214 218.110 C 249.554 218.452,249.898 218.906,249.978 219.118 C 250.109 219.466,250.510 219.504,253.988 219.504 L 257.851 219.504 257.851 191.515 L 257.851 163.526 253.003 163.526 L 248.154 163.526 248.154 182.693 C 248.154 197.941,248.098 201.836,247.879 201.743 C 247.727 201.679,247.207 201.069,246.722 200.388 C 246.237 199.707,245.642 198.929,245.399 198.658 C 245.157 198.387,244.810 197.950,244.628 197.686 C 244.446 197.422,244.099 196.979,243.857 196.702 C 243.403 196.183,242.808 195.426,241.943 194.270 C 241.671 193.906,241.321 193.530,241.165 193.433 C 241.009 193.336,240.882 193.154,240.882 193.030 C 240.882 192.905,240.584 192.506,240.220 192.142 C 239.857 191.779,239.559 191.414,239.558 191.333 C 239.558 191.251,239.235 190.825,238.842 190.385 C 238.141 189.601,237.646 188.984,236.653 187.658 C 236.381 187.295,236.099 186.948,236.026 186.887 C 235.953 186.826,235.365 186.083,234.720 185.234 C 234.074 184.386,233.362 183.531,233.137 183.335 C 232.912 183.139,232.727 182.871,232.727 182.740 C 232.727 182.609,232.600 182.422,232.444 182.325 C 232.288 182.228,231.938 181.851,231.666 181.488 C 230.700 180.196,230.189 179.546,229.862 179.195 C 229.680 178.999,229.306 178.542,229.029 178.179 C 227.779 176.540,227.528 176.223,227.215 175.888 C 227.031 175.692,226.639 175.185,226.344 174.763 C 226.048 174.340,225.745 173.945,225.670 173.884 C 225.596 173.824,225.008 173.080,224.364 172.231 C 223.720 171.383,223.125 170.639,223.042 170.579 C 222.958 170.518,222.362 169.774,221.717 168.926 C 221.072 168.077,220.359 167.223,220.134 167.026 C 219.909 166.830,219.725 166.578,219.725 166.465 C 219.725 166.353,219.431 166.017,219.073 165.720 C 218.714 165.422,218.417 165.070,218.412 164.936 C 218.406 164.802,218.159 164.430,217.862 164.109 L 217.321 163.526 213.668 163.526 C 210.947 163.526,209.987 163.597,209.909 163.802 M269.532 191.515 L 269.532 219.504 274.160 219.504 L 278.788 219.504 278.788 191.515 L 278.788 163.526 274.160 163.526 L 269.532 163.526 269.532 191.515 M352.530 163.875 C 352.356 164.330,352.356 218.700,352.530 219.156 C 352.647 219.458,353.283 219.504,357.379 219.504 L 362.094 219.504 362.094 200.282 C 362.094 182.175,362.115 181.090,362.466 181.590 C 362.671 181.883,362.993 182.288,363.182 182.490 C 363.371 182.693,363.824 183.235,364.187 183.696 C 365.014 184.744,366.332 186.342,367.116 187.247 C 367.445 187.626,367.862 188.162,368.044 188.438 C 368.226 188.714,368.548 189.094,368.760 189.284 C 368.972 189.474,369.146 189.720,369.146 189.831 C 369.146 189.942,369.369 190.247,369.642 190.509 C 369.915 190.771,370.378 191.328,370.672 191.746 C 370.966 192.165,371.338 192.586,371.499 192.683 C 371.659 192.780,371.791 192.967,371.791 193.099 C 371.791 193.230,372.014 193.552,372.287 193.815 C 372.559 194.077,373.023 194.634,373.317 195.052 C 373.611 195.470,373.983 195.892,374.143 195.989 C 374.304 196.086,374.435 196.267,374.435 196.392 C 374.435 196.516,374.733 196.915,375.096 197.279 C 375.460 197.643,375.758 198.007,375.759 198.089 C 375.759 198.170,376.082 198.597,376.475 199.037 C 376.868 199.478,377.488 200.212,377.851 200.670 C 378.215 201.127,378.760 201.808,379.063 202.183 C 379.366 202.558,379.713 202.994,379.835 203.153 C 379.956 203.311,380.328 203.736,380.661 204.097 C 380.994 204.458,381.267 204.834,381.267 204.933 C 381.267 205.100,381.568 205.463,383.416 207.526 C 383.810 207.966,384.136 208.436,384.142 208.571 C 384.147 208.705,384.444 209.059,384.803 209.356 C 385.161 209.653,385.455 209.989,385.455 210.102 C 385.455 210.215,385.678 210.522,385.950 210.784 C 386.223 211.046,386.687 211.603,386.981 212.022 C 387.275 212.440,387.647 212.862,387.807 212.959 C 387.968 213.056,388.099 213.270,388.099 213.436 C 388.099 213.602,388.183 213.770,388.285 213.811 C 388.386 213.851,388.845 214.380,389.303 214.986 C 389.761 215.592,390.202 216.138,390.283 216.198 C 390.364 216.259,390.922 216.953,391.524 217.741 C 392.965 219.629,392.589 219.497,396.529 219.501 L 400.000 219.504 400.000 191.515 L 400.000 163.526 395.372 163.526 L 390.744 163.526 390.744 182.693 C 390.744 199.417,390.703 201.844,390.422 201.736 C 390.244 201.668,390.045 201.448,389.979 201.247 C 389.912 201.046,389.586 200.569,389.254 200.188 C 388.922 199.806,388.501 199.277,388.320 199.011 C 388.138 198.746,387.791 198.302,387.548 198.024 C 387.095 197.505,386.499 196.748,385.634 195.592 C 385.362 195.229,385.012 194.852,384.856 194.755 C 384.701 194.658,384.573 194.477,384.573 194.352 C 384.573 194.228,384.275 193.828,383.912 193.465 C 383.548 193.101,383.250 192.737,383.250 192.655 C 383.249 192.574,382.927 192.147,382.533 191.706 C 382.140 191.266,381.521 190.531,381.157 190.074 C 380.793 189.616,380.174 188.886,379.781 188.450 C 379.387 188.015,379.065 187.597,379.064 187.523 C 379.064 187.448,378.767 187.052,378.406 186.641 C 378.044 186.231,377.747 185.835,377.745 185.762 C 377.743 185.689,377.518 185.377,377.245 185.069 C 376.494 184.221,375.226 182.680,375.052 182.403 C 374.831 182.052,373.944 180.937,373.551 180.516 C 373.367 180.320,372.972 179.815,372.672 179.394 C 372.372 178.973,371.977 178.468,371.794 178.271 C 371.404 177.853,370.194 176.358,370.028 176.088 C 369.965 175.986,369.616 175.537,369.254 175.091 C 368.892 174.644,368.276 173.867,367.886 173.365 C 367.042 172.276,366.172 171.242,365.344 170.341 C 365.011 169.978,364.738 169.594,364.738 169.486 C 364.738 169.378,364.441 168.993,364.077 168.629 C 363.713 168.265,363.416 167.881,363.416 167.775 C 363.416 167.669,363.123 167.339,362.764 167.042 C 362.406 166.745,362.108 166.385,362.103 166.243 C 362.098 166.101,361.796 165.687,361.433 165.323 C 361.069 164.960,360.771 164.577,360.771 164.474 C 360.771 163.511,352.890 162.938,352.530 163.875 M86.812 171.639 C 86.884 171.749,87.428 171.911,88.021 171.999 C 88.615 172.086,89.260 172.243,89.454 172.346 C 89.648 172.450,90.303 172.764,90.909 173.044 C 91.515 173.324,92.061 173.605,92.121 173.668 C 92.182 173.731,92.479 173.892,92.782 174.025 C 94.155 174.627,97.131 177.588,98.287 179.504 C 98.580 179.989,98.875 180.435,98.942 180.496 C 99.231 180.758,100.288 183.092,100.414 183.747 C 100.489 184.140,100.631 184.463,100.728 184.463 C 100.825 184.463,100.975 185.033,101.061 185.730 C 101.147 186.427,101.327 187.068,101.462 187.155 C 101.803 187.373,101.806 196.537,101.465 196.757 C 101.331 196.844,101.155 197.429,101.074 198.057 C 100.992 198.686,100.780 199.479,100.602 199.821 C 100.424 200.162,100.278 200.606,100.277 200.808 C 100.276 201.010,100.201 201.208,100.110 201.249 C 100.019 201.289,99.598 201.998,99.174 202.824 C 98.321 204.483,97.577 205.465,96.088 206.895 C 94.535 208.387,94.414 208.485,94.141 208.485 C 94.000 208.485,93.884 208.566,93.884 208.666 C 93.884 208.766,93.116 209.219,92.176 209.673 C 91.237 210.127,90.316 210.578,90.129 210.676 C 89.943 210.774,89.348 210.928,88.807 211.017 C 88.266 211.106,87.684 211.292,87.514 211.430 C 87.091 211.773,78.066 211.781,77.843 211.438 C 77.757 211.305,77.283 211.134,76.791 211.057 C 76.299 210.980,75.605 210.778,75.249 210.609 C 74.892 210.439,74.179 210.121,73.664 209.901 C 73.149 209.682,72.727 209.433,72.727 209.348 C 72.727 209.263,72.499 209.136,72.220 209.066 C 71.941 208.996,71.420 208.641,71.063 208.277 C 70.705 207.913,70.327 207.613,70.222 207.609 C 69.844 207.597,67.537 204.956,67.327 204.294 C 67.250 204.054,67.095 203.857,66.982 203.857 C 66.869 203.857,66.777 203.705,66.777 203.519 C 66.777 203.334,66.634 203.127,66.460 203.060 C 66.285 202.993,66.079 202.649,66.001 202.296 C 65.924 201.942,65.770 201.653,65.660 201.653 C 65.550 201.653,65.396 201.256,65.319 200.771 C 65.241 200.287,65.100 199.890,65.005 199.890 C 64.910 199.890,64.762 199.468,64.676 198.953 C 64.589 198.438,64.435 197.963,64.331 197.897 C 64.228 197.831,64.077 197.063,63.996 196.189 C 63.915 195.315,63.764 194.601,63.660 194.601 C 63.401 194.601,63.420 188.957,63.681 188.482 C 63.796 188.271,63.953 187.430,64.029 186.612 C 64.105 185.793,64.259 185.124,64.370 185.124 C 64.482 185.124,64.573 184.871,64.573 184.561 C 64.573 184.036,64.958 183.013,65.854 181.157 C 66.058 180.733,66.287 180.336,66.361 180.275 C 66.436 180.215,66.567 179.942,66.652 179.669 C 66.737 179.397,66.899 179.174,67.012 179.174 C 67.125 179.174,67.218 179.040,67.218 178.877 C 67.218 178.714,67.416 178.401,67.658 178.182 C 67.901 177.962,68.099 177.699,68.099 177.596 C 68.099 177.146,71.954 173.884,72.487 173.884 C 72.619 173.884,72.727 173.793,72.727 173.681 C 72.727 173.570,73.025 173.413,73.388 173.333 C 73.752 173.253,74.050 173.106,74.050 173.005 C 74.050 172.904,74.446 172.754,74.931 172.672 C 75.416 172.590,75.813 172.440,75.813 172.338 C 75.813 172.236,76.358 172.085,77.025 172.001 C 77.691 171.918,78.237 171.767,78.237 171.667 C 78.237 171.247,86.541 171.220,86.812 171.639 M319.854 171.644 C 319.995 171.758,320.631 171.921,321.267 172.007 C 321.904 172.093,322.424 172.242,322.424 172.338 C 322.424 172.435,322.697 172.581,323.030 172.662 C 323.900 172.873,325.289 173.501,325.289 173.682 C 325.289 173.767,325.546 173.901,325.859 173.980 C 326.172 174.058,326.655 174.366,326.931 174.665 C 327.207 174.963,327.497 175.207,327.574 175.207 C 327.758 175.207,330.579 178.112,330.579 178.300 C 330.579 178.427,330.826 178.759,331.667 179.761 C 331.786 179.902,331.947 180.274,332.026 180.587 C 332.105 180.901,332.250 181.157,332.348 181.157 C 332.446 181.157,332.592 181.455,332.672 181.818 C 332.752 182.182,332.900 182.479,333.001 182.479 C 333.102 182.479,333.251 182.876,333.333 183.361 C 333.415 183.846,333.560 184.242,333.655 184.242 C 333.750 184.242,333.896 184.761,333.980 185.394 C 334.064 186.027,334.251 186.687,334.394 186.860 C 334.754 187.293,334.765 196.972,334.407 197.198 C 334.270 197.285,334.087 197.876,334.000 198.512 C 333.914 199.149,333.753 199.669,333.643 199.669 C 333.533 199.669,333.443 199.843,333.442 200.055 C 333.441 200.267,333.302 200.707,333.132 201.032 C 332.963 201.357,332.759 201.919,332.679 202.281 C 332.600 202.642,332.392 202.993,332.218 203.060 C 332.044 203.127,331.901 203.334,331.901 203.519 C 331.901 203.705,331.802 203.857,331.680 203.857 C 331.559 203.857,331.460 204.006,331.460 204.189 C 331.460 204.372,331.262 204.692,331.019 204.900 C 330.777 205.107,330.579 205.360,330.579 205.461 C 330.579 205.681,328.498 207.824,328.284 207.824 C 328.202 207.824,327.867 208.073,327.539 208.377 C 327.211 208.681,326.744 208.992,326.501 209.068 C 326.259 209.144,326.011 209.267,325.950 209.341 C 325.742 209.598,323.808 210.468,323.447 210.468 C 323.248 210.468,323.085 210.556,323.085 210.664 C 323.085 210.771,322.614 210.929,322.039 211.015 C 321.463 211.101,320.853 211.285,320.682 211.426 C 320.259 211.774,311.380 211.782,310.943 211.434 C 310.773 211.298,310.249 211.118,309.780 211.033 C 309.311 210.948,308.765 210.795,308.568 210.692 C 308.371 210.590,307.441 210.136,306.501 209.684 C 305.562 209.232,304.793 208.777,304.793 208.673 C 304.793 208.570,304.678 208.485,304.536 208.485 C 304.395 208.485,304.122 208.340,303.930 208.162 C 302.534 206.871,301.164 205.452,300.657 204.771 C 300.327 204.329,300.005 203.917,299.941 203.857 C 299.712 203.642,298.182 200.424,298.182 200.159 C 298.182 200.011,298.094 199.890,297.986 199.890 C 297.879 199.890,297.721 199.419,297.635 198.843 C 297.550 198.267,297.392 197.690,297.285 197.559 C 297.178 197.429,297.024 196.608,296.943 195.734 C 296.861 194.861,296.710 194.094,296.607 194.030 C 296.361 193.878,296.361 189.091,296.607 189.091 C 296.710 189.091,296.859 188.333,296.937 187.406 C 297.016 186.479,297.170 185.611,297.280 185.477 C 297.389 185.344,297.550 184.763,297.635 184.187 C 297.721 183.612,297.875 183.140,297.976 183.140 C 298.078 183.140,298.227 182.793,298.307 182.369 C 298.386 181.945,298.532 181.598,298.630 181.598 C 298.728 181.598,298.873 181.300,298.953 180.937 C 299.033 180.573,299.183 180.275,299.286 180.275 C 299.390 180.275,299.544 180.052,299.629 179.780 C 299.714 179.507,299.845 179.234,299.920 179.174 C 299.995 179.113,300.637 178.344,301.348 177.466 C 302.058 176.587,302.711 175.868,302.798 175.868 C 302.885 175.868,303.246 175.573,303.600 175.213 C 303.953 174.852,304.366 174.555,304.518 174.552 C 304.669 174.548,304.793 174.448,304.793 174.329 C 304.793 174.210,305.041 174.051,305.344 173.975 C 305.647 173.899,305.895 173.756,305.895 173.658 C 305.895 173.559,306.193 173.413,306.556 173.333 C 306.920 173.253,307.218 173.101,307.218 172.995 C 307.218 172.889,307.565 172.737,307.989 172.658 C 308.413 172.578,308.760 172.432,308.760 172.333 C 308.760 172.234,309.306 172.085,309.972 172.001 C 310.639 171.918,311.185 171.767,311.185 171.667 C 311.185 171.242,319.330 171.222,319.854 171.644 M25.081 172.932 C 25.165 173.068,25.804 173.249,26.501 173.336 C 27.198 173.423,27.769 173.581,27.769 173.687 C 27.769 173.793,28.165 173.943,28.650 174.020 C 29.135 174.098,29.532 174.240,29.532 174.336 C 29.532 174.432,29.829 174.576,30.193 174.656 C 30.556 174.736,30.854 174.872,30.854 174.960 C 30.854 175.047,31.319 175.411,31.887 175.769 C 32.900 176.407,35.923 179.301,35.923 179.634 C 35.923 179.727,36.047 179.938,36.198 180.104 C 36.551 180.489,36.956 181.121,37.297 181.818 C 37.446 182.121,37.629 182.419,37.705 182.479 C 37.781 182.540,37.911 182.961,37.995 183.416 C 38.078 183.871,38.235 184.242,38.344 184.242 C 38.452 184.242,38.610 184.713,38.695 185.289 C 38.780 185.865,38.959 186.407,39.094 186.493 C 39.436 186.713,39.436 196.317,39.094 196.537 C 38.959 196.623,38.780 197.165,38.695 197.741 C 38.610 198.317,38.447 198.788,38.334 198.788 C 38.220 198.788,38.127 198.936,38.127 199.116 C 38.127 199.559,37.203 201.653,37.007 201.653 C 36.922 201.653,36.788 201.909,36.709 202.223 C 36.631 202.536,36.322 203.018,36.024 203.295 C 35.726 203.571,35.482 203.871,35.482 203.961 C 35.482 204.223,33.131 206.501,32.861 206.501 C 32.727 206.501,32.616 206.576,32.616 206.667 C 32.613 206.982,28.530 209.143,27.934 209.145 C 27.722 209.146,27.548 209.237,27.548 209.349 C 27.548 209.460,26.902 209.621,26.113 209.705 C 25.323 209.790,24.623 209.947,24.557 210.054 C 24.491 210.160,21.021 210.248,16.846 210.248 L 9.256 210.248 9.256 191.379 L 9.256 172.509 17.092 172.598 C 22.542 172.659,24.975 172.761,25.081 172.932 " stroke="none" fill="#0444bc" fill-rule="evenodd"></path><path id="path1" d="" stroke="none" fill="#0844bc" fill-rule="evenodd"></path><path id="path2" d="" stroke="none" fill="#0844bc" fill-rule="evenodd"></path><path id="path3" d="" stroke="none" fill="#0844bc" fill-rule="evenodd"></path><path id="path4" d="" stroke="none" fill="#0844bc" fill-rule="evenodd"></path></g></svg>