<?xml version="1.0" encoding="utf-8"?>
<!-- Generator: Adobe Illustrator 26.1.0, SVG Export Plug-In . SVG Version: 6.00 Build 0)  -->
<svg version="1.1" id="svg" xmlns="http://www.w3.org/2000/svg" xmlns:xlink="http://www.w3.org/1999/xlink" x="0px" y="0px"
	 viewBox="0 0 400 84.5" style="enable-background:new 0 0 400 84.5;" xml:space="preserve">
<style type="text/css">
	.st0{fill:#3B6CF4;}
</style>
<g>
	<path class="st0" d="M45.2,84.5c-1.7-1.6-3.3-3.2-5.1-4.6c-0.5-0.4-1.4-0.5-2.1-0.7c-5.1-0.9-10.4-1.3-15.4-2.7
		C11.9,73.4,5.6,66,5.7,54.1c0.1-10.7,0-21.4,0-32.1c0-1.3-0.8-3.1,1.7-3.1c2.7,0,1.9,1.9,1.9,3.2c0.1,10.3,0,20.5,0,30.8
		c0.1,12.5,6.2,18.1,16.9,20.9c3.7,1,7.7,1.3,11.5,1.6c0.8,0.1,1.8-0.7,2.5-1.3c1.2-1,2.1-2.4,3.4-3.3c1.3-0.9,1.8-1.7,1.8-3.3
		c-0.1-6.1,0-12.2,0-18.3c0-1.2-0.1-2.1-1.5-2.8c-5.7-2.9-5.8-9.7-0.2-13c1.5-0.8,1.8-1.7,1.8-3.2c0-9.2,0-18.5,0-27.7
		c0-1.5,0.1-2.6,2.1-2.6c8.4,0.1,16.8,0.2,24.9,2.9c9.3,3,15.3,9,16.8,19c0.2,1.1,0.1,2.4-0.2,3.5c-0.1,0.4-1.6,0.6-2.3,0.3
		c-0.6-0.2-1.4-1.1-1.4-1.7c-0.1-12.4-10.8-17.7-20.4-19c-4.4-0.6-8.7-1-13.1-1.5c-2.1-0.2-2.9,0.6-2.9,2.7
		c0.1,8.1-0.1,16.3,0.1,24.4c0,1.2,0.9,2.7,1.9,3.5c4.1,3.5,4.2,8.6-0.1,11.9c-1.3,1-1.8,2-1.8,3.6c0,6,0,12,0,18.1
		c0,1.6,0.4,2.8,1.9,3.8c1.1,0.7,1.6,2.1,2.6,3c0.6,0.6,1.6,1.5,2.3,1.4c6.1-1,12.3-1,18.1-3.6c6.7-3.1,10.9-7.8,11.5-15.3
		c0.1-0.9,0.1-2.1,0.6-2.7c0.5-0.5,1.7-0.7,2.5-0.5c0.4,0.1,1,1.1,1,1.7c-0.2,7.9-3.4,14.2-10.3,18.3c-6.6,3.9-14,5.2-21.6,5.5
		c-2.1,0.1-3.8,0.2-5.1,2.4c-0.7,1.3-2.6,2-4,2.9C47.2,84.5,46.2,84.5,45.2,84.5z M50.5,40c0-1.9-1.6-3.5-3.5-3.6
		c-2-0.1-3.8,1.6-3.9,3.5c0,1.6,1.9,3.7,3.5,3.8C48.2,43.8,50.4,41.7,50.5,40z M50.5,77.2c0-1.9-1.7-3.6-3.8-3.6
		c-1.9,0-3.6,1.6-3.6,3.5c0,1.7,2.1,3.8,3.8,3.8C48.5,80.8,50.4,78.8,50.5,77.2z"/>
	<path class="st0" d="M0,8.3c0-5,3.2-8.2,8.2-8.2c4.9,0,8.4,3.3,8.4,8.1c0,4.8-3.7,8.5-8.4,8.5C3.4,16.7,0,13.2,0,8.3z M12.5,8.2
		c0-2.3-2.3-4.4-4.5-4.3C6,4,3.8,6.4,3.8,8.3c0.1,2.2,2.4,4.4,4.6,4.2C10.6,12.4,12.5,10.4,12.5,8.2z"/>
	<path class="st0" d="M115.2,12.9c3.1,0,5.3,2.2,5.3,5.3c0,2.9-2.4,5.4-5.3,5.4c-3,0-5.6-2.6-5.5-5.6
		C109.7,15.1,112.1,12.8,115.2,12.9z"/>
	<path class="st0" d="M341.1,12.9c3.1,0,5.3,2.2,5.3,5.3c0,2.9-2.4,5.4-5.3,5.4c-3,0-5.6-2.6-5.5-5.6
		C335.6,15.1,338,12.8,341.1,12.9z"/>
</g>
<g>
	<path d="M230.7,53.8c-2.5,0-4.8,0-7.3,0c0-4.5,0-8.9,0-13.3c0-1.1,0-2.2,0-3.2c-0.1-2.9-1.7-4.6-4.4-4.7c-2.9-0.1-5.2,1.6-5.3,4.4
		c-0.2,4.6-0.1,9.1-0.2,13.7c0,3.3,0,3.3-3.4,3.3c-1.2,0-2.3,0-3.8,0c0-4.1,0-7.9,0-11.8c0-1.6,0-3.2,0-4.7
		c-0.1-3.1-1.9-4.8-4.8-4.9c-3,0-5.1,1.8-5.2,4.9c-0.2,4.4-0.1,8.8-0.1,13.2c0,1,0,2,0,3.2c-2.5,0-4.7,0-7.3,0c0-2.2,0-4.3,0-6.3
		c0-6.1,0.1-12.3,0-18.4c0-2,0.6-2.7,2.6-2.5c1.4,0.1,2.8,0,4.3,0c0.1,1.1,0.2,1.9,0.4,3c2.4-2.4,5-3.7,8.3-3.6
		c3.2,0.1,5.7,1.5,7.6,4.4c2.4-2.7,5.1-4.5,8.9-4.5c3.8,0.1,6.6,1.9,8.8,5.1c2.2-3.1,4.8-5,8.5-5.1c3.6-0.1,6.4,1.3,8.5,4.6
		c2.3-3,5-4.6,8.6-4.6c5.3,0.1,9.3,3,9.7,8.3c0.4,6.4,0.1,12.9,0.1,19.7c-1.9,0-3.8,0.1-5.7-0.1c-0.5-0.1-1.2-1.2-1.2-1.9
		c-0.1-4.6,0-9.3,0-14c0-4.3-2.5-6.3-6.5-5.2c-2.3,0.7-3.5,2.4-3.5,4.8c-0.1,4.6-0.1,9.3,0,14c0,1.8-0.5,2.6-2.4,2.4
		c-1.5-0.1-3.1,0-4.9,0c0-5.6,0-10.9,0-16.2c0-4-2.6-6-6.4-5c-2.2,0.6-3.6,2.5-3.6,5.3c-0.1,4.2,0,8.5,0,12.7
		C230.7,51.7,230.7,52.6,230.7,53.8z"/>
	<path d="M168.8,25.9c8.2,0,14.1,6.1,14.2,14.4c0,8.4-6.1,14.5-14.4,14.4c-8.5-0.1-14.2-6-14.2-14.4
		C154.3,31.8,160.6,25.8,168.8,25.9z M175.7,40.3c0-4.7-2.6-7.7-6.8-7.8c-4.3-0.1-7,3-7,7.8c0,4.7,2.6,7.7,6.8,7.7
		C173.1,48.1,175.7,45.2,175.7,40.3z"/>
	<path d="M305,26.7c2.2,0,4.3,0,6.6,0c0.1,0.8,0.3,1.7,0.4,2.8c2.4-2.5,5.2-3.9,8.7-3.6c4.2,0.3,8.2,3.2,8.5,7.4
		c0.4,6.7,0.1,13.5,0.1,20.5c-2.1,0-4.3,0-6.9,0c0-3.2,0-6.3,0-9.4c0-2.2,0-4.5,0-6.7c-0.1-3.3-1.8-5-4.9-5.1
		c-3-0.1-5.2,1.8-5.3,5.1c-0.1,4.6-0.1,9.3,0,13.9c0,1.8-0.5,2.6-2.4,2.4c-1.6-0.1-3.1,0-4.8,0C305,44.8,305,35.8,305,26.7z"/>
	<path d="M272.1,26.7c2.5,0,4.7,0,7.2,0c0,4.3,0,8.5,0,12.7c0,1.2,0,2.3,0,3.5c0.2,3.2,2,4.9,5.1,4.9c3.2,0,5-1.5,5.1-4.8
		c0.2-4.4,0.1-8.8,0.1-13.2c0-1,0-2,0-3.1c2.6,0,4.9,0,7.4,0c0,9,0,17.9,0,27c-2.1,0-4.2,0-6.5,0c-0.1-0.6-0.3-1.3-0.4-2.1
		c-0.2,0-0.6,0-0.7,0.1c-3.4,3.5-7.5,3.6-11.5,1.9c-4-1.7-5.8-5.3-5.8-9.6C272,38.3,272.1,32.6,272.1,26.7z"/>
	<path d="M369.8,26.6c2.7,0,4.8-0.1,6.9,0.1c0.6,0.1,1.5,0.7,1.8,1.3c2.1,4.2,4,8.5,6,12.8c0.2,0.4,0.4,0.9,0.9,1.9
		c1.4-3.2,2.7-6,3.9-8.8c0.5-1.2,1.1-2.4,1.4-3.7c0.8-3.1,2.8-4.1,5.9-3.6c0.9,0.2,1.9,0,3.3,0c-1.3,3-2.5,5.7-3.7,8.4
		c-3.9,8.6-7.8,17.1-11.6,25.7c-1.9,4.2-2.5,4.5-9.4,3.8c1.2-2.7,2.3-5.3,3.5-7.9c0.8-1.7,2.2-3.5,2.1-5.2c0-2.1-1.1-4.2-2-6.1
		C376.1,39.1,373,33.1,369.8,26.6z"/>
	<path d="M151.1,45.5c-0.8,5.8-6.7,9.7-13.6,9.2c-7.6-0.5-13.1-6.5-13.2-14.2c-0.1-7.6,5.4-14,12.5-14.6c7.1-0.6,13.2,3.2,14.2,9
		c-2,0.7-4,1.4-6.1,2.2c-1.4-3.1-3.5-4.9-7-4.5c-3,0.3-5.2,2.1-6,5.1c-1,3.4,0.1,7.3,2.5,9c2.1,1.5,6.1,1.6,8.3,0.1
		c0.1-0.1,0.3-0.2,0.4-0.3c0.8-0.9,1.6-2.6,2.3-2.6C147.3,44.1,149.2,45,151.1,45.5z"/>
	<path d="M353.6,33.2c-1.4-0.1-2.9-0.2-4.5-0.3c0-2,0-4,0-6c4.8-1.5,4.8-1.5,5.6-8.5c1,0,2.1,0,3.1,0c1,0,2,0,3.3,0
		c0,2.7,0,5.2,0,7.9c1.9,0.1,3.5,0.2,5.3,0.3c0,2.1,0,4.1,0,6.2c-1.7,0.1-3.3,0.2-5.1,0.3c0,4.3-0.1,8.5,0.1,12.6
		c0,0.7,1.4,1.4,2.3,1.9c0.7,0.3,1.6,0.1,2.4,0.2c0.1,0.2,0.3,0.3,0.3,0.5c-0.2,1.9,1.3,4.4-1,5.6c-2.6,1.4-7.9,0-9.5-2.5
		c-1.1-1.6-1.8-3.7-1.9-5.7c-0.3-4-0.1-8-0.1-11.9C353.9,33.7,353.7,33.6,353.6,33.2z"/>
	<path d="M344.2,26.6c0,9.3,0,18.2,0,27.3c-2.4,0-4.6,0-7.1,0c0-0.9,0-1.7,0-2.5c0-7.3,0.1-14.6-0.1-21.9c-0.1-2.4,0.8-3.1,3-2.8
		C341.3,26.7,342.6,26.6,344.2,26.6z"/>
	<path d="M111.6,27c0.3-0.2,0.4-0.3,0.5-0.3c6.5-0.7,6.5-0.7,6.5,5.8c0,6.3-0.1,12.6,0,18.9c0,2.1-0.7,2.8-2.7,2.6
		c-1.4-0.1-2.8,0-4.3,0C111.6,44.8,111.6,35.9,111.6,27z"/>
</g>
</svg>
