<svg xmlns="http://www.w3.org/2000/svg" width="138.208" height="41.143" viewBox="0 0 138.208 41.143">
    <g data-name="Grupo 657">
        <path data-name="Trazado 788" d="M422.771 34.86a6.933 6.933 0 1 1-6.937 6.886 6.957 6.957 0 0 1 6.937-6.886m0 4.493a2.383 2.383 0 0 0-2.495 2.393 2.461 2.461 0 0 0 2.495 2.505 2.509 2.509 0 0 0 2.439-2.505 2.425 2.425 0 0 0-2.439-2.393m-6.889-3.894a6.7 6.7 0 0 0-2.9-.6c-4.039-.178-6.756 3.451-6.89 6.935-.045 2.765 2.628 8.607 9.827 6.3l-1.541-4.349a2.59 2.59 0 0 1-4.116-2.174 2.427 2.427 0 0 1 2.264-2.541c1-.135 1.953.321 1.9.5zm-24.336 6.614v6.2h-4.128l.092-6.155a2.536 2.536 0 1 0-5.071.09c-.094 1.406 1.627 3.629 4.17 1.949v4.531a6.795 6.795 0 1 1-1.366-13.418 6.531 6.531 0 0 1 6.3 6.8m-28.243-.231V30.068h4v11.727c0 3.215 5.026 3.451 5.16 0a2.559 2.559 0 0 0-4.119-2.03l-.043-4.453c6.395-1.176 8.246 4.218 8.288 6.434a6.865 6.865 0 0 1-6.977 6.98 6.574 6.574 0 0 1-6.3-6.887m33.96 6.482h-4.039v-7.614c0-3.3 1.951-5.79 5.478-5.79 3.5 0 5.673 2.074 5.673 5.978v7.426h-4V40.9c0-3.4-3.116-3.492-3.116.091z" transform="translate(-363.303 -20.116)" style="fill:#606060"/>
        <path data-name="Trazado 789" d="M467.85 61.259c-18.512 0-33.572-9.192-33.572-20.492 0-11.387 15.06-20.651 33.572-20.651 18.561 0 33.661 9.264 33.661 20.651 0 11.3-15.1 20.492-33.661 20.492m0-40.208c-18 0-32.637 8.845-32.637 19.716 0 10.784 14.641 19.557 32.637 19.557 18.045 0 32.725-8.773 32.725-19.557 0-10.871-14.68-19.716-32.725-19.716" transform="translate(-363.303 -20.116)" style="fill:#606060"/>
        <path data-name="Trazado 790" d="M463.5 29.1a2.6 2.6 0 1 0 0 5.2 2.6 2.6 0 0 0 0-5.2m2.424 6.536h-4.994V51.52h4.994zm26.376 8.405a7.955 7.955 0 0 0-7.715-8.318 8.318 8.318 0 0 0-8.52 8.528c.07 2.7 2.424 9.209 10.167 7.841v-5.568c-3.014 2.009-5.163-.589-5-2.408.313-4.3 6.157-4.012 6.157-.075l-.074 7.492h4.985zm-9.051-15.158-.955.1c-10.109 1.235-7.776 11.236-15.119 10.753v4.951h1.3c4.659 0 6.611-2.457 7.3-3.615.884-1.288 1.132-2.2 2.252-3.617 1.615-2.994 4.1-3.905 5.216-3.684zm-34.633 14.705V29.19h-4.966v14.457a7.966 7.966 0 0 0 7.741 8.27c5.9-.22 8.624-4.657 8.479-8.429-.117-2.988-2.319-9.3-10.018-7.88l-.045 5.483a3.1 3.1 0 1 1 1.861 5.564 3.061 3.061 0 0 1-3.052-3.067" transform="translate(-363.303 -20.116)" style="fill-rule:evenodd;fill:#606060"/>
    </g>
</svg>
