<?xml version="1.0" encoding="utf-8"?>
<!-- Generator: Adobe Illustrator 26.1.0, SVG Export Plug-In . SVG Version: 6.00 Build 0)  -->
<svg version="1.1" id="svg" xmlns="http://www.w3.org/2000/svg" xmlns:xlink="http://www.w3.org/1999/xlink" x="0px" y="0px"
	 viewBox="0 0 400 151.6" style="enable-background:new 0 0 400 151.6;" xml:space="preserve">
<style type="text/css">
	.st0{fill:#606060;}
</style>
<g>
	<path class="st0" d="M181.8,57.3c3.9-3.7,6.7-6.3,9.8-9.1c7.6,5.4,13.2,2,18.7-4c9.9-10.8,20.2-21.2,29.8-31.3
		c10.9,10.4,21.3,19,30.2,29c7.2,8.1,5.5,18.2-2.1,26.1c-7.7,8-17.9,9.8-26.7,3.7c-5.5-3.8-10.2-8.8-15.6-13.6
		c3.4-3.4,6.1-6.2,10.2-10.3c2.9,3.6,5.3,7.1,8.3,10c4.6,4.5,8.5,4.5,12.6,0.4c4.1-4.1,4-7.9-0.3-12.6c-4.3-4.7-8.6-9.5-13.7-15.2
		c-9.6,10-17.8,18.8-26.4,27.3c-6.6,6.5-14.4,10.6-24,6.5C189.2,62.6,186.1,60,181.8,57.3z"/>
	<path class="st0" d="M212.3,132c-0.3-0.6-0.5-0.9-0.6-1.3c-1.1-11.6-1.1-11.6-12.9-11.6c-4,0-8,0-12.3,0c0-3.3,0-6,0-9.6
		c6.2,0,12.4,0,18.5,0c3.7,0,7.3-0.7,7.4-5.2c0.1-4.6-3.4-5.4-7.1-5.4c-8,0-16,0-24.7,0c0,11.2,0,21.9,0,33.1c-3.9,0-7.2,0-11,0
		c0-14,0-28,0-42.3c14,0,27.9-0.9,41.6,0.3c13.3,1.2,16.7,15.7,8.6,23.1c1.4,6.6,2.7,12.4,4.1,19C219.1,132,215.7,132,212.3,132z"/>
	<path class="st0" d="M21.3,119c0-3.3,0-6,0-9.3c6.1,0,11.9-0.1,17.7,0c3.8,0.1,7-0.6,7.1-5.3c0.1-4.5-2.8-5.8-6.8-5.7
		c-6.8,0.1-13.7,0-21.6,0c0,6.8,0.1,13.4,0,19.9c-0.1,3.6-0.1,7.3-1.1,10.7c-1.9,6.7-7.7,9.6-16.7,9.4c-0.1-2.8,0-9.5,0-9.5
		c1.4-0.1,2.8,0.1,4.6-0.9c1.5-0.9,2.4-3.9,2.5-6.1c0.3-8.8,0.3-30.5,0.4-32.8c12.3,0,24.1-0.5,35.9,0.2c9,0.5,14,6.9,13.6,15.3
		c-0.4,8.2-5.6,13.6-14.4,14C35.6,119.3,28.6,119,21.3,119z"/>
	<path class="st0" d="M229.9,131.8c6.5-12.4,12.4-24.7,19.2-36.4c5.5-9.4,19-9.2,24.5,0.5c6.7,11.6,12.6,23.7,18.8,35.7
		c-9.4,2.3-10.4,1.7-14.9-5.1c-1-1.6-3.7-2.8-5.7-2.9c-6.1-0.4-12.3-0.1-18.5-0.1c1.3-12.5,10.7-7.9,17.8-9.3c-2.1-4.1-3.9-8-6-11.8
		c-2.6-4.6-5.2-4.6-7.7,0c-3.9,7.2-8.3,14.3-11.3,21.9C243,131.7,238.3,134.3,229.9,131.8z"/>
	<path class="st0" d="M150.4,89.6c3.9,0,7,0,10.6,0c0,9.5,0.5,18.7-0.2,27.9c-0.6,8.3-6.6,13.8-15.9,14.7c-6.8,0.7-13.7,0.7-20.4,0
		c-10.7-1.2-16.1-7.4-16.4-18.1c-0.2-8,0-16,0-24.4c3.7,0,6.8,0,10.8,0c0,6.9,0,13.8,0,20.8c0,8.9,1.8,10.9,10.8,11.5
		c3.6,0.3,7.2,0.2,10.8-0.1c7.9-0.6,9.7-2.5,9.8-10.6C150.5,104.3,150.4,97.2,150.4,89.6z"/>
	<path class="st0" d="M391.8,128.5c0,1.2,0,7.4,0,9.9c-9.6,1.5-16.4-3.4-16.8-12.5c-0.4-8.8-0.1-17.6-0.1-27.1c-5.2,0-9.5,0-14.1,0
		c0-3.4,0-6.1,0-9.1c13.3,0,26.2,0,39.2,0c-1.3,7.8-1.5,7.9-15.1,9.7c0,8.3-0.4,16.7,0.3,25C385.4,126.7,388,128.5,391.8,128.5z"/>
	<path class="st0" d="M305.6,89.6c0,8.1,0.2,16-0.1,23.8c-0.2,5.7,2.3,8.2,7.7,8.2c3.8,0,7.6,0.1,11.5,0.1c9.8,0,9.8,0,12.9,10
		c-10.1,0-20.3,0.6-30.4-0.2c-7.4-0.6-11.9-5.5-12.4-12.7c-0.6-9.6-0.2-19.2-0.2-29.1C298.2,89.6,301.4,89.6,305.6,89.6z"/>
	<path class="st0" d="M106.2,132.3c-9.1,0-17.8,0.3-26.4-0.1c-11.4-0.5-16.8-6.2-17.2-17.5c-0.3-8.2-0.1-16.4-0.1-25
		c3.9,0,7.2,0,11.2,0c0,7.8-0.1,15.4,0,23c0.1,7.4,1.4,8.7,8.8,9c3.4,0.1,6.8,0,10.3,0C102.5,121.7,102.5,121.7,106.2,132.3z"/>
	<path class="st0" d="M353.4,132.3c-3.6,0-6.9,0-10.8,0c0-11.9-0.6-23.5,0.4-35c0.3-2.9,6-5.3,10.4-9
		C353.4,104.1,353.4,117.9,353.4,132.3z"/>
	<path class="st0" d="M217.1,31c-3.9,3.7-6.7,6.3-9.8,9.1c-7.6-5.4-13.2-2-18.7,4c-9.9,10.8-20.2,21.2-29.8,31.3
		c-10.9-10.4-21.3-19-30.2-29c-7.2-8.1-5.5-18.2,2.1-26.1c7.7-8,17.9-9.8,26.7-3.7c5.5,3.8,10.2,8.8,15.6,13.6
		c-3.4,3.4-6.1,6.2-10.2,10.3c-2.9-3.6-5.3-7.1-8.3-10c-4.6-4.5-8.5-4.5-12.6-0.4c-4.1,4.1-4,7.9,0.3,12.6
		c4.3,4.7,8.6,9.5,13.7,15.2c9.6-10,17.8-18.8,26.4-27.3c6.6-6.5,14.4-10.6,24-6.5C209.7,25.6,212.8,28.2,217.1,31z"/>
</g>
</svg>
