<?xml version="1.0" encoding="utf-8"?>
<!-- Generator: Adobe Illustrator 26.1.0, SVG Export Plug-In . SVG Version: 6.00 Build 0)  -->
<svg version="1.1" id="svg" xmlns="http://www.w3.org/2000/svg" xmlns:xlink="http://www.w3.org/1999/xlink" x="0px" y="0px"
	 viewBox="0 0 400 105.5" style="enable-background:new 0 0 400 105.5;" xml:space="preserve">
<style type="text/css">
	.st0{fill:#FC2C2C;}
</style>
<g>
	<path class="st0" d="M95.4,52.8C94.4,71.9,85.3,85.7,68,94.1c-7.3,3.5-15.1,5-23.1,4.3c-18.3-1.4-32-10-40.5-26.4
		c-3.5-6.9-4.8-14.3-4.4-22c1.1-19.9,15.9-37,36-41.7C47.6,5.7,58.8,6.7,69.3,12c14.1,7.1,22.8,18.4,25.4,34.1
		c0.1,0.9,0.3,1.8,0.3,2.7c0.1,1.3,0,2.6,0,3.9C95.2,52.8,95.3,52.8,95.4,52.8z M51.3,62.8c2.8,0,5.5-0.1,8.1,0
		c1.9,0.1,3.2-0.5,4.3-2c0.1-0.2,0.5-0.3,0.7-0.5c0.1,0.3,0.3,0.6,0.3,0.9c0,1.2,0,2.5,0,3.7c0,1.6,0.9,2.9,2.4,3.4
		c2.6,1,5-0.9,5.1-3.8c0-7,0-13.9,0-20.9c0-4.6-3.4-8-8-8c-3.9,0-7.8,0-11.7,0c-0.8,0-1.1-0.3-1.1-1.1c0-2,0-4.1,0-6.1
		c0-2.3-1.6-3.9-3.8-3.9c-2.2,0-3.6,1.6-3.6,3.9c0,2,0,3.9,0,5.9c0,0.9-0.3,1.3-1.2,1.3c-3.9,0-7.8,0-11.7,0c-0.5,0-1,0-1.5,0.1
		c-4.1,0.9-6.5,3.8-6.5,8c0,6.8,0,13.6,0,20.5c0,0.4,0,0.8,0.1,1.2c0.3,2,1.9,3.2,4.1,3.1c1.7-0.1,3.2-1.7,3.2-3.5
		c0-1.2,0-2.5,0-3.7c0-0.3,0.2-0.6,0.4-0.9c0.2,0.2,0.6,0.3,0.7,0.6c1,1.4,2.3,2,4,2c2.4-0.1,4.9,0,7.3,0c0.4,0,0.7,0,1.1,0.1
		c0,0.5,0,0.9,0,1.3c0,3.3,0,6.6,0,9.9c0,2.4,1.6,4.1,3.7,4.1c2.2,0,3.7-1.7,3.7-4.1c0-3.3,0-6.7,0-10
		C51.3,63.7,51.3,63.4,51.3,62.8z"/>
	<path class="st0" d="M335.8,68c0,4.1,0,8.3,0,12.4c0,3.3-2.5,5.7-5.9,5.8c-3.4,0-6.1-2.4-6.1-5.7c0-7.9,0-15.8,0-23.8
		c0-8.9-5.9-16.3-14.4-18.1c-10.6-2.3-20.5,4.5-22,15.2c-1.1,7.6,1.2,14,7.6,18.6c3.9,2.8,8.4,3.7,13.2,3c3.4-0.5,6.5,1.5,7.1,4.8
		c0.6,3.2-1.7,6.2-5,6.6c-7.7,1-14.9-0.2-21.4-4.5c-7.7-5-12.2-12.1-13.4-21.1c-1.3-9.3,1.1-17.6,7.4-24.7c5.3-5.9,12.1-9.2,20-9.8
		c9.2-0.7,17.2,2,23.9,8.4c4.7,4.5,7.8,10.1,8.6,16.6c0.5,4.3,0.3,8.6,0.5,12.9C335.8,65.9,335.8,67,335.8,68z"/>
	<path class="st0" d="M400,65.8c0,4.8,0,9.6,0,14.4c0,3.5-2.5,6-6,6c-3.5,0-6-2.5-6-6c0-9.1,0-18.2,0-27.4c0-7.2-5.3-13.3-12.5-14.3
		c-7.5-1.1-14,3.4-16,9.7c-0.5,1.6-0.7,3.3-0.7,5c-0.1,9.1,0,18.1,0,27.2c0,3-2.2,5.5-5.1,5.8c-3.3,0.4-6-1.5-6.7-4.5
		c-0.1-0.4-0.1-0.9-0.1-1.3c0-9.4-0.2-18.7,0-28.1c0.2-9.6,4.8-17,13-21.9c14.5-8.6,33.8-1.4,38.9,14.4c0.8,2.4,1.2,4.8,1.2,7.3
		C400,56.7,400,61.3,400,65.8z"/>
	<path class="st0" d="M207,65.7c0,4.9,0,9.7,0,14.6c0,3.1-2.2,5.6-5.2,5.8c-3.3,0.3-6-1.6-6.7-4.7c-0.1-0.4-0.1-0.9-0.1-1.4
		c0-9.1,0-18.2,0-27.4c0-7.1-5.5-13.3-12.6-14.3c-7.3-1-14.3,3.5-16.1,10.6c-0.3,1.3-0.5,2.6-0.5,3.9c0,9.1-0.1,18.1,0,27.2
		c0,3.4-2.6,6.1-6,6.1c-3.5,0-6-2.6-6-6.1c0-8.9,0-17.8,0-26.7c0-12.3,7.9-22.7,19.9-25.8c14.3-3.7,28.9,4.7,32.5,18.6
		c0.5,1.9,0.7,4,0.7,6C207,56.7,207,61.2,207,65.7z"/>
	<path class="st0" d="M234.9,56c0.1-3.8,1.7-7.1,4.8-9.7c4.8-4,9.6-7.9,14.4-11.9c2.4-2,4.7-4,7.1-5.9c3.5-2.8,8.6-1.2,9.7,3
		c0.6,2.3-0.1,4.3-2,5.8c-2.8,2.4-5.7,4.8-8.5,7.1c-3.8,3.1-7.5,6.3-11.3,9.4c-0.5,0.4-1,0.8-1.5,1.2c-0.9,0.7-0.9,1.8,0,2.5
		c7.2,6.3,14.4,12.6,21.6,18.9c2.5,2.2,2.7,5.6,0.5,8c-2.1,2.4-6,2.7-8.6,0.5c-3.4-2.9-6.7-5.9-10.1-8.9c-3.9-3.4-7.7-6.7-11.6-10.1
		C236.4,63.5,234.9,60.2,234.9,56z"/>
	<path class="st0" d="M215.5,56.7c0-7.8,0-15.6,0-23.4c0-2.9,1.7-5,4.5-5.7c2.7-0.7,5.5,0.4,6.7,2.9c0.5,0.9,0.8,2,0.8,3
		c0,15.5,0,31.1,0,46.6c0,3.1-2.1,5.6-5,6c-3.1,0.4-5.9-1.2-6.8-4c-0.2-0.7-0.3-1.4-0.3-2.2C215.5,72.2,215.5,64.5,215.5,56.7z"/>
	<path class="st0" d="M131.7,56.8c0-7.8,0-15.6,0-23.4c0-2.9,1.8-5.1,4.6-5.7c2.7-0.6,5.6,0.6,6.7,3.1c0.4,0.8,0.6,1.8,0.6,2.7
		c0,15.7,0,31.3,0,47c0,3.4-2.6,5.8-6,5.8c-3.4,0-5.9-2.5-5.9-5.8C131.7,72.5,131.7,64.7,131.7,56.8z"/>
	<path class="st0" d="M144.9,15c0,3.9-3.2,6.9-7.3,6.9c-4.1,0-7.3-3.1-7.3-7c0-3.8,3.3-6.9,7.3-6.9C141.8,8.1,144.9,11.1,144.9,15z"
		/>
	<path class="st0" d="M43.9,48c0,2.2,0,4.5,0,6.7c0,0.8-0.3,1-1,1c-3.8,0-7.7,0-11.5,0c-0.8,0-1-0.3-1-1.1c0-3.6,0-7.2,0-10.8
		c0-0.9,0.4-1.2,1.2-1.2c2.5,0,5,0,7.5,0c1.6,0,2.7-0.6,3.6-1.8c0.2-0.3,0.6-0.5,0.9-0.7c0.1,0.4,0.3,0.8,0.3,1.1
		C43.9,43.6,43.9,45.8,43.9,48z"/>
	<path class="st0" d="M51.3,47.9c0-2.3,0-4.5,0-6.8c0-0.3,0.2-0.6,0.3-0.9c0.3,0.2,0.6,0.3,0.8,0.5c1,1.4,2.3,2,4,1.9
		c2.4-0.1,4.8,0,7.2,0c0.8,0,1.1,0.3,1.1,1.1c0,3.6,0,7.2,0,10.9c0,0.8-0.3,1-1,1c-3.8,0-7.5,0-11.3,0c-0.8,0-1.1-0.3-1.1-1.1
		C51.4,52.4,51.3,50.2,51.3,47.9z"/>
</g>
</svg>
