<svg xmlns="http://www.w3.org/2000/svg" width="81.62" height="81.374" viewBox="0 0 81.62 81.374">
    <g data-name="Grupo 658">
        <path data-name="Trazado 738" d="M656.772 40.7a40.81 40.81 0 1 0-40.815 40.677A40.8 40.8 0 0 0 656.772 40.7m-40.815 39.251A39.262 39.262 0 1 1 655.343 40.7a39.362 39.362 0 0 1-39.386 39.254" transform="translate(-575.152)" style="fill:#606060"/>
        <path data-name="Trazado 739" d="M588.136 40.7c0-15.674 12.48-28.427 27.819-28.427s27.821 12.75 27.821 28.427-12.482 28.408-27.821 28.408-27.819-12.749-27.819-28.408m-1.115 0c0 16.281 12.98 29.527 28.934 29.527s28.936-13.249 28.936-29.527-12.98-29.543-28.936-29.543S587.021 24.4 587.021 40.7" transform="translate(-575.152)" style="fill:#606060"/>
        <path data-name="Trazado 740" d="m583.876 31.991-.69 1.6h-.011l-.8-1.56-1.752-.162-.005-.012 1.255-1.182-.41-1.7.022-.012 1.539.851 1.539-.922.008.008-.3 1.73 1.3 1.108v.012z" transform="translate(-575.152)" style="fill:#606060"/>
        <path data-name="Trazado 741" d="m583.385 47.255.1 1.77h-.014l-1.415-1.068-1.635.67h-.015l.594-1.648-1.125-1.316.006-.012 1.775.047.948-1.489h.01l.52 1.663 1.653.429v.016z" transform="translate(-575.152)" style="fill:#606060"/>
        <path data-name="Trazado 742" d="m589.792 61.172.922 1.521h-.01l-1.771-.3-1.133 1.321h-.024L587.538 62l-1.565-.686V61.3l1.567-.741.207-1.773h.009l1.191 1.265 1.693-.375.013.012z" transform="translate(-575.152)" style="fill:#606060"/>
        <path data-name="Trazado 743" d="m601.846 70.717 1.468.942v.008l-1.685.524-.451 1.691h-.021l-.956-1.423-1.738.1-.006-.02 1.105-1.364-.646-1.671h.006l1.669.592L601.9 69h.01z" transform="translate(-575.152)" style="fill:#606060"/>
        <path data-name="Trazado 744" d="m616.87 73.791 1.756.217v.012l-1.289 1.2.376 1.73-.011.016-1.514-.875-1.5.891-.014-.012.356-1.738-1.314-1.179v-.013l1.74-.241.7-1.537h.014z" transform="translate(-575.152)" style="fill:#606060"/>
        <path data-name="Trazado 745" d="m631.71 69.889 1.664-.63.011.011-.616 1.679 1.113 1.344v.02l-1.746-.067-.936 1.439-.016-.012-.467-1.679-1.707-.485v-.016l1.453-.966-.077-1.718.012-.008z" transform="translate(-575.152)" style="fill:#606060"/>
        <path data-name="Trazado 746" d="m643.212 59.69 1.193-1.289.005.012.237 1.75 1.574.721v.024l-1.564.7-.215 1.715h-.016l-1.153-1.3-1.767.335h-.006l.89-1.525-.869-1.49.008-.011z" transform="translate(-575.152)" style="fill:#606060"/>
        <path data-name="Trazado 747" d="m648.836 45.458.5-1.683h.014l.972 1.462 1.769-.063.008.02-1.111 1.324.612 1.632-.007.012-1.654-.655-1.389 1.1h-.018l.071-1.762-1.403-.945v-.013z" transform="translate(-575.152)" style="fill:#606060"/>
        <path data-name="Trazado 748" d="m647.5 30.241-.319-1.75h.016l1.527.907 1.547-.879.016.008-.383 1.714 1.271 1.159-.011.012-1.754.185-.767 1.572h-.016l-.7-1.568-1.7-.245-.008-.011z" transform="translate(-575.152)" style="fill:#606060"/>
        <path data-name="Trazado 749" d="M592.645 15.718a1.084 1.084 0 0 0-.313-1.166c-.556-.544-1.348-.422-2.071.315a5.68 5.68 0 0 0-.988 1.222.313.313 0 0 0 .184.4l.065.039.059-.055.376-.3 2.621 2.538-.175.3a.382.382 0 0 0-.038.3.3.3 0 0 0 .17.193l.08.043.062-.067c.315-.347.358-.386.723-.761l.01-.011c.157-.158.246-.241.335-.316s.181-.157.325-.307a1.478 1.478 0 0 0 .061-2.227 1.29 1.29 0 0 0-1.486-.146m-2.148-.26c.487-.449.97-.532 1.314-.2a.792.792 0 0 1 .263.54.627.627 0 0 1-.215.469c0 .008-.154.166-.253.268zm2.7 2.625-1.182-1.143a1.685 1.685 0 0 1 1.048-.552.771.771 0 0 1 .565 1.3 3.441 3.441 0 0 1-.431.4" transform="translate(-575.152)" style="fill:#606060"/>
        <path data-name="Trazado 750" d="M598.658 8.435a2.508 2.508 0 0 0-.808 3.656 2.4 2.4 0 0 0 1.387 1.23 1.936 1.936 0 0 0 1.5-.227 2.5 2.5 0 0 0 .865-3.706 1.975 1.975 0 0 0-2.942-.953m2.587 3.152a1.238 1.238 0 0 1-.632.762c-.771.43-1.528.066-2.136-1.013-.533-.947-.411-1.763.323-2.169a1.267 1.267 0 0 1 .985-.154 2.147 2.147 0 0 1 1.163 1.1 1.984 1.984 0 0 1 .3 1.478" transform="translate(-575.152)" style="fill:#606060"/>
        <path data-name="Trazado 751" d="M610.771 8.1V8l-.087-.016a.432.432 0 0 0-.341.052.469.469 0 0 0-.2.335s-.059.358-.084.524l-1.514.256-.782-3.5.3-.094a.4.4 0 0 0 .314-.548l-.036-.1-.106.023-1.51.335a.507.507 0 0 0-.38.241.373.373 0 0 0 .01.319l.035.079.087-.008.418-.063.8 3.594-.282.15a.342.342 0 0 0-.179.221.367.367 0 0 0 .057.268l.049.063.079-.016 3.267-.725.093-.02v-.1z" transform="translate(-575.152)" style="fill:#606060"/>
        <path data-name="Trazado 752" d="M617.468 4.73a.453.453 0 0 0 .331-.13.412.412 0 0 0 .071-.323l-.01-.1-.1-.007-1.47-.04a.5.5 0 0 0-.428.142.353.353 0 0 0-.067.3l.014.086.089.012.447.055-.11 3.675-.341.063a.438.438 0 0 0-.3.178.337.337 0 0 0-.014.275l.03.087.089-.007c.2-.008.514 0 .819.015h.057c.306.008.572.016.755.036a.452.452 0 0 0 .341-.1.4.4 0 0 0 .124-.287v-.1l-.1-.016-.57-.118.1-3.677z" transform="translate(-575.152)" style="fill:#606060"/>
        <path data-name="Trazado 753" d="M626.519 5.778a.456.456 0 0 0-.4.043.343.343 0 0 0-.14.265v.074l.071.036.384.185-1.681 2.534-.169-3.058.24.047a.479.479 0 0 0 .582-.327l.035-.114-.112-.036L623.847 5a.508.508 0 0 0-.44.056.363.363 0 0 0-.159.279v.083l.073.032.341.157.224 4.569v.106l.1.008a.97.97 0 0 0 .989-.462s1.831-2.668 2.156-3.145a.648.648 0 0 0 .524 0 .531.531 0 0 0 .252-.39l.022-.11-.107-.031z" transform="translate(-575.152)" style="fill:#606060"/>
        <path data-name="Trazado 754" d="M633.521 8.88a.5.5 0 0 0-.432-.086.35.35 0 0 0-.208.232l-.034.083.073.047.369.272-1.9 3.149-.333-.106a.4.4 0 0 0-.347.007.319.319 0 0 0-.148.229l-.02.087.079.043c.187.1.495.28.743.43s.505.3.66.41a.429.429 0 0 0 .341.079.372.372 0 0 0 .253-.186l.05-.083-.074-.07-.444-.383 1.9-3.153.219.1a.467.467 0 0 0 .349.051.447.447 0 0 0 .222-.244l.042-.091-.087-.055z" transform="translate(-575.152)" style="fill:#606060"/>
        <path data-name="Trazado 755" d="m641.557 15.17-.038-.055a1.4 1.4 0 0 0-.2-.252.538.538 0 0 0-.682-.107s-3.373 1.513-3.844 1.726l-.276-.165a.32.32 0 0 0-.256-.032.378.378 0 0 0-.209.19l-.038.078.067.063c.138.122.316.3.479.473.158.158.331.351.522.556a.393.393 0 0 0 .55.067l.1-.071-.069-.091-.327-.484 1.129-.548.967 1.005-.565 1.107-.357-.232a.352.352 0 0 0-.268-.032.326.326 0 0 0-.2.17l-.035.079.065.063c.14.122.345.327.573.563.28.292.5.536.585.627a.4.4 0 0 0 .558.067l.085-.067-.054-.091-.264-.425 1.973-4.119zm-2.507 1.06 1.389-.67-.711 1.372z" transform="translate(-575.152)" style="fill:#606060"/>
        <path data-name="Trazado 756" d="M620.984 61.893c-.14-.008-.623-.012-1-.012s-.9 0-1.106.012c-.037-.111.02-.252.261-.307l.607-.134v-2.811c-.156.008-.466.016-.657.016-.214 0-.285-.074-.252-.3.288-.048 1.4-.323 1.612-.4v3.5l.9.157a.321.321 0 0 1-.372.284" transform="translate(-575.152)" style="fill:#606060"/>
        <path data-name="Trazado 757" d="M623.626 61.972c-.53 0-.967-.245-.967-.67a.3.3 0 0 1 .272-.3c.114.331.317.477.774.477.548 0 .861-.343.934-1.246a1.538 1.538 0 0 1-.834.2 1.079 1.079 0 0 1-1.123-1.174 1.367 1.367 0 0 1 1.352-1.328c.832 0 1.362.607 1.362 1.825 0 1.411-.565 2.211-1.77 2.211m1.027-2.168c.01-.729-.241-1.427-.743-1.427-.315 0-.5.351-.5.71 0 .587.232.914.682.914a1.537 1.537 0 0 0 .563-.1z" transform="translate(-575.152)" style="fill:#606060"/>
        <path data-name="Trazado 758" d="M627.91 61.964c-.685 0-1.253-.651-1.253-1.963 0-1.1.641-2.041 1.5-2.041.881 0 1.354.654 1.354 1.9 0 1.3-.7 2.1-1.6 2.1m.089-3.48c-.364 0-.617.449-.617 1.446 0 1.147.335 1.522.765 1.522.394 0 .633-.406.633-1.447 0-1.127-.333-1.521-.781-1.521" transform="translate(-575.152)" style="fill:#606060"/>
        <path data-name="Trazado 759" d="M632.674 58.7a4.409 4.409 0 0 1-.949-.1l-.034.824c1.1-.067 1.687.438 1.687 1.175a1.42 1.42 0 0 1-1.607 1.375c-.583 0-1.005-.288-1.005-.788a.318.318 0 0 1 .294-.3.834.834 0 0 0 .812.639.68.68 0 0 0 .732-.757c0-.694-.6-.985-1.513-.824l.115-1.875a13.776 13.776 0 0 0 2.1-.044c.141.343-.044.682-.633.682" transform="translate(-575.152)" style="fill:#606060"/>
        <path data-name="Trazado 760" d="M610.124 48.426a11.471 11.471 0 0 0 .848 5.679c.257.583-.306.394-.306.394-1.4-.386-2.361-1.816-2.875-3.365a10.8 10.8 0 0 1-.438-3.493 37.657 37.657 0 0 1 .8-5.813 105.956 105.956 0 0 1 3.662-11.275c.11-.28 0-.355-.122-.3a.939.939 0 0 0-.255.24c-5.135 7.56-8.556 13.188-8.556 13.188-.427.618-.609-.047-.609-.047.05-2.767.442-13.058.442-13.058.017-.268-.034-.342-.091-.354-.156-.012-.241.26-.241.26-.135.272-3.127 8.517-5.164 13.774a52.168 52.168 0 0 1-2.263 5.266 2.848 2.848 0 0 1-1.8 1.221 4.187 4.187 0 0 1-1.945.209c-.52-.1-.171-.5-.171-.5 1.738-1.167 4.108-5.029 6.022-9.227a137.557 137.557 0 0 0 5.181-13.439 1.919 1.919 0 0 0 .094-1.178.557.557 0 0 0-.488-.28c-3.585 0-5.666 4.15-5.666 4.15a5.949 5.949 0 0 0-.294 5.245c.152.415-.258.292-.258.292-3.129-1.19-1.937-4.938-1.937-4.938s1.393-6.487 12.2-5.695a.228.228 0 0 1 .183.252s-.565 9.274-.579 11.362c0 0 .108.6.39.083 0 0 5.315-7.929 7.833-11.413a.425.425 0 0 1 .406-.221s1.959-.071 3.969-.012c0 0 .283.043.266.217 0 .079-.028.181-.24.3 0 0-.822.261-1.847 1.79a13.243 13.243 0 0 0-1.263 2.573 119.137 119.137 0 0 0-4.16 12.75 30.319 30.319 0 0 0-.741 5.364" transform="translate(-575.152)" style="fill:#606060"/>
        <path data-name="Trazado 761" d="M603.271 51.346a7.04 7.04 0 0 1 7.3-6.55 6.259 6.259 0 0 1 2.922.638 3.571 3.571 0 0 1 1.923 2.14 4.05 4.05 0 0 1-.031 2.255 3.081 3.081 0 0 1-2.03 1.994c-.638.213-.209-.351-.209-.351a5.728 5.728 0 0 0 .552-2.317 3.133 3.133 0 0 0-2.2-3.346 5.365 5.365 0 0 0-3.062.165c-2.9 1.029-3.112 4.608-3.112 4.608a5.809 5.809 0 0 0 3.435 6.392c4.706 1.774 8.444-1.742 8.444-1.742a6.757 6.757 0 0 0 1.949-6.866 30.2 30.2 0 0 0-2.789-5.32 13.166 13.166 0 0 1-2.045-4 6.71 6.71 0 0 1 .347-4.343 7.436 7.436 0 0 1 6.063-4.245 10.111 10.111 0 0 1 4.858.4.3.3 0 0 1 .11.335 35.01 35.01 0 0 0-1.486 3.361.534.534 0 0 1-.234.277.3.3 0 0 1-.432-.331s.373-3.508-2.7-3.1a4.305 4.305 0 0 0-3.476 2.565 5.378 5.378 0 0 0-.114 3.812 18.65 18.65 0 0 0 2.158 3.925s2.834 4.028 3 6.306c0 0 1.021 5.986-5.77 9.25 0 0-5.4 2.636-10.245-.044a5.979 5.979 0 0 1-3.135-5.872" transform="translate(-575.152)" style="fill:#606060"/>
        <path data-name="Trazado 762" d="M628.553 50.826c-3.643.071-5.029-2.317-5.382-5.064-.512-3.961 1.437-9.132 1.437-9.132s3.2-11.891 11.3-11.335a9.31 9.31 0 0 1 3.24.883.362.362 0 0 1 .144.4s-1.744 3.909-1.841 5.427c0 0-.071.272-.419.158a2.427 2.427 0 0 1-1.441-3.205c.162-.445.311-.831.516-1.379a2.762 2.762 0 0 0 .264-1.021.308.308 0 0 0-.138-.232 2.389 2.389 0 0 0-1.012-.13 3.606 3.606 0 0 0-1.764.623c-3.307 2.281-5.963 11.4-5.963 11.4s-3.721 11.288.91 11.646c0 0 2.952.69 5.219-4.02a20.211 20.211 0 0 0 1.9-6.128s.031-.327.231-.383c.139-.035.27.1.382.442a8.035 8.035 0 0 1-.733 6.96 7.577 7.577 0 0 1-6.856 4.091" transform="translate(-575.152)" style="fill:#606060"/>
    </g>
</svg>
