<svg id="svg" version="1.1" xmlns="http://www.w3.org/2000/svg" xmlns:xlink="http://www.w3.org/1999/xlink" width="400" height="105.5393586005831" viewBox="0, 0, 400,105.5393586005831"><g id="svgg"><path id="path0" d="M50.700 25.675 C 48.866 26.411,48.667 26.999,48.667 31.661 C 48.667 34.004,48.599 35.649,48.494 35.844 C 48.328 36.155,48.076 36.167,41.696 36.167 C 33.494 36.167,32.472 36.377,30.342 38.507 C 28.176 40.673,28.167 40.742,28.167 54.005 L 28.167 65.107 28.625 66.011 C 29.859 68.445,33.009 68.630,34.582 66.362 C 35.078 65.646,35.082 65.617,35.166 62.864 C 35.267 59.522,35.361 59.403,36.700 60.906 C 38.016 62.383,37.782 62.333,43.474 62.333 C 47.871 62.333,48.476 62.365,48.566 62.597 C 48.621 62.742,48.667 65.550,48.667 68.836 C 48.667 75.157,48.693 75.403,49.469 76.224 C 51.168 78.020,54.318 77.498,55.156 75.281 C 55.269 74.981,55.333 72.653,55.333 68.836 C 55.333 65.550,55.379 62.742,55.434 62.597 C 55.524 62.365,56.125 62.333,60.476 62.333 C 66.106 62.332,65.862 62.386,67.184 60.850 C 68.530 59.288,68.833 59.706,68.833 63.123 C 68.833 65.572,68.839 65.611,69.317 66.364 C 70.718 68.572,73.875 68.462,75.167 66.159 L 75.583 65.417 75.583 53.833 L 75.583 42.250 75.187 41.167 C 74.488 39.251,73.362 38.022,71.409 37.041 C 69.784 36.224,69.181 36.167,62.164 36.167 C 55.922 36.167,55.672 36.155,55.506 35.844 C 55.402 35.649,55.333 34.038,55.333 31.772 C 55.333 27.716,55.280 27.401,54.448 26.522 C 53.557 25.581,51.880 25.202,50.700 25.675 M48.407 40.704 C 48.825 41.301,48.795 54.973,48.375 55.485 C 48.085 55.839,48.042 55.841,41.667 55.795 L 35.250 55.750 35.206 49.520 C 35.176 45.211,35.219 43.222,35.344 43.070 C 35.484 42.901,36.630 42.840,40.402 42.801 L 45.279 42.750 45.949 42.286 C 46.318 42.030,46.859 41.486,47.153 41.077 C 47.751 40.244,48.028 40.162,48.407 40.704 M56.554 40.781 C 58.193 42.805,58.285 42.831,63.866 42.832 C 68.273 42.833,68.317 42.837,68.574 43.204 C 68.966 43.764,68.964 55.179,68.571 55.571 C 68.176 55.967,55.991 55.967,55.595 55.571 C 55.187 55.163,55.200 41.090,55.609 40.638 C 55.978 40.230,56.126 40.253,56.554 40.781 " stroke="none" fill="#fcfbfb" fill-rule="evenodd"></path><path id="path1" d="M47.833 8.160 C 47.696 8.238,46.770 8.382,45.776 8.481 C 43.596 8.698,40.615 9.177,40.500 9.329 C 40.454 9.389,39.555 9.645,38.502 9.898 C 37.449 10.151,36.549 10.411,36.502 10.475 C 36.455 10.540,35.742 10.812,34.917 11.080 C 34.092 11.347,33.378 11.622,33.330 11.689 C 33.283 11.757,32.701 12.013,32.038 12.259 C 31.376 12.504,30.833 12.758,30.833 12.822 C 30.833 12.886,30.402 13.113,29.875 13.325 C 29.348 13.538,28.842 13.798,28.750 13.903 C 28.658 14.008,28.152 14.310,27.625 14.574 C 27.098 14.838,26.667 15.101,26.667 15.159 C 26.667 15.216,26.254 15.479,25.750 15.743 C 25.246 16.006,24.833 16.278,24.833 16.345 C 24.833 16.413,24.477 16.675,24.042 16.928 C 23.606 17.181,23.208 17.451,23.156 17.528 C 23.105 17.605,22.805 17.856,22.490 18.087 C 21.156 19.061,17.453 22.602,16.124 24.176 C 15.780 24.583,15.367 25.066,15.207 25.249 C 15.047 25.431,14.748 25.828,14.543 26.129 C 14.337 26.431,14.022 26.836,13.843 27.028 C 13.663 27.221,13.397 27.631,13.250 27.939 C 13.104 28.248,12.925 28.500,12.853 28.500 C 12.781 28.500,12.506 28.912,12.243 29.417 C 11.979 29.921,11.719 30.333,11.666 30.333 C 11.613 30.333,11.353 30.765,11.089 31.292 C 10.825 31.819,10.562 32.287,10.506 32.333 C 10.450 32.379,10.189 32.904,9.927 33.500 C 9.665 34.096,9.405 34.621,9.350 34.667 C 9.237 34.761,8.943 35.517,8.539 36.750 C 8.389 37.208,8.216 37.621,8.155 37.667 C 8.023 37.766,7.167 40.704,7.167 41.059 C 7.167 41.195,7.086 41.333,6.986 41.366 C 6.803 41.427,6.014 45.646,6.005 46.611 C 6.002 46.901,5.906 47.170,5.792 47.208 C 5.631 47.262,5.583 48.537,5.583 52.833 C 5.583 57.130,5.631 58.405,5.792 58.458 C 5.906 58.497,6.000 58.754,6.000 59.031 C 6.000 59.775,6.831 64.228,6.989 64.330 C 7.064 64.377,7.178 64.679,7.243 65.000 C 7.450 66.021,8.002 67.806,8.128 67.862 C 8.195 67.892,8.461 68.573,8.719 69.375 C 8.976 70.177,9.244 70.833,9.314 70.833 C 9.384 70.833,9.649 71.340,9.903 71.958 C 10.157 72.577,10.417 73.121,10.482 73.167 C 10.546 73.212,10.816 73.700,11.082 74.250 C 11.348 74.800,11.700 75.395,11.866 75.573 C 12.031 75.751,12.167 75.984,12.167 76.090 C 12.167 76.197,12.354 76.487,12.583 76.734 C 12.812 76.982,13.000 77.219,13.000 77.262 C 13.000 77.384,13.894 78.730,14.099 78.917 C 14.199 79.008,14.453 79.333,14.662 79.638 C 14.870 79.943,15.201 80.373,15.396 80.594 C 16.799 82.183,17.868 83.336,18.583 84.032 C 19.042 84.478,19.759 85.178,20.178 85.588 C 20.596 85.998,21.013 86.333,21.105 86.333 C 21.196 86.333,21.437 86.558,21.640 86.833 C 21.844 87.108,22.115 87.333,22.243 87.333 C 22.371 87.333,22.623 87.521,22.804 87.750 C 22.984 87.979,23.188 88.167,23.258 88.167 C 23.328 88.167,23.631 88.354,23.931 88.583 C 24.232 88.813,24.550 89.000,24.638 89.000 C 24.726 89.000,24.835 89.096,24.880 89.214 C 24.925 89.332,25.308 89.606,25.731 89.824 C 26.154 90.041,26.500 90.277,26.500 90.347 C 26.500 90.418,26.931 90.679,27.458 90.927 C 27.985 91.175,28.454 91.430,28.500 91.493 C 28.546 91.557,29.033 91.828,29.583 92.096 C 30.133 92.364,30.626 92.642,30.679 92.713 C 30.732 92.784,31.291 93.029,31.921 93.258 C 32.552 93.486,33.109 93.737,33.159 93.815 C 33.209 93.892,33.925 94.172,34.750 94.435 C 35.575 94.699,36.290 94.969,36.340 95.035 C 36.389 95.102,37.252 95.360,38.257 95.608 C 39.261 95.856,40.121 96.106,40.167 96.164 C 40.299 96.329,42.990 96.807,45.042 97.029 C 46.073 97.141,46.969 97.310,47.033 97.403 C 47.107 97.513,48.883 97.574,52.000 97.574 C 55.117 97.574,56.893 97.513,56.967 97.403 C 57.031 97.310,57.943 97.140,58.993 97.026 C 61.023 96.805,63.528 96.352,63.667 96.180 C 63.712 96.123,64.627 95.865,65.699 95.607 C 66.771 95.349,67.671 95.085,67.699 95.020 C 67.727 94.955,68.425 94.689,69.250 94.429 C 70.075 94.169,70.787 93.902,70.833 93.835 C 70.947 93.669,72.491 93.000,72.759 93.000 C 72.879 93.000,73.075 92.906,73.196 92.791 C 73.318 92.676,73.867 92.361,74.417 92.090 C 74.967 91.819,75.454 91.551,75.500 91.494 C 75.546 91.437,75.996 91.171,76.500 90.904 C 77.004 90.636,77.518 90.321,77.642 90.203 C 77.767 90.085,78.160 89.840,78.517 89.658 C 78.874 89.476,79.167 89.253,79.167 89.163 C 79.167 89.073,79.247 89.000,79.344 89.000 C 79.507 89.000,80.639 88.225,80.833 87.980 C 80.879 87.923,81.209 87.678,81.567 87.436 C 82.379 86.888,82.373 86.894,85.500 83.779 C 86.921 82.365,88.369 80.842,88.719 80.395 C 90.310 78.361,90.997 77.401,90.999 77.208 C 90.999 77.094,91.073 77.000,91.163 77.000 C 91.253 77.000,91.470 76.719,91.645 76.375 C 91.821 76.031,92.235 75.339,92.565 74.837 C 92.896 74.335,93.167 73.840,93.167 73.738 C 93.167 73.635,93.317 73.378,93.500 73.167 C 93.683 72.955,93.833 72.719,93.833 72.641 C 93.833 72.563,94.158 71.805,94.555 70.958 C 94.952 70.110,95.380 69.079,95.506 68.667 C 95.633 68.254,95.784 67.879,95.843 67.833 C 95.976 67.731,96.399 66.396,96.689 65.167 C 96.808 64.662,96.968 64.206,97.045 64.151 C 97.203 64.039,97.989 59.692,97.996 58.889 C 97.998 58.599,98.094 58.330,98.208 58.292 C 98.494 58.197,98.510 47.913,98.225 47.317 C 98.120 47.097,97.948 46.279,97.843 45.500 C 97.548 43.315,97.136 41.333,96.977 41.333 C 96.898 41.333,96.833 41.216,96.833 41.073 C 96.833 40.700,95.978 37.766,95.840 37.667 C 95.777 37.621,95.511 36.965,95.250 36.208 C 94.989 35.452,94.725 34.833,94.664 34.833 C 94.603 34.833,94.468 34.552,94.365 34.208 C 94.262 33.864,93.913 33.142,93.589 32.604 C 93.265 32.066,93.000 31.577,93.000 31.516 C 93.000 31.455,92.734 30.995,92.409 30.494 C 92.083 29.993,91.700 29.340,91.556 29.042 C 91.413 28.744,91.227 28.500,91.144 28.500 C 91.060 28.500,90.926 28.331,90.845 28.125 C 90.379 26.935,85.874 21.780,83.655 19.896 C 82.930 19.281,82.539 18.959,80.847 17.580 C 80.442 17.250,79.898 16.870,79.639 16.736 C 79.379 16.601,79.167 16.431,79.167 16.357 C 79.167 16.283,78.754 16.006,78.250 15.743 C 77.746 15.479,77.333 15.219,77.333 15.166 C 77.333 15.113,76.902 14.852,76.375 14.586 C 75.848 14.320,75.326 14.013,75.215 13.903 C 75.104 13.794,74.598 13.532,74.090 13.321 C 73.582 13.111,73.167 12.888,73.167 12.825 C 73.167 12.762,72.585 12.501,71.875 12.244 C 71.165 11.987,70.544 11.718,70.496 11.647 C 70.447 11.576,69.772 11.314,68.996 11.065 C 68.219 10.816,67.546 10.561,67.500 10.498 C 67.454 10.434,66.592 10.181,65.583 9.935 C 64.575 9.690,63.600 9.420,63.417 9.336 C 62.751 9.032,58.102 8.333,56.744 8.333 C 56.335 8.333,56.000 8.258,56.000 8.167 C 56.000 7.961,48.199 7.954,47.833 8.160 M137.542 9.108 C 137.335 9.153,137.167 9.260,137.167 9.345 C 137.167 9.430,137.064 9.500,136.938 9.500 C 136.087 9.500,134.793 10.437,133.231 12.185 C 132.878 12.579,132.333 14.235,132.333 14.913 C 132.333 15.236,132.258 15.500,132.167 15.500 C 132.075 15.500,132.000 15.762,132.000 16.083 C 132.000 16.404,132.075 16.667,132.167 16.667 C 132.258 16.667,132.333 16.926,132.333 17.244 C 132.333 17.970,132.955 19.660,133.266 19.779 C 133.395 19.829,133.500 19.955,133.500 20.061 C 133.500 20.381,134.794 21.610,135.460 21.923 C 135.803 22.084,136.127 22.283,136.181 22.366 C 136.695 23.152,142.314 23.138,142.828 22.349 C 142.877 22.274,143.179 22.079,143.500 21.915 C 144.577 21.365,145.668 20.039,146.436 18.348 C 146.890 17.347,146.782 13.828,146.282 13.291 C 146.173 13.174,145.933 12.784,145.750 12.424 C 145.124 11.194,142.994 9.509,142.056 9.502 C 141.949 9.501,141.832 9.412,141.796 9.304 C 141.728 9.101,138.296 8.943,137.542 9.108 M53.833 25.815 C 54.278 26.086,54.785 26.600,55.083 27.080 L 55.583 27.889 55.667 31.903 L 55.750 35.917 62.667 36.010 C 68.560 36.090,69.704 36.145,70.403 36.385 C 73.085 37.308,75.189 39.611,75.665 42.148 C 75.931 43.564,75.876 64.923,75.605 65.682 C 75.006 67.358,73.821 68.084,71.866 67.974 C 69.381 67.833,68.500 66.462,68.500 62.733 C 68.500 59.888,68.432 59.794,67.273 61.054 C 65.781 62.676,65.821 62.667,60.387 62.667 L 55.685 62.667 55.634 68.875 L 55.583 75.083 55.033 75.876 C 53.276 78.406,49.342 77.770,48.496 74.820 C 48.404 74.499,48.333 71.732,48.333 68.459 L 48.333 62.667 43.616 62.667 L 38.899 62.667 38.023 62.230 C 37.480 61.960,36.946 61.520,36.615 61.072 C 35.535 59.606,35.334 59.839,35.332 62.552 C 35.332 63.761,35.251 65.050,35.152 65.417 C 34.190 68.988,28.999 68.926,28.179 65.333 C 27.948 64.318,27.943 43.793,28.174 42.333 C 28.602 39.632,30.574 37.398,33.375 36.443 C 34.353 36.110,34.839 36.083,41.333 36.002 L 48.250 35.917 48.333 31.833 C 48.424 27.395,48.466 27.199,49.531 26.226 C 50.661 25.194,52.520 25.017,53.833 25.815 M176.750 27.584 C 175.833 27.714,174.783 27.931,174.417 28.065 C 174.050 28.200,173.262 28.441,172.667 28.600 C 171.172 29.000,166.610 31.219,166.320 31.688 C 166.267 31.774,165.989 31.974,165.703 32.131 C 164.263 32.921,160.444 36.758,159.533 38.329 C 159.293 38.744,159.009 39.158,158.903 39.250 C 158.797 39.342,158.532 39.792,158.314 40.250 C 158.095 40.708,157.868 41.121,157.808 41.167 C 157.642 41.294,156.833 43.177,156.833 43.437 C 156.833 43.563,156.770 43.667,156.693 43.667 C 156.616 43.667,156.420 44.135,156.258 44.708 C 156.095 45.281,155.896 45.967,155.814 46.233 C 155.733 46.499,155.667 46.886,155.667 47.094 C 155.667 47.302,155.596 47.497,155.511 47.528 C 154.611 47.848,154.611 82.333,155.510 82.333 C 155.584 82.333,155.697 82.500,155.762 82.703 C 156.003 83.463,157.557 84.754,158.602 85.063 C 159.142 85.222,159.714 85.423,159.873 85.510 C 160.259 85.719,162.000 85.711,162.000 85.500 C 162.000 85.408,162.169 85.332,162.375 85.331 C 162.950 85.327,164.031 84.907,164.468 84.517 C 164.685 84.324,164.917 84.167,164.985 84.167 C 165.178 84.167,165.833 83.418,165.833 83.198 C 165.833 83.089,165.913 83.000,166.009 83.000 C 166.106 83.000,166.350 82.644,166.551 82.208 L 166.917 81.417 167.000 65.681 C 167.066 53.299,167.128 49.930,167.292 49.875 C 167.406 49.837,167.500 49.671,167.500 49.507 C 167.500 48.948,168.334 46.652,168.668 46.294 C 168.850 46.098,169.000 45.843,169.000 45.727 C 169.000 45.612,169.375 45.067,169.833 44.516 C 170.292 43.965,170.667 43.436,170.667 43.341 C 170.667 43.245,170.726 43.167,170.799 43.167 C 170.872 43.167,171.416 42.755,172.008 42.252 C 172.599 41.749,173.168 41.337,173.271 41.336 C 173.375 41.334,173.553 41.220,173.668 41.081 C 173.896 40.807,175.243 40.167,175.593 40.167 C 175.712 40.167,175.914 40.062,176.041 39.935 C 177.025 38.951,184.986 38.844,185.660 39.805 C 185.709 39.876,186.125 40.070,186.583 40.236 C 187.042 40.402,187.841 40.829,188.360 41.186 C 188.879 41.542,189.350 41.833,189.407 41.833 C 189.810 41.833,192.833 45.360,192.833 45.830 C 192.833 45.923,192.897 46.000,192.975 46.000 C 193.125 46.000,194.001 47.947,194.000 48.278 C 194.000 48.385,194.075 48.497,194.167 48.528 C 194.746 48.721,194.833 50.915,194.843 65.640 C 194.853 79.618,194.912 81.665,195.312 81.798 C 195.415 81.833,195.500 81.970,195.500 82.103 C 195.500 82.776,197.053 84.436,198.083 84.862 C 199.828 85.585,202.000 85.939,202.000 85.500 C 202.000 85.408,202.163 85.333,202.363 85.333 C 204.092 85.333,206.494 83.183,206.762 81.395 C 206.822 80.994,206.938 80.667,207.019 80.667 C 207.104 80.667,207.167 74.240,207.167 65.583 C 207.167 55.639,207.110 50.500,207.000 50.500 C 206.908 50.500,206.833 50.181,206.832 49.792 C 206.830 48.533,206.135 44.883,205.857 44.667 C 205.798 44.621,205.528 43.927,205.257 43.125 C 204.986 42.323,204.712 41.667,204.648 41.667 C 204.585 41.667,204.451 41.434,204.352 41.149 C 204.253 40.864,203.870 40.190,203.502 39.651 C 203.134 39.112,202.833 38.611,202.833 38.539 C 202.833 38.467,202.613 38.147,202.343 37.829 C 202.073 37.510,201.642 36.988,201.385 36.668 C 200.571 35.656,197.805 33.000,197.564 33.000 C 197.437 33.000,197.333 32.926,197.333 32.835 C 197.333 32.745,197.015 32.471,196.625 32.227 C 196.235 31.983,195.894 31.727,195.866 31.657 C 195.839 31.588,195.389 31.318,194.866 31.059 C 194.344 30.799,193.877 30.533,193.827 30.466 C 193.778 30.400,193.441 30.223,193.077 30.072 C 192.714 29.921,191.964 29.586,191.410 29.329 C 190.857 29.071,189.882 28.724,189.243 28.557 C 188.605 28.391,188.045 28.203,187.998 28.140 C 187.549 27.536,179.791 27.152,176.750 27.584 M298.167 27.488 C 296.015 27.794,294.833 28.040,294.833 28.182 C 294.833 28.265,294.707 28.333,294.552 28.333 C 294.042 28.333,292.095 28.869,291.417 29.196 C 291.050 29.372,290.262 29.712,289.667 29.950 C 289.071 30.189,288.543 30.444,288.494 30.519 C 288.445 30.593,288.144 30.763,287.825 30.896 C 287.506 31.029,286.854 31.407,286.377 31.736 C 285.899 32.064,285.438 32.333,285.351 32.333 C 285.265 32.333,284.983 32.558,284.723 32.833 C 284.463 33.108,284.163 33.333,284.054 33.333 C 283.946 33.333,283.710 33.521,283.530 33.750 C 283.350 33.979,283.138 34.168,283.059 34.169 C 282.879 34.171,279.667 37.392,279.667 37.570 C 279.667 37.643,279.479 37.850,279.250 38.030 C 279.021 38.210,278.833 38.446,278.833 38.554 C 278.833 38.663,278.608 38.963,278.333 39.223 C 278.058 39.483,277.833 39.765,277.833 39.851 C 277.833 39.938,277.564 40.399,277.236 40.877 C 276.907 41.354,276.529 42.006,276.396 42.325 C 276.263 42.644,276.096 42.945,276.026 42.994 C 275.956 43.043,275.726 43.496,275.514 44.000 C 275.303 44.504,274.961 45.292,274.755 45.750 C 274.548 46.208,274.249 47.108,274.090 47.750 C 273.930 48.392,273.735 48.996,273.655 49.094 C 272.676 50.295,272.707 64.667,273.689 64.667 C 273.768 64.667,273.833 64.760,273.832 64.875 C 273.830 65.327,274.740 68.263,274.947 68.470 C 275.068 68.591,275.167 68.788,275.167 68.907 C 275.167 69.161,275.830 70.711,275.990 70.833 C 276.051 70.879,276.312 71.329,276.572 71.833 C 276.831 72.337,277.100 72.787,277.170 72.833 C 277.240 72.879,277.463 73.236,277.666 73.627 C 277.869 74.017,278.123 74.392,278.230 74.460 C 278.337 74.528,278.565 74.808,278.736 75.083 C 279.258 75.921,282.069 78.849,283.343 79.882 C 283.658 80.139,284.189 80.570,284.522 80.841 C 284.855 81.112,285.173 81.333,285.229 81.333 C 285.284 81.333,285.823 81.671,286.426 82.083 C 287.028 82.496,287.626 82.833,287.754 82.833 C 287.882 82.833,288.121 82.974,288.285 83.146 C 288.449 83.318,288.771 83.515,289.000 83.583 C 289.229 83.651,289.956 83.958,290.615 84.264 C 291.273 84.570,292.323 84.953,292.948 85.116 C 293.572 85.278,294.121 85.458,294.167 85.515 C 294.296 85.676,296.913 86.151,298.667 86.331 C 303.109 86.788,309.233 86.269,309.564 85.408 C 309.615 85.275,309.759 85.167,309.884 85.167 C 310.194 85.167,311.318 83.902,311.736 83.083 C 312.240 82.096,312.238 78.913,311.732 77.833 C 311.155 76.601,309.540 75.167,308.729 75.167 C 308.618 75.167,308.502 75.091,308.472 74.998 C 308.353 74.644,306.461 74.501,304.434 74.693 C 301.823 74.941,296.908 74.411,296.500 73.838 C 296.454 73.773,296.267 73.676,296.083 73.621 C 295.216 73.363,294.226 72.954,294.000 72.760 C 293.862 72.643,293.383 72.335,292.935 72.077 C 292.002 71.539,291.807 71.377,290.043 69.655 C 288.741 68.386,287.409 66.569,286.918 65.395 C 286.773 65.047,286.596 64.722,286.525 64.673 C 286.400 64.586,285.802 62.763,285.565 61.750 C 285.501 61.475,285.390 61.211,285.319 61.164 C 284.806 60.823,284.793 53.031,285.305 52.674 C 285.376 52.624,285.598 51.983,285.797 51.250 C 286.184 49.825,287.084 47.908,287.961 46.637 C 288.258 46.208,288.500 45.809,288.500 45.750 C 288.500 45.692,288.744 45.392,289.042 45.083 C 289.340 44.775,289.702 44.386,289.846 44.220 C 289.991 44.053,290.470 43.617,290.912 43.250 C 291.353 42.883,291.841 42.471,291.995 42.333 C 292.392 41.980,293.170 41.514,293.708 41.309 C 293.960 41.213,294.167 41.074,294.167 41.001 C 294.167 40.927,294.748 40.657,295.458 40.401 C 296.169 40.145,296.787 39.883,296.833 39.820 C 297.501 38.893,307.367 38.892,307.998 39.818 C 308.045 39.886,308.496 40.074,309.000 40.235 C 309.504 40.396,310.404 40.806,311.000 41.147 C 311.596 41.488,312.215 41.817,312.375 41.878 C 312.535 41.939,312.667 42.061,312.667 42.148 C 312.667 42.235,312.948 42.477,313.292 42.686 C 314.001 43.116,315.841 44.958,316.436 45.833 C 316.654 46.154,317.016 46.679,317.240 47.000 C 317.464 47.321,317.732 47.827,317.837 48.125 C 317.941 48.423,318.093 48.667,318.174 48.667 C 318.256 48.667,318.521 49.323,318.764 50.125 C 319.007 50.927,319.269 51.663,319.347 51.760 C 319.892 52.441,319.999 55.034,320.003 67.750 C 320.006 75.395,320.073 80.697,320.171 81.123 C 320.354 81.916,321.242 83.467,321.708 83.806 C 321.876 83.928,322.142 84.159,322.298 84.318 C 322.673 84.699,323.705 85.167,324.429 85.284 C 324.748 85.336,325.048 85.443,325.097 85.522 C 325.222 85.725,327.167 85.704,327.167 85.500 C 327.167 85.408,327.335 85.332,327.542 85.331 C 329.481 85.318,332.000 82.807,332.000 80.887 C 332.000 80.674,332.075 80.500,332.167 80.500 C 332.276 80.500,332.333 76.194,332.333 67.917 C 332.333 60.996,332.270 55.333,332.192 55.333 C 332.114 55.333,332.004 54.602,331.948 53.708 C 331.823 51.735,331.243 48.442,331.005 48.363 C 330.911 48.331,330.833 48.185,330.833 48.037 C 330.833 47.584,329.979 45.000,329.830 45.000 C 329.752 45.000,329.641 44.831,329.583 44.625 C 329.346 43.784,328.786 42.500,328.657 42.500 C 328.581 42.500,328.317 42.050,328.070 41.500 C 327.823 40.950,327.558 40.500,327.481 40.500 C 327.403 40.500,327.185 40.196,326.996 39.825 C 326.807 39.454,326.542 39.109,326.409 39.057 C 326.276 39.006,326.167 38.871,326.167 38.756 C 326.167 38.209,321.081 33.167,320.530 33.167 C 320.428 33.167,320.272 33.031,320.184 32.865 C 320.095 32.700,319.680 32.388,319.261 32.172 C 318.843 31.957,318.500 31.734,318.500 31.676 C 318.500 31.619,318.013 31.349,317.417 31.078 C 316.821 30.806,316.334 30.539,316.334 30.485 C 316.333 30.431,315.790 30.170,315.125 29.907 C 314.460 29.643,313.879 29.377,313.833 29.315 C 313.744 29.195,311.499 28.500,311.201 28.500 C 311.102 28.500,310.811 28.413,310.553 28.308 C 309.838 28.015,309.840 28.015,308.417 27.740 C 306.907 27.448,299.693 27.270,298.167 27.488 M365.417 27.435 C 362.739 27.821,361.583 28.029,361.507 28.140 C 361.457 28.212,360.710 28.471,359.845 28.715 C 358.981 28.960,358.231 29.224,358.179 29.303 C 358.126 29.382,357.708 29.584,357.250 29.752 C 356.792 29.919,356.290 30.164,356.134 30.296 C 355.979 30.427,355.423 30.748,354.900 31.009 C 354.376 31.269,353.903 31.550,353.849 31.633 C 353.794 31.716,353.431 31.983,353.042 32.227 C 352.652 32.471,352.333 32.745,352.333 32.835 C 352.333 32.926,352.229 33.000,352.101 33.000 C 351.973 33.000,351.637 33.262,351.356 33.583 C 351.074 33.904,350.776 34.167,350.695 34.167 C 350.613 34.167,350.189 34.560,349.753 35.042 C 349.316 35.523,348.755 36.142,348.505 36.417 C 348.255 36.692,347.910 37.142,347.738 37.417 C 347.566 37.692,347.334 37.974,347.223 38.044 C 347.112 38.114,346.853 38.508,346.648 38.919 C 346.442 39.330,346.222 39.667,346.158 39.667 C 346.094 39.667,345.882 40.036,345.688 40.487 C 345.494 40.939,345.241 41.407,345.126 41.529 C 344.904 41.763,344.643 42.387,344.196 43.750 C 344.046 44.208,343.865 44.626,343.793 44.678 C 343.630 44.796,342.837 48.259,342.835 48.861 C 342.834 49.106,342.740 49.337,342.625 49.375 C 342.341 49.470,342.317 81.281,342.601 81.464 C 342.702 81.530,342.879 81.871,342.994 82.223 C 343.432 83.568,345.271 85.019,346.858 85.273 C 347.215 85.330,347.548 85.442,347.597 85.522 C 347.646 85.602,348.052 85.667,348.500 85.667 C 348.948 85.667,349.354 85.602,349.403 85.522 C 349.452 85.442,349.801 85.328,350.178 85.267 C 351.700 85.024,353.581 83.528,354.006 82.223 C 354.121 81.871,354.298 81.530,354.399 81.464 C 354.530 81.380,354.609 76.831,354.673 65.631 C 354.766 49.343,354.820 48.163,355.493 47.667 C 355.555 47.621,355.845 47.096,356.137 46.500 C 356.783 45.183,357.256 44.521,358.385 43.362 C 359.721 41.990,360.081 41.667,360.274 41.667 C 360.371 41.667,360.647 41.486,360.886 41.264 C 361.125 41.043,361.829 40.659,362.452 40.412 C 363.074 40.165,363.660 39.901,363.754 39.825 C 364.889 38.914,373.333 38.925,373.333 39.837 C 373.333 39.905,373.577 40.049,373.875 40.159 C 374.584 40.419,375.561 40.887,375.667 41.015 C 375.712 41.071,376.065 41.314,376.450 41.556 C 377.342 42.114,379.145 43.894,379.644 44.708 C 379.855 45.052,380.086 45.333,380.157 45.333 C 380.229 45.333,380.497 45.802,380.752 46.375 C 381.008 46.948,381.264 47.454,381.321 47.500 C 381.497 47.640,381.975 49.356,382.157 50.500 C 382.265 51.183,382.331 56.962,382.335 66.125 C 382.338 75.495,382.398 80.667,382.504 80.667 C 382.593 80.667,382.670 80.835,382.674 81.042 C 382.706 82.702,384.605 84.736,386.544 85.187 C 387.070 85.309,387.500 85.467,387.500 85.538 C 387.500 85.718,389.460 85.700,389.572 85.519 C 389.622 85.438,389.923 85.322,390.241 85.263 C 391.015 85.118,392.333 84.525,392.333 84.322 C 392.333 84.233,392.506 84.081,392.716 83.985 C 393.113 83.804,394.000 82.495,394.000 82.090 C 394.000 81.964,394.082 81.834,394.182 81.800 C 394.902 81.560,394.877 47.949,394.157 47.694 C 394.071 47.664,394.000 47.483,394.000 47.292 C 394.000 46.735,393.133 43.667,392.976 43.667 C 392.898 43.667,392.833 43.563,392.833 43.437 C 392.833 43.177,392.025 41.294,391.859 41.167 C 391.799 41.121,391.532 40.618,391.265 40.049 C 390.998 39.480,390.679 38.976,390.556 38.929 C 390.434 38.882,390.333 38.758,390.333 38.654 C 390.333 38.454,388.884 36.553,388.170 35.818 C 387.939 35.580,387.593 35.205,387.401 34.984 C 387.209 34.764,386.693 34.283,386.255 33.917 C 385.817 33.550,385.227 33.045,384.945 32.795 C 384.663 32.544,384.185 32.222,383.883 32.078 C 383.581 31.935,383.333 31.760,383.333 31.689 C 383.333 31.460,379.573 29.506,379.125 29.502 C 378.965 29.501,378.833 29.432,378.833 29.349 C 378.833 29.189,376.951 28.501,376.509 28.499 C 376.367 28.498,376.032 28.384,375.766 28.246 C 374.642 27.659,367.655 27.112,365.417 27.435 M261.963 27.666 C 261.530 27.742,260.930 27.933,260.630 28.090 C 260.329 28.247,259.873 28.486,259.616 28.621 C 259.359 28.756,259.060 29.009,258.951 29.183 C 258.842 29.358,258.689 29.500,258.610 29.500 C 258.447 29.500,255.168 32.230,254.417 32.993 C 254.141 33.272,253.828 33.500,253.720 33.500 C 253.611 33.500,253.362 33.725,253.167 34.000 C 252.971 34.275,252.705 34.500,252.577 34.500 C 252.448 34.500,252.177 34.725,251.974 35.000 C 251.770 35.275,251.512 35.500,251.400 35.500 C 251.288 35.500,251.016 35.706,250.796 35.958 C 250.576 36.210,250.277 36.492,250.132 36.583 C 249.987 36.675,249.129 37.366,248.226 38.119 C 246.646 39.436,246.270 39.752,244.934 40.896 C 243.668 41.979,243.058 42.496,242.250 43.173 C 241.792 43.556,241.229 44.032,241.000 44.230 C 240.771 44.428,240.286 44.814,239.922 45.087 C 238.867 45.879,238.805 45.933,237.667 47.051 C 236.447 48.249,235.833 48.920,235.833 49.056 C 235.833 49.107,235.564 49.608,235.235 50.170 C 234.615 51.227,234.000 53.073,234.000 53.874 C 234.000 54.127,233.925 54.333,233.833 54.333 C 233.732 54.333,233.667 55.083,233.667 56.250 C 233.667 57.417,233.732 58.167,233.833 58.167 C 233.925 58.167,234.000 58.373,234.000 58.626 C 234.000 59.427,234.615 61.273,235.235 62.330 C 235.564 62.892,235.833 63.396,235.833 63.450 C 235.833 63.504,235.984 63.706,236.168 63.899 C 236.353 64.092,236.941 64.719,237.476 65.292 C 238.011 65.865,238.511 66.333,238.586 66.333 C 238.718 66.333,238.965 66.544,240.257 67.760 C 240.592 68.075,240.912 68.333,240.966 68.333 C 241.021 68.333,241.370 68.625,241.741 68.981 C 242.926 70.118,244.115 71.167,244.218 71.167 C 244.274 71.167,244.722 71.560,245.214 72.042 C 245.707 72.523,246.511 73.254,247.001 73.667 C 247.491 74.079,248.127 74.660,248.416 74.958 C 248.704 75.256,249.008 75.500,249.092 75.500 C 249.175 75.500,249.513 75.781,249.842 76.125 C 250.172 76.469,250.844 77.087,251.336 77.500 C 251.827 77.912,252.689 78.662,253.251 79.167 C 253.813 79.671,254.643 80.406,255.095 80.799 C 256.277 81.830,257.225 82.665,257.970 83.333 C 258.327 83.654,258.821 84.097,259.068 84.317 C 259.605 84.797,260.574 85.333,260.902 85.333 C 261.032 85.333,261.170 85.427,261.208 85.542 C 261.297 85.807,265.117 85.840,265.298 85.576 C 265.363 85.481,265.720 85.305,266.091 85.186 C 268.036 84.560,269.407 82.190,269.304 79.629 C 269.266 78.683,269.159 77.931,269.054 77.865 C 268.953 77.802,268.761 77.487,268.627 77.167 C 268.396 76.616,266.681 74.808,265.815 74.202 C 265.596 74.049,265.241 73.716,265.027 73.462 C 264.812 73.208,264.572 73.000,264.492 73.000 C 264.413 73.000,263.940 72.606,263.442 72.125 C 262.943 71.644,262.181 70.950,261.748 70.583 C 261.315 70.217,260.674 69.654,260.324 69.333 C 259.973 69.012,259.297 68.412,258.821 68.000 C 258.345 67.587,257.830 67.137,257.677 67.000 C 256.202 65.678,255.781 65.308,254.925 64.583 C 254.384 64.125,253.716 63.506,253.440 63.208 C 253.164 62.910,252.866 62.667,252.777 62.667 C 252.688 62.667,252.308 62.362,251.933 61.989 C 251.151 61.212,251.225 61.279,248.625 59.016 C 247.548 58.079,246.667 57.369,246.667 57.438 C 246.667 57.508,246.479 57.311,246.250 57.000 C 246.021 56.689,245.833 56.361,245.833 56.270 C 245.833 56.030,246.557 55.002,246.726 55.001 C 246.905 55.000,249.049 53.243,249.627 52.625 C 249.862 52.373,250.153 52.167,250.273 52.167 C 250.392 52.167,250.656 51.942,250.860 51.667 C 251.063 51.392,251.321 51.167,251.433 51.167 C 251.545 51.167,251.826 50.942,252.058 50.667 C 252.289 50.392,252.531 50.167,252.595 50.167 C 252.660 50.167,253.483 49.492,254.426 48.667 C 255.368 47.842,256.206 47.167,256.288 47.167 C 256.370 47.167,256.604 46.942,256.807 46.667 C 257.010 46.392,257.282 46.167,257.410 46.167 C 257.539 46.167,257.804 45.942,258.000 45.667 C 258.196 45.392,258.450 45.167,258.564 45.167 C 258.678 45.167,259.009 44.923,259.298 44.625 C 259.807 44.101,260.275 43.694,261.499 42.716 C 261.819 42.460,262.269 42.089,262.499 41.893 C 263.555 40.992,265.813 39.098,266.405 38.616 C 267.629 37.620,268.416 36.728,268.648 36.072 C 268.776 35.711,268.962 35.364,269.063 35.299 C 269.428 35.064,269.292 32.172,268.875 31.293 C 268.669 30.859,268.500 30.436,268.500 30.353 C 268.500 30.114,266.829 28.500,266.582 28.500 C 266.458 28.500,266.256 28.399,266.132 28.275 C 265.603 27.746,263.368 27.419,261.963 27.666 M137.958 27.943 C 137.706 27.987,137.500 28.092,137.500 28.178 C 137.500 28.263,137.406 28.334,137.292 28.335 C 136.190 28.343,134.182 30.288,133.754 31.761 C 133.358 33.122,133.371 80.421,133.767 81.785 C 134.262 83.487,136.523 85.333,138.113 85.333 C 138.326 85.333,138.500 85.408,138.500 85.500 C 138.500 85.704,140.278 85.724,140.403 85.522 C 140.452 85.442,140.801 85.328,141.178 85.267 C 142.915 84.990,144.640 83.421,145.303 81.517 C 145.571 80.745,145.587 32.902,145.319 31.936 C 145.220 31.581,144.995 31.135,144.819 30.947 C 144.644 30.758,144.500 30.524,144.500 30.427 C 144.500 30.083,142.825 28.717,142.126 28.492 C 141.736 28.367,141.367 28.191,141.305 28.103 C 141.186 27.930,138.719 27.813,137.958 27.943 M219.750 27.934 C 219.567 27.980,219.267 28.079,219.083 28.155 C 218.900 28.231,218.420 28.431,218.018 28.600 C 216.837 29.093,215.333 30.756,215.333 31.569 C 215.333 31.699,215.240 31.837,215.125 31.875 C 214.819 31.977,214.819 81.523,215.125 81.625 C 215.240 81.663,215.333 81.811,215.333 81.953 C 215.333 83.048,217.488 84.962,219.051 85.255 C 219.392 85.319,219.711 85.438,219.762 85.519 C 219.881 85.712,222.000 85.712,222.000 85.519 C 222.000 85.438,222.319 85.321,222.708 85.260 C 224.167 85.030,225.938 83.572,226.419 82.204 C 226.572 81.771,226.765 81.286,226.848 81.127 C 227.065 80.714,227.050 32.333,226.833 32.333 C 226.742 32.333,226.667 32.180,226.667 31.992 C 226.667 30.792,224.250 28.344,223.056 28.335 C 222.949 28.334,222.836 28.257,222.805 28.165 C 222.744 27.982,220.296 27.797,219.750 27.934 M47.030 41.502 C 45.751 42.988,45.697 43.000,40.437 43.000 C 37.920 43.000,35.742 43.046,35.597 43.101 C 35.363 43.191,35.333 43.898,35.333 49.351 L 35.333 55.500 41.833 55.500 L 48.333 55.500 48.333 48.083 C 48.333 39.657,48.387 39.927,47.030 41.502 M55.667 48.083 L 55.667 55.500 62.085 55.500 L 68.504 55.500 68.460 49.292 L 68.417 43.083 63.583 43.000 C 58.092 42.905,58.199 42.930,56.968 41.501 C 55.613 39.928,55.667 39.658,55.667 48.083 " stroke="none" fill="#fc2c2c" fill-rule="evenodd"></path><path id="path2" d="M48.405 31.833 C 48.405 33.987,48.429 34.869,48.458 33.792 C 48.487 32.715,48.487 30.952,48.458 29.875 C 48.429 28.798,48.405 29.679,48.405 31.833 M55.537 32.008 C 55.510 34.752,55.554 35.821,55.700 35.967 C 55.850 36.117,57.543 36.157,62.492 36.128 L 69.083 36.089 62.417 36.003 L 55.750 35.917 55.662 32.083 L 55.574 28.250 55.537 32.008 M41.500 36.000 L 34.750 36.089 41.448 36.128 C 45.777 36.153,48.183 36.108,48.250 36.000 C 48.307 35.908,48.330 35.851,48.302 35.872 C 48.273 35.894,45.212 35.951,41.500 36.000 M29.906 38.708 L 29.417 39.250 29.958 38.760 C 30.256 38.491,30.500 38.248,30.500 38.219 C 30.500 38.090,30.362 38.203,29.906 38.708 M73.833 38.750 C 74.144 39.071,74.436 39.333,74.482 39.333 C 74.528 39.333,74.311 39.071,74.000 38.750 C 73.689 38.429,73.397 38.167,73.351 38.167 C 73.305 38.167,73.522 38.429,73.833 38.750 M48.410 48.083 C 48.410 52.117,48.432 53.743,48.458 51.697 C 48.485 49.651,48.485 46.351,48.458 44.364 C 48.432 42.376,48.410 44.050,48.410 48.083 M55.577 48.083 C 55.577 52.117,55.598 53.743,55.625 51.697 C 55.651 49.651,55.651 46.351,55.625 44.364 C 55.598 42.376,55.577 44.050,55.577 48.083 M28.079 53.917 C 28.079 59.967,28.099 62.417,28.125 59.363 C 28.150 56.308,28.150 51.358,28.125 48.363 C 28.099 45.367,28.079 47.867,28.079 53.917 M35.247 49.417 L 35.250 55.583 41.667 55.586 L 48.083 55.589 41.710 55.543 L 35.337 55.496 35.291 49.373 L 35.244 43.250 35.247 49.417 M68.539 49.373 L 68.500 55.496 62.125 55.542 L 55.750 55.587 62.130 55.627 C 67.123 55.658,68.528 55.621,68.591 55.458 C 68.635 55.343,68.650 52.549,68.625 49.249 L 68.579 43.250 68.539 49.373 M35.240 60.383 C 35.194 60.503,35.178 61.609,35.204 62.842 L 35.252 65.083 35.334 62.625 C 35.415 60.204,35.405 59.953,35.240 60.383 M68.499 62.716 L 68.582 65.250 68.629 62.846 C 68.655 61.524,68.618 60.384,68.546 60.313 C 68.475 60.241,68.454 61.323,68.499 62.716 M66.824 61.458 L 66.250 62.083 66.875 61.509 C 67.219 61.193,67.500 60.912,67.500 60.884 C 67.500 60.757,67.359 60.877,66.824 61.458 M43.581 62.624 L 48.329 62.672 48.376 68.628 L 48.423 74.583 48.420 68.583 L 48.417 62.583 43.625 62.579 L 38.833 62.576 43.581 62.624 M55.576 62.709 C 55.532 62.824,55.516 65.543,55.542 68.751 L 55.588 74.583 55.627 68.628 L 55.667 62.672 60.458 62.625 L 65.250 62.578 60.453 62.539 C 56.729 62.509,55.638 62.547,55.576 62.709 " stroke="none" fill="#fc6767" fill-rule="evenodd"></path><path id="path3" d="M48.572 31.833 C 48.572 33.987,48.595 34.869,48.624 33.792 C 48.653 32.715,48.653 30.952,48.624 29.875 C 48.595 28.798,48.572 29.679,48.572 31.833 M55.405 31.917 C 55.405 34.025,55.429 34.865,55.458 33.782 C 55.487 32.700,55.487 30.975,55.458 29.949 C 55.428 28.923,55.405 29.808,55.405 31.917 M55.410 48.083 C 55.410 52.117,55.432 53.743,55.458 51.697 C 55.485 49.651,55.485 46.351,55.458 44.364 C 55.432 42.376,55.410 44.050,55.410 48.083 M48.576 48.083 C 48.576 52.025,48.598 53.614,48.625 51.614 C 48.651 49.614,48.651 46.389,48.625 44.447 C 48.598 42.505,48.576 44.142,48.576 48.083 M68.742 49.417 C 68.742 52.717,68.764 54.090,68.791 52.469 C 68.819 50.848,68.819 48.148,68.791 46.469 C 68.764 44.790,68.742 46.117,68.742 49.417 M35.310 55.710 C 35.380 55.780,38.320 55.818,41.844 55.794 L 48.250 55.750 41.717 55.667 C 38.123 55.621,35.240 55.640,35.310 55.710 M58.969 55.791 C 60.740 55.819,63.590 55.818,65.303 55.791 C 67.015 55.764,65.567 55.742,62.083 55.742 C 58.600 55.742,57.199 55.764,58.969 55.791 M68.733 62.833 C 68.733 64.162,68.759 64.706,68.790 64.042 C 68.822 63.377,68.822 62.290,68.790 61.625 C 68.759 60.960,68.733 61.504,68.733 62.833 M66.742 61.375 L 66.083 62.083 66.792 61.425 C 67.450 60.812,67.577 60.667,67.450 60.667 C 67.423 60.667,67.105 60.985,66.742 61.375 M37.000 61.417 C 37.311 61.737,37.603 62.000,37.649 62.000 C 37.695 62.000,37.478 61.737,37.167 61.417 C 36.856 61.096,36.564 60.833,36.518 60.833 C 36.472 60.833,36.689 61.096,37.000 61.417 M41.208 62.458 C 42.560 62.486,44.773 62.486,46.125 62.458 C 47.477 62.430,46.371 62.407,43.667 62.407 C 40.962 62.407,39.856 62.430,41.208 62.458 M57.875 62.458 C 59.227 62.486,61.440 62.486,62.792 62.458 C 64.144 62.430,63.038 62.407,60.333 62.407 C 57.629 62.407,56.523 62.430,57.875 62.458 M48.575 68.750 C 48.575 72.142,48.598 73.506,48.625 71.781 C 48.652 70.056,48.652 67.281,48.625 65.614 C 48.598 63.947,48.575 65.358,48.575 68.750 M55.409 68.750 C 55.409 72.142,55.431 73.506,55.458 71.781 C 55.485 70.056,55.485 67.281,55.458 65.614 C 55.431 63.947,55.409 65.358,55.409 68.750 M70.310 67.490 C 70.527 67.679,70.783 67.833,70.880 67.833 C 71.085 67.833,71.075 67.825,70.417 67.440 L 69.917 67.147 70.310 67.490 " stroke="none" fill="#fc9c9c" fill-rule="evenodd"></path><path id="path4" d="M38.042 42.958 C 39.302 42.986,41.365 42.986,42.625 42.958 C 43.885 42.930,42.854 42.906,40.333 42.906 C 37.813 42.906,36.781 42.930,38.042 42.958 M61.385 42.958 C 62.651 42.986,64.676 42.986,65.885 42.958 C 67.094 42.929,66.058 42.906,63.583 42.906 C 61.108 42.906,60.119 42.930,61.385 42.958 M75.745 53.917 C 75.745 59.967,75.766 62.417,75.792 59.363 C 75.817 56.308,75.817 51.358,75.792 48.363 C 75.766 45.367,75.745 47.867,75.745 53.917 " stroke="none" fill="#fc8c8c" fill-rule="evenodd"></path></g></svg>