<?xml version="1.0" encoding="utf-8"?>
<!-- Generator: Adobe Illustrator 24.2.3, SVG Export Plug-In . SVG Version: 6.00 Build 0)  -->
<svg version="1.1" id="Capa_1" xmlns="http://www.w3.org/2000/svg" xmlns:xlink="http://www.w3.org/1999/xlink" x="0px" y="0px"
	 viewBox="0 0 270 130" style="enable-background:new 0 0 270 130;" xml:space="preserve">
<style type="text/css">
	.st0{fill:#009FE3;}
	.st1{fill:#231F20;}
</style>
<path class="st0" d="M109.7,5.7c3.7-1.1,7.6-1.7,11-2.5l-4.1,0.9c2-0.4,4-0.7,6-0.7c-0.5,0.6-2,0.5-2.2,1.2
	C115.3,5.4,110.2,5.9,105,6C106.7,4.2,108.3,6,109.7,5.7z"/>
<path class="st0" d="M128.2,3l-1.5,0.3C127.2,3.1,127.7,3,128.2,3z"/>
<path class="st0" d="M77.4,18.8c-0.6,0.2-1.1,0.5-1.7,0.6C76.3,19.2,76.8,18.9,77.4,18.8z"/>
<path class="st0" d="M103.7,10.4l-0.9,0.4c-2.4,0.3-4.8,0.6-7.2,0.9C98.2,11.3,100.9,10.1,103.7,10.4z"/>
<path class="st0" d="M106.4,11.2c2.4-0.5,4.8-0.7,7.2-0.5C111.2,10.7,108.8,10.8,106.4,11.2z"/>
<path class="st0" d="M62.7,31.2c0,0.1,0,0.2,0,0.3l-0.1,0.2c-1,0.1-1.8,0.4-2.8,0.5c0.2-0.2,0.3-0.5,0.5-0.5
	C61.4,31.5,61.8,32,62.7,31.2z"/>
<polygon class="st0" points="78.1,18.6 78.1,18.5 78.7,18.3 78.7,18.3 "/>
<path class="st0" d="M63.9,30.9c0.1,0.2,0.2,0.4,0.3,0.6l-1.6,0.3l0.1-0.2C63,31.3,63.6,31.3,63.9,30.9z"/>
<path class="st0" d="M75.8,29c0.3-0.1,0.5-0.6,0.6-0.8c1,0.1,1.9,0.1,2.9,0.1c0.1-0.2,0.5-0.3,0.7-0.6l0.7,0.3
	c-2.2,0.6-4.5,1-6.8,1.5C74.6,29.3,75.2,29.1,75.8,29z"/>
<path class="st0" d="M25.5,48.4c2-2.4,5.2-3.9,6.8-6.6c-3.4,1.4-6.9,4.8-8.8,3.7s3.4-3.8,5.6-5.5l-0.9,0.1c0.4-0.1,0.9-0.1,1-0.5
	c-0.9,0.1-2.3,0.7-3.1,0.5l0.2-0.8c-2.5,0.1-5.5,2.6-8.1,3c10.4-4,19.9-12.8,30.7-18.1c5.4-3.3,10.6-7,15.6-10.9
	c1.7-0.7,3.5-1.3,5.3-1.6c3.1-1.2,6.1-2.5,9.1-4C85.3,5.1,92,4.9,99,3.2c1.4-0.3,3.7,1.3,0.4,2.6c-2.7,1.2-5.6,2.1-8.5,2.7
	c0.2-0.7,1.7-0.6,2.2-1.2C91.1,7.3,89,7.6,87,8.1L91.2,7c-3.5,0.9-7.4,1.7-11.2,3c-1.4,0.4-3.1-1.3-4.8,0.7
	c5.2-0.7,10.6-1.1,15.7-2.2v0.1c2.3-0.6,4.3-0.9,6.6-1.4c-0.6,0.3-1.3,0.4-2,0.5c3.2-0.2,6.5-0.5,9.7-1.1
	c-8.5,3.8-18.7,4.4-27.5,7.5c2.8,0.3,5.8-1.9,8.3-1.1c-4.1,1-8.3,1.8-12.6,2.7l0.9-0.5c-2.8-0.1-5.4,1.5-8.1,2.1l-0.7,0.1l0.7-0.1
	c2.5-0.5,4.9-1.1,7.2-1.5c-1.1,0.5-2.3,0.9-3.5,1.1c1,0.1,2,0.1,3.1,0l4.2-1c-2.1,0.6-4,1.4-5.9,2.5c3-0.4,5.9-1.1,8.9-1.7l-4.7,1.5
	c-2.7,0.5-5.4,1.1-8.1,1.8l0.3-0.1L67,20c-1.1,0.3-2.1,0.6-3.2,0.9c-0.9,0.4-1.8,0.9-2.6,1.6l-0.5,0.2c0.2-0.3,0.3-0.5-0.3-0.4
	c-2.7,0.2-4.8,2.3-7.9,2.6c-1,0.2-1.9,0.6-2.7,1.2c-0.2,0-0.5,0.1-0.5,0.4l-0.6,0.4c-0.5,0.2-1.1,0.6-1.5,0.9c0.5-0.3,1-0.6,1.5-0.9
	l0.6-0.3c0,0.3-0.2,0.5-0.4,0.6c3.8-1.7,7.8-3,11.8-4.5c-0.2,0.2-0.5,0.5-0.6,0.7l1-0.8c1.3-0.5,2.6-1,3.8-1.6
	c-0.3,0.2-0.7,0.5-0.9,0.9c3.8-1.1,7.5-2.5,11.2-3.6c3.7-0.7,7.3-1.3,10.9-1.9c-2.1-0.1-4.1,0-6.2,0.4c5.3-1.7,10.8-2.9,16.3-3.5
	c-0.8,0.9-2.1,1.7-2.5,2.8c0.1,0.5,1.9,0.2,0.9,0.7c-3.4,2.1-6.3,1.5-7.2,4.4c-0.1,0.7,4.5,2.3,3.3,3.1c-1.1,0.5-3,1.2-5,1.9
	c-0.6,0.1-1.2,0.2-1.9,0.3c-0.1,0-0.2,0.1-0.3,0.4c-1.8,0.6-3.7,1.1-5.6,1.4l-1.3,0.2c-0.3-0.1-0.5-0.2-0.7-0.4
	c-0.2,0.2-0.5,0.4-0.7,0.6L72,29.3c-0.7,0-1.4-0.1-2.1-0.1c0.1,0.2,0.2,0.3,0.2,0.5c-1.4,0.3-2.8,0.8-4.2,1.2
	c-0.7,0-1.3-0.2-1.9-0.4c-1,1.8-4.7,2.3-6.9,3.5l0,0c-1.2,0.4-2.3,0.9-3.5,1.4l-0.7-0.2c-0.2,0.4-0.5,0.5-0.6,0.7
	c-0.9,0.2-1.9,0.4-2.8,0.4c-0.1,0.2-0.1,0.7-0.4,0.9c-0.6,0.3-1.1,0.6-1.7,0.9l-2,0.9c-2.4,0.9-4.5,2.1-6.8,3
	c-0.2-0.1-0.3-0.3-0.5-0.5c-0.2,0.5-0.7,0.5-0.9,0.9c0-0.1,0-0.2-0.1-0.3c-0.7,1-1.2,0.7-2.1,1.1c-0.2,0.1-0.2,0.5-0.3,0.7l-0.3,0.2
	C33,44,32.3,45,31.3,45.8L28,47.9C27.1,48.4,26.3,48.2,25.5,48.4z"/>
<path class="st0" d="M59.5,32.3L55.9,33C57.1,32.6,58,31.8,59.5,32.3z"/>
<path class="st0" d="M92,24.6c0.6,0.3,1.2,0.5,1.8,0.6c-3.1,0.6-6.2,1.3-9.3,2v0C87,26.3,90.7,26.4,92,24.6z"/>
<polygon class="st0" points="62.7,31.6 62.6,31.8 62.6,31.8 "/>
<path class="st0" d="M96.1,14.6h0.3l-2.3,0.7C94.8,15,95.4,14.7,96.1,14.6z"/>
<path class="st0" d="M104.6,13.4l4.7-1.2c2.1-0.3,4.1-0.3,6.2-0.1C111.9,12.7,108.3,13,104.6,13.4z"/>
<path class="st0" d="M98.1,23.9c0.7,0.1,1.4,0.2,2.1,0.3l-2,0.3C98.3,24.3,98.1,24.1,98.1,23.9z"/>
<path class="st0" d="M89.7,16.5l0.5-0.1l-1.1,0.7C89.2,16.9,89.5,16.7,89.7,16.5z"/>
<path class="st0" d="M105.3,23.6l-1.5,0.1c0.3-0.2,0.5-0.3,0.8-0.6C104.8,23.4,105,23.5,105.3,23.6z"/>
<path class="st0" d="M112.8,22.1c0.7-0.1,1.3-0.2,2-0.2l-2.3,0.6C112.6,22.3,112.7,22.1,112.8,22.1z"/>
<path class="st0" d="M42,86.1c-7,5.6-14.2,11.2-20.2,16.8c2.5-2.2,4.9-4.4,7.4-6.5c-3.7,3.2-7,5.8-11,8.9c0.8-1.4,3.5-3.3,3.6-4.3
	c9.1-7.8,19-14.7,29.4-20.6C48.2,84.1,44.7,84.1,42,86.1z"/>
<path class="st0" d="M8,114l2.5-2.5C9.7,112.4,8.9,113.2,8,114z"/>
<path class="st0" d="M110.3,43.1c1.3-0.6,2.6-1.1,3.9-1.6C113,42.1,111.6,42.6,110.3,43.1z"/>
<path class="st0" d="M53.2,74.2l1.8-1.4c4.8-2.9,9.8-5.6,15-8.2C64.4,67.5,59,71.5,53.2,74.2z"/>
<path class="st0" d="M47.4,76.4c-4.8,3.2-9.6,6.4-14.4,9.2C37.7,82.7,42.5,79.6,47.4,76.4z"/>
<path class="st0" d="M149.9,23.2c0-0.1,0-0.2,0.2-0.3l0.4-0.3l7.1-1.1c-0.5,0.3-1.1,0.5-1.6,0.7C153.4,22.6,152.7,22.2,149.9,23.2z"
	/>
<polygon class="st0" points="108.9,43.7 108.8,43.8 107.4,44.4 107.3,44.5 "/>
<path class="st0" d="M147,23.9c-0.1-0.2-0.2-0.4-0.4-0.6l4-0.7l-0.4,0.3C149.1,23.2,148,23.5,147,23.9z"/>
<path class="st0" d="M117,30.7c-0.6,0.3-1.2,0.7-1.7,1.3c-2.2,0.4-4.4,0.9-7,1.6c-0.3,0.3-1.2,0.6-1.8,1.1c-0.5,0-1.1,0-1.6,0.1
	c5.5-2,11.1-3.9,17-5.6C120.3,29.6,118.7,30.2,117,30.7z"/>
<path class="st0" d="M254.1,16.6c-7.6,0.3-16.4-0.8-23.7,0.8c8.7,0.4,20.6,0.6,21.9,2.7s-11.8,0.2-18.5,0.6l1.8,0.4
	c-0.8-0.3-1.7-0.3-2.6-0.1c1.8,0.4,5.3,0.6,6.3,1.3l-1.6,0.5c4.6,1.4,13,1.7,17.4,3.3c-21.9-5.3-52.7-1.4-78.8,3.8
	c-13.6,3.1-26.8,7.7-39.3,13.8c-2.2,0.9-7.8,2.5-11.8,3.6c-6.9,2.5-13.5,5.5-20,8.9C91.4,62.9,77.6,68.4,63.7,77
	c-2.7,1.8-7.7,2.4-1.1-2.3c5.5-4,11.3-7.6,17.3-10.7c-0.4,0.9-3.5,2.1-4.6,3.2c4.6-2,8.4-3.8,12.8-5.9c-3,1.4-5.9,3-8.7,4.5
	c7.2-3.9,15.5-7.6,23.6-11.4c3-1.3,6.4-0.4,10.3-3.5c-11.5,3.3-22.7,7.7-33.4,13v-0.1c-4.8,2.5-9.1,4.8-13.5,7.4
	c1.3-0.9,2.6-1.7,4-2.4c-6.8,3.2-13.3,6.9-19.6,11c16.4-13.6,38.3-23.1,58-31.4c-6.1,1.1-12.9,5.7-18.2,6.7
	c9.1-4.1,18.4-7.7,27.9-10.7l-2,1c6.2-1.4,12.3-4,18.4-5.6l1.6-0.4l-1.6,0.4c-5.6,1.4-11.1,2.9-16.4,4.6c2.6-1.2,5.3-2.1,8.1-2.8
	c-2.3,0.3-4.5,0.7-6.7,1.3c-3.2,1.1-6.4,2.1-9.5,3.3c4.8-1.8,9.4-3.8,13.7-5.7c-6.8,1.7-13.6,4.2-20.2,6.5c3.6-1.5,7.1-3,10.8-4.3
	c6.2-2,12.4-3.8,18.8-5.5l-0.7,0.2l1.4-0.5c2.5-0.7,5-1.3,7.5-2c2.2-0.7,4.4-1.5,6.5-2.3l1.1-0.3c-0.7,0.4-1,0.7,0.4,0.4
	c6-0.9,12.1-3.2,19.1-3.8c2.3-0.3,4.5-0.7,6.8-1.3c0.5,0.1,1-0.1,1.4-0.3l1.7-0.4c1.4-0.2,2.8-0.5,4.1-0.8c-1.3,0.2-2.7,0.5-4.1,0.8
	l-1.5,0.3c0.4-0.3,0.9-0.6,1.4-0.6c-9.5,1.5-19.4,3.2-29.2,5.7c0.5-0.3,1.3-0.7,1.7-0.9l-2.8,1.2c-3.2,0.8-6.3,1.7-9.4,2.7
	c0.8-0.3,1.7-0.7,2.4-1.2c-9,2.3-17.9,5.2-26.6,8.6c-8.3,2.7-16.5,5.6-24.5,9c4.5-1.4,9.1-3,13.8-4.7c-12.1,5.1-24,10.9-35.8,16.7
	c1.7-1.8,4.3-3.8,5.2-5.3c-0.3-0.4-4.1,1.5-2.1,0.1c7.4-5.4,13.9-7.1,16.2-11c0.3-1-10,1.2-7.3-0.7c2.4-1.5,6.9-3.7,11.8-6
	c1.5-0.6,3-1.1,4.5-1.8c0.2,0,0.5-0.3,0.8-0.6c4.4-2,9-3.7,13.6-5.3l3.3-1c0.5-0.1,1.1-0.1,1.6,0c0.6-0.4,1.2-0.8,1.9-1.1
	c2.9-0.8,5.8-1.7,8.7-2.5l4.9-0.8c-0.1-0.1-0.4-0.3-0.1-0.5c3.6-1,7.2-1.9,10.8-2.8c1.4-0.2,2.8-0.2,4.2-0.1c3.5-2.4,12.8-3.6,19-5
	v-0.1c3.2-0.6,6.4-1.1,9.6-1.7l1.6,0.2c0.8-0.4,1.6-0.5,2-0.7c2.6-0.2,4.9-0.2,7.1-0.3c0.6-0.4,1.2-0.7,1.9-0.9
	c1.7-0.2,3.4-0.4,5-0.7c1.9-0.2,3.8-0.3,5.8-0.5c6.5-0.5,13-0.7,19.4-0.8c0.2,0.2,0.3,0.4,0.4,0.6c1.1-0.2,2.1-0.4,3.2-0.4
	c-0.2,0.1-0.3,0.2-0.2,0.3c2.9-0.6,3.5,0,6.1,0c0.6-0.1,1.1-0.2,1.7-0.4h0.9c3,0.9,5.9,0.5,9.2,0.4c3.3,0.2,6.6,0.4,9.9,0.7
	C251.3,15.5,252.2,16.2,254.1,16.6z"/>
<path class="st0" d="M158.4,21.4c3.1-0.4,6.2-0.8,9.2-1.1C164.4,20.9,161.6,21.8,158.4,21.4z"/>
<path class="st0" d="M77.9,47.1c-1.4,0.2-2.8,0.5-4.1,1c7.2-3.5,14.4-6.8,21.9-9.9v0C89.7,40.9,80.9,44,77.9,47.1z"/>
<polygon class="st0" points="150.1,22.9 150.5,22.6 150.5,22.6 "/>
<path class="st0" d="M68.6,62L68,62.3l4.9-3C71.6,60.3,70.2,61.1,68.6,62z"/>
<path class="st0" d="M50.8,71.9c-3.2,2.2-6.4,4.4-9.5,6.7c-4.2,2.7-8.2,5.5-12.4,7.8C35.9,81.3,43.2,76.5,50.8,71.9z"/>
<path class="st0" d="M64,53.7c-1.5,0.6-3.1,1.2-4.7,1.8c1.5-0.8,3-1.6,4.5-2.3C63.5,53.5,63.8,53.5,64,53.7z"/>
<path class="st0" d="M82.5,54.2l-1,0.5l2.5-1.7C83.7,53.3,83,53.8,82.5,54.2z"/>
<path class="st0" d="M48,61.7l3.2-1.8c-0.6,0.5-1.1,1-1.6,1.5C49,61.4,48.5,61.5,48,61.7z"/>
<path class="st0" d="M32.2,72.5c-1.4,0.9-2.7,1.9-4,2.8c1.5-1.2,3.1-2.5,4.7-3.6C32.6,72.1,32.4,72.4,32.2,72.5z"/>
<path class="st1" d="M117.2,90.4v16.5h-3.6V90.4H117.2z"/>
<path class="st1" d="M130.9,94.8c-0.2-0.4-0.5-0.7-0.8-0.9c-0.3-0.3-0.7-0.5-1.1-0.6c-0.4-0.1-0.9-0.2-1.3-0.2
	c-0.7,0-1.4,0.1-2.1,0.5c-0.6,0.3-1,0.7-1.4,1.3c-0.4,0.6-0.6,1.2-0.8,1.8c-0.2,0.7-0.3,1.4-0.2,2.1c0,0.7,0.1,1.3,0.2,2
	c0.1,0.6,0.4,1.2,0.8,1.8c0.4,0.5,0.8,1,1.4,1.3c0.6,0.3,1.4,0.5,2.1,0.5c1,0.1,1.9-0.3,2.6-1c0.7-0.8,1.1-1.7,1.1-2.7h3.5
	c-0.1,1-0.3,1.9-0.7,2.8c-0.4,0.8-0.9,1.5-1.5,2.1c-0.6,0.6-1.4,1-2.2,1.3c-2,0.7-4.2,0.6-6.2-0.2c-1-0.4-1.8-1-2.6-1.8
	c-0.7-0.8-1.3-1.7-1.6-2.7c-0.4-1.1-0.6-2.2-0.6-3.4c0-1.2,0.2-2.3,0.6-3.4c0.3-1,0.9-2,1.6-2.8c0.7-0.8,1.6-1.4,2.6-1.8
	c1.1-0.5,2.2-0.7,3.4-0.7c0.9,0,1.7,0.1,2.6,0.4c0.8,0.2,1.5,0.6,2.2,1.1c0.6,0.5,1.2,1.1,1.6,1.9c0.4,0.8,0.7,1.6,0.8,2.5h-3.5
	C131.3,95.5,131.1,95.1,130.9,94.8z"/>
<path class="st1" d="M149.8,90.4v3h-8.7V97h8v2.8h-8v4h8.9v3h-12.5V90.4H149.8z"/>
<path class="st1" d="M160.2,90.4c0.7,0,1.4,0.1,2.1,0.2c0.6,0.1,1.2,0.3,1.7,0.7c0.5,0.3,0.8,0.8,1.1,1.3c0.3,0.6,0.4,1.3,0.4,1.9
	c0,0.7-0.2,1.5-0.6,2.1c-0.4,0.6-1,1.1-1.7,1.4c0.9,0.2,1.7,0.8,2.3,1.5c0.9,1.5,1,3.3,0.3,4.8c-0.3,0.6-0.8,1.1-1.3,1.5
	c-0.6,0.4-1.2,0.7-1.9,0.8c-0.7,0.2-1.4,0.3-2.2,0.3h-8V90.4H160.2z M159.7,97.1c0.6,0,1.1-0.1,1.6-0.5c0.4-0.4,0.7-0.9,0.6-1.5
	c0-0.3-0.1-0.7-0.2-0.9c-0.1-0.2-0.3-0.4-0.6-0.6c-0.2-0.1-0.5-0.2-0.8-0.3c-0.3-0.1-0.6-0.1-0.9-0.1h-3.4v3.8H159.7z M159.9,104.1
	c0.3,0,0.7,0,1-0.1c0.3-0.1,0.6-0.2,0.9-0.3c0.2-0.2,0.5-0.4,0.6-0.7c0.2-0.3,0.2-0.7,0.2-1.1c0.1-0.7-0.2-1.4-0.7-1.8
	c-0.6-0.4-1.2-0.6-1.9-0.5h-3.9v4.5H159.9z"/>
<path class="st1" d="M181,90.4v3h-8.7V97h8v2.8h-8v4h8.9v3h-12.5V90.4H181z"/>
<path class="st1" d="M192.5,90.4c0.7,0,1.4,0.1,2,0.4c0.6,0.2,1.1,0.6,1.5,1c0.4,0.4,0.8,0.9,1,1.4c0.2,0.6,0.3,1.2,0.3,1.8
	c0,0.9-0.2,1.7-0.6,2.5c-0.5,0.8-1.2,1.3-2,1.6v0.1c0.4,0.1,0.8,0.3,1.1,0.6c0.3,0.3,0.5,0.6,0.7,0.9c0.2,0.4,0.3,0.7,0.4,1.1
	c0.1,0.4,0.1,0.8,0.2,1.2c0,0.3,0,0.6,0.1,0.9s0,0.7,0.1,1.1c0,0.4,0.1,0.7,0.2,1.1c0.1,0.3,0.2,0.6,0.4,0.8h-3.6
	c-0.2-0.6-0.3-1.2-0.4-1.9c0-0.7-0.1-1.4-0.2-2.1c0-0.7-0.3-1.4-0.8-1.9c-0.6-0.5-1.3-0.7-2-0.6h-3.6v6.4h-3.6V90.4H192.5z
	 M191.2,97.8c0.7,0,1.3-0.1,1.9-0.6c0.5-0.5,0.7-1.1,0.6-1.8c0.1-0.6-0.2-1.3-0.6-1.7c-0.5-0.4-1.2-0.6-1.9-0.5h-4v4.6H191.2z"/>
<path class="st1" d="M210.1,106.8c-0.8,0.3-1.6,0.5-2.4,0.5c-1.2,0-2.3-0.2-3.4-0.7c-1-0.4-1.8-1-2.6-1.8c-0.7-0.8-1.2-1.7-1.6-2.7
	c-0.4-1.1-0.6-2.2-0.6-3.4c0-1.2,0.2-2.3,0.6-3.4c0.3-1,0.9-2,1.6-2.8c0.7-0.8,1.6-1.4,2.6-1.8c1.9-0.8,3.9-0.9,5.9-0.3
	c0.8,0.2,1.5,0.6,2.1,1.1c1.4,1,2.2,2.6,2.4,4.3h-3.5c-0.1-0.8-0.6-1.6-1.2-2.1c-0.7-0.5-1.4-0.7-2.2-0.7c-0.7,0-1.4,0.1-2.1,0.5
	c-0.6,0.3-1,0.7-1.4,1.3c-0.4,0.6-0.6,1.2-0.8,1.8c-0.2,0.7-0.2,1.4-0.2,2.1c0,0.7,0.1,1.3,0.2,2c0.1,0.6,0.4,1.2,0.8,1.8
	c0.4,0.5,0.8,1,1.4,1.3c0.6,0.3,1.4,0.5,2.1,0.5c1,0.1,2-0.3,2.8-0.9c0.7-0.7,1.1-1.6,1.1-2.6H208V98h6.9v8.9h-2.3l-0.4-1.9
	C211.7,105.8,211,106.4,210.1,106.8z"/>
<path class="st0" d="M85.9,124.1c0.2,0.4,0.5,0.7,0.8,0.9c0.4,0.2,0.8,0.4,1.2,0.5c0.5,0.1,0.9,0.2,1.4,0.2c0.3,0,0.7,0,1-0.1
	c0.3-0.1,0.7-0.2,1-0.3c0.3-0.2,0.6-0.4,0.8-0.6c0.2-0.3,0.3-0.6,0.3-1c0-0.4-0.1-0.8-0.4-1.1c-0.3-0.3-0.7-0.5-1.1-0.7
	c-0.5-0.2-1-0.4-1.6-0.5c-0.6-0.1-1.2-0.3-1.8-0.5c-0.6-0.1-1.2-0.3-1.8-0.6c-0.6-0.2-1.1-0.5-1.6-0.9c-0.5-0.4-0.8-0.8-1.1-1.3
	c-0.3-0.6-0.5-1.3-0.4-1.9c0-0.8,0.2-1.5,0.5-2.2c0.4-0.6,0.8-1.2,1.4-1.6c0.6-0.4,1.3-0.7,2-0.9c0.7-0.2,1.5-0.3,2.2-0.3
	c0.8,0,1.7,0.1,2.5,0.3c0.8,0.2,1.5,0.5,2.1,0.9c0.6,0.4,1.1,1,1.5,1.7c0.4,0.8,0.6,1.6,0.5,2.4h-3.4c0-0.4-0.1-0.8-0.3-1.2
	c-0.2-0.3-0.4-0.6-0.7-0.8c-0.3-0.2-0.6-0.3-1-0.4c-0.4-0.1-0.8-0.1-1.2-0.1c-0.3,0-0.6,0-0.9,0.1c-0.3,0.1-0.6,0.2-0.8,0.3
	c-0.2,0.1-0.4,0.3-0.6,0.6c-0.2,0.3-0.2,0.6-0.2,0.9c0,0.3,0,0.5,0.2,0.8c0.2,0.2,0.4,0.4,0.7,0.6c0.5,0.2,1,0.4,1.5,0.5l2.5,0.7
	c0.3,0.1,0.7,0.2,1.3,0.3c0.6,0.2,1.1,0.4,1.6,0.8c0.6,0.4,1,0.8,1.4,1.4c0.4,0.7,0.6,1.5,0.6,2.3c0,0.7-0.1,1.4-0.4,2.1
	c-0.3,0.7-0.7,1.2-1.3,1.7c-0.6,0.5-1.4,0.9-2.2,1.1c-1,0.3-2,0.4-3,0.4c-0.9,0-1.8-0.1-2.6-0.3c-0.8-0.2-1.6-0.6-2.3-1.1
	c-0.7-0.5-1.2-1.1-1.6-1.8c-0.4-0.8-0.6-1.7-0.6-2.6h3.5C85.5,123.2,85.6,123.7,85.9,124.1z"/>
<path class="st0" d="M97.9,116.6c0.3-1,0.9-2,1.6-2.8c0.7-0.8,1.6-1.4,2.6-1.8c2.2-0.9,4.6-0.9,6.8,0c1,0.4,1.8,1.1,2.5,1.8
	c0.7,0.8,1.2,1.7,1.6,2.8c0.4,1.1,0.6,2.3,0.6,3.4c0,1.1-0.2,2.3-0.6,3.4c-0.3,1-0.9,1.9-1.6,2.7c-0.7,0.8-1.6,1.4-2.5,1.8
	c-2.2,0.9-4.6,0.9-6.8,0c-1-0.4-1.8-1-2.6-1.8c-0.7-0.8-1.2-1.7-1.6-2.7c-0.4-1.1-0.6-2.2-0.6-3.4C97.4,118.8,97.6,117.7,97.9,116.6
	z M101.2,122c0.2,0.6,0.4,1.2,0.8,1.8c0.4,0.5,0.8,1,1.4,1.3c1.3,0.6,2.8,0.6,4.2,0c0.6-0.3,1-0.7,1.4-1.3c0.4-0.5,0.6-1.1,0.8-1.8
	c0.2-0.7,0.2-1.3,0.2-2c0-0.7-0.1-1.4-0.2-2.1c-0.1-0.6-0.4-1.3-0.8-1.8c-0.4-0.5-0.8-1-1.4-1.3c-1.3-0.6-2.8-0.6-4.2,0
	c-0.6,0.3-1,0.7-1.4,1.3c-0.4,0.6-0.6,1.2-0.8,1.8c-0.2,0.7-0.2,1.4-0.2,2.1C101,120.7,101.1,121.3,101.2,122L101.2,122z"/>
<path class="st0" d="M119.7,111.7v13.4h8v3.1h-11.6v-16.5H119.7z"/>
<path class="st0" d="M141.9,126.9c-1.5,1.2-3.3,1.7-5.2,1.6c-1.9,0.1-3.7-0.5-5.2-1.6c-1.3-1.3-2-3.1-1.8-5v-10.2h3.6v10.2
	c0,0.4,0,0.9,0.1,1.3c0.1,0.4,0.2,0.8,0.5,1.1c0.3,0.3,0.6,0.6,1,0.8c0.6,0.2,1.2,0.3,1.8,0.3c1,0.1,2-0.2,2.7-0.9
	c0.6-0.8,0.8-1.7,0.7-2.7v-10.2h3.6v10.2C143.9,123.8,143.2,125.6,141.9,126.9z"/>
<path class="st0" d="M145.6,114.7v-3h13.5v3h-4.9v13.4h-3.6v-13.4H145.6z"/>
<path class="st0" d="M164.6,111.7v16.5H161v-16.5H164.6z"/>
<path class="st0" d="M167.6,116.6c0.3-1,0.9-2,1.6-2.8c0.7-0.8,1.6-1.4,2.6-1.8c2.2-0.9,4.6-0.9,6.8,0c1,0.4,1.8,1.1,2.5,1.8
	c0.7,0.8,1.2,1.7,1.6,2.8c0.4,1.1,0.6,2.3,0.6,3.4c0,1.1-0.2,2.3-0.6,3.4c-0.3,1-0.9,1.9-1.6,2.7c-0.7,0.8-1.6,1.4-2.5,1.8
	c-2.2,0.9-4.6,0.9-6.8,0c-1-0.4-1.8-1-2.6-1.8c-0.7-0.8-1.2-1.7-1.6-2.7c-0.4-1.1-0.6-2.2-0.6-3.4
	C167.1,118.8,167.3,117.7,167.6,116.6z M170.9,122c0.1,0.6,0.4,1.2,0.8,1.8c0.4,0.5,0.8,1,1.4,1.3c1.3,0.6,2.8,0.6,4.2,0
	c0.6-0.3,1-0.7,1.4-1.3c0.4-0.5,0.6-1.1,0.8-1.8c0.2-0.7,0.2-1.3,0.2-2c0-0.7-0.1-1.4-0.2-2.1c-0.1-0.6-0.4-1.3-0.8-1.8
	c-0.3-0.5-0.8-1-1.4-1.3c-1.3-0.6-2.8-0.6-4.2,0c-0.6,0.3-1,0.7-1.4,1.3c-0.4,0.6-0.6,1.2-0.8,1.8c-0.2,0.7-0.2,1.4-0.2,2.1
	C170.7,120.7,170.8,121.4,170.9,122L170.9,122z"/>
<path class="st0" d="M189.4,111.7l6.9,11.1l0,0v-11.1h3.4v16.5H196l-6.9-11l0,0v11h-3.4v-16.5H189.4z"/>
<path class="st0" d="M205.6,124.1c0.2,0.4,0.5,0.7,0.8,0.9c0.4,0.2,0.7,0.4,1.2,0.5c0.5,0.1,0.9,0.2,1.4,0.2c0.3,0,0.7,0,1-0.1
	c0.3-0.1,0.7-0.2,1-0.3c0.3-0.2,0.6-0.4,0.8-0.6c0.2-0.3,0.3-0.6,0.3-1c0-0.4-0.1-0.8-0.4-1.1c-0.3-0.3-0.7-0.5-1.1-0.7
	c-0.5-0.2-1-0.4-1.6-0.5c-0.6-0.1-1.2-0.3-1.8-0.5c-0.6-0.2-1.2-0.3-1.8-0.6c-0.6-0.2-1.1-0.5-1.6-0.9c-0.5-0.4-0.8-0.8-1.1-1.3
	c-0.3-0.6-0.4-1.3-0.4-1.9c0-0.8,0.2-1.5,0.6-2.2c0.3-0.6,0.8-1.2,1.4-1.6c0.6-0.4,1.3-0.7,2-0.9c0.7-0.2,1.5-0.3,2.2-0.3
	c0.8,0,1.7,0.1,2.5,0.3c0.8,0.2,1.5,0.5,2.1,0.9c0.6,0.4,1.1,1,1.5,1.7c0.4,0.8,0.6,1.6,0.5,2.4h-3.5c0-0.4-0.1-0.8-0.3-1.2
	c-0.2-0.3-0.4-0.6-0.7-0.8c-0.3-0.2-0.6-0.3-1-0.4c-0.4-0.1-0.8-0.1-1.2-0.1c-0.3,0-0.6,0-0.9,0.1c-0.3,0.1-0.6,0.2-0.8,0.3
	c-0.2,0.1-0.4,0.3-0.6,0.6c-0.2,0.3-0.3,0.6-0.2,0.9c0,0.3,0.1,0.5,0.2,0.8c0.2,0.3,0.4,0.4,0.7,0.6c0.5,0.2,1,0.4,1.5,0.5l2.5,0.7
	c0.3,0.1,0.7,0.2,1.3,0.3c0.6,0.2,1.1,0.4,1.6,0.8c0.6,0.4,1,0.9,1.4,1.4c0.4,0.7,0.6,1.5,0.6,2.3c0,0.7-0.1,1.4-0.4,2.1
	c-0.3,0.7-0.7,1.2-1.3,1.7c-0.6,0.5-1.4,0.9-2.1,1.1c-1,0.3-2,0.4-3,0.4c-0.9,0-1.8-0.1-2.6-0.3c-0.8-0.2-1.6-0.6-2.3-1.1
	c-0.7-0.5-1.2-1.1-1.6-1.8c-0.4-0.8-0.6-1.7-0.6-2.6h3.5C205.3,123.2,205.4,123.7,205.6,124.1z"/>
</svg>
