<?xml version="1.0" encoding="utf-8"?>
<!-- Generator: Adobe Illustrator 26.1.0, SVG Export Plug-In . SVG Version: 6.00 Build 0)  -->
<svg version="1.1" id="Capa_1" xmlns="http://www.w3.org/2000/svg" xmlns:xlink="http://www.w3.org/1999/xlink" x="0px" y="0px"
	 viewBox="0 0 250.6 130.4" style="enable-background:new 0 0 250.6 130.4;" xml:space="preserve">
<style type="text/css">
	.st0{fill:#606060;}
	.st1{fill:#009FE3;}
</style>
<g>
	<path class="st0" d="M99.7,3.1c3.8-1.1,7.9-1.8,11.4-2.6l-4.2,0.9c2.1-0.4,4.1-0.7,6.2-0.7c-0.5,0.6-2.1,0.5-2.3,1.2
		c-5.3,0.8-10.5,1.3-15.9,1.4C96.6,1.5,98.3,3.4,99.7,3.1z"/>
	<path class="st0" d="M118.9,0.3l-1.6,0.3C117.8,0.4,118.3,0.3,118.9,0.3z"/>
	<path class="st0" d="M66.4,16.6c-0.6,0.2-1.1,0.5-1.8,0.6C65.2,17,65.7,16.7,66.4,16.6z"/>
	<path class="st0" d="M93.5,7.9l-0.9,0.4c-2.5,0.3-5,0.6-7.4,0.9C87.9,8.9,90.6,7.6,93.5,7.9z"/>
	<path class="st0" d="M96.3,8.8c2.5-0.5,5-0.7,7.4-0.5C101.3,8.2,98.8,8.3,96.3,8.8z"/>
	<path class="st0" d="M51.2,29.4c0,0.1,0,0.2,0,0.3l-0.1,0.2c-1,0.1-1.9,0.4-2.9,0.5c0.2-0.2,0.3-0.5,0.5-0.5
		C49.8,29.7,50.2,30.3,51.2,29.4z"/>
	<polygon class="st0" points="67.1,16.4 67.1,16.3 67.7,16.1 67.7,16.1 	"/>
	<path class="st0" d="M52.4,29.1c0.1,0.2,0.2,0.4,0.3,0.6l-1.7,0.3l0.1-0.2C51.5,29.5,52.1,29.5,52.4,29.1z"/>
	<path class="st0" d="M64.7,27.2c0.3-0.1,0.5-0.6,0.6-0.8c1,0.1,2,0.1,3,0.1c0.1-0.2,0.5-0.3,0.7-0.6l0.7,0.3c-2.3,0.6-4.7,1-7,1.6
		C63.5,27.5,64.1,27.3,64.7,27.2z"/>
	<path class="st0" d="M12.7,47.2c2.1-2.5,5.4-4,7-6.8c-3.5,1.4-7.1,5-9.1,3.8s3.5-3.9,5.8-5.7l-0.9,0.1c0.4-0.1,0.9-0.1,1-0.5
		c-0.9,0.1-2.4,0.7-3.2,0.5l0.2-0.8c-2.6,0.1-5.7,2.7-8.4,3.1c10.7-4.1,20.6-13.2,31.7-18.7c5.6-3.4,11-7.2,16.1-11.3
		c1.8-0.7,3.6-1.3,5.5-1.7c3.2-1.2,6.3-2.6,9.4-4.1c6.6-2.7,13.5-2.9,20.8-4.7c1.4-0.3,3.8,1.3,0.4,2.7c-2.8,1.2-5.8,2.2-8.8,2.8
		c0.2-0.7,1.8-0.6,2.3-1.2c-2.1,0-4.2,0.3-6.3,0.8l4.3-1.1C77,5.3,73,6.2,69,7.5c-1.4,0.4-3.2-1.3-5,0.7C69.5,7.5,75,7.1,80.3,6v0.1
		c2.4-0.6,4.4-0.9,6.8-1.4c-0.6,0.3-1.3,0.4-2.1,0.5c3.3-0.2,6.7-0.5,10-1.1c-8.8,3.9-19.3,4.5-28.4,7.8c2.9,0.3,6-2,8.6-1.1
		c-4.2,1-8.6,1.9-13,2.8l0.9-0.5c-2.9-0.1-5.6,1.6-8.4,2.2l-0.7,0.1l0.7-0.1c2.6-0.5,5.1-1.1,7.4-1.6c-1.1,0.5-2.4,0.9-3.6,1.1
		c1,0.1,2.1,0.1,3.2,0l4.3-1c-2.2,0.6-4.1,1.4-6.1,2.6c3.1-0.4,6.1-1.1,9.2-1.8L64.4,16c-2.8,0.5-5.6,1.1-8.4,1.9l0.3-0.1l-0.7,0.1
		c-1.1,0.3-2.2,0.6-3.3,0.9c-0.9,0.4-1.9,0.9-2.7,1.7l-0.5,0.2c0.2-0.3,0.3-0.5-0.3-0.4c-2.8,0.2-5,2.4-8.2,2.7
		c-1,0.2-2,0.6-2.8,1.2c-0.2,0-0.5,0.1-0.5,0.4L36.7,25c-0.5,0.2-1.1,0.6-1.6,0.9c0.5-0.3,1-0.6,1.6-0.9l0.6-0.3
		c0,0.3-0.2,0.5-0.4,0.6c3.9-1.8,8.1-3.1,12.2-4.7c-0.2,0.2-0.5,0.5-0.6,0.7l1-0.8c1.3-0.5,2.7-1,3.9-1.7c-0.3,0.2-0.7,0.5-0.9,0.9
		c3.9-1.1,7.8-2.6,11.6-3.7c3.8-0.7,7.5-1.3,11.3-2c-2.2-0.1-4.2,0-6.4,0.4c5.5-1.8,11.2-3,16.8-3.6c-0.8,0.9-2.2,1.8-2.6,2.9
		c0.1,0.5,2,0.2,0.9,0.7c-3.5,2.2-6.5,1.6-7.4,4.5c-0.1,0.7,4.7,2.4,3.4,3.2c-1.1,0.5-3.1,1.2-5.2,2c-0.6,0.1-1.2,0.2-2,0.3
		c-0.1,0-0.2,0.1-0.3,0.4c-1.9,0.6-3.8,1.1-5.8,1.4l-1.3,0.2c-0.3-0.1-0.5-0.2-0.7-0.4c-0.2,0.2-0.5,0.4-0.7,0.6l-3.3,0.6
		c-0.7,0-1.4-0.1-2.2-0.1c0.1,0.2,0.2,0.3,0.2,0.5c-1.4,0.3-2.9,0.8-4.3,1.2c-0.7,0-1.3-0.2-2-0.4c-1,1.9-4.9,2.4-7.1,3.6l0,0
		c-1.2,0.4-2.4,0.9-3.6,1.4L41,33.6c-0.2,0.4-0.5,0.5-0.6,0.7c-0.9,0.2-2,0.4-2.9,0.4c-0.1,0.2-0.1,0.7-0.4,0.9
		c-0.6,0.3-1.1,0.6-1.8,0.9l-2.1,0.9c-2.5,0.9-4.7,2.2-7,3.1c-0.2-0.1-0.3-0.3-0.5-0.5c-0.2,0.5-0.7,0.5-0.9,0.9
		c0-0.1,0-0.2-0.1-0.3c-0.7,1-1.2,0.7-2.2,1.1c-0.2,0.1-0.2,0.5-0.3,0.7l-0.3,0.2c-1.4-0.1-2.2,0.9-3.2,1.8l-3.4,2.2
		C14.4,47.2,13.5,47,12.7,47.2z"/>
	<path class="st0" d="M47.9,30.6l-3.7,0.7C45.4,30.9,46.3,30.1,47.9,30.6z"/>
	<path class="st0" d="M81.4,22.6c0.6,0.3,1.2,0.5,1.9,0.6c-3.2,0.6-6.4,1.3-9.6,2.1l0,0C76.3,24.4,80.1,24.5,81.4,22.6z"/>
	<polygon class="st0" points="51.2,29.8 51.1,30.1 51.1,30.1 	"/>
	<path class="st0" d="M85.7,12.3H86L83.6,13C84.3,12.7,85,12.4,85.7,12.3z"/>
	<path class="st0" d="M94.5,11l4.9-1.2c2.2-0.3,4.2-0.3,6.4-0.1C102,10.3,98.3,10.6,94.5,11z"/>
	<path class="st0" d="M87.8,21.9c0.7,0.1,1.4,0.2,2.2,0.3l-2.1,0.3C88,22.3,87.8,22.1,87.8,21.9z"/>
	<path class="st0" d="M79.1,14.2l0.5-0.1l-1.1,0.7C78.6,14.7,78.9,14.4,79.1,14.2z"/>
	<path class="st0" d="M95.2,21.6l-1.6,0.1c0.3-0.2,0.5-0.3,0.8-0.6C94.7,21.4,94.9,21.5,95.2,21.6z"/>
	<path class="st0" d="M102.9,20c0.7-0.1,1.3-0.2,2.1-0.2l-2.4,0.6C102.7,20.2,102.8,20,102.9,20z"/>
	<path class="st0" d="M29.8,86.2C22.5,92,15.1,97.8,8.9,103.5c2.6-2.3,5.1-4.5,7.6-6.7c-3.8,3.3-7.2,6-11.4,9.2
		c0.8-1.4,3.6-3.4,3.7-4.4c9.4-8.1,19.6-15.2,30.4-21.3C36.2,84.1,32.6,84.1,29.8,86.2z"/>
	<path class="st0" d="M100.4,41.7c1.3-0.6,2.7-1.1,4-1.7C103.2,40.7,101.7,41.2,100.4,41.7z"/>
	<path class="st0" d="M41.3,73.9l1.9-1.4c5-3,10.1-5.8,15.5-8.5C52.9,67,47.3,71.1,41.3,73.9z"/>
	<path class="st0" d="M35.3,76.2c-5,3.3-9.9,6.6-14.9,9.5C25.3,82.7,30.3,79.5,35.3,76.2z"/>
	<path class="st0" d="M141.3,21.2c0-0.1,0-0.2,0.2-0.3l0.4-0.3l7.3-1.1c-0.5,0.3-1.1,0.5-1.7,0.7C144.9,20.5,144.2,20.1,141.3,21.2z
		"/>
	<polygon class="st0" points="98.9,42.4 98.8,42.5 97.4,43.1 97.3,43.2 	"/>
	<path class="st0" d="M138.3,21.9c-0.1-0.2-0.2-0.4-0.4-0.6l4.1-0.7l-0.4,0.3C140.5,21.2,139.3,21.5,138.3,21.9z"/>
	<path class="st0" d="M107.3,28.9c-0.6,0.3-1.2,0.7-1.8,1.3c-2.3,0.4-4.5,0.9-7.2,1.7c-0.3,0.3-1.2,0.6-1.9,1.1
		c-0.5,0-1.1,0-1.7,0.1c5.7-2.1,11.5-4,17.6-5.8C110.7,27.8,109,28.4,107.3,28.9z"/>
	<path class="st0" d="M249,14.3c-7.9,0.3-17-0.8-24.5,0.8c9,0.4,21.3,0.6,22.6,2.8s-12.2,0.2-19.1,0.6l1.9,0.4
		c-0.8-0.3-1.8-0.3-2.7-0.1c1.9,0.4,5.5,0.6,6.5,1.3l-1.7,0.5c4.8,1.4,13.4,1.8,18,3.4c-22.6-5.5-54.5-1.4-81.4,3.9
		c-14.1,3.2-27.7,8-40.6,14.3c-2.3,0.9-8.1,2.6-12.2,3.7c-7.1,2.6-14,5.7-20.7,9.2c-14.3,6.9-28.5,12.6-42.9,21.5
		c-2.8,1.9-8,2.5-1.1-2.4c5.7-4.1,11.7-7.9,17.9-11.1c-0.4,0.9-3.6,2.2-4.8,3.3c4.8-2.1,8.7-3.9,13.2-6.1c-3.1,1.4-6.1,3.1-9,4.7
		c7.4-4,16-7.9,24.4-11.8c3.1-1.3,6.6-0.4,10.6-3.6c-11.9,3.4-23.5,8-34.5,13.4v-0.1c-5,2.6-9.4,5-14,7.6c1.3-0.9,2.7-1.8,4.1-2.5
		c-7,3.3-13.7,7.1-20.3,11.4c17-14.1,39.6-23.9,59.9-32.5c-6.3,1.1-13.3,5.9-18.8,6.9c9.4-4.2,19-8,28.8-11.1l-2.1,1
		c6.4-1.4,12.7-4.1,19-5.8l1.7-0.4l-1.7,0.4c-5.8,1.4-11.5,3-17,4.8c2.7-1.2,5.5-2.2,8.4-2.9c-2.4,0.3-4.7,0.7-6.9,1.3
		c-3.3,1.1-6.6,2.2-9.8,3.4c5-1.9,9.7-3.9,14.2-5.9c-7,1.8-14.1,4.3-20.9,6.7c3.7-1.6,7.3-3.1,11.2-4.4c6.4-2.1,12.8-3.9,19.4-5.7
		l-0.7,0.2l1.4-0.5c2.6-0.7,5.2-1.3,7.8-2.1c2.3-0.7,4.5-1.6,6.7-2.4l1.1-0.3c-0.7,0.4-1,0.7,0.4,0.4c6.2-0.9,12.5-3.3,19.7-3.9
		c2.4-0.3,4.7-0.7,7-1.3c0.5,0.1,1-0.1,1.4-0.3l1.8-0.4c1.4-0.2,2.9-0.5,4.2-0.8c-1.3,0.2-2.8,0.5-4.2,0.8l-1.6,0.3
		c0.4-0.3,0.9-0.6,1.4-0.6c-9.8,1.6-20.1,3.3-30.2,5.9c0.5-0.3,1.3-0.7,1.8-0.9l-2.9,1.2c-3.3,0.8-6.5,1.8-9.7,2.8
		c0.8-0.3,1.8-0.7,2.5-1.2c-9.3,2.4-18.5,5.4-27.5,8.9c-8.6,2.8-17.1,5.8-25.3,9.3c4.7-1.4,9.4-3.1,14.3-4.9C81.3,51,69,57,56.8,63
		c1.8-1.9,4.4-3.9,5.4-5.5c-0.3-0.4-4.2,1.6-2.2,0.1c7.6-5.6,14.4-7.3,16.7-11.4c0.3-1-10.3,1.2-7.5-0.7c2.5-1.6,7.1-3.8,12.2-6.2
		c1.6-0.6,3.1-1.1,4.7-1.9c0.2,0,0.5-0.3,0.8-0.6c4.5-2.1,9.3-3.8,14.1-5.5l3.4-1c0.5-0.1,1.1-0.1,1.7,0c0.6-0.4,1.2-0.8,2-1.1
		c3-0.8,6-1.8,9-2.6l5.1-0.8c-0.1-0.1-0.4-0.3-0.1-0.5c3.7-1,7.4-2,11.2-2.9c1.4-0.2,2.9-0.2,4.3-0.1c3.6-2.5,13.2-3.7,19.6-5.2V17
		c3.3-0.6,6.6-1.1,9.9-1.8l1.7,0.2c0.8-0.4,1.7-0.5,2.1-0.7c2.7-0.2,5.1-0.2,7.3-0.3c0.6-0.4,1.2-0.7,2-0.9c1.8-0.2,3.5-0.4,5.2-0.7
		c2-0.2,3.9-0.3,6-0.5c6.7-0.5,13.4-0.7,20.1-0.8c0.2,0.2,0.3,0.4,0.4,0.6c1.1-0.2,2.2-0.4,3.3-0.4c-0.2,0.1-0.3,0.2-0.2,0.3
		c3-0.6,3.6,0,6.3,0c0.6-0.1,1.1-0.2,1.8-0.4h0.9c3.1,0.9,6.1,0.5,9.5,0.4c3.4,0.2,6.8,0.4,10.2,0.7C246.1,13.2,247,13.9,249,14.3z"
		/>
	<path class="st0" d="M150.1,19.3c3.2-0.4,6.4-0.8,9.5-1.1C156.3,18.8,153.4,19.7,150.1,19.3z"/>
	<path class="st0" d="M66.9,45.9c-1.4,0.2-2.9,0.5-4.2,1c7.4-3.6,14.9-7,22.6-10.2l0,0C79.1,39.5,70,42.7,66.9,45.9z"/>
	<polygon class="st0" points="141.5,20.9 141.9,20.5 141.9,20.5 	"/>
	<path class="st0" d="M57.3,61.3l-0.6,0.3l5.1-3.1C60.4,59.5,58.9,60.3,57.3,61.3z"/>
	<path class="st0" d="M38.9,71.5c-3.3,2.3-6.6,4.5-9.8,6.9c-4.3,2.8-8.5,5.7-12.8,8.1C23.5,81.2,31,76.3,38.9,71.5z"/>
	<path class="st0" d="M52.5,52.7c-1.6,0.6-3.2,1.2-4.9,1.9c1.6-0.8,3.1-1.7,4.7-2.4C52,52.5,52.3,52.5,52.5,52.7z"/>
	<path class="st0" d="M71.6,53.2l-1,0.5l2.6-1.8C72.9,52.3,72.1,52.8,71.6,53.2z"/>
	<path class="st0" d="M36,61l3.3-1.9c-0.6,0.5-1.1,1-1.7,1.6C37,60.6,36.5,60.7,36,61z"/>
	<path class="st0" d="M19.6,72.1c-1.4,0.9-2.8,2-4.1,2.9c1.6-1.2,3.2-2.6,4.9-3.7C20.1,71.7,19.8,72,19.6,72.1z"/>
	<path class="st0" d="M107.5,90.6v17.1h-3.7V90.6H107.5z"/>
	<path class="st0" d="M121.7,95.2c-0.2-0.4-0.5-0.7-0.8-0.9c-0.3-0.3-0.7-0.5-1.1-0.6c-0.4-0.1-0.9-0.2-1.3-0.2
		c-0.7,0-1.4,0.1-2.2,0.5c-0.6,0.3-1,0.7-1.4,1.3c-0.4,0.6-0.6,1.2-0.8,1.9c-0.2,0.7-0.3,1.4-0.2,2.2c0,0.7,0.1,1.3,0.2,2.1
		c0.1,0.6,0.4,1.2,0.8,1.9c0.4,0.5,0.8,1,1.4,1.3s1.4,0.5,2.2,0.5c1,0.1,2-0.3,2.7-1c0.7-0.8,1.1-1.8,1.1-2.8h3.6
		c-0.1,1-0.3,2-0.7,2.9c-0.4,0.8-0.9,1.6-1.6,2.2c-0.6,0.6-1.4,1-2.3,1.3c-2.1,0.7-4.3,0.6-6.4-0.2c-1-0.4-1.9-1-2.7-1.9
		c-0.7-0.8-1.3-1.8-1.7-2.8c-0.4-1.1-0.6-2.3-0.6-3.5s0.2-2.4,0.6-3.5c0.3-1,0.9-2.1,1.7-2.9c0.7-0.8,1.7-1.4,2.7-1.9
		c1.1-0.5,2.3-0.7,3.5-0.7c0.9,0,1.8,0.1,2.7,0.4c0.8,0.2,1.6,0.6,2.3,1.1c0.6,0.5,1.2,1.1,1.7,2c0.4,0.8,0.7,1.7,0.8,2.6h-3.6
		C122.1,95.9,121.9,95.5,121.7,95.2z"/>
	<path class="st0" d="M141.2,90.6v3.1h-9v3.7h8.3v2.9h-8.3v4.1h9.2v3.1h-12.9v-17H141.2z"/>
	<path class="st0" d="M151.9,90.6c0.7,0,1.4,0.1,2.2,0.2c0.6,0.1,1.2,0.3,1.8,0.7c0.5,0.3,0.8,0.8,1.1,1.3c0.3,0.6,0.4,1.3,0.4,2
		c0,0.7-0.2,1.6-0.6,2.2c-0.4,0.6-1,1.1-1.8,1.4c0.9,0.2,1.8,0.8,2.4,1.6c0.9,1.6,1,3.4,0.3,5c-0.3,0.6-0.8,1.1-1.3,1.6
		c-0.6,0.4-1.2,0.7-2,0.8c-0.7,0.2-1.4,0.3-2.3,0.3h-8.3V90.6H151.9z M151.4,97.5c0.6,0,1.1-0.1,1.7-0.5c0.4-0.4,0.7-0.9,0.6-1.6
		c0-0.3-0.1-0.7-0.2-0.9c-0.1-0.2-0.3-0.4-0.6-0.6c-0.2-0.1-0.5-0.2-0.8-0.3s-0.6-0.1-0.9-0.1h-3.5v3.9h3.8V97.5z M151.6,104.8
		c0.3,0,0.7,0,1-0.1c0.3-0.1,0.6-0.2,0.9-0.3c0.2-0.2,0.5-0.4,0.6-0.7c0.2-0.3,0.2-0.7,0.2-1.1c0.1-0.7-0.2-1.4-0.7-1.9
		c-0.6-0.4-1.2-0.6-2-0.5h-4v4.7H151.6z"/>
	<path class="st0" d="M173.4,90.6v3.1h-9v3.7h8.3v2.9h-8.3v4.1h9.2v3.1h-12.9v-17H173.4z"/>
	<path class="st0" d="M185.3,90.6c0.7,0,1.4,0.1,2.1,0.4c0.6,0.2,1.1,0.6,1.6,1c0.4,0.4,0.8,0.9,1,1.4c0.2,0.6,0.3,1.2,0.3,1.9
		c0,0.9-0.2,1.8-0.6,2.6c-0.5,0.8-1.2,1.3-2.1,1.7v0.1c0.4,0.1,0.8,0.3,1.1,0.6c0.3,0.3,0.5,0.6,0.7,0.9c0.2,0.4,0.3,0.7,0.4,1.1
		c0.1,0.4,0.1,0.8,0.2,1.2c0,0.3,0,0.6,0.1,0.9c0.1,0.3,0,0.7,0.1,1.1c0,0.4,0.1,0.7,0.2,1.1c0.1,0.3,0.2,0.6,0.4,0.8h-3.7
		c-0.2-0.6-0.3-1.2-0.4-2c0-0.7-0.1-1.4-0.2-2.2c0-0.7-0.3-1.4-0.8-2c-0.6-0.5-1.3-0.7-2.1-0.6H180v6.6h-3.7v-17H185.3z M184,98.3
		c0.7,0,1.3-0.1,2-0.6c0.5-0.5,0.7-1.1,0.6-1.9c0.1-0.6-0.2-1.3-0.6-1.8c-0.5-0.4-1.2-0.6-2-0.5h-4.1v4.8H184z"/>
	<path class="st0" d="M203.5,107.6c-0.8,0.3-1.7,0.5-2.5,0.5c-1.2,0-2.4-0.2-3.5-0.7c-1-0.4-1.9-1-2.7-1.9c-0.7-0.8-1.2-1.8-1.7-2.8
		c-0.4-1.1-0.6-2.3-0.6-3.5c0-1.2,0.2-2.4,0.6-3.5c0.3-1,0.9-2.1,1.7-2.9c0.7-0.8,1.7-1.4,2.7-1.9c2-0.8,4-0.9,6.1-0.3
		c0.8,0.2,1.6,0.6,2.2,1.1c1.4,1,2.3,2.7,2.5,4.4h-3.6c-0.1-0.8-0.6-1.7-1.2-2.2c-0.7-0.5-1.4-0.7-2.3-0.7c-0.7,0-1.4,0.1-2.2,0.5
		c-0.6,0.3-1,0.7-1.4,1.3c-0.4,0.6-0.6,1.2-0.8,1.9c-0.2,0.7-0.2,1.4-0.2,2.2s0.1,1.3,0.2,2.1c0.1,0.6,0.4,1.2,0.8,1.9
		c0.4,0.5,0.8,1,1.4,1.3c0.6,0.3,1.4,0.5,2.2,0.5c1,0.1,2.1-0.3,2.9-0.9c0.7-0.7,1.1-1.7,1.1-2.7h-3.8v-2.9h7.1v9.2h-2.4l-0.4-2
		C205.2,106.5,204.4,107.2,203.5,107.6z"/>
	<path class="st0" d="M75.1,125.5c0.2,0.4,0.5,0.7,0.8,0.9c0.4,0.2,0.8,0.4,1.2,0.5c0.5,0.1,0.9,0.2,1.4,0.2c0.3,0,0.7,0,1-0.1
		c0.3-0.1,0.7-0.2,1-0.3c0.3-0.2,0.6-0.4,0.8-0.6c0.2-0.3,0.3-0.6,0.3-1c0-0.4-0.1-0.8-0.4-1.1c-0.3-0.3-0.7-0.5-1.1-0.7
		c-0.5-0.2-1-0.4-1.7-0.5c-0.6-0.1-1.2-0.3-1.9-0.5c-0.6-0.1-1.2-0.3-1.9-0.6c-0.6-0.2-1.1-0.5-1.7-0.9c-0.5-0.4-0.8-0.8-1.1-1.3
		c-0.3-0.6-0.5-1.3-0.4-2c0-0.8,0.2-1.6,0.5-2.3c0.4-0.6,0.8-1.2,1.4-1.7c0.6-0.4,1.3-0.7,2.1-0.9c0.7-0.2,1.6-0.3,2.3-0.3
		c0.8,0,1.8,0.1,2.6,0.3c0.8,0.2,1.6,0.5,2.2,0.9c0.6,0.4,1.1,1,1.6,1.8c0.4,0.8,0.6,1.7,0.5,2.5h-3.5c0-0.4-0.1-0.8-0.3-1.2
		c-0.2-0.3-0.4-0.6-0.7-0.8c-0.3-0.2-0.6-0.3-1-0.4c-0.4-0.1-0.8-0.1-1.2-0.1c-0.3,0-0.6,0-0.9,0.1c-0.3,0.1-0.6,0.2-0.8,0.3
		c-0.2,0.1-0.4,0.3-0.6,0.6c-0.2,0.3-0.2,0.6-0.2,0.9c0,0.3,0,0.5,0.2,0.8c0.2,0.2,0.4,0.4,0.7,0.6c0.5,0.2,1,0.4,1.6,0.5l2.6,0.7
		c0.3,0.1,0.7,0.2,1.3,0.3c0.6,0.2,1.1,0.4,1.7,0.8c0.6,0.4,1,0.8,1.4,1.4c0.4,0.7,0.6,1.6,0.6,2.4c0,0.7-0.1,1.4-0.4,2.2
		c-0.3,0.7-0.7,1.2-1.3,1.8c-0.6,0.5-1.4,0.9-2.3,1.1c-1,0.3-2.1,0.4-3.1,0.4c-0.9,0-1.9-0.1-2.7-0.3c-0.8-0.2-1.7-0.6-2.4-1.1
		s-1.2-1.1-1.7-1.9c-0.4-0.8-0.6-1.8-0.6-2.7h3.6C74.7,124.5,74.8,125,75.1,125.5z"/>
	<path class="st0" d="M87.5,117.7c0.3-1,0.9-2.1,1.7-2.9c0.7-0.8,1.7-1.4,2.7-1.9c2.3-0.9,4.8-0.9,7,0c1,0.4,1.9,1.1,2.6,1.9
		c0.7,0.8,1.2,1.8,1.7,2.9c0.4,1.1,0.6,2.4,0.6,3.5c0,1.1-0.2,2.4-0.6,3.5c-0.3,1-0.9,2-1.7,2.8c-0.7,0.8-1.7,1.4-2.6,1.9
		c-2.3,0.9-4.8,0.9-7,0c-1-0.4-1.9-1-2.7-1.9c-0.7-0.8-1.2-1.8-1.7-2.8c-0.4-1.1-0.6-2.3-0.6-3.5C87,120,87.2,118.8,87.5,117.7z
		 M91,123.3c0.2,0.6,0.4,1.2,0.8,1.9c0.4,0.5,0.8,1,1.4,1.3c1.3,0.6,2.9,0.6,4.3,0c0.6-0.3,1-0.7,1.4-1.3c0.4-0.5,0.6-1.1,0.8-1.9
		c0.2-0.7,0.2-1.3,0.2-2.1c0-0.7-0.1-1.4-0.2-2.2c-0.1-0.6-0.4-1.3-0.8-1.9c-0.4-0.5-0.8-1-1.4-1.3c-1.3-0.6-2.9-0.6-4.3,0
		c-0.6,0.3-1,0.7-1.4,1.3c-0.4,0.6-0.6,1.2-0.8,1.9c-0.2,0.7-0.2,1.4-0.2,2.2C90.8,121.9,90.9,122.6,91,123.3L91,123.3z"/>
	<path class="st0" d="M110.1,112.6v13.9h8.3v3.2h-12v-17.1H110.1z"/>
	<path class="st0" d="M133,128.3c-1.6,1.2-3.4,1.8-5.4,1.7c-2,0.1-3.8-0.5-5.4-1.7c-1.3-1.3-2.1-3.2-1.9-5.2v-10.5h3.7v10.5
		c0,0.4,0,0.9,0.1,1.3c0.1,0.4,0.2,0.8,0.5,1.1c0.3,0.3,0.6,0.6,1,0.8c0.6,0.2,1.2,0.3,1.9,0.3c1,0.1,2.1-0.2,2.8-0.9
		c0.6-0.8,0.8-1.8,0.7-2.8v-10.5h3.7v10.5C135.1,125.1,134.4,127,133,128.3z"/>
	<path class="st0" d="M136.9,115.7v-3.1h14v3.1h-5.1v13.9H142v-13.9C142,115.7,136.9,115.7,136.9,115.7z"/>
	<path class="st0" d="M156.5,112.6v17.1h-3.7v-17.1H156.5z"/>
	<path class="st0" d="M159.6,117.7c0.3-1,0.9-2.1,1.7-2.9c0.7-0.8,1.7-1.4,2.7-1.9c2.3-0.9,4.8-0.9,7,0c1,0.4,1.9,1.1,2.6,1.9
		c0.7,0.8,1.2,1.8,1.7,2.9c0.4,1.1,0.6,2.4,0.6,3.5c0,1.1-0.2,2.4-0.6,3.5c-0.3,1-0.9,2-1.7,2.8c-0.7,0.8-1.7,1.4-2.6,1.9
		c-2.3,0.9-4.8,0.9-7,0c-1-0.4-1.9-1-2.7-1.9c-0.7-0.8-1.2-1.8-1.7-2.8c-0.4-1.1-0.6-2.3-0.6-3.5C159.1,120,159.3,118.8,159.6,117.7
		z M163,123.3c0.1,0.6,0.4,1.2,0.8,1.9c0.4,0.5,0.8,1,1.4,1.3c1.3,0.6,2.9,0.6,4.3,0c0.6-0.3,1-0.7,1.4-1.3c0.4-0.5,0.6-1.1,0.8-1.9
		c0.2-0.7,0.2-1.3,0.2-2.1c0-0.7-0.1-1.4-0.2-2.2c-0.1-0.6-0.4-1.3-0.8-1.9c-0.3-0.5-0.8-1-1.4-1.3c-1.3-0.6-2.9-0.6-4.3,0
		c-0.6,0.3-1,0.7-1.4,1.3c-0.4,0.6-0.6,1.2-0.8,1.9c-0.2,0.7-0.2,1.4-0.2,2.2C162.8,121.9,162.9,122.7,163,123.3L163,123.3z"/>
	<path class="st0" d="M182.1,112.6l7.1,11.5l0,0v-11.5h3.5v17.1h-3.8l-7.1-11.4l0,0v11.4h-3.5v-17.1H182.1z"/>
	<path class="st0" d="M198.9,125.5c0.2,0.4,0.5,0.7,0.8,0.9c0.4,0.2,0.7,0.4,1.2,0.5c0.5,0.1,0.9,0.2,1.4,0.2c0.3,0,0.7,0,1-0.1
		c0.3-0.1,0.7-0.2,1-0.3c0.3-0.2,0.6-0.4,0.8-0.6c0.2-0.3,0.3-0.6,0.3-1c0-0.4-0.1-0.8-0.4-1.1c-0.3-0.3-0.7-0.5-1.1-0.7
		c-0.5-0.2-1-0.4-1.7-0.5c-0.6-0.1-1.2-0.3-1.9-0.5s-1.2-0.3-1.9-0.6c-0.6-0.2-1.1-0.5-1.7-0.9c-0.5-0.4-0.8-0.8-1.1-1.3
		c-0.3-0.6-0.4-1.3-0.4-2c0-0.8,0.2-1.6,0.6-2.3c0.3-0.6,0.8-1.2,1.4-1.7c0.6-0.4,1.3-0.7,2.1-0.9c0.7-0.2,1.6-0.3,2.3-0.3
		c0.8,0,1.8,0.1,2.6,0.3c0.8,0.2,1.6,0.5,2.2,0.9c0.6,0.4,1.1,1,1.6,1.8c0.4,0.8,0.6,1.7,0.5,2.5h-3.6c0-0.4-0.1-0.8-0.3-1.2
		c-0.2-0.3-0.4-0.6-0.7-0.8s-0.6-0.3-1-0.4c-0.4-0.1-0.8-0.1-1.2-0.1c-0.3,0-0.6,0-0.9,0.1c-0.3,0.1-0.6,0.2-0.8,0.3
		c-0.2,0.1-0.4,0.3-0.6,0.6c-0.2,0.3-0.3,0.6-0.2,0.9c0,0.3,0.1,0.5,0.2,0.8c0.2,0.3,0.4,0.4,0.7,0.6c0.5,0.2,1,0.4,1.6,0.5l2.6,0.7
		c0.3,0.1,0.7,0.2,1.3,0.3c0.6,0.2,1.1,0.4,1.7,0.8c0.6,0.4,1,0.9,1.4,1.4c0.4,0.7,0.6,1.6,0.6,2.4c0,0.7-0.1,1.4-0.4,2.2
		c-0.3,0.7-0.7,1.2-1.3,1.8c-0.6,0.5-1.4,0.9-2.2,1.1c-1,0.3-2.1,0.4-3.1,0.4c-0.9,0-1.9-0.1-2.7-0.3c-0.8-0.2-1.7-0.6-2.4-1.1
		s-1.2-1.1-1.7-1.9c-0.4-0.8-0.6-1.8-0.6-2.7h3.6C198.6,124.5,198.7,125,198.9,125.5z"/>
	<path class="st1" d="M0.6,114.2l2.5-2.5C2.3,112.6,1.5,113.4,0.6,114.2z"/>
</g>
</svg>
