<svg xmlns="http://www.w3.org/2000/svg" width="125.821" height="16.329" viewBox="0 0 125.821 16.329">
    <g data-name="Grupo 671">
        <path data-name="Trazado 1455" d="M974.7 367.311h8l-4.18-6.749-7.684 12.191h-3.389l9.328-14.6a2.224 2.224 0 0 1 3.1-.55 2.263 2.263 0 0 1 .532.524l9.353 14.625h-3.487l-1.643-2.721h-8.089l-1.828-2.846m38.086 2.846v-13.6h-3.265v14.836a1.432 1.432 0 0 0 .44 1.037 1.5 1.5 0 0 0 1.078.451h13.474l1.757-2.721h-13.493m-51.49-2.668a5.471 5.471 0 0 0 5.41-6.28 5.579 5.579 0 0 0-5.58-4.657h-13.636v16.324h3.265v-13.6h10.7a2.7 2.7 0 0 1 2.586 1.824 2.73 2.73 0 0 1-2.577 3.618h-9.178l9.383 8.162h4.584l-6.482-5.442h1.325m-32.648 5.442h9.579a8.165 8.165 0 0 0 0-16.324h-9.489a8.165 8.165 0 1 0-.423 16.324h.423m9.161-2.721h-8.855a5.172 5.172 0 0 1 0-10.338h8.871a5.172 5.172 0 0 1 .334 10.338h-.334m59.294 2.721h9.424l1.737-2.721h-11.051a5.46 5.46 0 0 1-5.421-6.947 5.043 5.043 0 0 1 1.315-2.293 5.566 5.566 0 0 1 4.106-1.643h9.048l1.751-2.72H996.8a8.086 8.086 0 0 0-.42 16.166h.42m38.018-2.563a5.235 5.235 0 0 1-5.039-3.809h13.33l1.744-2.721h-15.073l5.039-4.353h9.163l1.736-2.72h-11.072a8.165 8.165 0 0 0 0 16.324h9.594l1.743-2.721h-11.428" transform="translate(-920.162 -356.426)" style="fill:#606060"/>
    </g>
</svg>
