<svg xmlns="http://www.w3.org/2000/svg" width="107.046" height="71.496" viewBox="0 0 107.046 71.496">
    <g data-name="Grupo 676">
        <path data-name="Trazado 704" d="M616.7 490.753a19.333 19.333 0 0 0-15.373 31.056l16.073-21.121h-3.447a26.583 26.583 0 0 0-4.794.37 5.155 5.155 0 0 0-1.971.8 7.732 7.732 0 0 0-1.968 2.341c-.06.109-.148.275-.261.5l-.941-.207 1.575-6.07h20.132l-15.995 21.389a21.362 21.362 0 0 1 2.3-.112q.973 0 2.953.118l2.842.169c1.026.061 1.891.092 2.546.092a10.986 10.986 0 0 0 3.367-.4 7.518 7.518 0 0 0 2.069-1 9.593 9.593 0 0 0 2.868-3.269c.065-.126.169-.317.29-.574l.851.22a12.18 12.18 0 0 1-.848 2.411 9.9 9.9 0 0 1-3.164 4.194 7.778 7.778 0 0 1-4.682 1.541h-.272a33.875 33.875 0 0 1-5.539-.6 41.774 41.774 0 0 0-6.511-.664 19.266 19.266 0 0 0-3.149.25 9.988 9.988 0 0 0-3.194.962 19.333 19.333 0 1 0 14.247-32.4" transform="translate(-562.439 -490.753)" style="fill:#606060"/>
        <path data-name="Trazado 705" d="M580.228 542.818h-14.8l-1.819 4.017a11.356 11.356 0 0 1 1.379-.649 13.683 13.683 0 0 1 2.661-.752 17.3 17.3 0 0 1 2.653-.231q.777-.023 1.46-.023h2.191l-11.514 16.455h16.276l1.878-4.292a13.23 13.23 0 0 1-1.386.722 12.788 12.788 0 0 1-3.041.932 19.886 19.886 0 0 1-2.958.261q-.59.015-1.506.015h-2.884z" transform="translate(-562.439 -490.753)" style="fill-rule:evenodd;fill:#606060"/>
        <path data-name="Trazado 706" d="M629.145 561.635a2.551 2.551 0 0 1-.581-.663 3.1 3.1 0 0 1-.291-.574 5.072 5.072 0 0 1-.261-1.655v-11.335l.008-1.1a6.377 6.377 0 0 1 .2-2.117 2.769 2.769 0 0 1 .976-1.371h-6.044a3.125 3.125 0 0 1 .7.745 2.4 2.4 0 0 1 .291.611 6.792 6.792 0 0 1 .193 2.027q.008.859.008 1.133V558.6a5.335 5.335 0 0 1-.3 1.818 2.814 2.814 0 0 1-.3.552 4.68 4.68 0 0 1-.573.663z" transform="translate(-562.439 -490.753)" style="fill-rule:evenodd;fill:#606060"/>
        <path data-name="Trazado 707" d="M648.044 542.989a9.169 9.169 0 0 0-1.148-.306 15.5 15.5 0 0 0-3.307-.335 13.528 13.528 0 0 0-5.367 1 10.817 10.817 0 0 0-2.586 1.535 9.61 9.61 0 0 0-3.579 7.69 9.159 9.159 0 0 0 3.437 7.393 11.036 11.036 0 0 0 7.032 2.178 17.148 17.148 0 0 0 5.28-.844l.3-.1v-3.42c-.45.3-.6.4-.879.559a10.616 10.616 0 0 1-1.155.574 8.176 8.176 0 0 1-3.284.7 6.393 6.393 0 0 1-4.847-2.027 7.557 7.557 0 0 1-1.878-5.213 7.856 7.856 0 0 1 1.7-5.079 6.233 6.233 0 0 1 1.707-1.393 7.382 7.382 0 0 1 3.639-.9 8.835 8.835 0 0 1 3.381.679 6.138 6.138 0 0 1 1.55.85z" transform="translate(-562.439 -490.753)" style="fill-rule:evenodd;fill:#606060"/>
        <path data-name="Trazado 708" d="M664.544 553.094v4.591a13.556 13.556 0 0 1-.082 1.915 3.473 3.473 0 0 1-.2.812 2.768 2.768 0 0 1-.678.984 11.14 11.14 0 0 1-.261.239h6.014a3.724 3.724 0 0 1-.507-.582 3.045 3.045 0 0 1-.35-.619 4.085 4.085 0 0 1-.246-1.7q-.015-.834-.015-.977l.015-10.351v-1.116a7.719 7.719 0 0 1 .208-1.99 2.709 2.709 0 0 1 .3-.693 2.531 2.531 0 0 1 .746-.79h-6.141a2.658 2.658 0 0 1 .686.768 3.036 3.036 0 0 1 .313.656 6.371 6.371 0 0 1 .2 1.975v4.575h-8.436v-3.435c0-1.039.016-1.721.052-2.228a3.421 3.421 0 0 1 .149-.82 3.923 3.923 0 0 1 .783-1.289 4.13 4.13 0 0 1 .208-.2h-6.029a4.631 4.631 0 0 1 .619.723 2.689 2.689 0 0 1 .32.641 5.372 5.372 0 0 1 .209 1.99l.015 1.192v10.3a15.992 15.992 0 0 1-.074 1.983 3.213 3.213 0 0 1-.187.745 2.685 2.685 0 0 1-.723 1.058c-.045.043-.115.1-.208.187h5.956a3.245 3.245 0 0 1-.5-.619 3.608 3.608 0 0 1-.3-.589 4.138 4.138 0 0 1-.275-1.647q-.015-.6-.015-1.125v-4.561z" transform="translate(-562.439 -490.753)" style="fill-rule:evenodd;fill:#606060"/>
        <path data-name="Trazado 709" d="M582.792 542.818a2.4 2.4 0 0 1 .686.76 2.516 2.516 0 0 1 .268.656 4 4 0 0 1 .119.864c.006.207.011.6.015 1.17l.008 1.088v5.381c0 1.9.014 2.554.074 3.316a6.119 6.119 0 0 0 1.319 3.458 6.941 6.941 0 0 0 3.175 2.206 10.26 10.26 0 0 0 3.431.532 11.444 11.444 0 0 0 3.812-.592 7.243 7.243 0 0 0 2.8-1.878 6.22 6.22 0 0 0 1.521-3.644 29.414 29.414 0 0 0 .127-3.368v-5.411l-.008-1.065v-.151a7.328 7.328 0 0 1 .171-1.864 2.43 2.43 0 0 1 .844-1.294l.215-.164H595.8a2.7 2.7 0 0 1 .41.82 3.954 3.954 0 0 1 .157.708 25.433 25.433 0 0 1 .119 3.122v5.843a20.577 20.577 0 0 1-.156 3.189 3.788 3.788 0 0 1-.485 1.372 3.691 3.691 0 0 1-2.318 1.617 5.586 5.586 0 0 1-1.335.15 5.171 5.171 0 0 1-2.555-.612 3.243 3.243 0 0 1-1.118-.976c-.516-.754-.667-1.513-.685-3.443l-.023-2.37v-4.77a25.19 25.19 0 0 1 .12-3.122 3.53 3.53 0 0 1 .462-1.357c.022-.038.057-.1.1-.171z" transform="translate(-562.439 -490.753)" style="fill-rule:evenodd;fill:#606060"/>
        <path data-name="Trazado 710" d="M609.307 557.767c0 .344 0 .659.007.947a4.679 4.679 0 0 0 .246 1.736 2.671 2.671 0 0 0 .321.574 4.838 4.838 0 0 0 .521.611h-5.984a4.1 4.1 0 0 0 .626-.656 2.389 2.389 0 0 0 .328-.6 5.166 5.166 0 0 0 .216-1.818v-12.345a7.033 7.033 0 0 0-.186-2 2.728 2.728 0 0 0-.328-.686 3.146 3.146 0 0 0-.633-.708h4.859q.9 0 1.744.022a15.269 15.269 0 0 1 3.22.328 6.2 6.2 0 0 1 3.055 1.692 4.381 4.381 0 0 1 1.276 3.089 4.693 4.693 0 0 1-.233 1.449 4.524 4.524 0 0 1-1.482 2.147 8.146 8.146 0 0 1-2.318 1.341 8.407 8.407 0 0 1-.835.291l2.921 3.435q.533.625 1.372 1.535c.88.955 1.468 1.557 2.131 2.184q.429.405.812.738c.244.211.368.314.686.566h-2.362q-.523 0-.977-.015a3.857 3.857 0 0 1-1.87-.44 8.17 8.17 0 0 1-1.945-1.542q-.314-.323-.917-1.014-.534-.611-.783-.909l-3.487-4.181zm.3-5.81a6.884 6.884 0 0 0 .984-.085 6.06 6.06 0 0 0 2.37-.767 3.664 3.664 0 0 0 .879-.708 3.107 3.107 0 0 0 .732-2.121 2.9 2.9 0 0 0-.97-2.313 3.429 3.429 0 0 0-1.274-.678 9.516 9.516 0 0 0-2.536-.316c-.154 0-.254 0-.49.01v6.968c.147.008.21.01.3.01" transform="translate(-562.439 -490.753)" style="fill-rule:evenodd;fill:#606060"/>
    </g>
</svg>
