<?xml version="1.0" encoding="utf-8"?>
<!-- Generator: Adobe Illustrator 26.1.0, SVG Export Plug-In . SVG Version: 6.00 Build 0)  -->
<svg version="1.1" id="Capa_1" xmlns="http://www.w3.org/2000/svg" xmlns:xlink="http://www.w3.org/1999/xlink" x="0px" y="0px"
	 viewBox="0 0 603.3 118.3" style="enable-background:new 0 0 603.3 118.3;" xml:space="preserve">
<style type="text/css">
	.st0{fill:#606060;}
	.st1{fill:#FFFFFF;}
</style>
<g>
	<path class="st0" d="M153.7,98.4V73.2h10.8c20.1,0,32.2-11.2,32.2-28c0-15.8-12.3-25-29.9-25h-26.2v78.2H153.7z M166.3,31.8
		c10.4,0,17.4,4.8,17.4,14.9c0,9.3-7.8,14.9-18,14.9h-11.9V31.8H166.3z M377.6,71c0-16.2-12.2-28.4-28.4-28.4
		c-15.6,0-28.3,12.6-28.3,28.2c0,0,0,0,0,0v0.4c0,16.3,11.8,28.2,28.3,28.2c15.5,0.2,28.2-12.1,28.4-27.6c0,0,0,0,0,0
		C377.6,71.5,377.6,71.3,377.6,71L377.6,71z M333.3,71c0-9.3,6.9-16.8,15.9-16.5c10,0.3,16.3,7.3,16.1,16.5
		c-0.2,9.2-7,16.5-16.1,16.5S333.3,80.3,333.3,71L333.3,71z M500.3,74.3c0.3-1.9,0.4-3.8,0.3-5.7c0-15.2-11.6-26-26.4-26
		c-15.4-0.2-28,12.1-28.2,27.5v0.7c0,16.6,11.1,28.6,27.8,28.6c11.3,0,20.7-5.4,24.7-12.8l-9.7-5.4c-2.6,4.2-8,7.2-14.2,7.2
		c-8.6,0-14.7-5.2-15.9-14.1L500.3,74.3z M459.4,64.9c1.6-7.2,7-11.6,14.4-11.6s13.3,4.8,14,11.6H459.4z M307.4,43.7l-15.1,39
		l-13.5-39h-14.1l20.2,54.7l-8.4,19.2h13.4l30.8-73.9H307.4z M603.3,43.9c-1.7-0.5-3.5-0.7-5.4-0.7c-5.4,0-11.4,3.1-14,8.3v-7.8
		h-12.3v54.7H584V69.2c0-10.1,6.7-14.3,13.7-14.3c1.8,0,3.7,0.2,5.5,0.6L603.3,43.9L603.3,43.9z M562.6,74.3
		c0.3-1.9,0.4-3.8,0.3-5.7c0-15.2-11.6-26-26.4-26c-15.4-0.2-28,12.1-28.2,27.5v0.7c0,16.6,11.1,28.6,27.8,28.6
		c11.2,0,20.7-5.4,24.7-12.8l-9.7-5.4c-2.6,4.2-8,7.2-14.2,7.2c-8.6,0-14.7-5.2-15.9-14.1L562.6,74.3z M521.7,64.9
		c1.6-7.2,7-11.6,14.4-11.6c7.4,0,13.3,4.8,14,11.6H521.7z M245.1,70.9c0.2,9.4-7.2,17.1-16.5,17.4c0,0,0,0,0,0h-0.8
		c-9.5,0-15.9-7.5-15.9-17.4c0.1-9.4,7.7-17.1,17.1-17.2C238.6,53.7,245.1,61.1,245.1,70.9z M437.7,67.2c0-15.2-7.5-24.5-21.4-24.5
		c-7.3,0-14.1,3.1-17.8,8.2v-7.2H386v54.7h12.5V68.7c0-9.2,6.6-15,14.5-15s12.1,5.4,12.1,14.4v30.3h12.6V67.2z M245.1,43.7v7.2
		c-3.6-4.8-9.4-8.2-18.2-8.2c-15.1,0-27.7,13.4-27.7,29.1s10.8,27.7,25.4,27.7c9.4,0,16.5-3.4,20.4-9v7.9h12.2V43.7H245.1z"/>
	<circle class="st0" cx="58.4" cy="59.2" r="58.4"/>
	<circle class="st1" cx="58.4" cy="59.2" r="45.6"/>
</g>
</svg>
