<svg xmlns:xlink="http://www.w3.org/1999/xlink" xmlns="http://www.w3.org/2000/svg" width="86" height="25" viewBox="0 0 86 25"><defs><linearGradient id="ripple-a" gradientUnits="userSpaceOnUse" x1="83.682" y1="72.488" x2="231.177" y2="219.983" gradientTransform="matrix(.09843 0 0 .09952 -2.768 -2.518)"><stop offset="0" stop-color="#00aae4"></stop> <stop offset="1" stop-color="#006097"></stop></linearGradient><linearGradient id="ripple-a" gradientUnits="userSpaceOnUse" x1="83.682" y1="72.488" x2="231.177" y2="219.983" gradientTransform="matrix(.09843 0 0 .09952 -2.768 -2.518)"><stop offset="0" stop-color="#00aae4"></stop> <stop offset="1" stop-color="#006097"></stop></linearGradient></defs> <path d="M31.352 9.438c-.227-.075-.707-.126-1.184-.126-1.441 0-2.98 1.176-2.98 2.633v6.934H23.91V6.504h3.152v1.25c.731-.918 2.07-1.504 3.56-1.504a6.62 6.62 0 0 1 1.108.102zm0 0M35.063 0c1.183 0 2.144.918 2.144 2.117 0 1.2-.96 2.117-2.145 2.117-1.187 0-2.144-.918-2.144-2.117C32.918.918 33.875 0 35.063 0zm1.636 18.879h-3.277V6.504h3.277zm0 0M46.39 6.25A5.568 5.568 0 0 0 42.81 7.5v-.996h-3.157V25h3.282v-6.988a5.113 5.113 0 0 0 3.28 1.12c1.817 0 3.556-.816 4.641-2.093.961-1.121 1.54-2.652 1.54-4.336 0-3.648-2.676-6.453-6.004-6.453zm-.398 9.871c-2.039 0-3.379-1.422-3.379-3.406 0-1.985 1.34-3.406 3.38-3.406 1.737 0 3.148 1.523 3.148 3.406 0 1.883-1.41 3.406-3.149 3.406zm0 0M72.3 18.879h-3.277V.766h3.278zm0 0M85.676 16.914c-1.188 1.43-3.13 2.219-5.024 2.219-3.656 0-6.406-2.551-6.406-6.43 0-3.441 2.32-6.453 5.953-6.453 3.383 0 5.778 2.883 5.778 6.328.003.317-.024.629-.075.942h-8.476c.176 1.734 1.562 2.933 3.304 2.933 1.387 0 2.497-.789 3.079-1.426zm-3.055-5.816C82.52 10 81.535 8.93 80.2 8.93c-1.363 0-2.472 1.047-2.625 2.168zm0 0M61.074 6.25a5.576 5.576 0 0 0-3.582 1.25v-.996h-3.156V25h3.281v-6.988a5.12 5.12 0 0 0 3.281 1.12c1.817 0 3.559-.816 4.641-2.093.961-1.121 1.54-2.652 1.54-4.336 0-3.648-2.673-6.453-6.005-6.453zm-.398 9.871c-2.035 0-3.375-1.422-3.375-3.406 0-1.985 1.34-3.406 3.375-3.406 1.738 0 3.148 1.523 3.148 3.406 0 1.883-1.41 3.406-3.148 3.406zm0 0" fill="#434C54"></path> <path d="M17.148 14.371c-.742-.434-1.578-.559-2.402-.586-.691-.027-1.726-.476-1.726-1.75 0-.95.761-1.715 1.726-1.75.828-.027 1.66-.152 2.402-.586 1.836-1.074 2.649-3.324 1.922-5.344-.726-2.015-2.78-3.214-4.87-2.843-2.09.375-3.614 2.21-3.614 4.36 0 .855.3 1.644.684 2.374.324.617.488 1.758-.622 2.406-.824.48-1.855.176-2.37-.656-.434-.703-.958-1.363-1.692-1.793a4.345 4.345 0 0 0-5.54.988 4.456 4.456 0 0 0 0 5.688 4.345 4.345 0 0 0 5.54.988c.734-.43 1.258-1.09 1.691-1.793.356-.574 1.246-1.312 2.371-.656.825.484 1.079 1.539.622 2.406-.383.73-.684 1.52-.684 2.375 0 2.149 1.523 3.985 3.613 4.36 2.09.37 4.145-.829 4.871-2.844.727-2.02-.086-4.27-1.922-5.344zm0 0" fill="url(&quot;#ripple-a&quot;)"></path></svg>