<?xml version="1.0" encoding="utf-8"?>
<!-- Generator: Adobe Illustrator 26.1.0, SVG Export Plug-In . SVG Version: 6.00 Build 0)  -->
<svg version="1.1" id="Capa_1" xmlns="http://www.w3.org/2000/svg" xmlns:xlink="http://www.w3.org/1999/xlink" x="0px" y="0px"
	 viewBox="0 0 86 26" style="enable-background:new 0 0 86 26;" xml:space="preserve">
<style type="text/css">
	.st0{fill:#606060;}
</style>
<g>
	<path class="st0" d="M31.4,9.9c-0.2-0.1-0.7-0.1-1.2-0.1c-1.4,0-3,1.2-3,2.6v6.9h-3.3V7h3.2v1.2c0.7-0.9,2.1-1.5,3.6-1.5
		c0.4,0,0.7,0,1.1,0.1L31.4,9.9z M35.1,0.5c1.2,0,2.1,0.9,2.1,2.1c0,1.2-1,2.1-2.1,2.1c-1.2,0-2.1-0.9-2.1-2.1S33.9,0.5,35.1,0.5z
		 M36.7,19.4h-3.3V7h3.3V19.4z M46.4,6.8c-1.3,0-2.6,0.4-3.6,1.2V7h-3.2v18.5h3.3v-7c0.9,0.7,2.1,1.1,3.3,1.1c1.8,0,3.6-0.8,4.6-2.1
		c1-1.1,1.5-2.7,1.5-4.3C52.4,9.6,49.7,6.8,46.4,6.8L46.4,6.8z M46,16.6c-2,0-3.4-1.4-3.4-3.4c0-2,1.3-3.4,3.4-3.4
		c1.7,0,3.1,1.5,3.1,3.4S47.7,16.6,46,16.6z M72.3,19.4H69V1.3h3.3L72.3,19.4z M85.7,17.4c-1.2,1.4-3.1,2.2-5,2.2
		c-3.7,0-6.4-2.6-6.4-6.4c0-3.4,2.3-6.5,6-6.5c3.4,0,5.8,2.9,5.8,6.3c0,0.3,0,0.6-0.1,0.9h-8.5c0.2,1.7,1.6,2.9,3.3,2.9
		c1.4,0,2.5-0.8,3.1-1.4L85.7,17.4z M82.6,11.6c-0.1-1.1-1.1-2.2-2.4-2.2c-1.4,0-2.5,1-2.6,2.2L82.6,11.6z M61.1,6.8
		c-1.3,0-2.6,0.4-3.6,1.2V7h-3.2v18.5h3.3v-7c0.9,0.7,2.1,1.1,3.3,1.1c1.8,0,3.6-0.8,4.6-2.1c1-1.1,1.5-2.7,1.5-4.3
		C67.1,9.6,64.4,6.8,61.1,6.8z M60.7,16.6c-2,0-3.4-1.4-3.4-3.4c0-2,1.3-3.4,3.4-3.4c1.7,0,3.1,1.5,3.1,3.4S62.4,16.6,60.7,16.6z"/>
	<path class="st0" d="M17.1,14.9c-0.7-0.4-1.6-0.6-2.4-0.6c-0.7,0-1.7-0.5-1.7-1.8c0-0.9,0.8-1.7,1.7-1.8c0.8,0,1.7-0.2,2.4-0.6
		c1.8-1.1,2.6-3.3,1.9-5.3c-0.7-2-2.8-3.2-4.9-2.8c-2.1,0.4-3.6,2.2-3.6,4.4c0,0.9,0.3,1.6,0.7,2.4c0.3,0.6,0.5,1.8-0.6,2.4
		c-0.8,0.5-1.9,0.2-2.4-0.7c-0.4-0.7-1-1.4-1.7-1.8C4.7,7.6,2.4,8,1,9.7c-1.4,1.6-1.4,4,0,5.7c1.4,1.6,3.7,2.1,5.5,1
		c0.7-0.4,1.3-1.1,1.7-1.8c0.4-0.6,1.2-1.3,2.4-0.7c0.8,0.5,1.1,1.5,0.6,2.4c-0.4,0.7-0.7,1.5-0.7,2.4c0,2.1,1.5,4,3.6,4.4
		c2.1,0.4,4.1-0.8,4.9-2.8C19.8,18.2,19,15.9,17.1,14.9z"/>
</g>
</svg>
