<svg xmlns="http://www.w3.org/2000/svg" width="138.753" height="22.897" viewBox="0 0 138.753 22.897">
    <g data-name="Grupo 678">
        <path data-name="Trazado 1419" d="M203.987 516.381v5.856h-.462a7.307 7.307 0 0 0-.8-2.685 4.193 4.193 0 0 0-1.655-1.585 4.581 4.581 0 0 0-2.223-.587 3.022 3.022 0 0 0-2.148.793 2.413 2.413 0 0 0-.849 1.8 2.137 2.137 0 0 0 .537 1.411 13.793 13.793 0 0 0 3.684 2.5 25.327 25.327 0 0 1 3.24 1.954 4.775 4.775 0 0 1 1.337 1.6 4.235 4.235 0 0 1 .468 1.936 4.383 4.383 0 0 1-1.492 3.315 5.4 5.4 0 0 1-3.84 1.393 8.11 8.11 0 0 1-1.386-.113 14.246 14.246 0 0 1-1.605-.455 7.239 7.239 0 0 0-1.542-.394.649.649 0 0 0-.493.188 1.479 1.479 0 0 0-.269.774h-.462v-5.807h.462a8.23 8.23 0 0 0 .874 2.729 4.2 4.2 0 0 0 1.68 1.505 5.212 5.212 0 0 0 2.479.6 3.524 3.524 0 0 0 2.466-.825 2.552 2.552 0 0 0 .9-1.948 2.641 2.641 0 0 0-.343-1.261 3.761 3.761 0 0 0-1.068-1.186 30.65 30.65 0 0 0-2.66-1.592 25.766 25.766 0 0 1-3.09-1.942 5.234 5.234 0 0 1-1.393-1.6 3.97 3.97 0 0 1-.474-1.923 4.17 4.17 0 0 1 1.4-3.141 4.986 4.986 0 0 1 3.559-1.317 7.148 7.148 0 0 1 2.86.662 2.935 2.935 0 0 0 .986.311.743.743 0 0 0 .531-.193 1.545 1.545 0 0 0 .331-.78z" transform="translate(-179.475 -516.38)" style="fill:#606060"/>
        <path data-name="Trazado 1420" d="m221.282 516.768.187 3.971h-.474a4.819 4.819 0 0 0-.375-1.5 2.508 2.508 0 0 0-1.03-1.067 3.593 3.593 0 0 0-1.692-.343h-2.385v12.937a3.466 3.466 0 0 0 .337 1.948 1.876 1.876 0 0 0 1.461.524h.587v.462h-7.18v-.462h.6a1.722 1.722 0 0 0 1.524-.65 3.787 3.787 0 0 0 .274-1.822V517.83h-2.036a5.7 5.7 0 0 0-1.686.174 2.31 2.31 0 0 0-1.111.912 3.685 3.685 0 0 0-.55 1.823h-.474l.2-3.971z" transform="translate(-179.475 -516.38)" style="fill:#606060"/>
        <path data-name="Trazado 1421" d="M227.451 517.692v6.693h3.721a3.031 3.031 0 0 0 1.936-.437 2.812 2.812 0 0 0 .724-2.023h.462v5.9h-.462a6.454 6.454 0 0 0-.35-1.587 1.564 1.564 0 0 0-.736-.687 3.775 3.775 0 0 0-1.574-.249h-3.721v5.582a5.16 5.16 0 0 0 .1 1.367.779.779 0 0 0 .35.387 2.114 2.114 0 0 0 .949.144h2.872a7.788 7.788 0 0 0 2.085-.2 3.1 3.1 0 0 0 1.249-.787 9.6 9.6 0 0 0 1.586-2.335h.5l-1.462 4.24h-13.049v-.462h.6a2.382 2.382 0 0 0 1.137-.287 1.051 1.051 0 0 0 .543-.6 5.911 5.911 0 0 0 .143-1.635v-11a3.644 3.644 0 0 0-.324-1.985 1.935 1.935 0 0 0-1.5-.5h-.6v-.462h13.05l.187 3.709h-.487a5.842 5.842 0 0 0-.58-1.836 1.988 1.988 0 0 0-.943-.761 5.618 5.618 0 0 0-1.761-.188z" transform="translate(-179.475 -516.38)" style="fill:#606060"/>
        <path data-name="Trazado 1422" d="m252.388 529.019.412.087-1.448 4.595H238.24v-.462h.637a1.7 1.7 0 0 0 1.536-.7 4.041 4.041 0 0 0 .262-1.848v-10.925a3.5 3.5 0 0 0-.35-1.986 1.833 1.833 0 0 0-1.448-.549h-.637v-.462h7.667v.462a4.644 4.644 0 0 0-1.892.25 1.524 1.524 0 0 0-.743.661 5.458 5.458 0 0 0-.2 1.911v10.639a3.467 3.467 0 0 0 .2 1.424.9.9 0 0 0 .462.387 8.119 8.119 0 0 0 1.948.125h1.237a8.931 8.931 0 0 0 2.734-.288 3.552 3.552 0 0 0 1.436-1.017 8.34 8.34 0 0 0 1.3-2.3" transform="translate(-179.475 -516.38)" style="fill:#606060"/>
        <path data-name="Trazado 1423" d="m268.01 529.019.412.087-1.448 4.595h-13.112v-.462h.637a1.7 1.7 0 0 0 1.536-.7 4.041 4.041 0 0 0 .262-1.848v-10.925a3.5 3.5 0 0 0-.35-1.986 1.833 1.833 0 0 0-1.448-.549h-.637v-.462h7.667v.462a4.644 4.644 0 0 0-1.892.25 1.523 1.523 0 0 0-.743.661 5.457 5.457 0 0 0-.2 1.911v10.639a3.466 3.466 0 0 0 .2 1.424.9.9 0 0 0 .462.387 8.119 8.119 0 0 0 1.948.125h1.237a8.931 8.931 0 0 0 2.734-.288 3.552 3.552 0 0 0 1.436-1.017 8.34 8.34 0 0 0 1.3-2.3" transform="translate(-179.475 -516.38)" style="fill:#606060"/>
        <path data-name="Trazado 1424" d="M280.672 528.032h-6.556l-1.149 2.672a4.237 4.237 0 0 0-.425 1.474.857.857 0 0 0 .369.681 3.221 3.221 0 0 0 1.592.38v.462h-5.332v-.462a2.861 2.861 0 0 0 1.373-.487 7.632 7.632 0 0 0 1.411-2.434l5.957-13.936h.437l5.894 14.085a6.413 6.413 0 0 0 1.293 2.2 2.631 2.631 0 0 0 1.617.568v.462h-6.681v-.462a2.5 2.5 0 0 0 1.367-.337.869.869 0 0 0 .356-.7 5.177 5.177 0 0 0-.5-1.736zm-.35-.924-2.872-6.843-2.947 6.843z" transform="translate(-179.475 -516.38)" style="fill:#606060"/>
        <path data-name="Trazado 1425" d="M304.722 533.7H300.2l-5.732-7.917a26.8 26.8 0 0 1-1.036.025c-.109 0-.225 0-.35-.006s-.254-.011-.387-.019v4.92a3.443 3.443 0 0 0 .35 1.985 1.775 1.775 0 0 0 1.423.55h.662v.462h-7.255v-.462h.637a1.7 1.7 0 0 0 1.536-.7 3.947 3.947 0 0 0 .262-1.835v-10.938a3.456 3.456 0 0 0-.35-1.985 1.83 1.83 0 0 0-1.448-.55h-.637v-.462h6.169a14.684 14.684 0 0 1 3.977.393 4.565 4.565 0 0 1 2.173 1.449 3.769 3.769 0 0 1 .893 2.516 3.956 3.956 0 0 1-1.018 2.71 5.749 5.749 0 0 1-3.153 1.623l3.5 4.858a8.656 8.656 0 0 0 2.061 2.222 5.178 5.178 0 0 0 2.247.7zM292.7 525c.158 0 .3 0 .412.006s.212.007.287.007a5.505 5.505 0 0 0 3.653-1.049 3.357 3.357 0 0 0 1.23-2.672 3.489 3.489 0 0 0-.993-2.579 3.552 3.552 0 0 0-2.628-.993 11.037 11.037 0 0 0-1.961.237z" transform="translate(-179.475 -516.38)" style="fill:#606060"/>
        <path data-name="Trazado 1426" d="M179.475 538.734z" transform="translate(-179.475 -516.38)" style="fill:#606060"/>
        <path data-name="Rectángulo 343" transform="translate(0 21.81)" style="fill:#606060" d="M0 0h138.753v1.088H0z"/>
        <path data-name="Trazado 1427" d="m203.157 526.707-3.025-2.223 3.752-.133 1.179-3.563 1.286 3.527 3.753.02-2.957 2.313 1.141 3.576-3.113-2.1-3.049 2.19z" transform="translate(-179.475 -516.38)" style="fill:#606060"/>
        <path data-name="Trazado 1428" d="m271.345 519.4-1.359-1 1.686-.059.53-1.6.577 1.585 1.687.009-1.329 1.039.512 1.607-1.4-.942-1.37.984z" transform="translate(-179.475 -516.38)" style="fill:#606060"/>
        <path data-name="Trazado 1429" d="m248.969 521.179-.851-.625 1.055-.038.332-1 .362.992 1.056.006-.832.65.321 1.006-.876-.59-.858.616z" transform="translate(-179.475 -516.38)" style="fill:#606060"/>
    </g>
</svg>
