<svg xmlns:xlink="http://www.w3.org/1999/xlink" width="100" height="32" xmlns="http://www.w3.org/2000/svg" viewBox="0 0 812 255"><defs><linearGradient id="SVGID_1_" gradientUnits="userSpaceOnUse" x1="102.778" y1="138.521" x2="225.936" y2="86.942"><stop offset="0" stop-color="#f48a40"></stop> <stop offset=".538" stop-color="#f16537"></stop> <stop offset="1" stop-color="#be2232"></stop></linearGradient><linearGradient id="SVGID_1_" gradientUnits="userSpaceOnUse" x1="102.778" y1="138.521" x2="225.936" y2="86.942"><stop offset="0" stop-color="#f48a40"></stop> <stop offset=".538" stop-color="#f16537"></stop> <stop offset="1" stop-color="#be2232"></stop></linearGradient><linearGradient id="SVGID_2_" gradientUnits="userSpaceOnUse" x1="37.719" y1="108.15" x2="147.192" y2="98.676"><stop offset="0" stop-color="#f9a347"></stop> <stop offset=".478" stop-color="#f48c3f"></stop> <stop offset="1" stop-color="#ef6035"></stop></linearGradient></defs><linearGradient id="SVGID_1_" gradientUnits="userSpaceOnUse" x1="102.778" y1="138.521" x2="225.936" y2="86.942"><stop offset="0" stop-color="#f48a40"></stop> <stop offset=".538" stop-color="#f16537"></stop> <stop offset="1" stop-color="#be2232"></stop></linearGradient> <path d="M131.9 46.4c-14.7-9.2-30.1-13-46.7-9.7-34.7 6.9-55.7 35.8-52.4 71.4 2.1 22.5 19.7 44.4 41.2 51.3 10.6 3.4 21.3 4.9 32.4 4.8 21.2-.3 42.3-.2 63.5.1 5.1.1 5.6-2.1 4.8-5.9-.9-3.9-2.1-7.6-3.7-11.3-1.2-2.9-2.9-3.7-6.1-3.7-21.1.4-42.3.6-63.5.6-20.1 0-36.2-7.4-45-26.5-9.6-20.8-.1-46.9 20.6-56.8 12.2-5.9 24.6-6.3 37.1-.8 1.6.7 3.3 2.5 5.2-.1 3.4-4.8 8-8.7 12.6-13.4zm69.2 110.9c26.1-11.4 41.1-44.2 34.2-71.7-7.3-28.8-31-48.9-60.4-49.9-16.5-.6-31.4 4.4-43.9 15.7-8.6 7.7-14.4 17.3-20.1 27.1-10.2 17.7-20.9 35.2-30.7 53.1-2.3 4.2-1.3 5.7 2.8 6.8 3.5 1 7.1 1.6 10.7 2.3 3.5.7 5.4-.3 7.1-3.5 10.7-19.7 21.7-39.3 33.5-58.4 10.7-17.4 28.8-25.6 48-21.6 18.7 3.9 36.5 23.3 33.6 47.5-1.5 12.6-7.2 22.6-17.3 30.1-1.7 1.3-3.9 2.1-2.6 5 2.5 5.6 3.4 11.5 5.1 17.5zm-23.3 7.5c-.1 23.1-15.1 41.3-36 44.3-21 3.1-43.1-8.9-48.9-29.3-1.3-4.5.3-10.6-3.6-13.3-3.7-2.5-9.2-2.5-13.9-3.5-.2 0-.3-.1-.5-.2-3.1-1.4-4.4-.8-4.4 3 0 6.2.6 12.3 2.5 18.2 7.6 24.1 24 39.4 48.5 44.6 23.9 5 44.5-1.8 61-20.5 10.6-12 15.9-25.7 16.2-41.4.2-13.1-4-25.1-10.5-36.3-3.7-6.4-7.7-12.7-11.4-19.2-8.1-14-16.1-28-24-42.1-1.8-3.3-3.3-3.4-5.9-.9-2.9 2.8-5.6 5.6-8.2 8.7-2.3 2.8-2.4 5.2-.4 8.5 11.1 18.7 22 37.5 32.9 56.4 4.3 7.3 7 15.1 6.6 23z" fill="url(&quot;#SVGID_1_&quot;)"></path> <path fill="#534A41" d="M696.3 133.3c-8.5 24.9-16.9 49.1-25 73.4-1.1 3.3-2.7 4.8-6 5.3-11.1 1.5-22.2 1.2-33.3-.2-4-.5-4.4-1.7-3-5.2 9.8-24.8 19.4-49.6 29.3-74.4 1.1-2.7 1-4.9.1-7.5-7.9-22.6-15.6-45.3-23.5-67.9-1.1-3.3-1.1-4.5 2.9-5 11.8-1.4 23.5-1.2 35.3.2 2.8.3 3.2 2.1 3.7 3.9 6.5 23.8 13 47.6 19.7 72.4 3.7-13 7-25.2 10.5-37.3 3.3-11.6 6.7-23.2 9.7-34.9.7-2.7 1.7-3.8 4.5-4.2 11.5-1.4 22.9-1.3 34.3 0 4 .5 4 1.8 2.9 5-7.8 22.4-15.4 44.9-23.1 67.3-1.1 3.1-1 5.8.2 9 9.6 24.4 18.9 48.9 28.5 73.2 1.7 4.2.5 5.1-3.3 5.5-11 1.4-21.9 1.6-32.8.1-3.3-.5-5-1.9-6.1-5.2-7.8-23.1-15.8-46-23.7-69-.6-1.4-1.1-2.7-1.8-4.5zM392.7 210.9c-12.1 2.1-23.8 2.8-35.6 1.3-3.6-.5-5.8-1.4-6.6-5.7-1.4-7.4-3.9-14.6-5.8-21.9-.7-2.7-1.7-4.1-5.1-3.2-12.3 3.6-24.7 3.4-37 .4-2.9-.7-3.5-.2-4.1 2.6-1.9 7.8-4.4 15.5-6.3 23.3-.6 2.5-1.5 3.6-4 4.1-11.1 2-22.2 1.3-33.3-.6-3.2-.5-1.8-2.3-1.3-4 7.4-23.6 14.8-47.2 22.1-70.7 8.3-26.6 16.7-53.1 24.9-79.7.9-2.9 1.8-4.4 5.4-4.8 11.7-1.3 23.2-1 34.9.1 2.9.3 3.3 1.9 3.9 4.1 9.6 31.1 19.3 62.1 28.9 93.2 6.3 20.3 12.6 40.7 19 61.5zM322.3 96.6c-.6.9-1.2 1.3-1.3 1.9-4.3 16.5-8.6 33-13 49.5-.7 2.6.4 3.1 2.5 3.7 7.4 2.1 14.8 1.8 22.2.2 2.2-.5 3.1-1 2.3-3.9-4.4-16.9-8.4-34-12.7-51.4zM516.4 131.8c0-25 .1-50-.1-75 0-3.7.8-4.7 4.6-4.7 28.3.2 56.6.2 84.9 0 3.5 0 4.5 1.3 5 4.4 1.3 8.8 1 17.5 0 26.2-.4 3.4-1.8 4.6-5.4 4.5-15-.2-30 .1-45-.2-4.1-.1-5 1.2-4.8 5 .3 4.8.3 9.7 0 14.5-.2 3.6.6 4.8 4.5 4.7 11.5-.3 23-.1 34.5-.1 2.6 0 3.8.1 4.4 3.4 1.7 9.4 1.7 18.6 0 28-.6 3.2-1.9 3.5-4.5 3.5-11.7-.1-23.3.1-35-.1-3 0-4 .7-3.9 3.9.2 7.3.3 14.7 0 22-.2 4.1.8 5.4 5.1 5.3 15.3-.3 30.6-.1 46-.2 3.1 0 4.9.1 5.3 4.2.9 8.8.9 17.4 0 26.2-.5 4.2-2.3 4.2-5.4 4.2-20.3-.1-40.6 0-61 0-8.3 0-16.7-.2-25 .1-3.6.1-4.4-1-4.4-4.5.3-25 .2-50.2.2-75.3zM407.8 131.7c0-25 .1-50-.1-75 0-3.6.7-4.7 4.5-4.7 28.5.2 57 .1 85.4.1 2.5 0 3.9 0 4.4 3.4 1.3 9.4 1.3 18.7 0 28.1-.4 3.2-1.4 3.7-4.2 3.6-15-.1-30 .1-45-.2-4.1-.1-5.5.8-5.2 5.1.4 5.6.3 11.3 0 17-.2 3.4.8 4.6 4.4 4.5 11-.2 22 0 33-.2 3.8-.1 5.5.7 5.9 5 1 8.5 1 16.8 0 25.2-.5 4.3-2.1 5.2-5.9 5.1-11-.2-22 .1-33-.2-3.5-.1-4.4.9-4.4 4.4.2 17.8 0 35.6.2 53.5 0 3.4-.9 4.5-4.2 5-10.6 1.6-21.2 1.7-31.8 0-3.4-.5-4.2-1.7-4.2-5 .2-24.7.2-49.7.2-74.7z"></path> <linearGradient id="SVGID_2_" gradientUnits="userSpaceOnUse" x1="37.719" y1="108.15" x2="147.192" y2="98.676"><stop offset="0" stop-color="#f9a347"></stop> <stop offset=".478" stop-color="#f48c3f"></stop> <stop offset="1" stop-color="#ef6035"></stop></linearGradient> <path d="M131.9 46.4c-4.6 4.6-9.2 8.5-12.7 13.4-1.9 2.6-3.5.8-5.2.1-12.5-5.5-24.9-5.1-37.1.8-20.6 9.9-30.1 36-20.6 56.8 8.8 19.2 24.9 26.5 45 26.5 21.2 0 42.3-.2 63.5-.6 3.2-.1 4.9.8 6.1 3.7 1.5 3.7 2.8 7.4 3.7 11.3.8 3.8.3 6-4.8 5.9-21.2-.3-42.3-.4-63.5-.1-11.1.1-21.8-1.4-32.4-4.8-21.4-6.9-39.1-28.8-41.2-51.3-3.3-35.7 17.8-64.5 52.4-71.4 16.7-3.3 32.1.5 46.8 9.7z" fill="url(&quot;#SVGID_2_&quot;)"></path> <linearGradient id="SVGID_3_" gradientUnits="userSpaceOnUse" x1="71.055" y1="164.529" x2="174.213" y2="142.424"><stop offset="0" stop-color="#f69543"></stop> <stop offset=".538" stop-color="#f0763b"></stop> <stop offset="1" stop-color="#e14e34"></stop></linearGradient> <path d="M177.8 164.8c.4-7.9-2.3-15.7-6.5-23-10.9-18.8-21.8-37.7-32.9-56.4-1.9-3.3-1.9-5.6.4-8.5 2.5-3.1 5.2-6 8.2-8.7 2.6-2.5 4-2.4 5.9.9 7.9 14.1 15.9 28.1 24 42.1 3.7 6.4 7.6 12.7 11.4 19.2 6.5 11.2 10.7 23.2 10.5 36.3-.3 15.7-5.6 29.4-16.2 41.4-16.5 18.7-37.1 25.5-61 20.5-24.6-5.1-41-20.4-48.6-44.5-1.9-5.9-2.5-12-2.5-18.2 0-3.8 1.3-4.4 4.4-3 .2.1.3.1.5.2 4.7 1.1 10.2 1 13.9 3.5 3.9 2.7 2.3 8.8 3.6 13.3 5.9 20.4 28 32.4 48.9 29.3 20.8-3.1 35.9-21.3 36-44.4z" fill="url(#SVGID_3_)"></path></svg>