<?xml version="1.0" encoding="utf-8"?>
<!-- Generator: Adobe Illustrator 26.1.0, SVG Export Plug-In . SVG Version: 6.00 Build 0)  -->
<svg version="1.1" id="Capa_1" xmlns="http://www.w3.org/2000/svg" xmlns:xlink="http://www.w3.org/1999/xlink" x="0px" y="0px"
	 viewBox="0 0 100 32" style="enable-background:new 0 0 100 32;" xml:space="preserve">
<style type="text/css">
	.st0{fill:#606060;}
</style>
<g>
	<path class="st0" d="M13.6,4.2c-2-1.3-4.1-1.8-6.4-1.3c-4.7,0.9-7.6,4.9-7.2,9.7c0.3,3.1,2.7,6.1,5.6,7c1.4,0.5,2.9,0.7,4.4,0.7
		c2.9,0,5.8,0,8.7,0c0.7,0,0.8-0.3,0.7-0.8c-0.1-0.5-0.3-1-0.5-1.5c-0.2-0.4-0.4-0.5-0.8-0.5c-2.9,0.1-5.8,0.1-8.7,0.1
		c-2.7,0-4.9-1-6.1-3.6c-1.3-2.8,0-6.4,2.8-7.8C7.8,5.3,9.5,5.3,11.2,6c0.2,0.1,0.5,0.3,0.7,0C12.3,5.4,13,4.8,13.6,4.2z M23,19.3
		c3.6-1.6,5.6-6,4.7-9.8c-1-3.9-4.2-6.7-8.2-6.8c-2.3-0.1-4.3,0.6-6,2.1c-1.2,1.1-2,2.4-2.7,3.7c-1.4,2.4-2.9,4.8-4.2,7.3
		c-0.3,0.6-0.2,0.8,0.4,0.9c0.5,0.1,1,0.2,1.5,0.3c0.5,0.1,0.7,0,1-0.5c1.5-2.7,3-5.4,4.6-8c1.5-2.4,3.9-3.5,6.6-2.9
		c2.6,0.5,5,3.2,4.6,6.5c-0.2,1.7-1,3.1-2.4,4.1c-0.2,0.2-0.5,0.3-0.4,0.7C22.7,17.7,22.8,18.5,23,19.3z M19.9,20.4
		c0,3.2-2.1,5.6-4.9,6c-2.9,0.4-5.9-1.2-6.7-4c-0.2-0.6,0-1.4-0.5-1.8c-0.5-0.3-1.3-0.3-1.9-0.5c0,0,0,0-0.1,0
		c-0.4-0.2-0.6-0.1-0.6,0.4c0,0.8,0.1,1.7,0.3,2.5c1,3.3,3.3,5.4,6.6,6.1c3.3,0.7,6.1-0.2,8.3-2.8c1.4-1.6,2.2-3.5,2.2-5.7
		c0-1.8-0.5-3.4-1.4-5c-0.5-0.9-1.1-1.7-1.6-2.6c-1.1-1.9-2.2-3.8-3.3-5.7c-0.2-0.5-0.5-0.5-0.8-0.1c-0.4,0.4-0.8,0.8-1.1,1.2
		c-0.3,0.4-0.3,0.7-0.1,1.2c1.5,2.6,3,5.1,4.5,7.7C19.5,18.2,19.9,19.3,19.9,20.4z"/>
	<path class="st0" d="M90.7,16.1c-1.2,3.4-2.3,6.7-3.4,10c-0.2,0.5-0.4,0.7-0.8,0.7c-1.5,0.2-3,0.2-4.5,0c-0.5-0.1-0.6-0.2-0.4-0.7
		c1.3-3.4,2.6-6.8,4-10.2c0.2-0.4,0.1-0.7,0-1c-1.1-3.1-2.1-6.2-3.2-9.3c-0.2-0.5-0.2-0.6,0.4-0.7c1.6-0.2,3.2-0.2,4.8,0
		c0.4,0,0.4,0.3,0.5,0.5c0.9,3.2,1.8,6.5,2.7,9.9c0.5-1.8,1-3.4,1.4-5.1c0.5-1.6,0.9-3.2,1.3-4.8c0.1-0.4,0.2-0.5,0.6-0.6
		c1.6-0.2,3.1-0.2,4.7,0c0.5,0.1,0.5,0.2,0.4,0.7c-1.1,3.1-2.1,6.1-3.2,9.2c-0.2,0.4-0.1,0.8,0,1.2c1.3,3.3,2.6,6.7,3.9,10
		c0.2,0.6,0.1,0.7-0.5,0.8c-1.5,0.2-3,0.2-4.5,0c-0.5-0.1-0.7-0.3-0.8-0.7c-1.1-3.2-2.2-6.3-3.2-9.4C90.8,16.5,90.7,16.3,90.7,16.1
		L90.7,16.1z M49.2,26.7c-1.7,0.3-3.2,0.4-4.9,0.2c-0.5-0.1-0.8-0.2-0.9-0.8c-0.2-1-0.5-2-0.8-3c-0.1-0.4-0.2-0.6-0.7-0.4
		c-1.7,0.5-3.4,0.5-5.1,0.1c-0.4-0.1-0.5,0-0.6,0.4c-0.3,1.1-0.6,2.1-0.9,3.2c-0.1,0.3-0.2,0.5-0.5,0.6c-1.5,0.3-3,0.2-4.5-0.1
		c-0.4-0.1-0.2-0.3-0.2-0.5c1-3.2,2-6.4,3-9.7c1.1-3.6,2.3-7.3,3.4-10.9C36.7,5.2,36.9,5,37.4,5c1.6-0.2,3.2-0.1,4.8,0
		c0.4,0,0.5,0.3,0.5,0.6c1.3,4.2,2.6,8.5,3.9,12.7C47.5,21,48.3,23.8,49.2,26.7z M39.6,11c-0.1,0.1-0.2,0.2-0.2,0.3
		c-0.6,2.3-1.2,4.5-1.8,6.8c-0.1,0.4,0.1,0.4,0.3,0.5c1,0.3,2,0.2,3,0c0.3-0.1,0.4-0.1,0.3-0.5C40.7,15.8,40.2,13.4,39.6,11z
		 M66.1,15.9c0-3.4,0-6.8,0-10.2c0-0.5,0.1-0.6,0.6-0.6c3.9,0,7.7,0,11.6,0c0.5,0,0.6,0.2,0.7,0.6c0.2,1.2,0.1,2.4,0,3.6
		c-0.1,0.5-0.2,0.6-0.7,0.6c-2,0-4.1,0-6.1,0c-0.6,0-0.7,0.2-0.7,0.7c0,0.7,0,1.3,0,2c0,0.5,0.1,0.7,0.6,0.6c1.6,0,3.1,0,4.7,0
		c0.4,0,0.5,0,0.6,0.5c0.2,1.3,0.2,2.5,0,3.8c-0.1,0.4-0.3,0.5-0.6,0.5c-1.6,0-3.2,0-4.8,0c-0.4,0-0.5,0.1-0.5,0.5c0,1,0,2,0,3
		c0,0.6,0.1,0.7,0.7,0.7c2.1,0,4.2,0,6.3,0c0.4,0,0.7,0,0.7,0.6c0.1,1.2,0.1,2.4,0,3.6c-0.1,0.6-0.3,0.6-0.7,0.6c-2.8,0-5.5,0-8.3,0
		c-1.1,0-2.3,0-3.4,0c-0.5,0-0.6-0.1-0.6-0.6C66.1,22.7,66.1,19.3,66.1,15.9z M51.3,15.8c0-3.4,0-6.8,0-10.2c0-0.5,0.1-0.6,0.6-0.6
		c3.9,0,7.8,0,11.7,0c0.3,0,0.5,0,0.6,0.5c0.2,1.3,0.2,2.6,0,3.8c-0.1,0.4-0.2,0.5-0.6,0.5c-2,0-4.1,0-6.1,0c-0.6,0-0.8,0.1-0.7,0.7
		c0.1,0.8,0,1.5,0,2.3c0,0.5,0.1,0.6,0.6,0.6c1.5,0,3,0,4.5,0c0.5,0,0.8,0.1,0.8,0.7c0.1,1.2,0.1,2.3,0,3.4
		c-0.1,0.6-0.3,0.7-0.8,0.7c-1.5,0-3,0-4.5,0c-0.5,0-0.6,0.1-0.6,0.6c0,2.4,0,4.9,0,7.3c0,0.5-0.1,0.6-0.6,0.7
		c-1.4,0.2-2.9,0.2-4.3,0c-0.5-0.1-0.6-0.2-0.6-0.7C51.3,22.7,51.3,19.3,51.3,15.8z"/>
	<path class="st0" d="M13.6,4.2C13,4.8,12.3,5.4,11.9,6c-0.3,0.4-0.5,0.1-0.7,0C9.4,5.3,7.7,5.3,6.1,6.1C3.3,7.5,2,11.1,3.3,13.9
		c1.2,2.6,3.4,3.6,6.1,3.6c2.9,0,5.8,0,8.7-0.1c0.4,0,0.7,0.1,0.8,0.5c0.2,0.5,0.4,1,0.5,1.5c0.1,0.5,0,0.8-0.7,0.8
		c-2.9,0-5.8-0.1-8.7,0c-1.5,0-3-0.2-4.4-0.7c-2.9-0.9-5.3-3.9-5.6-7c-0.5-4.9,2.4-8.8,7.2-9.7C9.5,2.4,11.6,2.9,13.6,4.2z"/>
	<path class="st0" d="M19.9,20.4c0.1-1.1-0.3-2.1-0.9-3.1c-1.5-2.6-3-5.1-4.5-7.7c-0.3-0.5-0.3-0.8,0.1-1.2c0.3-0.4,0.7-0.8,1.1-1.2
		c0.4-0.3,0.5-0.3,0.8,0.1c1.1,1.9,2.2,3.8,3.3,5.7c0.5,0.9,1,1.7,1.6,2.6c0.9,1.5,1.5,3.2,1.4,5c0,2.1-0.8,4-2.2,5.7
		c-2.3,2.6-5.1,3.5-8.3,2.8c-3.4-0.7-5.6-2.8-6.6-6.1c-0.3-0.8-0.3-1.6-0.3-2.5c0-0.5,0.2-0.6,0.6-0.4c0,0,0,0,0.1,0
		c0.6,0.2,1.4,0.1,1.9,0.5c0.5,0.4,0.3,1.2,0.5,1.8c0.8,2.8,3.8,4.4,6.7,4C17.8,26,19.8,23.5,19.9,20.4z"/>
</g>
</svg>
