<svg xmlns:xlink="http://www.w3.org/1999/xlink" xmlns="http://www.w3.org/2000/svg" width="80" height="39" viewBox="0 0 80 39"><g fill="none" fill-rule="evenodd"><g fill="#213041"><path fill-rule="nonzero" d="M33.063 21.815c-.013-.24 0-.481-.038-.721-.205-1.711-1.125-2.786-2.532-2.956a4.272 4.272 0 0 0-2.595.495c-2.736 1.485-3.222 5.53-2.186 7.89.396.92 2.378 2.107 4.372 1.245 2.34-.99 2.98-3.323 2.98-5.953m-8.759 6.928c-.511 3.479-.997 6.844-1.496 10.224h-2.966c.23-1.584.448-3.111.678-4.652.728-5.034 1.47-10.068 2.199-15.102 0-.028.013-.042.013-.07.127-1.23-.09-1.542-1.228-1.74.102-.707.192-1.414.32-2.107.013-.099.179-.226.294-.226.588-.057 1.189-.156 1.777-.085 1.266.17 1.867 1.047 1.764 2.46-.012.128-.012.24-.038.538.908-1.556 2.097-2.404 3.567-2.842 2.289-.693 4.629.028 5.933 1.824.741 1.018 1.112 2.206 1.214 3.45.282 3.478-.498 6.533-2.825 8.866-1.816 1.824-4.028 2.347-6.508 1.654-1.125-.297-1.956-1.075-2.698-2.192M49.57 18.45c-.474-.184-.806-.326-1.151-.425-2.634-.735-5.064.113-6.29 2.263-.883 1.527-1.19 3.238-.973 5.062.218 1.796 1.228 2.757 2.839 2.686 2.199-.099 3.682-1.442 4.36-3.605.588-1.895.818-3.945 1.214-5.982m3.03 10.153c-.09.665-.166 1.315-.294 1.951-.038.184-.23.439-.383.453-.614.056-1.24.099-1.841 0-.895-.156-1.407-.82-1.522-1.824-.051-.368-.038-.75-.051-.99-.665.636-1.33 1.428-2.122 2.008-1.394 1.004-2.992 1.258-4.667.834-1.995-.495-3.388-2.22-3.759-4.75-.6-4.116 1.048-8.838 5-10.55 3.157-1.371 6.34-1.003 9.537.439.384.17.333.452.281.75-.46 3.11-.933 6.235-1.393 9.346a9.44 9.44 0 0 0-.115 1.032c-.064.905.191 1.202 1.01 1.259.115.014.204.028.32.042" fill="#213041"></path> <path d="M6.035 11.45H.038c.167-1.145.32-2.22.486-3.323H15.88c-.141.934-.307 1.853-.397 2.772-.051.438-.204.565-.6.565-1.612-.028-3.223-.014-4.846-.014h-.64c-.959 6.505-1.918 12.967-2.876 19.457H3.158c.959-6.462 1.905-12.91 2.877-19.457m59.427 6.307c-.947-.085-1.842-.156-2.839-.24.115-.778.218-1.514.333-2.306h2.89c.293-1.4.51-2.078.766-3.436.103-.551.282-.806.844-.763.69.056 1.394.014 2.16.014-.23 1.64-.37 2.531-.613 4.157h4.91c-.103.792-.18 1.527-.32 2.234-.025.142-.332.297-.524.297a91.996 91.996 0 0 1-3.95 0c-.384 0-.55.1-.602.552-.32 2.418-.729 4.807-.997 7.24-.217 1.965.703 2.94 2.48 2.8.768-.057 1.51-.284 2.315-.44-.013.764-.013 1.556-.039 2.334 0 .113-.128.269-.23.297-1.509.452-3.03.806-4.628.466-2.097-.438-3.299-2.106-3.082-4.539.218-2.474.627-4.92.96-7.38.05-.397.114-.82.166-1.287m-4.22 10.251c-.102.891-.179 1.697-.294 2.489-.025.141-.204.325-.32.325-1.022.042-2.07.184-3.08.028-1.381-.198-2.149-1.202-2.264-2.8a14.156 14.156 0 0 1 .115-2.94c.857-5.982 1.586-10.705 2.48-16.672 0-.042.04-.07.065-.141h3.145c-.205 1.372-.396 2.715-.601 4.058-.703 4.723-1.227 8.201-1.93 12.938a6.297 6.297 0 0 0-.052.849c.026 1.583.652 2.177 2.059 1.965.179-.028.383-.056.677-.099m-47.306 2.927c.205-1.386.396-2.686.588-4.002.55-3.732 1.1-7.465 1.637-11.213.064-.395.179-.551.55-.537.895.028 1.777.014 2.748.014-.242 1.626-.46 3.168-.69 4.709-.511 3.507-1.036 7-1.534 10.506-.064.41-.18.551-.55.537-.908-.028-1.79-.014-2.749-.014" fill="#213041"></path></g> <path fill="#213041" d="M79.783 15.381c-.305 2.044-.585 3.975-.865 5.907-.446 3.065-.917 6.116-1.35 9.18-.05.379-.178.505-.521.49-.891-.027-1.782-.013-2.75-.013.166-1.19.332-2.31.497-3.43.573-3.862 1.158-7.739 1.706-11.602.063-.434.203-.574.598-.56.865.056 1.73.028 2.685.028"></path> <path fill="#F04E37" d="M79.07 6.452a5.273 5.273 0 0 0-.534-.49 7.605 7.605 0 0 0-.7-.546c-.242-.168-.535-.35-.84-.531l-.318-.196c-.293-.168-.586-.322-.904-.49-.153-.084-.318-.168-.483-.252-.344-.168-.7-.322-1.082-.49-.191-.084-.37-.168-.573-.252a37.747 37.747 0 0 0-3.983-1.344c-2.928-.853-6.39-1.427-10.03-1.665a74.111 74.111 0 0 0-3.868-.112c-.585 0-1.184.014-1.782.028l-1.438.07-2.074.168c-.726.07-1.464.14-2.228.238-.967.112-1.921.238-2.863.406-.853.126-1.756.294-2.825.518-1.757.335-3.437.77-5.422 1.315-1.413.42-3.245.994-4.95 1.652a76.662 76.662 0 0 0-4.328 1.791c-2.698 1.232-4.836 2.435-6.236 3.22-.598.335-1.095.629-1.464.839l-.84.49a.624.624 0 0 0-.229.783c.128.28.446.42.726.266l.84-.447c.382-.196.878-.476 1.489-.784.75-.392 1.705-.84 2.698-1.302a66.72 66.72 0 0 1 3.576-1.497c1.285-.49 2.75-1.036 4.314-1.456 1.693-.504 3.513-.91 4.9-1.204a63.4 63.4 0 0 1 5.32-.811 50.686 50.686 0 0 1 2.75-.252 52.945 52.945 0 0 1 2.76-.154c.713-.042 1.464-.042 2.19-.056l1.323.014 2.024.028a46.53 46.53 0 0 1 5.256.476c1.375.238 3.169.56 4.798 1.035 1.31.392 2.825.868 4.11 1.456 1.26.532 2.33 1.148 3.208 1.665.993.63 1.769 1.19 2.227 1.554l1.336 1.092c.37.293.586.42.599.433.432.266.929.392 1.438.392.802 0 1.565-.35 2.125-.965.56-.616.878-1.442.878-2.324-.012-.867-.318-1.693-.89-2.309"></path></g></svg>