<?xml version="1.0" encoding="utf-8"?>
<!-- Generator: Adobe Illustrator 26.1.0, SVG Export Plug-In . SVG Version: 6.00 Build 0)  -->
<svg version="1.1" id="Capa_1" xmlns="http://www.w3.org/2000/svg" xmlns:xlink="http://www.w3.org/1999/xlink" x="0px" y="0px"
	 viewBox="0 0 80 39" style="enable-background:new 0 0 80 39;" xml:space="preserve">
<style type="text/css">
	.st0{fill:#606060;}
	.st1{fill-rule:evenodd;clip-rule:evenodd;fill:#606060;}
</style>
<g>
	<g>
		<path class="st0" d="M33.1,21.8c0-0.2,0-0.5,0-0.7c-0.2-1.7-1.1-2.8-2.5-3c-0.9-0.1-1.8,0.1-2.6,0.5c-2.7,1.5-3.2,5.5-2.2,7.9
			c0.4,0.9,2.4,2.1,4.4,1.2C32.4,26.8,33.1,24.4,33.1,21.8 M24.3,28.7c-0.5,3.5-1,6.8-1.5,10.2h-3c0.2-1.6,0.4-3.1,0.7-4.7
			c0.7-5,1.5-10.1,2.2-15.1c0,0,0,0,0-0.1c0.1-1.2-0.1-1.5-1.2-1.7c0.1-0.7,0.2-1.4,0.3-2.1c0-0.1,0.2-0.2,0.3-0.2
			c0.6-0.1,1.2-0.2,1.8-0.1c1.3,0.2,1.9,1,1.8,2.5c0,0.1,0,0.2,0,0.5c0.9-1.6,2.1-2.4,3.6-2.8c2.3-0.7,4.6,0,5.9,1.8
			c0.7,1,1.1,2.2,1.2,3.5c0.3,3.5-0.5,6.5-2.8,8.9c-1.8,1.8-4,2.3-6.5,1.7C25.9,30.6,25,29.8,24.3,28.7 M49.6,18.4
			c-0.5-0.2-0.8-0.3-1.2-0.4c-2.6-0.7-5.1,0.1-6.3,2.3c-0.9,1.5-1.2,3.2-1,5.1c0.2,1.8,1.2,2.8,2.8,2.7c2.2-0.1,3.7-1.4,4.4-3.6
			C48.9,22.5,49.2,20.5,49.6,18.4 M52.6,28.6c-0.1,0.7-0.2,1.3-0.3,2c0,0.2-0.2,0.4-0.4,0.5c-0.6,0.1-1.2,0.1-1.8,0
			c-0.9-0.2-1.4-0.8-1.5-1.8c-0.1-0.4,0-0.8-0.1-1c-0.7,0.6-1.3,1.4-2.1,2c-1.4,1-3,1.3-4.7,0.8c-2-0.5-3.4-2.2-3.8-4.8
			c-0.6-4.1,1-8.8,5-10.6c3.2-1.4,6.3-1,9.5,0.4c0.4,0.2,0.3,0.5,0.3,0.8c-0.5,3.1-0.9,6.2-1.4,9.3c-0.1,0.3-0.1,0.7-0.1,1
			c-0.1,0.9,0.2,1.2,1,1.3C52.4,28.5,52.5,28.6,52.6,28.6"/>
		<path class="st1" d="M6,11.4H0c0.2-1.1,0.3-2.2,0.5-3.3h15.4c-0.1,0.9-0.3,1.9-0.4,2.8c-0.1,0.4-0.2,0.6-0.6,0.6
			c-1.6,0-3.2,0-4.8,0H9.4c-1,6.5-1.9,13-2.9,19.5H3.2C4.1,24.4,5.1,18,6,11.4 M65.5,17.7c-0.9-0.1-1.8-0.2-2.8-0.2
			c0.1-0.8,0.2-1.5,0.3-2.3h2.9c0.3-1.4,0.5-2.1,0.8-3.4c0.1-0.6,0.3-0.8,0.8-0.8c0.7,0.1,1.4,0,2.2,0c-0.2,1.6-0.4,2.5-0.6,4.2h4.9
			c-0.1,0.8-0.2,1.5-0.3,2.2c0,0.1-0.3,0.3-0.5,0.3c-1.3,0-2.6,0-3.9,0c-0.4,0-0.6,0.1-0.6,0.6c-0.3,2.4-0.7,4.8-1,7.2
			c-0.2,2,0.7,2.9,2.5,2.8c0.8-0.1,1.5-0.3,2.3-0.4c0,0.8,0,1.6,0,2.3c0,0.1-0.1,0.3-0.2,0.3c-1.5,0.5-3,0.8-4.6,0.5
			c-2.1-0.4-3.3-2.1-3.1-4.5c0.2-2.5,0.6-4.9,1-7.4C65.3,18.6,65.4,18.2,65.5,17.7 M61.2,28c-0.1,0.9-0.2,1.7-0.3,2.5
			c0,0.1-0.2,0.3-0.3,0.3c-1,0-2.1,0.2-3.1,0c-1.4-0.2-2.1-1.2-2.3-2.8c-0.1-1,0-2,0.1-2.9c0.9-6,1.6-10.7,2.5-16.7
			c0,0,0-0.1,0.1-0.1h3.1c-0.2,1.4-0.4,2.7-0.6,4.1c-0.7,4.7-1.2,8.2-1.9,12.9c0,0.3-0.1,0.6-0.1,0.8c0,1.6,0.7,2.2,2.1,2
			C60.7,28.1,60.9,28,61.2,28 M13.9,30.9c0.2-1.4,0.4-2.7,0.6-4c0.6-3.7,1.1-7.5,1.6-11.2c0.1-0.4,0.2-0.6,0.5-0.5
			c0.9,0,1.8,0,2.7,0c-0.2,1.6-0.5,3.2-0.7,4.7c-0.5,3.5-1,7-1.5,10.5c-0.1,0.4-0.2,0.6-0.5,0.5C15.8,30.9,14.9,30.9,13.9,30.9"/>
	</g>
	<path class="st1" d="M79.8,15.4c-0.3,2-0.6,4-0.9,5.9c-0.4,3.1-0.9,6.1-1.3,9.2c-0.1,0.4-0.2,0.5-0.5,0.5c-0.9,0-1.8,0-2.8,0
		c0.2-1.2,0.3-2.3,0.5-3.4c0.6-3.9,1.2-7.7,1.7-11.6c0.1-0.4,0.2-0.6,0.6-0.6C78,15.4,78.8,15.4,79.8,15.4"/>
	<path class="st1" d="M79.1,6.4c-0.2-0.2-0.3-0.3-0.5-0.5c-0.2-0.2-0.5-0.4-0.7-0.5C77.6,5.2,77.3,5,77,4.9l-0.3-0.2
		c-0.3-0.2-0.6-0.3-0.9-0.5c-0.2-0.1-0.3-0.2-0.5-0.3c-0.3-0.2-0.7-0.3-1.1-0.5c-0.2-0.1-0.4-0.2-0.6-0.3c-1.3-0.5-2.6-1-4-1.3
		c-2.9-0.9-6.4-1.4-10-1.7c-1.3-0.1-2.6-0.1-3.9-0.1c-0.6,0-1.2,0-1.8,0l-1.4,0.1l-2.1,0.2c-0.7,0.1-1.5,0.1-2.2,0.2
		c-1,0.1-1.9,0.2-2.9,0.4c-0.9,0.1-1.8,0.3-2.8,0.5c-1.8,0.3-3.4,0.8-5.4,1.3c-1.4,0.4-3.2,1-5,1.7c-1.5,0.6-2.9,1.2-4.3,1.8
		c-2.7,1.2-4.8,2.4-6.2,3.2c-0.6,0.3-1.1,0.6-1.5,0.8l-0.8,0.5c-0.3,0.2-0.4,0.5-0.2,0.8c0.1,0.3,0.4,0.4,0.7,0.3l0.8-0.4
		c0.4-0.2,0.9-0.5,1.5-0.8c0.8-0.4,1.7-0.8,2.7-1.3c1.2-0.5,2.4-1,3.6-1.5c1.3-0.5,2.8-1,4.3-1.5c1.7-0.5,3.5-0.9,4.9-1.2
		c1.8-0.3,3.5-0.6,5.3-0.8c0.9-0.1,1.8-0.2,2.8-0.3C46.6,4,47.5,4,48.4,3.9c0.7,0,1.5,0,2.2-0.1l1.3,0l2,0c1.8,0.1,3.5,0.2,5.3,0.5
		c1.4,0.2,3.2,0.6,4.8,1c1.3,0.4,2.8,0.9,4.1,1.5c1.3,0.5,2.3,1.1,3.2,1.7c1,0.6,1.8,1.2,2.2,1.6l1.3,1.1c0.4,0.3,0.6,0.4,0.6,0.4
		C76,11.9,76.4,12,77,12c0.8,0,1.6-0.4,2.1-1c0.6-0.6,0.9-1.4,0.9-2.3C79.9,7.9,79.6,7,79.1,6.4"/>
</g>
</svg>
