<svg xmlns="http://www.w3.org/2000/svg" width="81.62" height="43.552" viewBox="0 0 81.62 43.552">
    <g data-name="Grupo 670">
        <path data-name="Trazado 1470" d="M974.094 542.538c-7.6 0-9.111-3.347-9.111-5.694 0-1.92 2.041-4.708 6.758-5.172v-.059c-2.856-.314-5.984-1.736-5.984-4.8 0-1.92 1.372-4.95 8.3-4.95h9.118v.7h-2.714v19.257h2.714v.714zm2.961-10.489H975.4c-4.219 0-6.368.741-6.368 4.667 0 3.9.986 5.108 5.067 5.108h2.961zm0-9.482H974.3c-3.514 0-4.752 1.368-4.752 4.246 0 3.282.956 4.519 4.478 4.519h3.027z" transform="translate(-942.263 -510.567)" style="fill:#606060"/>
        <path data-name="Trazado 1471" d="M989.1 532.049h1.644c4.226 0 6.375.741 6.375 4.667 0 3.9-.983 5.108-5.067 5.108H989.1zm2.952 10.489c7.6 0 9.112-3.347 9.112-5.694 0-1.92-2.042-4.708-6.757-5.172v-.059c2.852-.314 5.982-1.736 5.982-4.8 0-1.92-1.372-4.95-8.3-4.95h-9.114v.7h2.705v19.257h-2.705v.714zm-2.952-19.971h2.741c3.519 0 4.75 1.368 4.75 4.246 0 3.282-.952 4.519-4.471 4.519h-3.02z" transform="translate(-942.263 -510.567)" style="fill:#606060"/>
        <path data-name="Trazado 1472" d="M983.077 549.849c-18.612 0-33.747-7.853-33.747-17.511s15.135-17.515 33.747-17.515 33.741 7.856 33.741 17.515-15.137 17.511-33.741 17.511m0-33.981c-18.033 0-32.708 7.386-32.708 16.47s14.675 16.462 32.708 16.462 32.695-7.384 32.695-16.466-14.668-16.47-32.695-16.47" transform="translate(-942.263 -510.567)" style="fill:#606060"/>
        <path data-name="Trazado 1473" d="M983.077 554.119c-22.885 0-40.814-9.572-40.814-21.78s17.929-21.772 40.814-21.772 40.806 9.56 40.806 21.772-17.925 21.78-40.806 21.78m0-40.422c-20.423 0-37.679 8.536-37.679 18.642s17.256 18.638 37.679 18.638 37.673-8.533 37.673-18.638-17.256-18.639-37.673-18.639" transform="translate(-942.263 -510.567)" style="fill:#606060"/>
    </g>
</svg>
