<svg xmlns="http://www.w3.org/2000/svg" width="100" height="56.278" viewBox="0 0 100 56.278">
    <path data-name="Trazado 629" d="M906.245 198.49h-100a49.661 49.661 0 0 1 3.928-15.711 48.868 48.868 0 0 1 21.558-23.561c-.081-.166-.14-.311-.218-.445q-3.954-6.852-7.909-13.7a3.316 3.316 0 0 1-.357-.8 1.645 1.645 0 0 1 .875-1.886 1.709 1.709 0 0 1 2.082.461 3.787 3.787 0 0 1 .289.454l8.037 13.912c.08.139.171.272.256.406a52.942 52.942 0 0 1 42.894-.005c.078-.114.2-.263.288-.425q2.587-4.473 5.171-8.949 1.458-2.523 2.914-5.048a1.7 1.7 0 0 1 1.238-.943 1.63 1.63 0 0 1 1.684.658 1.651 1.651 0 0 1 .093 1.85c-.317.589-.668 1.16-1 1.74q-3.553 6.15-7.1 12.3c-.064.112-.118.23-.208.407a55.6 55.6 0 0 1 5.132 3.228 49.953 49.953 0 0 1 4.746 3.865 48.313 48.313 0 0 1 4.2 4.389 49.1 49.1 0 0 1 8.929 15.819 49.971 49.971 0 0 1 2.488 11.985m-73.063-22.574a4.2 4.2 0 1 0 4.232 4.18 4.217 4.217 0 0 0-4.232-4.18m50.289 4.246a4.2 4.2 0 1 0-4.232 4.164 4.194 4.194 0 0 0 4.232-4.164" transform="translate(-806.245 -142.212)" style="fill:#3ddc84"/>
</svg>
