<svg xmlns="http://www.w3.org/2000/svg" width="93.146" height="100" viewBox="0 0 93.146 100">
    <g data-name="Grupo 703">
        <path data-name="Trazado 623" d="m504.847 196.818 29.033-65.1c.505.12.5.553.631.855q14.035 31.53 28.068 63.063c.4.9.43 1.235-.737 1.205-2.891-.073-5.787-.048-8.68-.007a1.176 1.176 0 0 1-1.319-.884c-1.676-4.277-3.425-8.525-5.09-12.806a1.343 1.343 0 0 0-1.514-1q-11.31.051-22.619.006a1.254 1.254 0 0 0-1.415.939c-1.646 4.244-3.4 8.449-5.039 12.694a1.407 1.407 0 0 1-1.6 1.054c-3.177-.049-6.355-.019-9.721-.019m29.169-44.136c-2.832 6.8-5.531 13.287-8.237 19.77-.32.769.2.685.654.685 5.055 0 10.109-.011 15.164.014.832 0 .855-.25.555-.919-.633-1.409-1.188-2.852-1.782-4.279-2.072-4.986-4.148-9.969-6.354-15.271" transform="translate(-487.265 -120.376)" style="fill:#fefdfd"/>
        <path data-name="Trazado 624" d="M533.816 152.682c2.206 5.3 4.282 10.285 6.354 15.271.594 1.427 1.149 2.87 1.782 4.279.3.669.277.923-.555.919-5.055-.025-10.109-.013-15.164-.014-.456 0-.974.084-.654-.685 2.706-6.483 5.4-12.968 8.237-19.77" transform="translate(-487.265 -120.376)" style="fill:#dc0031"/>
        <path data-name="Trazado 625" d="M522.42 182.149a1.254 1.254 0 0 0-1.415.939c-1.646 4.245-3.4 8.449-5.039 12.7a1.409 1.409 0 0 1-1.6 1.054c-3.177-.05-6.356-.02-9.721-.02l29.032-65.1a.8.8 0 0 1 .159.055v-11.398c-.334.105-.682.2-1.022.324q-22.251 7.935-44.509 15.853c-.841.3-1.13.633-1.02 1.558 1.048 8.858 2.04 17.722 3.062 26.583 1.265 10.965 2.555 21.927 3.794 32.895a1.815 1.815 0 0 0 1.048 1.594q18.933 10.444 37.834 20.947a1.641 1.641 0 0 0 .813.242v-38.207q-5.709 0-11.418-.019" transform="translate(-487.265 -120.376)" style="fill:#dc0031"/>
        <path data-name="Trazado 626" d="M534.685 220.113c4.684-2.626 9.389-5.216 14.088-7.816q11.8-6.531 23.6-13.068c.427-.237.991-.331 1.069-1.031.549-4.887 1.138-9.77 1.7-14.657.523-4.563 1.014-9.13 1.542-13.693.612-5.289 1.262-10.574 1.872-15.864.616-5.33 1.172-10.667 1.834-15.992.106-.85-.117-1.119-.852-1.38q-22.372-7.947-44.729-15.936c-.3-.109-.617-.194-.956-.3h-.011v11.394c.347.165.355.533.474.8q14.035 31.53 28.068 63.063c.4.9.43 1.235-.737 1.205-2.892-.073-5.787-.049-8.68-.006a1.178 1.178 0 0 1-1.32-.886c-1.675-4.276-3.424-8.524-5.09-12.8a1.343 1.343 0 0 0-1.514-1q-5.6.025-11.2.025v38.207a1.734 1.734 0 0 0 .847-.263" transform="translate(-487.265 -120.376)" style="fill:#bc0031"/>
    </g>
</svg>
