<?xml version="1.0" encoding="utf-8"?>
<!-- Generator: Adobe Illustrator 26.1.0, SVG Export Plug-In . SVG Version: 6.00 Build 0)  -->
<svg version="1.1" id="Capa_1" xmlns="http://www.w3.org/2000/svg" xmlns:xlink="http://www.w3.org/1999/xlink" x="0px" y="0px"
	 viewBox="0 0 100 100" style="enable-background:new 0 0 100 100;" xml:space="preserve">
<style type="text/css">
	.st0{fill:url(#SVGID_1_);}
</style>
<linearGradient id="SVGID_1_" gradientUnits="userSpaceOnUse" x1="0" y1="50" x2="100" y2="50">
	<stop  offset="0" style="stop-color:#0FC9FF"/>
	<stop  offset="1" style="stop-color:#08FFFF"/>
</linearGradient>
<path class="st0" d="M82.2,34.9c0.6-22.4-29.6-31.7-39.9-10.2c-3-2.9-7.2-4.6-11.6-4.2c-6,0.5-10.8,4.4-13,9.8
	c-20.9-2.7-26,28.9,0,28.9c5.8,0,14.8,0,24.6,0v16.4h-3.4l6.9,11.9l6.9-11.9h-3.4V59.1c0,0,0,0,0,0V41.5h-3.4l6.9-11.9l6.9,11.9H56
	v17.6c15.4,0,29.6,0,33,0C104.8,59.1,104.5,32.1,82.2,34.9z"/>
</svg>
