<svg xmlns="http://www.w3.org/2000/svg" width="85.846" height="100" viewBox="0 0 85.846 100">
    <path data-name="Trazado 676" d="M811.559 378.537c0-6.8-.156-13.612.113-20.4a6.652 6.652 0 0 1 2.436-4.689c12.464-8.165 25.112-16.05 37.623-24.143 2.124-1.374 3.66-1.131 5.655.155 12.415 8 24.942 15.834 37.3 23.927a6.522 6.522 0 0 1 2.527 4.631q.3 20.4 0 40.813a6.523 6.523 0 0 1-2.6 4.6c-12.358 8.088-24.889 15.913-37.3 23.925-2.035 1.314-3.555 1.407-5.643.057-12.513-8.091-25.153-15.986-37.63-24.13a6.186 6.186 0 0 1-2.371-4.333c-.252-6.794-.111-13.6-.111-20.4m39.19-22.5c-5.336-3.416-10.237-6.615-15.223-9.674a3.19 3.19 0 0 0-2.732-.2c-5.15 3.12-10.2 6.406-15.625 9.861 5.455 3.479 10.362 6.674 15.36 9.719a3.177 3.177 0 0 0 2.747.072c5.1-3.1 10.095-6.349 15.473-9.775m7.378-.021c5.337 3.413 10.118 6.572 15.03 9.512a3.955 3.955 0 0 0 3.4.064c5.025-3 9.914-6.23 15.154-9.578-5.358-3.414-10.375-6.678-15.487-9.784a3.163 3.163 0 0 0-2.734.077c-5 3.046-9.917 6.241-15.36 9.709m-3.7 24.708-16.762 10.7c5.326 3.4 10.239 6.583 15.214 9.665a2.945 2.945 0 0 0 2.429.384c5.252-3.2 10.415-6.54 15.943-10.057l-16.824-10.7m-16.785-37.737c5.436 3.463 10.139 6.514 14.915 9.446.779.478 2.175.911 2.792.541 5.2-3.115 10.29-6.422 15.882-9.97-5.547-3.547-10.441-6.747-15.434-9.786a3.213 3.213 0 0 0-2.779.038c-4.984 3.032-9.873 6.22-15.376 9.731M832 387.787c0-5.778.055-10.735-.05-15.689a3.612 3.612 0 0 0-1.108-2.616c-4.834-3.234-9.779-6.3-15.294-9.8 0 5.951-.051 11.132.058 16.309a3.112 3.112 0 0 0 1.259 2.171c4.774 3.132 9.625 6.147 15.135 9.629m3.995-.022c5.5-3.485 10.25-6.432 14.909-9.518a3.553 3.553 0 0 0 1.471-2.423c.135-5.147.068-10.3.068-16.192-5.578 3.555-10.52 6.647-15.374 9.871a3.141 3.141 0 0 0-1.028 2.278c-.091 5.06-.046 10.121-.046 15.984m36.9-.015c0-5.9.04-10.852-.041-15.8a3.215 3.215 0 0 0-.9-2.341c-4.933-3.292-9.959-6.446-15.507-9.991 0 5.9-.044 10.971.046 16.038a3.144 3.144 0 0 0 1.019 2.288c4.861 3.208 9.81 6.281 15.386 9.809m20.456-28.078c-5.609 3.571-10.54 6.684-15.428 9.862a2.224 2.224 0 0 0-.95 1.525c-.069 5.368-.042 10.738-.042 16.724 5.461-3.466 10.228-6.4 14.87-9.525a4 4 0 0 0 1.481-2.813c.148-4.947.069-9.9.069-15.773m-40.909 63.483c0-5.923.02-11.1-.029-16.278a2.294 2.294 0 0 0-.646-1.685c-5.051-3.329-10.156-6.575-15.772-10.178 0 5.832-.056 10.786.051 15.737a3.639 3.639 0 0 0 1.114 2.641c4.838 3.228 9.789 6.286 15.282 9.763m4.01.026c5.588-3.572 10.609-6.752 15.58-10.007a2.239 2.239 0 0 0 .813-1.618c.061-5.266.036-10.533.036-16.472-5.5 3.482-10.341 6.5-15.109 9.632a3.092 3.092 0 0 0-1.262 2.148c-.109 5.176-.058 10.356-.058 16.317m-40.9-41.136c0 5.932-.021 11.1.03 16.268a2.326 2.326 0 0 0 .673 1.708c5.049 3.318 10.152 6.552 15.746 10.13 0-5.787.1-10.733-.081-15.669a4.477 4.477 0 0 0-1.745-3.072c-4.527-3.068-9.2-5.924-14.623-9.365m61.336 28.124c5.485-3.5 10.3-6.543 15.072-9.66a2.777 2.777 0 0 0 1.289-1.755c.1-5.364.058-10.731.058-16.677-5.358 3.386-10.04 6.212-14.544 9.3a4.958 4.958 0 0 0-1.792 3.44c-.2 4.815-.083 9.643-.083 15.353" transform="translate(-811.514 -328.375)" style="fill:#10243d"/>
</svg>
