<svg xmlns="http://www.w3.org/2000/svg" width="100" height="47.523" viewBox="0 0 100 47.523">
    <path data-name="Trazado 659" d="m44.712 11.274-6.087 5.439c-1.488-1.35-3.081-2.57-4.4-4.035-7.05-7.813-18.823-5.244-23.841 2.436a15.775 15.775 0 0 0 10.835 24.222c4.587.728 8.651-.318 11.937-3.673 4.366-4.456 8.658-8.986 12.956-13.509 4.865-5.121 9.553-10.42 14.587-15.367C67.223.378 75.08-1.647 83.792 1.377s14.406 9.126 15.9 18.358a23.619 23.619 0 0 1-21.089 27.583 21.037 21.037 0 0 1-16.649-5.41c-2.208-1.947-4.385-3.928-6.682-5.99l5.723-5.278c1.725 1.509 3.524 2.839 5.03 4.445 6.622 7.059 17.907 5.284 23.2-2.154A15.806 15.806 0 0 0 78.383 8.013a14.032 14.032 0 0 0-12.141 4.447c-4.7 4.71-9.234 9.576-13.817 14.4-3.972 4.179-7.9 8.4-11.871 12.578a26.542 26.542 0 0 1-8.99 6.563c-5.356 2.214-10.7 1.869-16.033-.079C3.781 41.63-.352 31.657.031 22.743A23.47 23.47 0 0 1 18.372.643a21.262 21.262 0 0 1 19 4.369c2.328 1.9 4.607 3.871 6.905 5.812.14.119.257.266.437.454"/>
</svg>
