<svg xmlns="http://www.w3.org/2000/svg" width="100" height="37.262" viewBox="0 0 100 37.262">
    <g data-name="Grupo 699">
        <path data-name="Trazado 650" d="M100.015 376.4v.782l-.169 1.74a16.6 16.6 0 0 1-2.539 7.5 22.131 22.131 0 0 1-18.448 10.57 16.5 16.5 0 0 1-7.012-1.235 15.9 15.9 0 0 1-9.8-10.182c-.036-.114-.086-.224-.163-.42-.116.211-.175.338-.251.455-.676 1.048-1.287 2.146-2.045 3.132a20.068 20.068 0 0 1-15.437 8.158 16.606 16.606 0 0 1-8.013-1.462 15.782 15.782 0 0 1-7.579-6.887 16.941 16.941 0 0 1-1.353-12.714 21.64 21.64 0 0 1 8.957-12.384 20.943 20.943 0 0 1 10.17-3.612 16.6 16.6 0 0 1 7.636.883 15.576 15.576 0 0 1 9.08 8.727.334.334 0 0 1-.155.489 2.447 2.447 0 0 1-.511.182q-3.728.982-7.457 1.957c-1.556.407-1.24.423-2.286-.673a7.73 7.73 0 0 0-6.886-2.331A9.46 9.46 0 0 0 41.289 371a10.165 10.165 0 0 0-4.33 10.137c.532 3.973 3.985 7.074 8.918 6.5a8.933 8.933 0 0 0 5.782-3.17c.508-.578.933-1.229 1.456-1.926-.3-.015-.477-.033-.654-.033h-8.437c-.208 0-.417 0-.624-.023a.77.77 0 0 1-.741-1.086 2.591 2.591 0 0 1 .142-.4c.767-1.65 1.547-3.293 2.3-4.949a1.571 1.571 0 0 1 1.629-1c2.551.031 5.1.012 7.655.012h7.266c.25 0 .464.01.571-.32a20.386 20.386 0 0 1 3.218-5.984 19.992 19.992 0 0 1 8.427-6.688 25.932 25.932 0 0 1 6.505-1.673 20.307 20.307 0 0 1 5.984.035 16.385 16.385 0 0 1 7.609 3.389 14.922 14.922 0 0 1 5.883 10.8c.053.593.111 1.186.167 1.779m-28.652 3.268c.035.387.052.777.107 1.162a8.258 8.258 0 0 0 9.715 6.87 10.813 10.813 0 0 0 4.844-2.211 9.831 9.831 0 0 0 4.058-9.736 7.6 7.6 0 0 0-5.047-6.194 8.863 8.863 0 0 0-6.068.023 10.774 10.774 0 0 0-7.609 10.086" transform="translate(-.015 -359.745)" style="fill:#00acd7"/>
        <path data-name="Trazado 651" d="M.015 375.3c.3-.357.623-.694.882-1.076a1.09 1.09 0 0 1 1.022-.491c3.424.013 6.848.007 10.272.007h11.287c.618 0 .626 0 .429.57-.414 1.192-.112 1.077-1.485 1.081q-10.916.025-21.831.043a5.609 5.609 0 0 1-.576-.057v-.077" transform="translate(-.015 -359.745)" style="fill:#00acd7"/>
        <path data-name="Trazado 652" d="M7.4 370.846c.387-.484.755-.985 1.173-1.439a.858.858 0 0 1 .578-.163q8.492-.012 16.981 0a1.351 1.351 0 0 1 .321.081l-.093.318a.136.136 0 0 1-.021.032c-1.078 1.591-.545 1.324-2.422 1.324q-8 0-16-.015h-.453l-.064-.135" transform="translate(-.015 -359.745)" style="fill:#00acd7"/>
        <path data-name="Trazado 653" d="M11.78 379.884c.3-.523.519-.979.8-1.394a.725.725 0 0 1 .521-.262c3.172-.016 6.344-.009 9.516-.015.277 0 .377.121.358.377-.023.311-.058.621-.067.932-.01.354-.187.458-.524.456-2.327-.013-4.654-.01-6.981-.018-1.026 0-2.053-.02-3.08-.033-.151 0-.3-.023-.546-.043" transform="translate(-.015 -359.745)" style="fill:#00acd7"/>
    </g>
</svg>
