<?xml version="1.0" encoding="utf-8"?>
<!-- Generator: Adobe Illustrator 26.1.0, SVG Export Plug-In . SVG Version: 6.00 Build 0)  -->
<svg version="1.1" id="Capa_1" xmlns="http://www.w3.org/2000/svg" xmlns:xlink="http://www.w3.org/1999/xlink" x="0px" y="0px"
	 viewBox="0 0 100 100" style="enable-background:new 0 0 100 100;" xml:space="preserve">
<g>
	<path d="M88.7,33.1c-16.2,11.8-14.4,31.9,1.9,40.4c-3.1,9-7.7,17.1-14.9,23.5c-3.9,3.4-8.6,3.7-13.1,1.6c-7.2-3.4-14.3-3.5-21.5,0
		c-5,2.4-9.9,1.9-13.6-2.1C13.5,81.7,6.4,64.5,10.6,44c2.2-11,10.6-18.3,21.5-19.6c2.8-0.3,6.1-0.1,8.5,1.1
		c6.9,3.4,13.2,2.9,20.2-0.1c8.1-3.4,15.9-1.6,22.9,3.7C85.3,30.3,86.8,31.6,88.7,33.1z"/>
	<path d="M50.1,22.4C48.9,11.5,58.6,0.5,69.4,0C71.4,11,61.5,22.7,50.1,22.4z"/>
</g>
</svg>
