<svg xmlns="http://www.w3.org/2000/svg" width="74.047" height="100" viewBox="0 0 74.047 100">
    <g data-name="Grupo 695">
        <path data-name="Trazado 630" d="M1016.854 174.336c-.086-.246-.3-.38-.475-.55a95.32 95.32 0 0 1-7.423-8.254 39.173 39.173 0 0 1-3.157-4.483 17.614 17.614 0 0 1-1.171-2.334 5.953 5.953 0 0 1-.061-4.3 11.506 11.506 0 0 1 1.517-2.881 31.478 31.478 0 0 1 4.491-4.908c3.234-2.965 6.659-5.7 10.051-8.483a22.823 22.823 0 0 0 4.076-4.215 17.409 17.409 0 0 0 3.339-8.629 15.635 15.635 0 0 0-.2-4.424c-.029-.163-.143-.393.031-.478.2-.1.261.164.36.29a5.954 5.954 0 0 1 1 2.435 18.641 18.641 0 0 1 .461 6.485 16.107 16.107 0 0 1-2.865 7.44 24.254 24.254 0 0 1-3.294 3.645q-2.431 2.312-4.852 4.634c-1.531 1.467-3.044 2.953-4.473 4.521a28.179 28.179 0 0 0-3.192 4.075 17.786 17.786 0 0 0-.981 1.845 6.845 6.845 0 0 0-.419 4.715 23.763 23.763 0 0 0 1.809 4.8 62.717 62.717 0 0 0 4.583 7.6c.239.346.5.679.745 1.02.092.128.208.254.1.431z" transform="translate(-980.426 -120.375)" style="fill:#ea2025"/>
        <path data-name="Trazado 631" d="M995.926 205.059a1.184 1.184 0 0 1-.5.156 43.1 43.1 0 0 0-4.847 1.055 14.326 14.326 0 0 0-2.427.955 3.362 3.362 0 0 0-1.1.839.925.925 0 0 0 .22 1.568 6.28 6.28 0 0 0 1.919.8 41.361 41.361 0 0 0 5.472 1.037c2.014.27 4.036.472 6.06.651a101.438 101.438 0 0 0 10.7.4c2.657-.047 5.314-.09 7.969-.187 2.931-.108 5.862-.232 8.788-.434 3.114-.212 6.224-.469 9.322-.859a55.251 55.251 0 0 0 7.1-1.3 12.046 12.046 0 0 0 3.158-1.22 3.88 3.88 0 0 0 .665-.488 1.318 1.318 0 0 0 .382-1.5l-.187-.542a2.083 2.083 0 0 1 1.286 1.486 1.259 1.259 0 0 1-.389.94 6.478 6.478 0 0 1-1.353 1.156 18.646 18.646 0 0 1-3.705 1.819 45.978 45.978 0 0 1-7.652 2.016 88.135 88.135 0 0 1-9.33 1.157c-3.563.276-7.131.418-10.7.534q-3.332.108-6.664.1c-3.078-.011-6.156-.043-9.232-.194a206.833 206.833 0 0 1-4.914-.287 74.916 74.916 0 0 1-10.36-1.314 14.9 14.9 0 0 1-3.92-1.276 3.28 3.28 0 0 1-.816-.573 1.317 1.317 0 0 1-.362-1.467 3.419 3.419 0 0 1 1.156-1.547 10.113 10.113 0 0 1 2.825-1.54 32.994 32.994 0 0 1 6.83-1.7 19.82 19.82 0 0 1 4.338-.264c.07 0 .139.013.268.024" transform="translate(-980.426 -120.375)" style="fill:#0d89c5"/>
        <path data-name="Trazado 632" d="M1021.255 178.175a1.029 1.029 0 0 1 .263-.463 22.175 22.175 0 0 0 1.986-3.171 4.844 4.844 0 0 0-.073-4.637 28.679 28.679 0 0 0-2.048-3.133c-.637-.919-1.323-1.8-1.892-2.769a12.109 12.109 0 0 1-1.778-5.941 9.729 9.729 0 0 1 1.093-4.617 14.7 14.7 0 0 1 3.33-4.267 32.538 32.538 0 0 1 7.85-5.127 57.156 57.156 0 0 1 8.6-3.323 3.312 3.312 0 0 1 .776-.188c-.005.207-.173.232-.279.3-1.56.985-3.12 1.968-4.647 3a58.87 58.87 0 0 0-6.163 4.695 20.587 20.587 0 0 0-3.7 4.093 8.383 8.383 0 0 0-1.025 2.108 4.965 4.965 0 0 0 .205 3.489 16.152 16.152 0 0 0 1.319 2.4c.745 1.16 1.538 2.291 2.211 3.5a13.525 13.525 0 0 1 1.4 3.461 5.705 5.705 0 0 1-.474 3.937 12.81 12.81 0 0 1-2.921 3.708 24.521 24.521 0 0 1-3.632 2.767.645.645 0 0 1-.4.176" transform="translate(-980.426 -120.375)" style="fill:#ea2025"/>
        <path data-name="Trazado 633" d="M1003.557 197.737c.031.168-.092.269-.161.391a1.1 1.1 0 0 0 .337 1.6 4.788 4.788 0 0 0 1.82.682 11.092 11.092 0 0 0 2.03.243 100.255 100.255 0 0 0 12.8-.122 45.146 45.146 0 0 0 5.994-.8 12.6 12.6 0 0 0 .76-.191 1.188 1.188 0 0 1 1 .15c.52.318 1.042.631 1.571.936a22.928 22.928 0 0 0 3.121 1.537.482.482 0 0 1 .229.143 4.334 4.334 0 0 1-1.083.438 71.361 71.361 0 0 1-8.18 2.077 42.632 42.632 0 0 1-9.057.69 60.824 60.824 0 0 1-6.941-.565 23.173 23.173 0 0 1-5.719-1.468 7.053 7.053 0 0 1-1.62-.927 2.982 2.982 0 0 1-.661-.689 1.816 1.816 0 0 1 .068-2.226 3.243 3.243 0 0 1 .792-.741 8.236 8.236 0 0 1 2.44-1.123.717.717 0 0 1 .466-.037" transform="translate(-980.426 -120.375)" style="fill:#0d89c5"/>
        <path data-name="Trazado 634" d="M1001.421 186.779c-.2.236-.352.408-.5.586a1.365 1.365 0 0 0 .476 2.368 8.1 8.1 0 0 0 2.625.747 40.938 40.938 0 0 0 5.907.366c3.037.026 6.067-.125 9.095-.337 3.159-.222 6.3-.572 9.43-1.072.458-.073.917-.146 1.372-.238a1.565 1.565 0 0 1 1.452.367 8.579 8.579 0 0 0 3.287 1.9 1.72 1.72 0 0 1-.689.316 65.435 65.435 0 0 1-6.922 1.744 53.166 53.166 0 0 1-6.166.849 51.894 51.894 0 0 1-6.31.151c-1.378-.063-2.758-.072-4.136-.143a56.022 56.022 0 0 1-9.843-1.2 12.951 12.951 0 0 1-2.469-.84 3.824 3.824 0 0 1-.925-.568 1.655 1.655 0 0 1-.516-1.926 3.336 3.336 0 0 1 .9-1.371 7.643 7.643 0 0 1 3.932-1.7" transform="translate(-980.426 -120.375)" style="fill:#0d89c5"/>
        <path data-name="Trazado 635" d="M1038.393 178.8c-.014.175-.128.2-.208.25q-1.722 1.066-3.447 2.126a1.93 1.93 0 0 1-.733.258q-4.668.728-9.364 1.266c-3.476.4-6.958.737-10.455.913-2.308.117-4.614.21-6.924.129-2.5-.087-4.991-.187-7.482-.381a100.87 100.87 0 0 1-5.932-.628 22.117 22.117 0 0 1-3.78-.83 4.254 4.254 0 0 1-1.146-.52c-.6-.417-.643-.835-.142-1.363a6.912 6.912 0 0 1 2-1.3 29.832 29.832 0 0 1 4.5-1.747 43.572 43.572 0 0 1 8.55-1.8 5.417 5.417 0 0 1 1.085-.014.557.557 0 0 1-.32.163c-1.437.409-2.88.8-4.291 1.3a23.14 23.14 0 0 0-2.776 1.144 5.38 5.38 0 0 0-1.3.864c-.715.673-.629 1.185.269 1.57a9.588 9.588 0 0 0 2.668.6 105.63 105.63 0 0 0 14.965.494c2.424-.051 4.841-.274 7.259-.458 2-.153 3.992-.349 5.985-.56q4.179-.441 8.333-1.08c.789-.121 1.577-.25 2.366-.372.1-.016.2-.014.326-.021" transform="translate(-980.426 -120.375)" style="fill:#0d89c5"/>
        <path data-name="Trazado 636" d="M1054.375 211a2.182 2.182 0 0 1-.416 1.035 8.911 8.911 0 0 1-2.432 2.344 22.839 22.839 0 0 1-5.314 2.577 42.608 42.608 0 0 1-6.931 1.675c-2.247.387-4.505.695-6.771.94-1.862.2-3.729.352-5.6.481-3.2.221-6.409.346-9.62.324a106.626 106.626 0 0 1-12-.711 62.091 62.091 0 0 1-10.316-2.08c-.124-.037-.246-.086-.366-.134-.019-.008-.025-.046-.062-.122.509.041.99.076 1.47.119 2.328.21 4.655.433 6.987.592 3.217.218 6.436.363 9.659.454q4.27.12 8.539.027c2.816-.06 5.631-.18 8.439-.423a91.76 91.76 0 0 0 10.737-1.465 46.934 46.934 0 0 0 8.1-2.356 24.569 24.569 0 0 0 5.5-3.066.686.686 0 0 1 .391-.211" transform="translate(-980.426 -120.375)" style="fill:#0d89c5"/>
        <path data-name="Trazado 637" d="M1039.084 193.643c.229-.147.407-.265.59-.377a41.616 41.616 0 0 0 4.958-3.467 22.714 22.714 0 0 0 4.131-4.284 8.556 8.556 0 0 0 1.564-3.513 5.5 5.5 0 0 0-1.505-5.048 5.7 5.7 0 0 0-3.2-1.463 11.757 11.757 0 0 0-4.135.064c.014-.173.145-.223.24-.293a5.932 5.932 0 0 1 2.411-.95 9.13 9.13 0 0 1 6.106.733 8.074 8.074 0 0 1 2.921 2.364 6.26 6.26 0 0 1 .745 6.433 11.114 11.114 0 0 1-2.725 3.742 20.675 20.675 0 0 1-4.533 3.218 35.18 35.18 0 0 1-7.236 2.854.4.4 0 0 1-.335-.013" transform="translate(-980.426 -120.375)" style="fill:#0d89c5"/>
        <path data-name="Trazado 638" d="m1016.853 174.336.052-.049c.032.024.023.034-.02.029-.009 0-.021.013-.031.02" transform="translate(-980.426 -120.375)" style="fill:#ea2025"/>
    </g>
</svg>
