<svg xmlns="http://www.w3.org/2000/svg" width="100.001" height="62.918" viewBox="0 0 100.001 62.918">
    <g data-name="Grupo 696">
        <path data-name="Trazado 660" d="M712.7 396.61a8.712 8.712 0 0 1 2.424-.956l1.309.014a6.887 6.887 0 0 1 2.3.932l.841.958a4.728 4.728 0 1 1-7.959.529c.126-.229.255-.458.382-.686a2.007 2.007 0 0 0 .705-.791" transform="translate(-643.552 -346.917)" style="fill:#fbde7a"/>
        <path data-name="Trazado 661" d="M712.7 352.32a8.711 8.711 0 0 1 2.424-.956l1.309.014a6.887 6.887 0 0 1 2.3.932l.841.958a4.728 4.728 0 1 1-7.959.529c.126-.229.255-.458.382-.686a2.007 2.007 0 0 0 .705-.791" transform="translate(-643.552 -346.917)" style="fill:#fbde7a"/>
        <path data-name="Trazado 663" d="m672.669 365.722-2.26.047a17.429 17.429 0 0 1-4.832-2 4.173 4.173 0 0 0-1.508-1.452 12.4 12.4 0 0 1-1.939-5.715c-.039-3.774 2.283-7.611 5.39-8.779 4.38-1.646 8.425-.751 11.142 2.466a9.424 9.424 0 0 1 .847 10.912c-.215.362-.559.66-.567 1.126l-1.983 1.629a12.213 12.213 0 0 1-4.29 1.77m-1.126-5.358a4.037 4.037 0 1 0-.167-8.07 4.037 4.037 0 0 0 .167 8.07" transform="translate(-643.552 -346.917)" style="fill:#0f63ac"/>
        <path data-name="Trazado 664" d="M714.453 365.75a11.947 11.947 0 0 1-4.331-1.809l-1.926-1.613a13.3 13.3 0 0 1-1.933-5.29 9.47 9.47 0 0 1 5.566-9.3 9.4 9.4 0 0 1 12.136 12.951c-.244.461-.534.9-.8 1.345l-1.6 1.76a15.4 15.4 0 0 1-4.675 1.937l-2.433.021m1.13-13.39a3.969 3.969 0 1 0 .114 7.937 3.969 3.969 0 0 0-.114-7.937" transform="translate(-643.552 -346.917)" style="fill:#04274d"/>
        <path data-name="Trazado 665" d="M709.586 393.037a17.23 17.23 0 0 1 4.8-1.894l2.6.027a13.614 13.614 0 0 1 4.556 1.847l1.668 1.9c2.676 4.2 2.321 8.9-.918 12.154a9.368 9.368 0 0 1-14.861-11.105c.249-.455.5-.908.756-1.361a4 4 0 0 0 1.4-1.568m10.064 7.358a4.02 4.02 0 1 0-3.9 4.105 4.068 4.068 0 0 0 3.9-4.105" transform="translate(-643.552 -346.917)" style="fill:#186ab3"/>
        <path data-name="Trazado 666" d="m723.211 394.917-1.668-1.9a3.4 3.4 0 0 1 1-1.184c3.115-3.127 6.223-6.262 9.376-9.351a1.447 1.447 0 0 0 .4-1.943 4.432 4.432 0 0 1-.088-4c.611-1.14.208-1.75-.576-2.529-3.4-3.376-6.734-6.809-10.093-10.221l1.6-1.761q5.427 5.473 10.85 10.952a.9.9 0 0 0 1.227.163 5.812 5.812 0 0 1 7.205 8.675 5.777 5.777 0 0 1-6.984 1.959c-.575-.227-.982-.378-1.506.153-3.469 3.517-6.972 7-10.458 10.5a2.253 2.253 0 0 0-.286.485" transform="translate(-643.552 -346.917)" style="fill:#76bcda"/>
        <path data-name="Trazado 667" d="m654.389 381.75-1.687 1.616c-3.311 1.5-6.08 1.011-7.948-1.4a5.863 5.863 0 0 1 6.267-9.209c.586.175 1.141.455 1.71.687l1.637 1.458a6.958 6.958 0 0 1 .021 6.848" transform="translate(-643.552 -346.917)" style="fill:#082a50"/>
        <path data-name="Trazado 668" d="m716.987 391.17-2.6-.027.061-25.393 2.434-.021c.012 1.184.031 2.368.036 3.552l.065 21.889" transform="translate(-643.552 -346.917)" style="fill:#76bcda"/>
        <path data-name="Trazado 669" d="m654.367 374.9-1.637-1.458q5.366-5.406 10.736-10.8a2.4 2.4 0 0 1 .6-.327 4.176 4.176 0 0 1 1.508 1.453c-3 3.4-6.358 6.444-9.524 9.679-.516.526-.922 1.208-1.686 1.458" transform="translate(-643.552 -346.917)" style="fill:#76bcda"/>
        <path data-name="Trazado 673" d="M675.588 400.473a4.127 4.127 0 0 1-4.048 4.115 4.121 4.121 0 1 1 0-8.241 4.151 4.151 0 0 1 4.05 4.126" transform="translate(-643.552 -346.917)" style="fill:#0f63ac"/>
        <path data-name="Trazado 674" d="M671.543 360.364a4.037 4.037 0 0 1-.167-8.07 4.037 4.037 0 1 1 .167 8.07" transform="translate(-643.552 -346.917)" style="fill:#76bcda"/>
        <path data-name="Trazado 662" d="M672.67 365.722c.011 7.949.045 15.9.007 23.848-.005 1.123.2 1.792 1.422 1.948a3.12 3.12 0 0 1 1.578.614c1.284 1.1 2.089.479 3.036-.526 1.992-2.111 4.128-4.086 6.125-6.193.833-.879 1.155-.286 1.781.218.813.655.47 1-.067 1.534-2.272 2.238-4.505 4.516-6.781 6.749-.571.56-.787.932-.287 1.771a9.331 9.331 0 1 1-17.17 6.57 8.527 8.527 0 0 1 1.12-6.449 1.393 1.393 0 0 0-.311-2.06c-3.5-3.431-6.953-6.915-10.422-10.381l1.688-1.615c3.247 3.2 6.553 6.352 9.709 9.645 1.141 1.191 2.072 1.774 3.518.62a2.7 2.7 0 0 1 1.314-.513c1.191-.139 1.471-.737 1.464-1.907-.044-7.942 0-15.885.015-23.827l2.261-.046m2.918 34.751a4.151 4.151 0 0 0-4.05-4.126 4.121 4.121 0 1 0 0 8.241 4.127 4.127 0 0 0 4.048-4.115" transform="translate(-643.552 -346.917)" style="fill:#76bcda"/>
        <path data-name="Trazado 670" d="m676.959 363.952 1.982-1.629a27.266 27.266 0 0 1 3.815 3.588c1.245 1.174 2.387 2.459 3.658 3.6.776.7.809 1.121.051 1.9-.805.829-1.2.463-1.8-.153-2.126-2.177-4.287-4.321-6.447-6.466-.359-.357-.643-.857-1.258-.844" transform="translate(-643.552 -346.917)" style="fill:#76bcda"/>
        <path data-name="Trazado 671" d="m708.2 362.328 1.925 1.612c-.735.112-1.078.742-1.539 1.2q-3.243 3.2-6.442 6.451c-.495.5-.876.491-1.253-.057-.327-.474-1.337-.8-.525-1.584 2.616-2.534 4.986-5.323 7.834-7.619" transform="translate(-643.552 -346.917)" style="fill:#76bcda"/>
        <path data-name="Trazado 672" d="M709.586 393.037a4 4 0 0 1-1.4 1.568c-2.787-2.443-5.263-5.2-7.923-7.776-.3-.294-.548-.652-.017-.89.576-.259.868-1.6 1.645-.826 2.608 2.6 5.445 4.977 7.693 7.924" transform="translate(-643.552 -346.917)" style="fill:#76bcda"/>
        <path data-name="Trazado 675" d="M686.626 369.915c1.784-.815 3.466-1.889 5.466-2.155l2.952.031a15.49 15.49 0 0 1 5.183 2.1l1.9 2.16c3.044 4.777 2.64 10.129-1.044 13.825a10.656 10.656 0 0 1-16.9-12.631c.283-.519.573-1.033.86-1.549a4.534 4.534 0 0 0 1.59-1.783" transform="translate(-643.552 -346.917)" style="fill:#fbde7a"/>
    </g>
</svg>
