<svg xmlns="http://www.w3.org/2000/svg" width="90.819" height="100" viewBox="0 0 90.819 100">
    <g data-name="Grupo 701">
        <path data-name="Trazado 619" d="M206.049 122.107a12.75 12.75 0 0 1 4.537-1.7 10.03 10.03 0 0 1 5.144 1.1 23.623 23.623 0 0 0 3.239 1.875.827.827 0 0 0 .2.058 19.458 19.458 0 0 0 2.831 1.637c2.2 1.257 4.363 2.586 6.648 3.693a3.964 3.964 0 0 0 1.538.871 4.266 4.266 0 0 0 1.659.907l.009-.034c0 .16.109.189.236.2a23.171 23.171 0 0 0 2.822 1.666l1.279.7 1.931 1.072 3.44 1.937 3.013 1.728c2.124 1.26 4.256 2.507 6.464 3.617l2.345 1.346 1.067.867 1.584 2.112.807 2.378v44.491c-.332.38-.147.908-.378 1.317-.217.444-.432.889-.654 1.331-.97 1.934-2.792 2.868-4.558 3.867l-2.15 1.234-1.281.7-3.246 1.875-1.279.681-1.739 1.044c-2.276 1.127-4.454 2.427-6.647 3.7a17.271 17.271 0 0 0-2.828 1.645.553.553 0 0 0-.2.056 21.3 21.3 0 0 0-3.242 1.877 9.984 9.984 0 0 0-2.6 1.507v-.025a.17.17 0 0 0-.191.055l-.225.181a24.978 24.978 0 0 0-3.638 1.993 3.031 3.031 0 0 0-1.315.8 6.086 6.086 0 0 0-1.709.892c-2.11.941-3.87 2.611-6.245 3a16.479 16.479 0 0 1-3.444-.215c-.171-.243-.429-.215-.677-.217l-2.526-1.313a19.08 19.08 0 0 0-3.257-1.9l-.417-.246a19.5 19.5 0 0 0-2.817-1.64q-2.278-1.352-4.557-2.7c-.481-.285-1.2-.47-1.149-1.112.038-.531.818-.443 1.184-.766a2.561 2.561 0 0 0 1.111-.31 17.582 17.582 0 0 0 3.417-1.635 1.686 1.686 0 0 1 2.221.094 5.572 5.572 0 0 0 1.02.551l6.444 3.688 1.137.734a1.5 1.5 0 0 0 2.092-.126 23.477 23.477 0 0 0 3.218-1.765 7.379 7.379 0 0 0 1.732-1.02 6.9 6.9 0 0 0 1.7-.909 19.443 19.443 0 0 0 2.824-1.643 4.16 4.16 0 0 0 1.542-.872 6.145 6.145 0 0 0 1.9-1.062c2.276-1.132 4.462-2.424 6.65-3.712l2.594-1.483.429-.213 3.251-1.8 2.116-1.23.9-.49 3.63-2.065a3.051 3.051 0 0 0 1.082-.639 6.958 6.958 0 0 0 1.934-1.082c1.579-.462 2.186-1.437 2.178-3.15q-.095-19.8 0-39.607c.007-1.588-.517-2.5-1.98-2.953a24.227 24.227 0 0 0-3.36-1.842 18.059 18.059 0 0 0-3.291-1.863 65.491 65.491 0 0 0-6.46-3.647 101.518 101.518 0 0 0-6.451-3.651 1.453 1.453 0 0 0-.82-.455l-2.388-1.4-3.252-1.8-.428-.213a13.582 13.582 0 0 0-2.6-1.483c-2.188-1.288-4.374-2.579-6.649-3.712a1.513 1.513 0 0 0-2.082-.135c-.444.281-.9.535-1.359.8l-2.354 1.326-.662.41-6.648 3.7-6.263 3.6c-2.277 1.125-4.46 2.42-6.648 3.7l-2.592 1.458-.435.244a21.359 21.359 0 0 0-3.243 1.877 12.935 12.935 0 0 0-2.127 1.131 1.634 1.634 0 0 0-.883.587 13.282 13.282 0 0 0-4.29 2.667c-.241.121-.21.349-.21.559q.01 7.878.024 15.758 0 8.039-.006 16.079 0 4.876.011 9.755c0 .662.086 1.3.837 1.572l6.653 3.7c.862.623 1.954.916 2.759 1.5a9.458 9.458 0 0 0 3.7 1.46 5.064 5.064 0 0 0 3.425-.591 3.027 3.027 0 0 0 1.5-1.283 4.023 4.023 0 0 0 .938-3.2 11.63 11.63 0 0 0 0-3.27 15.671 15.671 0 0 0 0-3.168 11.777 11.777 0 0 0 0-3.28 15.671 15.671 0 0 0 0-3.168 11.815 11.815 0 0 0 0-3.28 15.681 15.681 0 0 0 0-3.169 11.77 11.77 0 0 0 0-3.279 15.681 15.681 0 0 0 0-3.169 11.66 11.66 0 0 0 0-3.269 15.591 15.591 0 0 0 0-3.189 11.63 11.63 0 0 0 0-3.27 15.681 15.681 0 0 0 0-3.169 24.694 24.694 0 0 0 .112-3.053l.456-.479c1-.339 2.035-.03 3.043-.192.608.01 1.217.024 1.825.03 1.249.012 1.6.343 1.6 1.566v42.508c-.249.257-.14.583-.167.883l-.036.84-1.016 3.021a9.532 9.532 0 0 1-5.429 4.759l-2.383.609h-4.735l-2.17-.609-3.426-1.326a1.135 1.135 0 0 0-.661-.4l-2.355-1.326-6.468-3.618a8.632 8.632 0 0 1-4.347-4.742c-.23-.408-.044-.936-.376-1.315v-44.501q.4-1.189.806-2.378l.744-1.267 1.907-1.712 1.26-.719a28.569 28.569 0 0 0 3.275-1.86l1.522-.87a3.4 3.4 0 0 0 1.471-.848c2.276-1.131 4.461-2.424 6.65-3.711l3.023-1.683.255-.2a24.263 24.263 0 0 0 3-1.614 13.5 13.5 0 0 0 2.587-1.6v.023h.1l.087-.059.24-.084 3.631-2.065 1.5-.856a6.465 6.465 0 0 0 1.515-.865 1.814 1.814 0 0 0 .484-.189c.984-.759 2.133-1.256 3.147-2 .777-.569 1.924-.876 2.828-1.468" transform="translate(-166.021 -120.375)" style="fill:#8bc74a"/>
        <path data-name="Trazado 620" d="M204.759 184.248a12.893 12.893 0 0 1-1.6-6.187 1.313 1.313 0 0 1 .743-1.387l5.387-.022c1.039.287.924 1.218 1.109 1.982a5.118 5.118 0 0 0 .834 2.167c.012.122.03.237.192.237l-.02-.011a2.119 2.119 0 0 0 1.076 1.317l.008-.031.229.252a5.668 5.668 0 0 0 2.82 1.419c.344.086.685.187 1.032.255a36.668 36.668 0 0 0 10.119.39 6.561 6.561 0 0 0 2.176-.382 7.676 7.676 0 0 0 3.2-1.136 3.747 3.747 0 0 0 1.706-1.887 5.212 5.212 0 0 0 .4-3.2c-.253-1.287-1.251-1.831-2.313-2.311a17.3 17.3 0 0 0-3.624-1.042l-.256-.056-2.352-.383-3.866-.474a26.7 26.7 0 0 0-3.016-.253 14.285 14.285 0 0 0-2.388-.394l-4.067-.9a14.179 14.179 0 0 1-6.033-3.646l-.19-.237a12.408 12.408 0 0 1-1.4-3.235l-.163-1.27-.045-.215-.061-1.7.543-3.042c.48-1.05.713-2.378 1.5-3.077a19.667 19.667 0 0 1 2.832-2.295l1.941-1.068 1.284-.462 2.806-.828 4.284-.466h3.029l2.992.109 2.981.423.01-.008.261.121a19.6 19.6 0 0 1 2.994.807l.682.27 2.565 1.308a2.527 2.527 0 0 0 .912.655c.08.148.177.268.37.247l-.015-.02a.2.2 0 0 0 .23.229l-.014-.014a.2.2 0 0 0 .23.229l-.015-.014a.2.2 0 0 0 .23.229l-.015-.014a.2.2 0 0 0 .23.229l-.034.008a6.866 6.866 0 0 0 1.108 1.515 6.36 6.36 0 0 0 .876 1.68q.447 1.712.9 3.423c.041.936.519 1.989-.692 2.592l-5.376.012a2.106 2.106 0 0 1-.966-1.445c-.838-3.743-3.378-5.444-7.014-5.828a33.038 33.038 0 0 0-6.631-.215l-.872.045a16.445 16.445 0 0 0-3 .6 2.93 2.93 0 0 0-1.307.609 3.04 3.04 0 0 0-1.923 1.934c-1.1 2.275-.4 4.068 1.986 4.9a26.823 26.823 0 0 0 4.679 1.05 29.71 29.71 0 0 0 3.863.489 9.743 9.743 0 0 0 2.385.395 27.179 27.179 0 0 0 3.64.465 14.351 14.351 0 0 0 2.6.61l1.267.262 2.383.789a22.8 22.8 0 0 1 3.209 1.59.709.709 0 0 0 .442.4l.087.059h.1v-.034c0 .157.073.234.23.228h-.036a10.237 10.237 0 0 1 2.559 8.109l-.107.919-.251 1.485-1.069 2.369a13.382 13.382 0 0 1-5.172 4.521l-3.037 1.158-2.757.59a.774.774 0 0 0-.671.168l-3.214.263a25.085 25.085 0 0 0-3.255.108l-1.065-.063-.637-.043-1.724-.038c-.765-.337-1.616-.131-2.4-.378l-.829-.065-3.025-.81-3.219-1.327-1.3-.853a.17.17 0 0 0-.192-.055l.007.022-1.543-1.477-1.495-1.937" transform="translate(-166.021 -120.375)" style="fill:#8bc74a"/>
    </g>
</svg>
