<svg xmlns="http://www.w3.org/2000/svg" width="100" height="49.937" viewBox="0 0 100 49.937">
    <g data-name="Grupo 698">
        <path data-name="Trazado 656" d="M0 49.859c.1-.481.212-.961.309-1.444q1.032-5.131 2.06-10.264l2.161-10.78 2.33-11.622q.51-2.541 1.017-5.084c.025-.128.066-.169.2-.169 5.026 0 10.051-.009 15.077.015a13.987 13.987 0 0 1 5.374 1.013 9.065 9.065 0 0 1 5.531 6.633 14.068 14.068 0 0 1 .282 4.4 21.722 21.722 0 0 1-1.173 5.711 18.4 18.4 0 0 1-5.921 8.313 11.876 11.876 0 0 1-5.316 2.387 31.837 31.837 0 0 1-6.114.538c-1.94-.011-3.88 0-5.82 0-.147 0-.21.028-.243.19q-1 5.037-2.021 10.072c-.01.051-.025.1-.043.171H.002zm11.064-16.566c.255.016.48.046.705.043 1.23-.019 2.461-.023 3.689-.076a28.383 28.383 0 0 0 5.109-.733 5.517 5.517 0 0 0 3.691-2.738 11.8 11.8 0 0 0 .775-1.571 19.652 19.652 0 0 0 1.319-6.011 7.265 7.265 0 0 0-.217-2.438 2.966 2.966 0 0 0-2.211-2.24 19.721 19.721 0 0 0-4.522-.692c-1.651-.05-3.3-.012-4.957-.012a.465.465 0 0 0-.073.014l-3.308 16.454"/>
        <path data-name="Trazado 657" d="M75.397 39.507c-.7 3.482-1.4 6.941-2.094 10.414h-7.692q3.951-19.7 7.9-39.412c.056 0 .107-.01.157-.01 4.981 0 9.961-.01 14.941.008a14.307 14.307 0 0 1 5.547 1.029 9.047 9.047 0 0 1 5.482 6.537 14.384 14.384 0 0 1 .28 4.789 21.572 21.572 0 0 1-1.441 6.165 18.411 18.411 0 0 1-5.319 7.307 11.977 11.977 0 0 1-5.639 2.639 31.411 31.411 0 0 1-5.821.535c-2.018-.005-4.036 0-6.054 0zm1.271-6.208c.265.015.5.043.731.04 1.223-.019 2.447-.023 3.669-.076a27.74 27.74 0 0 0 5.107-.735 5.494 5.494 0 0 0 3.453-2.358 10.273 10.273 0 0 0 1.108-2.185 20.458 20.458 0 0 0 1.2-5.466 7.856 7.856 0 0 0-.182-2.693 2.992 2.992 0 0 0-2.246-2.3 22.254 22.254 0 0 0-5.263-.726c-1.378-.031-2.758.017-4.137.024-.129 0-.142.064-.161.163q-.54 2.694-1.084 5.388l-1.818 9.038-.378 1.886"/>
        <path data-name="Trazado 658" d="M42.902 0h7.636l-2.155 10.5h.248c2.181 0 4.362-.012 6.542 0a18.87 18.87 0 0 1 5.375.739 10.315 10.315 0 0 1 2.6 1.192 5.138 5.138 0 0 1 2.286 3.334 10.937 10.937 0 0 1 .172 3.338 47.537 47.537 0 0 1-.938 5.275c-.659 3.321-1.339 6.637-2.01 9.956l-1.015 5.025c-.019.094-.045.147-.158.147q-3.78-.006-7.558-.005a.256.256 0 0 1-.057-.016l.256-1.269 2.045-10.108q.617-3.046 1.231-6.1a7.92 7.92 0 0 0 .186-2.441 2.407 2.407 0 0 0-2.1-2.389 9.073 9.073 0 0 0-1.834-.233c-2.121-.045-4.243-.048-6.365-.067h-.177q-2.27 11.309-4.536 22.613H34.94l7.964-39.5"/>
    </g>
</svg>
