<svg xmlns="http://www.w3.org/2000/svg" width="99.999" height="99.958" viewBox="0 0 99.999 99.958">
    <g data-name="Grupo 700">
        <path data-name="Trazado 621" d="M422.634 177.133c-.144.772-.28 1.546-.435 2.317a22.569 22.569 0 0 1-3.93 9.431 13.651 13.651 0 0 1-9.107 5.451 11.515 11.515 0 0 1-1.742.111h-34.656v3.477h24.283v.521c.007 3.761.023 7.523.018 11.284a7.053 7.053 0 0 1-2.2 4.926 14.266 14.266 0 0 1-5.389 3.364 34.662 34.662 0 0 1-8.441 1.923 68.206 68.206 0 0 1-9.722.393 44.433 44.433 0 0 1-12.422-1.813 18.317 18.317 0 0 1-6.606-3.494 9.865 9.865 0 0 1-3.539-6.175 15.217 15.217 0 0 1-.053-2.116q-.006-9.1 0-18.2c0-1.4-.035-2.8.014-4.205a12.2 12.2 0 0 1 2.828-7.863 12.845 12.845 0 0 1 6.639-3.9 17.939 17.939 0 0 1 4.649-.578c8.022 0 16.044.015 24.065-.01a13.784 13.784 0 0 0 7.409-2.007 12.437 12.437 0 0 0 5.274-7.232 17.5 17.5 0 0 0 .765-5.246c-.012-3.705 0-7.411-.005-11.117v-.534h.488c2.485 0 4.969.027 7.453-.007a11.421 11.421 0 0 1 8.345 3.433 18.353 18.353 0 0 1 4.5 7.626 33.637 33.637 0 0 1 1.43 6.48 1.513 1.513 0 0 0 .089.269zm-31.625 31.209a4.392 4.392 0 1 0-4.4 4.37 4.362 4.362 0 0 0 4.4-4.37" transform="translate(-322.635 -120.396)" style="fill:#e2ae34"/>
        <path data-name="Trazado 622" d="M322.635 163.618c.144-.772.28-1.546.435-2.317a22.568 22.568 0 0 1 3.93-9.431 13.651 13.651 0 0 1 9.107-5.451 11.513 11.513 0 0 1 1.742-.111h34.656v-3.477h-24.283v-.521c-.007-3.761-.023-7.523-.018-11.284a7.053 7.053 0 0 1 2.2-4.926 14.267 14.267 0 0 1 5.389-3.364 34.662 34.662 0 0 1 8.441-1.923 68.2 68.2 0 0 1 9.722-.393 44.432 44.432 0 0 1 12.422 1.813 18.317 18.317 0 0 1 6.606 3.494 9.865 9.865 0 0 1 3.539 6.175 15.217 15.217 0 0 1 .053 2.116q.006 9.1 0 18.195c0 1.4.035 2.805-.014 4.205a12.2 12.2 0 0 1-2.828 7.863 12.845 12.845 0 0 1-6.639 3.9 17.94 17.94 0 0 1-4.649.578c-8.022 0-16.044-.015-24.065.01a13.784 13.784 0 0 0-7.409 2.007 12.438 12.438 0 0 0-5.274 7.232 17.5 17.5 0 0 0-.765 5.246c.012 3.705 0 7.411.005 11.117v.534h-.488c-2.485 0-4.969-.027-7.453.007a11.421 11.421 0 0 1-8.345-3.433 18.353 18.353 0 0 1-4.5-7.626 33.64 33.64 0 0 1-1.43-6.48 1.513 1.513 0 0 0-.089-.269zm31.625-31.209a4.392 4.392 0 1 0 4.4-4.37 4.362 4.362 0 0 0-4.4 4.37" transform="translate(-322.635 -120.396)" style="fill:#286786"/>
    </g>
</svg>
