<svg xmlns="http://www.w3.org/2000/svg" width="100" height="88.963" viewBox="0 0 100 88.963">
    <g data-name="Grupo 702">
        <path data-name="Trazado 617" d="M69.761 125.894h1.621a4.005 4.005 0 0 0 .411.086 8.363 8.363 0 0 1 3.415 1.109 9.92 9.92 0 0 1 4 4.9 23.182 23.182 0 0 1 1.615 8.571 47.669 47.669 0 0 1-1.051 10.705c-.165.815-.349 1.626-.522 2.421a.582.582 0 0 0 .1.074c.23.071.461.139.693.209a48.077 48.077 0 0 1 12.556 5.6 21.024 21.024 0 0 1 5.586 5.075 8.9 8.9 0 0 1 .179 11.111 18.866 18.866 0 0 1-4.183 4.282 41.16 41.16 0 0 1-11.035 5.814c-1.208.445-2.436.835-3.691 1.262.133.6.272 1.187.4 1.78a42.031 42.031 0 0 1 .812 14.852 17.845 17.845 0 0 1-2.054 6.364 8.719 8.719 0 0 1-5.362 4.38c-.612.166-1.245.25-1.87.372h-1.62a1.971 1.971 0 0 0-.288-.068 20.164 20.164 0 0 1-7.136-2.142 44.468 44.468 0 0 1-10.15-7.055c-.59-.529-1.166-1.073-1.777-1.635l-.608.567a44.985 44.985 0 0 1-11.832 8.257 19.342 19.342 0 0 1-7.949 2.011 8.723 8.723 0 0 1-8.213-4.675 19.03 19.03 0 0 1-2.184-8.288 43.8 43.8 0 0 1 .979-11.77c.186-.912.4-1.82.591-2.716a.555.555 0 0 0-.1-.068q-.243-.078-.487-.151a47.828 47.828 0 0 1-11.483-5 23.233 23.233 0 0 1-6.8-5.991c-2.791-3.84-2.792-7.8 0-11.625a20.416 20.416 0 0 1 5.241-4.83 45.884 45.884 0 0 1 12.117-5.538c.522-.163 1.046-.319 1.585-.483-.035-.174-.057-.3-.086-.421a52.472 52.472 0 0 1-1.593-11.495 26.649 26.649 0 0 1 .966-8.133 11.788 11.788 0 0 1 2.854-5.119c2.242-2.234 5.015-2.737 8.029-2.372a21.893 21.893 0 0 1 7.285 2.389A48.893 48.893 0 0 1 49.9 136.6c.12.112.245.22.382.343.187-.175.342-.319.495-.465a52.914 52.914 0 0 1 8.258-6.506 27.475 27.475 0 0 1 8.048-3.6c.88-.215 1.784-.322 2.677-.478m-19.19 60.672c2.942-.125 5.724-.239 8.506-.375a.732.732 0 0 0 .5-.3 132.431 132.431 0 0 0 8.778-15.276.74.74 0 0 0-.006-.575 143.038 143.038 0 0 0-8.248-14.36 2.266 2.266 0 0 0-2.01-1.184 134.731 134.731 0 0 0-16.571.065.769.769 0 0 0-.65.385 123.916 123.916 0 0 0-8.72 15.112.684.684 0 0 0 0 .673 124.176 124.176 0 0 0 8.794 15.169.66.66 0 0 0 .583.333c3.066.105 6.132.222 9.044.33m-28.156-28.809a52.289 52.289 0 0 0-7.308 2.611 29.006 29.006 0 0 0-7.546 4.664 10.19 10.19 0 0 0-2.677 3.438 3.6 3.6 0 0 0-.359 2.153 9.012 9.012 0 0 0 1.525 3.529 12.768 12.768 0 0 0 2.9 2.673 37.636 37.636 0 0 0 12.309 6.067l1.09.317c.063-.173.11-.29.148-.411a101.41 101.41 0 0 1 4.641-12.026.8.8 0 0 0 0-.753 100.433 100.433 0 0 1-3.828-9.561c-.3-.883-.588-1.772-.9-2.7m2.931 30.607c-.051.2-.088.338-.121.475a50.915 50.915 0 0 0-1.311 7.932 27.443 27.443 0 0 0 .381 7.973 9.7 9.7 0 0 0 1.783 4.148 3.528 3.528 0 0 0 1.769 1.269 9.085 9.085 0 0 0 6.01-.255 38.977 38.977 0 0 0 13.364-8.779c.067-.066.125-.142.2-.224-.13-.143-.242-.271-.357-.4a94.847 94.847 0 0 1-7.642-9.433 1.886 1.886 0 0 0-1.587-.876 87.057 87.057 0 0 1-9.871-1.329c-.861-.162-1.721-.332-2.615-.505m50-.2c-.362.074-.666.134-.969.2a95.562 95.562 0 0 1-12.207 1.842.831.831 0 0 0-.648.394c-1.858 2.46-3.71 4.924-5.6 7.357-.792 1.019-1.675 1.968-2.574 3.015 1.413 1.211 2.781 2.451 4.222 3.6a31.6 31.6 0 0 0 8.885 5.225 11.227 11.227 0 0 0 4.411.8 3.863 3.863 0 0 0 2.431-.773 8.321 8.321 0 0 0 2.783-4.441 29.517 29.517 0 0 0 .666-6 35.815 35.815 0 0 0-.872-8.84l-.529-2.374m-28.07-48.179c-.058-.066-.09-.112-.131-.15a46.943 46.943 0 0 0-8.9-6.766 19.354 19.354 0 0 0-7.619-2.789 4.7 4.7 0 0 0-4.449 1.472 7.771 7.771 0 0 0-1.027 1.657 16.12 16.12 0 0 0-1.276 6.045 41.7 41.7 0 0 0 .951 10.62c.173.842.378 1.678.567 2.513a1.123 1.123 0 0 0 .183 0 102.691 102.691 0 0 1 12.778-2 .89.89 0 0 0 .685-.4c1.8-2.339 3.6-4.683 5.443-6.992.876-1.1 1.845-2.121 2.8-3.206m5.937-.059c.233.263.382.435.535.6a93.362 93.362 0 0 1 7.53 9.417 1.59 1.59 0 0 0 1.243.7q4.829.67 9.649 1.407c.979.149 1.941.392 2.949.6.116-.5.235-.962.333-1.431a40.219 40.219 0 0 0 .887-13.624 13.155 13.155 0 0 0-1.6-5.085 4.493 4.493 0 0 0-4.189-2.364 12.511 12.511 0 0 0-4.27.9 32.067 32.067 0 0 0-8.551 5.05c-1.534 1.216-2.991 2.528-4.521 3.831m25.086 43.022a.461.461 0 0 0 .119.007c.622-.2 1.248-.38 1.865-.591a40.56 40.56 0 0 0 10.813-5.312 14.764 14.764 0 0 0 3.958-3.952 5.381 5.381 0 0 0 .914-2.448A5.311 5.311 0 0 0 94.6 166.9a16.4 16.4 0 0 0-3.88-3.494 41.321 41.321 0 0 0-10.481-4.934c-.7-.229-1.4-.435-2.117-.657-.064.15-.115.249-.149.354a102.678 102.678 0 0 1-4.611 11.852.863.863 0 0 0 .025.625c1.1 2.629 2.253 5.239 3.329 7.879.588 1.442 1.056 2.934 1.583 4.419m-4.127 1.117a87.9 87.9 0 0 0-3.335-8.728c-1.989 3.455-3.951 6.867-5.934 10.31a86.5 86.5 0 0 0 9.269-1.582m-38.485 1.751a57132.75 57132.75 0 0 0-5.984-10.32 92.558 92.558 0 0 0-3.23 8.835l9.214 1.485m20.589 4.953c-.032-.03-.063-.06-.1-.089H44.389a92.745 92.745 0 0 0 6.062 7.241l5.82-7.152m-.037-40.687c-2.005-2.419-3.942-4.753-5.958-7.183l-6.005 7.183zm8.628 5L70.84 165.4c1.074-2.89 2.129-5.727 3.236-8.7l-9.214-1.611m-38.334 1.554a89.591 89.591 0 0 0 3.169 8.651l5.893-10.21-9.062 1.559" transform="translate(-.227 -125.894)" style="fill:#61dafb"/>
        <path data-name="Trazado 618" d="M50.266 161.383a8.909 8.909 0 1 1-8.961 8.881 8.918 8.918 0 0 1 8.961-8.881" transform="translate(-.227 -125.894)" style="fill:#61dafb"/>
    </g>
</svg>
