<svg xmlns="http://www.w3.org/2000/svg" width="100" height="61.635" viewBox="0 0 100 61.635">
    <g data-name="Grupo 693">
        <path data-name="Trazado 640" d="M1135.74 179.992a.583.583 0 0 1-.018.074l-1.976 4.735c-.124.295-.339.221-.567.137-1.392-.515-2.782-1.034-4.181-1.53-.348-.123-.417-.288-.277-.618q.944-2.221 1.862-4.454a.4.4 0 0 1 .595-.25q2.124.778 4.25 1.56c.155.057.361.094.312.346" transform="translate(-1128.653 -139.558)" style="fill:#ca0000"/>
        <path data-name="Trazado 643" d="M1149.123 160.054c-.124.147-.219.261-.316.374-.755.879-1.523 1.748-2.259 2.643-.256.312-.43.415-.774.1q-1.262-1.14-2.582-2.216c-.343-.28-.344-.466-.034-.769.865-.846 1.706-1.716 2.552-2.58.191-.195.35-.34.625-.093.844.758 1.706 1.5 2.556 2.246a2.055 2.055 0 0 1 .232.292" transform="translate(-1128.653 -139.558)" style="fill:#ca0000"/>
        <path data-name="Trazado 645" d="M1165.8 146.78c-.027.181-.173.242-.3.316-.85.49-1.709.965-2.549 1.472-.323.2-.516.191-.728-.152a57.683 57.683 0 0 0-1.49-2.274c-.2-.3-.176-.475.151-.65.887-.474 1.763-.971 2.643-1.459.212-.117.4-.191.574.08.528.827 1.071 1.645 1.606 2.468a1.507 1.507 0 0 1 .095.2" transform="translate(-1128.653 -139.558)" style="fill:#ca0000"/>
        <path data-name="Trazado 639" d="M1149.08 201.193h-16.58c-.882 0-.958-.084-.8-.951a78.422 78.422 0 0 1 16.43-36.057 61.1 61.1 0 0 1 20.2-16.448 34.039 34.039 0 0 1 11.382-3.545 40.659 40.659 0 0 1 8.076-.078c11.228.971 21.028 5.606 30.224 11.779a83.171 83.171 0 0 1 10.3 8.164c.464.43.448.633-.062.993-1.029.726-1 .747-1.978.05a61.41 61.41 0 0 0-18.327-9.363 32.165 32.165 0 0 0-12.751-1.4c-12.889 1.472-22.148 7.931-26.879 20.272a41.355 41.355 0 0 0-2.458 11.524 62.834 62.834 0 0 0 .042 10.119c.106 1.324.337 2.64.549 3.954.155.958.16.986-.8.987h-16.568" transform="translate(-1128.653 -139.558)" style="fill:#cb0000"/>
        <path data-name="Trazado 641" d="M1173.617 199.7c-1.7-.61-3.321-1.2-4.947-1.776-.306-.11-.3-.379-.337-.621-.217-1.473-.314-2.958-.428-4.442-.038-.5.126-.558.549-.4 1.252.466 2.512.911 3.767 1.368.237.086.449.171.491.493.219 1.676.551 3.331.9 4.983a2.552 2.552 0 0 1 0 .4" transform="translate(-1128.653 -139.558)" style="fill:#ca0000"/>
        <path data-name="Trazado 642" d="M1169.9 176.178c1.013.807 1.976 1.573 2.939 2.336a.477.477 0 0 1 .142.547 33.764 33.764 0 0 0-.8 4.383 1.6 1.6 0 0 1-.143.342c-1.1-.869-2.163-1.712-3.228-2.551a.485.485 0 0 1-.185-.534 36.289 36.289 0 0 1 1.272-4.523" transform="translate(-1128.653 -139.558)" style="fill:#ca0000"/>
        <path data-name="Trazado 644" d="M1177.153 169.836c-.231-.032-.282-.19-.361-.309-.534-.792-1.049-1.6-1.6-2.379a.5.5 0 0 1 .057-.72 33.474 33.474 0 0 1 2.04-2.221c.33-.329.539-.29.733.1.012.023.029.042.042.063.51.778 1.364 1.526 1.434 2.342.071.838-1.081 1.383-1.592 2.142-.234.348-.512.667-.755.979" transform="translate(-1128.653 -139.558)" style="fill:#ca0000"/>
        <path data-name="Trazado 646" d="M1200.206 143.664c.124-1.52.127-1.53 1.58-1.054.739.242 1.464.525 2.192.8a1.627 1.627 0 0 1 .461.248 9.208 9.208 0 0 1-.075 2.813c-.134.142-.273.06-.412.009-1.154-.427-2.305-.86-3.463-1.275a.47.47 0 0 1-.361-.563c.038-.325.053-.651.078-.977" transform="translate(-1128.653 -139.558)" style="fill:#ca0000"/>
        <path data-name="Trazado 647" d="M1190.73 159.712c.037.363-.184.4-.369.467a23.3 23.3 0 0 0-2.93 1.194c-.324.161-.491.109-.6-.246a33.267 33.267 0 0 0-.711-2.146c-.15-.392-.013-.546.333-.667.971-.342 1.94-.691 2.9-1.058.362-.138.549-.073.665.316.223.746.488 1.479.709 2.14" transform="translate(-1128.653 -139.558)" style="fill:#ca0000"/>
        <path data-name="Trazado 648" d="M1204.5 157.76c-.063 1.57-.062 1.559-1.594 1.345a34.1 34.1 0 0 0-2.4-.254c-.36-.025-.49-.144-.448-.5.038-.323.035-.652.048-.978.059-1.4.059-1.4 1.477-1.223.6.076 1.194.16 1.79.248 1.17.173 1.17.175 1.122 1.364" transform="translate(-1128.653 -139.558)" style="fill:#ca0000"/>
        <path data-name="Trazado 649" d="M1182.03 142.282c-.05 0-.1.009-.151.007-.622-.018-1.461.351-1.811-.038a6.178 6.178 0 0 1-.787-2.087c-.115-.328.068-.379.333-.412a30.48 30.48 0 0 1 3.39-.194 1.034 1.034 0 0 1 .367.058 15.334 15.334 0 0 1 .821 2.414c-.057.251-.269.189-.426.193-.579.011-1.157 0-1.736 0z" transform="translate(-1128.653 -139.558)" style="fill:#ca0000"/>
    </g>
</svg>
