<?xml version="1.0" encoding="utf-8"?>
<!-- Generator: Adobe Illustrator 26.1.0, SVG Export Plug-In . SVG Version: 6.00 Build 0)  -->
<svg version="1.1" id="Capa_1" xmlns="http://www.w3.org/2000/svg" xmlns:xlink="http://www.w3.org/1999/xlink" x="0px" y="0px"
	 viewBox="0 0 100 100" style="enable-background:new 0 0 100 100;" xml:space="preserve">
<style type="text/css">
	.st0{fill:#00A1E0;}
</style>
<path class="st0" d="M41.5,22.6c0.9-0.7,1.6-1.4,2.5-2.1c2.4-1.7,5-2.9,7.9-3.2c7.6-0.8,13.4,2.2,17.5,8.5c0.2,0.4,0.4,0.4,0.8,0.3
	c2.8-1.2,5.8-1.8,8.9-1.7C89.2,24.9,97.1,32,99.3,41c0.5,2,0.7,4,0.6,6c-0.4,10.3-7.6,18.5-16.9,20.5c-2.8,0.6-5.6,0.7-8.5,0.2
	c-0.3-0.1-0.5,0-0.7,0.3c-2.6,4.2-6.2,6.7-11,7.5c-3.1,0.5-6.1,0.1-8.9-1.2c-0.1-0.1-0.3-0.1-0.5-0.2c-0.1,0.1-0.2,0.3-0.2,0.4
	c-2.7,5.6-7.1,9-13.1,10.3c-0.1,0-0.3,0-0.4,0c-1.9,0-3.9,0.1-5.8,0c-2.1-0.2-4-1-5.8-2c-3.7-2.1-6.3-5.1-7.9-9.1
	c-0.1-0.3-0.3-0.4-0.6-0.3c-8.8,1.6-17.4-4.1-19.3-12.9C0,59.1,0.1,57.6,0,56.1c-0.1-1.9,0.4-3.8,1.1-5.6c1.4-3.5,3.7-6.2,6.8-8.1
	c0.3-0.2,0.3-0.3,0.2-0.6c-1.1-2.7-1.6-5.5-1.4-8.5C7,28,9.2,23.5,13.2,20c2.6-2.3,5.6-3.9,9-4.5c7.2-1.3,13.4,0.7,18.4,6.1
	C40.9,21.9,41.2,22.3,41.5,22.6z"/>
</svg>
