<svg xmlns="http://www.w3.org/2000/svg" width="62.57" height="100.001" viewBox="0 0 62.57 100.001">
    <g data-name="Grupo 694">
        <path data-name="Trazado 678" d="M984.1 366.246c-.011-7.424 0-14.849-.059-22.273a1.211 1.211 0 0 1 1.2-1.4c3.168-.506 6.334-1.03 9.511-1.471 5.317-.738 10.651-1.362 15.963-2.139 5.926-.867 11.841-1.813 17.7-3.087a63.4 63.4 0 0 0 13.454-4c1.742-.81 3.439-1.681 4.378-3.495.51.334.327.76.328 1.109.012 6.943 0 13.886.012 20.828 0 1.839-1.354 2.741-2.538 3.76a6.154 6.154 0 0 1-.99.577 38.218 38.218 0 0 1-7.964 2.949 194.854 194.854 0 0 1-22.354 4.343c-5.8.848-11.627 1.519-17.425 2.388-3.75.562-7.552.851-11.217 1.917" transform="translate(-984.036 -328.375)" style="fill:#dd3432"/>
        <path data-name="Trazado 681" d="M1046.532 359.08a9.805 9.805 0 0 1-5.278 4.251 97.061 97.061 0 0 1-19.092 4.9c-4.868.859-9.762 1.564-14.645 2.337-2.316-.883-4.792-.866-7.2-1.234-4.846-.739-9.735-1.187-14.546-2.149-.593-.119-1.548.119-1.676-.942 3.666-1.066 7.468-1.355 11.218-1.917 5.8-.869 11.624-1.539 17.424-2.388a194.854 194.854 0 0 0 22.354-4.343 38.1 38.1 0 0 0 7.964-2.949c.32.7 1.033.965 1.6 1.372a4.434 4.434 0 0 1 1.875 3.059" transform="translate(-984.036 -328.375)" style="fill:#7f0c1d"/>
        <path data-name="Trazado 677" d="M1046.532 390.341c.017 7.517.142 15.037-.015 22.551-.047 2.278-2.122 3.4-4 4.29-6.471 3.047-13.459 4.214-20.408 5.53-5.975 1.132-12.005 1.907-18.014 2.811-4.074.613-8.183 1-12.265 1.559-2.546.352-5.073.848-7.7 1.294-.022-.435-.063-.859-.063-1.283 0-6.892.026-13.785-.033-20.676-.009-1.052.37-1.493 1.3-1.625q7.239-1.036 14.48-2.053c2.372-.329 4.751-.607 7.126-.908 4.228-.67 8.462-1.3 12.681-2.02a118.843 118.843 0 0 0 19.792-4.627c2.783-.985 5.52-2.094 7.12-4.843" transform="translate(-984.036 -328.375)" style="fill:#dd3432"/>
        <path data-name="Trazado 679" d="M984.087 397.228c-.007-7.364 0-14.728-.036-22.092-.005-.893.28-1.233 1.172-1.417 3.421-.71 6.891-1.09 10.341-1.591 3.976-.579 7.968-1.043 11.953-1.557 4.883-.773 9.777-1.478 14.645-2.337a97.061 97.061 0 0 0 19.092-4.9 9.8 9.8 0 0 0 5.278-4.251c.017 7.523.065 15.046.021 22.569a4.125 4.125 0 0 1-1.853 3.1c-.523.413-1.091.769-1.639 1.15a72.155 72.155 0 0 1-14.582 4.433c-8.705 1.8-17.5 3.06-26.3 4.258-6.039.822-12.1 1.509-18.092 2.637" transform="translate(-984.036 -328.375)" style="fill:#dd3432"/>
        <path data-name="Trazado 680" d="M984.087 397.228c5.995-1.128 12.053-1.815 18.092-2.637 8.8-1.2 17.595-2.453 26.3-4.258a72.155 72.155 0 0 0 14.582-4.433c.766.639 1.549 1.259 2.292 1.923a3.267 3.267 0 0 1 1.18 2.518c-1.6 2.749-4.338 3.858-7.12 4.843a118.829 118.829 0 0 1-19.793 4.627c-4.218.721-8.453 1.35-12.68 2.02-.5-.88-1.416-.657-2.17-.77-6.443-.96-12.944-1.523-19.34-2.8-.549-.11-1.47.052-1.343-1.029" transform="translate(-984.036 -328.375)" style="fill:#7f0c1d"/>
    </g>
</svg>
