<svg xmlns="http://www.w3.org/2000/svg" width="100" height="100" viewBox="0 0 100 100">
    <g data-name="Grupo 704">
        <path data-name="Trazado 627" d="M722.15 220.118h-54.216a22.959 22.959 0 0 1-22.892-22.892V143.01a22.959 22.959 0 0 1 22.892-22.892h54.216a22.959 22.959 0 0 1 22.892 22.892v54.216a22.959 22.959 0 0 1-22.892 22.892" transform="translate(-645.042 -120.118)" style="fill:#f05138"/>
        <path data-name="Trazado 628" d="M657.521 179.811c.182.123.366.242.545.369a47.329 47.329 0 0 0 19.682 8.373c7.392 1.232 14.543.521 21.251-3.091.292-.158.573-.334.964-.563a151.4 151.4 0 0 1-19.029-17.988c-6.768-7.459-15.776-18.688-16.328-20.5A240.98 240.98 0 0 0 694.378 169a231.724 231.724 0 0 1-20.637-26.311 229.906 229.906 0 0 0 36.732 29.686c.315-.962.62-1.789.856-2.635a31.4 31.4 0 0 0 .866-12.207 44.051 44.051 0 0 0-8.156-20.389 7.005 7.005 0 0 1-.282-.413 2.272 2.272 0 0 1-.109-.311c.285.15.48.235.658.348a50.672 50.672 0 0 1 20.758 24.826 38.227 38.227 0 0 1 2.481 11.116 30.89 30.89 0 0 1-1.044 10.646.936.936 0 0 0 .286.936 27.821 27.821 0 0 1 5.295 11.016 16.859 16.859 0 0 1 .317 7.433 4.258 4.258 0 0 1-.613 1.082 7.525 7.525 0 0 1-.708-.888 10.3 10.3 0 0 0-7.2-5.436 13.622 13.622 0 0 0-7.988 1.15c-1.661.721-3.232 1.65-4.892 2.375a30.965 30.965 0 0 1-10.217 2.448c-9.131.666-17.505-1.77-25.349-6.256a51.5 51.5 0 0 1-17.654-16.644c-.135-.2-.259-.417-.388-.626l.126-.131" transform="translate(-645.042 -120.118)" style="fill:#fff"/>
    </g>
</svg>
