<svg xmlns="http://www.w3.org/2000/svg" width="35.473" height="45.485" viewBox="0 0 35.473 45.485">
    <path data-name="Trazado 684" d="M1160.974 401.213v-17.327c0-1.11 0-1.112-1.077-1.112h-10.746c-1.174 0-1.193 0-1.173-1.213.037-2.188.123-4.375.14-6.563.006-.759.482-.675.951-.676q6.539-.012 13.078-.018 10 0 19.992.012c1.3 0 1.3.015 1.306 1.3v6.081c0 1.077 0 1.08-1.116 1.081-3.638 0-7.275.021-10.912-.016-.767-.007-.99.211-.988.985q.034 17.41.016 34.82c0 1.209 0 1.211-1.236 1.211-2.416 0-4.832-.024-7.247.015-.762.012-1.008-.23-1-1 .026-5.858.014-11.717.014-17.576" transform="translate(-1147.974 -374.303)" style="fill:#fff"/>
</svg>
