<svg xmlns="http://www.w3.org/2000/svg" width="100" height="100" viewBox="0 0 100 100">
    <path data-name="Trazado 682" d="M1126.2 328.375h100v100h-100zm76.4 92.03c1.428-.158 2.873-.225 4.281-.491a14.9 14.9 0 0 0 7.913-3.953c4.278-4.2 4.168-11.9 1.187-16.354a15.2 15.2 0 0 0-5.964-4.939c-2.54-1.3-5.174-2.418-7.725-3.7a14.112 14.112 0 0 1-3.352-2.113 3.84 3.84 0 0 1 .961-6.235 5.936 5.936 0 0 1 6.4 1.214c.5.515.905 1.121 1.361 1.679.264.324.543.542.987.241q3.1-2.1 6.225-4.167a.608.608 0 0 0 .17-.98 14.2 14.2 0 0 0-6.378-5.656 17.131 17.131 0 0 0-10.925-.649c-7.776 2.04-10.682 8.922-8.814 16.093a12.2 12.2 0 0 0 6.317 7.622c2.378 1.3 4.893 2.357 7.32 3.575a31.067 31.067 0 0 1 4.494 2.5 3.912 3.912 0 0 1-.149 6.4c-2.719 1.976-7.693 1.717-10.337-.643a35.012 35.012 0 0 1-2.843-3.133c-.268-.3-.459-.6-.948-.312q-3.327 1.977-6.682 3.907c-.467.27-.562.594-.246 1.012a29.618 29.618 0 0 0 3.1 3.991 19.438 19.438 0 0 0 13.647 5.086m-41.631-19.192c0 5.859.012 11.718-.014 17.576 0 .769.242 1.011 1 1 2.415-.039 4.831-.014 7.247-.015 1.235 0 1.236 0 1.236-1.211q0-17.411-.016-34.82c0-.774.221-.992.988-.985 3.637.037 7.274.018 10.912.016 1.113 0 1.115 0 1.116-1.081v-6.081c0-1.281 0-1.294-1.3-1.3q-10-.012-19.992-.012-6.54 0-13.078.018c-.469 0-.945-.083-.951.676-.017 2.188-.1 4.375-.14 6.563-.021 1.209 0 1.213 1.173 1.213h10.745c1.076 0 1.077 0 1.077 1.112v17.327" transform="translate(-1126.205 -328.375)" style="fill:#007acc"/>
</svg>
