<svg xmlns="http://www.w3.org/2000/svg" width="100" height="87.146" viewBox="0 0 100 87.146">
    <g data-name="Grupo 697">
        <path data-name="Trazado 654" d="M260.834 336.256q-12.123 20.862-24.239 41.728c-6.878 11.9-13.681 23.851-20.527 35.773-1.388 2.418-2.853 4.793-4.214 7.225-.729 1.3-1.231 1.276-1.965-.005q-6.1-10.647-12.267-21.252c-5.958-10.259-11.957-20.495-17.9-30.764q-9.446-16.332-18.816-32.706a2.638 2.638 0 0 1 1.98-.712c5.4-.012 10.808.01 16.211-.024 1.526-.009 2.193.962 2.848 2.1q13.679 23.734 27.382 47.453c1.376 2.383 1.708 2.383 3.083 0q13.7-23.724 27.373-47.459a3.535 3.535 0 0 1 3.4-2.123c5.043.068 10.088.022 15.131.032a3.263 3.263 0 0 1 2.519.735" transform="translate(-160.899 -334.802)" style="fill:#40b682"/>
        <path data-name="Trazado 655" d="M260.834 336.256a3.263 3.263 0 0 0-2.519-.735c-5.043-.01-10.088.036-15.131-.032a3.535 3.535 0 0 0-3.4 2.123q-13.65 23.751-27.373 47.459c-1.375 2.382-1.707 2.382-3.083 0q-13.7-23.724-27.382-47.453c-.655-1.136-1.322-2.107-2.848-2.1-5.4.034-10.807.012-16.211.024a2.638 2.638 0 0 0-1.98.712c-.149-2 1.425-1.056 2.115-1.061 8.73-.064 17.461-.076 26.19.024 3.391.039 7.378-1.275 10.011.579 2.487 1.751 3.642 5.425 5.313 8.294 1.717 2.948 3.341 5.95 5.024 8.918.3.533.5 1.293 1.181 1.381.913.118 1.1-.8 1.435-1.387 3-5.216 6.01-10.428 8.925-15.692a3.609 3.609 0 0 1 3.6-2.161c11.431.065 22.862-.01 34.292.042.6 0 2.253-1 1.841 1.064" transform="translate(-160.899 -334.802)" style="fill:#35495e"/>
    </g>
</svg>
